M48
;GenerationSoftware,Autodesk,EAGLE,9.7.0*%
;CreationDate,2023-03-18T10:02:20Z*%
FMAT,2
ICI,OFF
METRIC,TZ,000.000
T3C0.350
T2C1.016
T1C2.750
%
G90
M71
T1
X4250Y4250
X62250Y4250
X62250Y53250
X4250Y53250
T2
X57380Y54520
X54840Y54520
X52300Y54520
X49760Y54520
X47220Y54520
X44680Y54520
X57380Y51980
X54840Y51980
X52300Y51980
X49760Y51980
X47220Y51980
X44680Y51980
X42140Y54520
X42140Y51980
X39600Y54520
X37060Y54520
X34520Y54520
X31980Y54520
X29440Y54520
X26900Y54520
X39600Y51980
X37060Y51980
X34520Y51980
X31980Y51980
X29440Y51980
X26900Y51980
X24360Y54520
X24360Y51980
X21820Y54520
X19280Y54520
X16740Y54520
X14200Y54520
X11660Y54520
X9120Y54520
X21820Y51980
X19280Y51980
X16740Y51980
X14200Y51980
X11660Y51980
X9120Y51980
X60940Y45857
X63480Y45857
X60940Y48397
X63480Y48397
X42896Y24640
X42896Y22100
X42896Y19560
X42896Y17020
X42896Y14480
X42896Y11940
X42896Y9400
X42896Y6860
X30196Y6860
X30196Y9400
X30196Y11940
X30196Y14480
X30196Y17020
X30196Y19560
X30196Y22100
X30196Y24640
X55600Y47884
X55600Y45344
X55600Y42804
X55600Y40264
X55600Y37724
X55600Y35184
X55600Y32644
X55600Y30104
X42900Y30104
X42900Y32644
X42900Y35184
X42900Y37724
X42900Y40264
X42900Y42804
X42900Y45344
X42900Y47884
X26650Y30110
X26650Y32650
X26650Y35190
X26650Y37730
X26650Y40270
X26650Y42810
X26650Y45350
X26650Y47890
X39350Y47890
X39350Y45350
X39350Y42810
X39350Y40270
X39350Y37730
X39350Y35190
X39350Y32650
X39350Y30110
X10400Y30110
X10400Y32650
X10400Y35190
X10400Y37730
X10400Y40270
X10400Y42810
X10400Y45350
X10400Y47890
X23100Y47890
X23100Y45350
X23100Y42810
X23100Y40270
X23100Y37730
X23100Y35190
X23100Y32650
X23100Y30110
T3
X42750Y27250
X40250Y31500
X49750Y30286
X51000Y31500
X54740Y23010
X56169Y36465
X9025Y18250
X28500Y5200
X10484Y21892
X11250Y14530
X8250Y14530
X6002Y13250
X19000Y5911
X18750Y5911
X64750Y35000
X62750Y43750
X43250Y52750
X35000Y18500
X41000Y11500
X17000Y19250
X19750Y14750
X63000Y14000
X20750Y27000
X22500Y27750
X25500Y28500
X26750Y22750
X26000Y26750
X28750Y27250
X23000Y19250
X38525Y52775
X26046Y52954
X28191Y52559
X31250Y18000
X28500Y9000
X31750Y10500
X25500Y6500
X23750Y27750
X26500Y24750
X24750Y20750
X20250Y24000
X10143Y19500
X12930Y55078
X10305Y53445
X41014Y25486
X51750Y32750
X42338Y23370
X42338Y20830
X42338Y18290
X42338Y15750
X42338Y13210
X42126Y31590
X44250Y33500
X41000Y29000
X40500Y41500
X36000Y36500
X50250Y37250
X54750Y46500
X64000Y42750
X64750Y32296
X64750Y29964
X64750Y27250
X64750Y24884
X64750Y22250
X64750Y18250
X61500Y9750
X61500Y14000
X57500Y25500
X55250Y28000
X42342Y36454
X55042Y33914
X58000Y40000
X40500Y50208
X40870Y51422
X49500Y41500
X36500Y50000
X36000Y53000
X15841Y52909
X23090Y55078
X30710Y55078
X33250Y55078
X31500Y50250
X30750Y38750
X17750Y50500
X23250Y53250
X18250Y53500
X26000Y13000
X35000Y14250
X38250Y18000
X37250Y10250
X36000Y6250
X9842Y39000
X20500Y16750
X16500Y17000
X3250Y9530
X17250Y30500
X13000Y38000
X6500Y42470
X5000Y47250
X1750Y50250
X7250Y55750
X20778Y19980
X16580Y24178
X24352Y22502
X23590Y21892
X32582Y34998
X33192Y33474
X41641Y23958
X11703Y38046
X61690Y38656
X10179Y20673
X12618Y23111
X39897Y27074
X53613Y41399
X21232Y19149
X4693Y45666
X53613Y42314
X31972Y19911
X53613Y39570
X29077Y10614
X53613Y33170
X27096Y10005
X42488Y28750
X27858Y16101
X22981Y16558
X18866Y16558
X10239Y18234
X9417Y28750
X10941Y28140
X18000Y14530
M30