G04 EAGLE Gerber RS-274X export*
G75*
%MOMM*%
%FSLAX34Y34*%
%LPD*%
%INTop Copper*%
%IPPOS*%
%AMOC8*
5,1,8,0,0,1.08239X$1,22.5*%
G01*
G04 Define Apertures*
%ADD10R,1.100000X1.000000*%
%ADD11C,1.524000*%
%ADD12R,0.500000X0.250000*%
%ADD13R,0.900000X1.600000*%
%ADD14R,1.270000X1.270000*%
%ADD15C,6.200000*%
%ADD16R,1.524000X1.524000*%
%ADD17R,0.559000X1.194000*%
%ADD18C,0.152400*%
%ADD19C,0.756400*%
G36*
X73315Y545748D02*
X73030Y545643D01*
X72727Y545656D01*
X72454Y545787D01*
X72253Y546014D01*
X68526Y552470D01*
X62470Y558526D01*
X55316Y562656D01*
X55185Y562752D01*
X55005Y562997D01*
X54936Y563292D01*
X54986Y563591D01*
X55150Y563846D01*
X55400Y564018D01*
X55697Y564078D01*
X609303Y564078D01*
X609465Y564061D01*
X609742Y563939D01*
X609950Y563718D01*
X610056Y563434D01*
X610042Y563131D01*
X609911Y562857D01*
X609684Y562656D01*
X602530Y558526D01*
X601327Y557323D01*
X601097Y557165D01*
X600801Y557100D01*
X600503Y557156D01*
X600250Y557323D01*
X595391Y562182D01*
X89777Y562182D01*
X73452Y545857D01*
X73315Y545748D01*
G37*
G36*
X386402Y518876D02*
X386106Y518811D01*
X385808Y518866D01*
X385555Y519034D01*
X383193Y521396D01*
X383030Y521637D01*
X382970Y521935D01*
X382970Y524672D01*
X372636Y535006D01*
X372481Y535231D01*
X372413Y535526D01*
X372467Y535825D01*
X372632Y536079D01*
X372884Y536249D01*
X375780Y537448D01*
X378352Y540020D01*
X379744Y543381D01*
X379744Y547019D01*
X378352Y550380D01*
X375780Y552952D01*
X372419Y554344D01*
X368781Y554344D01*
X365420Y552952D01*
X362848Y550380D01*
X361456Y547019D01*
X361456Y544973D01*
X361409Y544709D01*
X361250Y544451D01*
X361002Y544276D01*
X360706Y544211D01*
X360408Y544266D01*
X360155Y544434D01*
X358809Y545780D01*
X358646Y546021D01*
X358586Y546319D01*
X358586Y550575D01*
X352852Y556309D01*
X352699Y556529D01*
X352629Y556824D01*
X352680Y557123D01*
X352843Y557378D01*
X353093Y557550D01*
X353390Y557610D01*
X453698Y557610D01*
X453961Y557563D01*
X454219Y557404D01*
X454394Y557157D01*
X454460Y556860D01*
X454404Y556562D01*
X454236Y556309D01*
X451561Y553634D01*
X451325Y553474D01*
X451029Y553411D01*
X450731Y553469D01*
X448619Y554344D01*
X444981Y554344D01*
X441620Y552952D01*
X439048Y550380D01*
X437656Y547019D01*
X437656Y543381D01*
X438531Y541269D01*
X438589Y540990D01*
X438533Y540691D01*
X438366Y540439D01*
X434824Y536897D01*
X434583Y536734D01*
X434285Y536674D01*
X427645Y536674D01*
X427382Y536721D01*
X427124Y536880D01*
X426948Y537128D01*
X426883Y537424D01*
X426939Y537722D01*
X427106Y537975D01*
X429152Y540020D01*
X430544Y543381D01*
X430544Y547019D01*
X429152Y550380D01*
X426580Y552952D01*
X423219Y554344D01*
X419581Y554344D01*
X416220Y552952D01*
X413648Y550380D01*
X412256Y547019D01*
X412256Y543381D01*
X413648Y540020D01*
X416220Y537448D01*
X419013Y536292D01*
X419242Y536143D01*
X419418Y535896D01*
X419483Y535600D01*
X419427Y535302D01*
X419260Y535049D01*
X407392Y523181D01*
X407151Y523018D01*
X406853Y522958D01*
X405098Y522958D01*
X404818Y523011D01*
X404564Y523177D01*
X404394Y523428D01*
X403752Y524980D01*
X401180Y527552D01*
X397819Y528944D01*
X394181Y528944D01*
X390820Y527552D01*
X388248Y524980D01*
X386856Y521619D01*
X386856Y519573D01*
X386809Y519309D01*
X386650Y519051D01*
X386402Y518876D01*
G37*
%LPC*%
G36*
X394181Y536056D02*
X397819Y536056D01*
X401180Y537448D01*
X403752Y540020D01*
X405144Y543381D01*
X405144Y547019D01*
X403752Y550380D01*
X401180Y552952D01*
X397819Y554344D01*
X394181Y554344D01*
X390820Y552952D01*
X388248Y550380D01*
X386856Y547019D01*
X386856Y543381D01*
X388248Y540020D01*
X390820Y537448D01*
X394181Y536056D01*
G37*
%LPD*%
G36*
X158498Y522752D02*
X158202Y522687D01*
X157903Y522743D01*
X157651Y522910D01*
X148459Y532102D01*
X133247Y532102D01*
X132961Y532158D01*
X132708Y532325D01*
X124905Y540127D01*
X124745Y540364D01*
X124682Y540660D01*
X124740Y540958D01*
X125744Y543381D01*
X125744Y547019D01*
X124352Y550380D01*
X121780Y552952D01*
X118419Y554344D01*
X114781Y554344D01*
X111420Y552952D01*
X108848Y550380D01*
X107785Y547812D01*
X107628Y547574D01*
X107378Y547402D01*
X107081Y547342D01*
X100719Y547342D01*
X100439Y547395D01*
X100185Y547561D01*
X100015Y547812D01*
X98952Y550380D01*
X96380Y552952D01*
X93019Y554344D01*
X90245Y554344D01*
X89981Y554391D01*
X89723Y554550D01*
X89548Y554798D01*
X89483Y555094D01*
X89538Y555392D01*
X89706Y555645D01*
X91448Y557387D01*
X91690Y557550D01*
X91987Y557610D01*
X224076Y557610D01*
X224339Y557563D01*
X224597Y557404D01*
X224773Y557157D01*
X224838Y556860D01*
X224782Y556562D01*
X224615Y556309D01*
X222239Y553934D01*
X222003Y553773D01*
X221706Y553710D01*
X221409Y553768D01*
X220019Y554344D01*
X216381Y554344D01*
X213020Y552952D01*
X210448Y550380D01*
X209056Y547019D01*
X209056Y543381D01*
X210448Y540020D01*
X213020Y537448D01*
X216381Y536056D01*
X219685Y536056D01*
X219948Y536009D01*
X220206Y535850D01*
X220382Y535602D01*
X220447Y535306D01*
X220391Y535008D01*
X220224Y534755D01*
X217794Y532325D01*
X217552Y532162D01*
X217255Y532102D01*
X201429Y532102D01*
X197561Y528234D01*
X197325Y528074D01*
X197029Y528011D01*
X196731Y528069D01*
X194619Y528944D01*
X190981Y528944D01*
X187620Y527552D01*
X185048Y524980D01*
X184406Y523428D01*
X184249Y523190D01*
X183999Y523018D01*
X183702Y522958D01*
X182303Y522958D01*
X182017Y523014D01*
X181764Y523181D01*
X169792Y535153D01*
X169636Y535378D01*
X169569Y535674D01*
X169622Y535972D01*
X169788Y536226D01*
X170039Y536396D01*
X172580Y537448D01*
X175152Y540020D01*
X176544Y543381D01*
X176544Y547019D01*
X175152Y550380D01*
X172580Y552952D01*
X169219Y554344D01*
X165581Y554344D01*
X162220Y552952D01*
X159648Y550380D01*
X158256Y547019D01*
X158256Y543381D01*
X159648Y540020D01*
X160923Y538745D01*
X161076Y538526D01*
X161146Y538230D01*
X161095Y537931D01*
X160932Y537676D01*
X160682Y537504D01*
X160385Y537444D01*
X154100Y537444D01*
X153814Y537500D01*
X153562Y537667D01*
X150539Y540690D01*
X150378Y540926D01*
X150315Y541223D01*
X150373Y541521D01*
X151144Y543381D01*
X151144Y547019D01*
X149752Y550380D01*
X147180Y552952D01*
X143819Y554344D01*
X140181Y554344D01*
X136820Y552952D01*
X134248Y550380D01*
X132856Y547019D01*
X132856Y543381D01*
X134248Y540020D01*
X136820Y537448D01*
X140181Y536056D01*
X143819Y536056D01*
X146805Y537293D01*
X147084Y537351D01*
X147383Y537295D01*
X147635Y537128D01*
X151891Y532872D01*
X165291Y532872D01*
X165577Y532816D01*
X165830Y532649D01*
X168234Y530245D01*
X168387Y530025D01*
X168457Y529730D01*
X168406Y529431D01*
X168243Y529176D01*
X167993Y529004D01*
X167695Y528944D01*
X165581Y528944D01*
X162220Y527552D01*
X159648Y524980D01*
X158893Y523158D01*
X158745Y522928D01*
X158498Y522752D01*
G37*
%LPC*%
G36*
X190981Y536056D02*
X194619Y536056D01*
X197980Y537448D01*
X200552Y540020D01*
X201944Y543381D01*
X201944Y547019D01*
X200552Y550380D01*
X197980Y552952D01*
X194619Y554344D01*
X190981Y554344D01*
X187620Y552952D01*
X185048Y550380D01*
X183656Y547019D01*
X183656Y543381D01*
X185048Y540020D01*
X187620Y537448D01*
X190981Y536056D01*
G37*
%LPD*%
G36*
X635489Y155734D02*
X635192Y155674D01*
X606209Y155674D01*
X605923Y155730D01*
X605670Y155897D01*
X554642Y206925D01*
X554489Y207145D01*
X554419Y207440D01*
X554470Y207739D01*
X554633Y207994D01*
X554884Y208166D01*
X555181Y208226D01*
X558415Y208226D01*
X562414Y212225D01*
X562655Y212388D01*
X562953Y212448D01*
X568883Y212448D01*
X569776Y213341D01*
X569776Y226543D01*
X569121Y227198D01*
X568958Y227440D01*
X568898Y227737D01*
X568898Y259233D01*
X568954Y259519D01*
X569121Y259772D01*
X573094Y263745D01*
X573094Y368157D01*
X573150Y368443D01*
X573317Y368696D01*
X623762Y419141D01*
X623762Y431895D01*
X623809Y432158D01*
X623968Y432416D01*
X624216Y432591D01*
X624512Y432656D01*
X624810Y432601D01*
X625063Y432433D01*
X625302Y432194D01*
X629698Y432194D01*
X632806Y435302D01*
X632806Y439698D01*
X629698Y442806D01*
X625302Y442806D01*
X622505Y440009D01*
X622264Y439846D01*
X621967Y439786D01*
X603763Y439786D01*
X603477Y439842D01*
X603224Y440009D01*
X568415Y474818D01*
X568252Y475059D01*
X568192Y475357D01*
X568192Y483892D01*
X542298Y509786D01*
X526549Y509786D01*
X526292Y509831D01*
X526032Y509988D01*
X525855Y510234D01*
X525788Y510530D01*
X525841Y510828D01*
X526006Y511083D01*
X526258Y511252D01*
X528180Y512048D01*
X530752Y514620D01*
X532144Y517981D01*
X532144Y521619D01*
X530752Y524980D01*
X528180Y527552D01*
X524819Y528944D01*
X521181Y528944D01*
X517820Y527552D01*
X515248Y524980D01*
X513856Y521619D01*
X513856Y517981D01*
X515248Y514620D01*
X517820Y512048D01*
X519742Y511252D01*
X519963Y511112D01*
X520142Y510867D01*
X520212Y510572D01*
X520161Y510273D01*
X519998Y510018D01*
X519748Y509846D01*
X519451Y509786D01*
X501149Y509786D01*
X500892Y509831D01*
X500632Y509988D01*
X500455Y510234D01*
X500388Y510530D01*
X500441Y510828D01*
X500606Y511083D01*
X500858Y511252D01*
X502780Y512048D01*
X505352Y514620D01*
X506744Y517981D01*
X506744Y521619D01*
X505352Y524980D01*
X502780Y527552D01*
X499419Y528944D01*
X495781Y528944D01*
X492420Y527552D01*
X489848Y524980D01*
X488456Y521619D01*
X488456Y517981D01*
X489848Y514620D01*
X492420Y512048D01*
X494342Y511252D01*
X494563Y511112D01*
X494742Y510867D01*
X494812Y510572D01*
X494761Y510273D01*
X494598Y510018D01*
X494348Y509846D01*
X494051Y509786D01*
X475749Y509786D01*
X475492Y509831D01*
X475232Y509988D01*
X475055Y510234D01*
X474988Y510530D01*
X475041Y510828D01*
X475206Y511083D01*
X475458Y511252D01*
X477380Y512048D01*
X479952Y514620D01*
X481344Y517981D01*
X481344Y521619D01*
X479952Y524980D01*
X477380Y527552D01*
X474019Y528944D01*
X470381Y528944D01*
X467020Y527552D01*
X464448Y524980D01*
X463056Y521619D01*
X463056Y517981D01*
X464448Y514620D01*
X467020Y512048D01*
X468942Y511252D01*
X469163Y511112D01*
X469342Y510867D01*
X469412Y510572D01*
X469361Y510273D01*
X469198Y510018D01*
X468948Y509846D01*
X468651Y509786D01*
X450349Y509786D01*
X450092Y509831D01*
X449832Y509988D01*
X449655Y510234D01*
X449588Y510530D01*
X449641Y510828D01*
X449806Y511083D01*
X450058Y511252D01*
X451980Y512048D01*
X454552Y514620D01*
X455944Y517981D01*
X455944Y521619D01*
X454552Y524980D01*
X451980Y527552D01*
X448619Y528944D01*
X444981Y528944D01*
X441620Y527552D01*
X439107Y525038D01*
X438887Y524885D01*
X438605Y524819D01*
X438684Y524706D01*
X438746Y524409D01*
X438688Y524111D01*
X437656Y521619D01*
X437656Y517981D01*
X439048Y514620D01*
X441620Y512048D01*
X443542Y511252D01*
X443763Y511112D01*
X443942Y510867D01*
X444012Y510572D01*
X443961Y510273D01*
X443798Y510018D01*
X443548Y509846D01*
X443251Y509786D01*
X438763Y509786D01*
X438477Y509842D01*
X438224Y510009D01*
X435009Y513224D01*
X434846Y513465D01*
X434786Y513763D01*
X434786Y521967D01*
X434842Y522253D01*
X435009Y522505D01*
X437446Y524942D01*
X437660Y525092D01*
X437947Y525163D01*
X437866Y525280D01*
X437806Y525577D01*
X437806Y529698D01*
X436487Y531017D01*
X436329Y531247D01*
X436264Y531543D01*
X436320Y531841D01*
X436487Y532094D01*
X441416Y537023D01*
X441652Y537184D01*
X441949Y537247D01*
X442247Y537189D01*
X444981Y536056D01*
X448619Y536056D01*
X451980Y537448D01*
X454552Y540020D01*
X455944Y543381D01*
X455944Y547019D01*
X454811Y549753D01*
X454753Y550033D01*
X454809Y550331D01*
X454977Y550584D01*
X457608Y553215D01*
X457849Y553378D01*
X458147Y553438D01*
X465667Y553438D01*
X465930Y553391D01*
X466188Y553232D01*
X466364Y552984D01*
X466429Y552688D01*
X466373Y552390D01*
X466206Y552137D01*
X464448Y550380D01*
X463056Y547019D01*
X463056Y543381D01*
X464448Y540020D01*
X467020Y537448D01*
X470381Y536056D01*
X474019Y536056D01*
X477380Y537448D01*
X479952Y540020D01*
X481344Y543381D01*
X481344Y546003D01*
X481391Y546267D01*
X481550Y546525D01*
X481798Y546700D01*
X482094Y546765D01*
X482392Y546710D01*
X482645Y546542D01*
X484893Y544294D01*
X487694Y544294D01*
X487969Y544243D01*
X488224Y544079D01*
X488396Y543829D01*
X488456Y543532D01*
X488456Y543381D01*
X489848Y540020D01*
X492420Y537448D01*
X495781Y536056D01*
X499419Y536056D01*
X502046Y537144D01*
X502325Y537202D01*
X502623Y537146D01*
X502876Y536979D01*
X507753Y532102D01*
X547061Y532102D01*
X547347Y532046D01*
X547600Y531879D01*
X549234Y530245D01*
X549387Y530025D01*
X549457Y529730D01*
X549406Y529431D01*
X549243Y529176D01*
X548993Y529004D01*
X548695Y528944D01*
X546581Y528944D01*
X543220Y527552D01*
X540648Y524980D01*
X539256Y521619D01*
X539256Y517981D01*
X540648Y514620D01*
X543220Y512048D01*
X546581Y510656D01*
X550219Y510656D01*
X553580Y512048D01*
X556152Y514620D01*
X557544Y517981D01*
X557544Y520095D01*
X557591Y520359D01*
X557750Y520617D01*
X557998Y520792D01*
X558294Y520857D01*
X558592Y520802D01*
X558845Y520634D01*
X561093Y518386D01*
X563979Y518386D01*
X564260Y518333D01*
X564514Y518167D01*
X564683Y517916D01*
X566048Y514620D01*
X568620Y512048D01*
X571981Y510656D01*
X575619Y510656D01*
X578980Y512048D01*
X581552Y514620D01*
X582944Y517981D01*
X582944Y521619D01*
X581552Y524980D01*
X578980Y527552D01*
X575619Y528944D01*
X571981Y528944D01*
X568620Y527552D01*
X566048Y524980D01*
X565406Y523428D01*
X565249Y523190D01*
X564999Y523018D01*
X564702Y522958D01*
X563303Y522958D01*
X563017Y523014D01*
X562764Y523181D01*
X550792Y535153D01*
X550636Y535378D01*
X550569Y535674D01*
X550622Y535972D01*
X550788Y536226D01*
X551039Y536396D01*
X553580Y537448D01*
X556152Y540020D01*
X557544Y543381D01*
X557544Y547019D01*
X556152Y550380D01*
X553580Y552952D01*
X550219Y554344D01*
X546581Y554344D01*
X543220Y552952D01*
X540648Y550380D01*
X539256Y547019D01*
X539256Y543381D01*
X540648Y540020D01*
X542694Y537975D01*
X542847Y537755D01*
X542916Y537460D01*
X542866Y537161D01*
X542702Y536906D01*
X542452Y536734D01*
X542155Y536674D01*
X529245Y536674D01*
X528982Y536721D01*
X528724Y536880D01*
X528548Y537128D01*
X528483Y537424D01*
X528539Y537722D01*
X528706Y537975D01*
X530752Y540020D01*
X532144Y543381D01*
X532144Y547019D01*
X530752Y550380D01*
X528180Y552952D01*
X524819Y554344D01*
X521181Y554344D01*
X517820Y552952D01*
X515248Y550380D01*
X513856Y547019D01*
X513856Y543381D01*
X515248Y540020D01*
X517294Y537975D01*
X517447Y537755D01*
X517516Y537460D01*
X517466Y537161D01*
X517302Y536906D01*
X517052Y536734D01*
X516755Y536674D01*
X509963Y536674D01*
X509677Y536730D01*
X509424Y536897D01*
X505990Y540331D01*
X505829Y540567D01*
X505767Y540864D01*
X505825Y541162D01*
X506744Y543381D01*
X506744Y547019D01*
X505352Y550380D01*
X502780Y552952D01*
X499419Y554344D01*
X495781Y554344D01*
X492420Y552952D01*
X489848Y550380D01*
X489416Y549336D01*
X489259Y549098D01*
X489009Y548926D01*
X488712Y548866D01*
X487103Y548866D01*
X486817Y548922D01*
X486564Y549089D01*
X479344Y556309D01*
X479191Y556529D01*
X479121Y556824D01*
X479172Y557123D01*
X479335Y557378D01*
X479585Y557550D01*
X479882Y557610D01*
X593181Y557610D01*
X593467Y557555D01*
X593720Y557387D01*
X597017Y554090D01*
X597175Y553860D01*
X597240Y553564D01*
X597184Y553266D01*
X597017Y553013D01*
X596474Y552470D01*
X592192Y545054D01*
X589976Y536782D01*
X589976Y528218D01*
X592192Y519946D01*
X596474Y512530D01*
X602530Y506474D01*
X609946Y502192D01*
X618218Y499976D01*
X626782Y499976D01*
X635054Y502192D01*
X642470Y506474D01*
X648526Y512530D01*
X652656Y519684D01*
X652752Y519815D01*
X652997Y519995D01*
X653292Y520065D01*
X653591Y520014D01*
X653846Y519850D01*
X654018Y519600D01*
X654078Y519303D01*
X654078Y396136D01*
X654027Y395861D01*
X653863Y395606D01*
X653613Y395434D01*
X653316Y395374D01*
X640747Y395374D01*
X639854Y394481D01*
X639854Y389608D01*
X639803Y389333D01*
X639639Y389078D01*
X639389Y388906D01*
X639092Y388846D01*
X622437Y388846D01*
X622151Y388902D01*
X621899Y389069D01*
X619102Y391866D01*
X614706Y391866D01*
X611598Y388758D01*
X611598Y384362D01*
X614706Y381254D01*
X619102Y381254D01*
X621899Y384051D01*
X622140Y384214D01*
X622437Y384274D01*
X639092Y384274D01*
X639367Y384223D01*
X639622Y384059D01*
X639794Y383809D01*
X639854Y383512D01*
X639854Y380519D01*
X640747Y379626D01*
X653316Y379626D01*
X653591Y379575D01*
X653846Y379411D01*
X654018Y379161D01*
X654078Y378864D01*
X654078Y370736D01*
X654027Y370461D01*
X653863Y370206D01*
X653613Y370034D01*
X653316Y369974D01*
X640747Y369974D01*
X639854Y369081D01*
X639854Y357775D01*
X639798Y357489D01*
X639631Y357236D01*
X635954Y353559D01*
X635954Y156436D01*
X635903Y156161D01*
X635739Y155906D01*
X635489Y155734D01*
G37*
%LPC*%
G36*
X571981Y536056D02*
X575619Y536056D01*
X578980Y537448D01*
X581552Y540020D01*
X582944Y543381D01*
X582944Y547019D01*
X581552Y550380D01*
X578980Y552952D01*
X575619Y554344D01*
X571981Y554344D01*
X568620Y552952D01*
X566048Y550380D01*
X564656Y547019D01*
X564656Y543381D01*
X566048Y540020D01*
X568620Y537448D01*
X571981Y536056D01*
G37*
G36*
X607581Y474826D02*
X611219Y474826D01*
X614580Y476218D01*
X617152Y478790D01*
X618544Y482151D01*
X618544Y485789D01*
X617152Y489150D01*
X614580Y491722D01*
X611219Y493114D01*
X607581Y493114D01*
X604220Y491722D01*
X601648Y489150D01*
X600256Y485789D01*
X600256Y482151D01*
X601648Y478790D01*
X604220Y476218D01*
X607581Y474826D01*
G37*
G36*
X632981Y474826D02*
X636619Y474826D01*
X639980Y476218D01*
X642552Y478790D01*
X643944Y482151D01*
X643944Y485789D01*
X642552Y489150D01*
X639980Y491722D01*
X636619Y493114D01*
X632981Y493114D01*
X629620Y491722D01*
X627048Y489150D01*
X625656Y485789D01*
X625656Y482151D01*
X627048Y478790D01*
X629620Y476218D01*
X632981Y474826D01*
G37*
G36*
X607581Y449426D02*
X611219Y449426D01*
X614580Y450818D01*
X617152Y453390D01*
X618544Y456751D01*
X618544Y460389D01*
X617152Y463750D01*
X614580Y466322D01*
X611219Y467714D01*
X607581Y467714D01*
X604220Y466322D01*
X601648Y463750D01*
X600256Y460389D01*
X600256Y456751D01*
X601648Y453390D01*
X604220Y450818D01*
X607581Y449426D01*
G37*
G36*
X632981Y449426D02*
X636619Y449426D01*
X639980Y450818D01*
X642552Y453390D01*
X643944Y456751D01*
X643944Y460389D01*
X642552Y463750D01*
X639980Y466322D01*
X636619Y467714D01*
X632981Y467714D01*
X629620Y466322D01*
X627048Y463750D01*
X625656Y460389D01*
X625656Y456751D01*
X627048Y453390D01*
X629620Y450818D01*
X632981Y449426D01*
G37*
%LPD*%
G36*
X336000Y522034D02*
X335704Y521969D01*
X335406Y522024D01*
X335153Y522192D01*
X325243Y532102D01*
X311047Y532102D01*
X310761Y532158D01*
X310508Y532325D01*
X302705Y540127D01*
X302545Y540364D01*
X302482Y540660D01*
X302540Y540958D01*
X303544Y543381D01*
X303544Y547019D01*
X302152Y550380D01*
X299580Y552952D01*
X299231Y553096D01*
X299011Y553236D01*
X298831Y553481D01*
X298761Y553776D01*
X298812Y554075D01*
X298976Y554330D01*
X299226Y554502D01*
X299523Y554562D01*
X314677Y554562D01*
X314935Y554517D01*
X315194Y554360D01*
X315371Y554114D01*
X315439Y553818D01*
X315386Y553520D01*
X315220Y553266D01*
X314969Y553096D01*
X314620Y552952D01*
X312048Y550380D01*
X310656Y547019D01*
X310656Y543381D01*
X312048Y540020D01*
X314620Y537448D01*
X317981Y536056D01*
X321619Y536056D01*
X324980Y537448D01*
X327552Y540020D01*
X328944Y543381D01*
X328944Y547019D01*
X327552Y550380D01*
X324980Y552952D01*
X324631Y553096D01*
X324411Y553236D01*
X324231Y553481D01*
X324161Y553776D01*
X324212Y554075D01*
X324376Y554330D01*
X324626Y554502D01*
X324923Y554562D01*
X340077Y554562D01*
X340335Y554517D01*
X340594Y554360D01*
X340771Y554114D01*
X340839Y553818D01*
X340786Y553520D01*
X340620Y553266D01*
X340369Y553096D01*
X340020Y552952D01*
X337448Y550380D01*
X336056Y547019D01*
X336056Y543381D01*
X337448Y540020D01*
X340020Y537448D01*
X342876Y536265D01*
X343114Y536109D01*
X343286Y535859D01*
X343346Y535561D01*
X343346Y533441D01*
X346542Y530245D01*
X346695Y530025D01*
X346765Y529730D01*
X346714Y529431D01*
X346551Y529176D01*
X346301Y529004D01*
X346003Y528944D01*
X343381Y528944D01*
X340020Y527552D01*
X337448Y524980D01*
X336396Y522439D01*
X336248Y522209D01*
X336000Y522034D01*
G37*
G36*
X240790Y481214D02*
X240494Y481147D01*
X240196Y481200D01*
X239942Y481365D01*
X239772Y481617D01*
X238752Y484080D01*
X236180Y486652D01*
X232819Y488044D01*
X229181Y488044D01*
X226356Y486874D01*
X226077Y486816D01*
X225779Y486872D01*
X225526Y487039D01*
X221649Y490916D01*
X221486Y491157D01*
X221426Y491455D01*
X221426Y510730D01*
X221479Y511010D01*
X221645Y511264D01*
X221896Y511434D01*
X223380Y512048D01*
X225952Y514620D01*
X227344Y517981D01*
X227344Y521619D01*
X225952Y524980D01*
X223380Y527552D01*
X221680Y528256D01*
X221450Y528404D01*
X221275Y528652D01*
X221210Y528948D01*
X221265Y529246D01*
X221433Y529499D01*
X233901Y541967D01*
X234126Y542123D01*
X234422Y542190D01*
X234720Y542137D01*
X234975Y541971D01*
X235144Y541720D01*
X235848Y540020D01*
X238420Y537448D01*
X241781Y536056D01*
X245419Y536056D01*
X248780Y537448D01*
X251352Y540020D01*
X252744Y543381D01*
X252744Y547019D01*
X251352Y550380D01*
X248780Y552952D01*
X248431Y553096D01*
X248211Y553236D01*
X248031Y553481D01*
X247961Y553776D01*
X248012Y554075D01*
X248176Y554330D01*
X248426Y554502D01*
X248723Y554562D01*
X263877Y554562D01*
X264135Y554517D01*
X264394Y554360D01*
X264571Y554114D01*
X264639Y553818D01*
X264586Y553520D01*
X264420Y553266D01*
X264169Y553096D01*
X263820Y552952D01*
X261248Y550380D01*
X259856Y547019D01*
X259856Y543381D01*
X260582Y541628D01*
X260640Y541349D01*
X260584Y541051D01*
X260417Y540798D01*
X257736Y538117D01*
X257495Y537954D01*
X257198Y537894D01*
X256999Y537894D01*
X252106Y533001D01*
X252106Y526065D01*
X252059Y525802D01*
X251900Y525544D01*
X251652Y525369D01*
X251356Y525303D01*
X251058Y525359D01*
X250805Y525527D01*
X248780Y527552D01*
X245419Y528944D01*
X241781Y528944D01*
X238420Y527552D01*
X235848Y524980D01*
X234456Y521619D01*
X234456Y517981D01*
X235848Y514620D01*
X238420Y512048D01*
X240768Y511076D01*
X241006Y510919D01*
X241178Y510669D01*
X241238Y510372D01*
X241238Y481909D01*
X241193Y481651D01*
X241036Y481392D01*
X240790Y481214D01*
G37*
G36*
X228425Y543023D02*
X228130Y542954D01*
X227831Y543004D01*
X227576Y543168D01*
X227404Y543418D01*
X227344Y543715D01*
X227344Y547019D01*
X225912Y550476D01*
X225854Y550755D01*
X225910Y551053D01*
X226077Y551306D01*
X229110Y554339D01*
X229352Y554502D01*
X229649Y554562D01*
X238477Y554562D01*
X238735Y554517D01*
X238994Y554360D01*
X239171Y554114D01*
X239239Y553818D01*
X239186Y553520D01*
X239020Y553266D01*
X238769Y553096D01*
X238420Y552952D01*
X235848Y550380D01*
X234642Y547469D01*
X234486Y547230D01*
X234236Y547059D01*
X233938Y546998D01*
X232467Y546998D01*
X228645Y543176D01*
X228425Y543023D01*
G37*
G36*
X384596Y481870D02*
X384299Y481810D01*
X310319Y481810D01*
X310033Y481866D01*
X309780Y482033D01*
X277241Y514572D01*
X277081Y514808D01*
X277018Y515105D01*
X277076Y515402D01*
X278144Y517981D01*
X278144Y521619D01*
X276752Y524980D01*
X274180Y527552D01*
X270819Y528944D01*
X267181Y528944D01*
X263820Y527552D01*
X261248Y524980D01*
X259856Y521619D01*
X259856Y518557D01*
X259809Y518293D01*
X259650Y518035D01*
X259402Y517860D01*
X259106Y517795D01*
X258808Y517850D01*
X258555Y518018D01*
X256901Y519672D01*
X256738Y519913D01*
X256678Y520211D01*
X256678Y530791D01*
X256734Y531077D01*
X256901Y531330D01*
X258670Y533099D01*
X258912Y533262D01*
X259209Y533322D01*
X259407Y533322D01*
X263257Y537172D01*
X263493Y537333D01*
X263790Y537395D01*
X264088Y537337D01*
X267181Y536056D01*
X270819Y536056D01*
X274180Y537448D01*
X276752Y540020D01*
X278144Y543381D01*
X278144Y547019D01*
X276752Y550380D01*
X274180Y552952D01*
X273831Y553096D01*
X273611Y553236D01*
X273431Y553481D01*
X273361Y553776D01*
X273412Y554075D01*
X273576Y554330D01*
X273826Y554502D01*
X274123Y554562D01*
X289277Y554562D01*
X289535Y554517D01*
X289794Y554360D01*
X289971Y554114D01*
X290039Y553818D01*
X289986Y553520D01*
X289820Y553266D01*
X289569Y553096D01*
X289220Y552952D01*
X286648Y550380D01*
X285256Y547019D01*
X285256Y543381D01*
X286648Y540020D01*
X289220Y537448D01*
X292581Y536056D01*
X296219Y536056D01*
X298642Y537060D01*
X298922Y537118D01*
X299220Y537062D01*
X299473Y536895D01*
X308837Y527530D01*
X312759Y527530D01*
X313022Y527483D01*
X313280Y527324D01*
X313456Y527076D01*
X313521Y526780D01*
X313465Y526482D01*
X313298Y526229D01*
X312048Y524980D01*
X310656Y521619D01*
X310656Y517981D01*
X312048Y514620D01*
X314620Y512048D01*
X317981Y510656D01*
X321619Y510656D01*
X324980Y512048D01*
X327552Y514620D01*
X328944Y517981D01*
X328944Y520095D01*
X328991Y520359D01*
X329150Y520617D01*
X329398Y520792D01*
X329694Y520857D01*
X329992Y520802D01*
X330245Y520634D01*
X332455Y518424D01*
X332618Y518183D01*
X332678Y517885D01*
X332678Y513629D01*
X358401Y487906D01*
X387735Y487906D01*
X387998Y487859D01*
X388256Y487700D01*
X388432Y487452D01*
X388497Y487156D01*
X388441Y486858D01*
X388274Y486605D01*
X385748Y484080D01*
X385003Y482280D01*
X384846Y482042D01*
X384596Y481870D01*
G37*
%LPC*%
G36*
X292581Y510656D02*
X296219Y510656D01*
X299580Y512048D01*
X302152Y514620D01*
X303544Y517981D01*
X303544Y521619D01*
X302152Y524980D01*
X299580Y527552D01*
X296219Y528944D01*
X292581Y528944D01*
X289220Y527552D01*
X286648Y524980D01*
X285256Y521619D01*
X285256Y517981D01*
X286648Y514620D01*
X289220Y512048D01*
X292581Y510656D01*
G37*
%LPD*%
G36*
X221122Y246768D02*
X220826Y246703D01*
X220528Y246758D01*
X220275Y246926D01*
X191169Y276032D01*
X191006Y276273D01*
X190946Y276571D01*
X190946Y344835D01*
X112437Y423344D01*
X112276Y423580D01*
X112214Y423877D01*
X112271Y424175D01*
X113144Y426281D01*
X113144Y429919D01*
X111752Y433280D01*
X109180Y435852D01*
X106588Y436925D01*
X106358Y437074D01*
X106183Y437321D01*
X106118Y437617D01*
X106174Y437915D01*
X106341Y438168D01*
X116270Y448097D01*
X116270Y459135D01*
X108835Y466570D01*
X104579Y466570D01*
X104293Y466626D01*
X104040Y466793D01*
X102378Y468455D01*
X102225Y468675D01*
X102155Y468970D01*
X102206Y469269D01*
X102369Y469524D01*
X102619Y469696D01*
X102917Y469756D01*
X105819Y469756D01*
X109180Y471148D01*
X111752Y473720D01*
X113144Y477081D01*
X113144Y480719D01*
X111752Y484080D01*
X109180Y486652D01*
X105819Y488044D01*
X102181Y488044D01*
X98820Y486652D01*
X96248Y484080D01*
X94856Y480719D01*
X94856Y477817D01*
X94809Y477553D01*
X94650Y477295D01*
X94402Y477120D01*
X94106Y477055D01*
X93808Y477110D01*
X93555Y477278D01*
X89023Y481810D01*
X25908Y481810D01*
X25633Y481861D01*
X25378Y482025D01*
X25206Y482275D01*
X25146Y482572D01*
X25146Y487553D01*
X24253Y488446D01*
X11684Y488446D01*
X11409Y488497D01*
X11154Y488661D01*
X10982Y488911D01*
X10922Y489208D01*
X10922Y519303D01*
X10939Y519465D01*
X11061Y519742D01*
X11282Y519950D01*
X11567Y520056D01*
X11869Y520042D01*
X12143Y519911D01*
X12344Y519684D01*
X16474Y512530D01*
X22530Y506474D01*
X29946Y502192D01*
X38218Y499976D01*
X46782Y499976D01*
X55054Y502192D01*
X62470Y506474D01*
X68526Y512530D01*
X72808Y519946D01*
X75024Y528218D01*
X75024Y536782D01*
X74254Y539655D01*
X74228Y539840D01*
X74284Y540138D01*
X74452Y540391D01*
X80755Y546694D01*
X80975Y546847D01*
X81270Y546917D01*
X81569Y546866D01*
X81824Y546703D01*
X81996Y546453D01*
X82056Y546155D01*
X82056Y543381D01*
X83448Y540020D01*
X86020Y537448D01*
X89381Y536056D01*
X93019Y536056D01*
X96380Y537448D01*
X98952Y540020D01*
X99896Y542300D01*
X100053Y542538D01*
X100303Y542710D01*
X100600Y542770D01*
X107200Y542770D01*
X107480Y542717D01*
X107735Y542551D01*
X107904Y542300D01*
X108848Y540020D01*
X111420Y537448D01*
X114781Y536056D01*
X118419Y536056D01*
X120842Y537060D01*
X121122Y537118D01*
X121420Y537062D01*
X121673Y536895D01*
X131037Y527530D01*
X134959Y527530D01*
X135222Y527483D01*
X135480Y527324D01*
X135656Y527076D01*
X135721Y526780D01*
X135665Y526482D01*
X135498Y526229D01*
X134248Y524980D01*
X132856Y521619D01*
X132856Y517981D01*
X134248Y514620D01*
X136820Y512048D01*
X140181Y510656D01*
X143819Y510656D01*
X147180Y512048D01*
X149752Y514620D01*
X151144Y517981D01*
X151144Y521111D01*
X151191Y521375D01*
X151350Y521633D01*
X151598Y521808D01*
X151894Y521873D01*
X152192Y521818D01*
X152445Y521650D01*
X154147Y519948D01*
X154310Y519707D01*
X154370Y519409D01*
X154370Y512105D01*
X225813Y440662D01*
X258187Y440662D01*
X261273Y443748D01*
X261504Y443906D01*
X261800Y443971D01*
X262098Y443916D01*
X262351Y443748D01*
X267554Y438545D01*
X267707Y438325D01*
X267777Y438030D01*
X267726Y437731D01*
X267563Y437476D01*
X267313Y437304D01*
X267015Y437244D01*
X264681Y437244D01*
X261320Y435852D01*
X258748Y433280D01*
X257356Y429919D01*
X257356Y426281D01*
X258748Y422920D01*
X261320Y420348D01*
X264681Y418956D01*
X268319Y418956D01*
X271461Y420257D01*
X271740Y420315D01*
X272038Y420260D01*
X272291Y420092D01*
X277591Y414792D01*
X277754Y414551D01*
X277814Y414253D01*
X277814Y396967D01*
X277767Y396703D01*
X277608Y396445D01*
X277360Y396270D01*
X277064Y396205D01*
X276766Y396260D01*
X276513Y396428D01*
X274954Y397987D01*
X274794Y398223D01*
X274731Y398519D01*
X274789Y398817D01*
X275644Y400881D01*
X275644Y404519D01*
X274252Y407880D01*
X271680Y410452D01*
X268319Y411844D01*
X264681Y411844D01*
X261320Y410452D01*
X258748Y407880D01*
X257356Y404519D01*
X257356Y400881D01*
X258748Y397520D01*
X261320Y394948D01*
X264681Y393556D01*
X268319Y393556D01*
X271101Y394709D01*
X271381Y394766D01*
X271679Y394711D01*
X271932Y394543D01*
X274543Y391932D01*
X274706Y391691D01*
X274766Y391393D01*
X274766Y383805D01*
X274719Y383542D01*
X274560Y383284D01*
X274312Y383108D01*
X274016Y383043D01*
X273718Y383099D01*
X273465Y383266D01*
X271680Y385052D01*
X268319Y386444D01*
X264681Y386444D01*
X261320Y385052D01*
X258748Y382480D01*
X257356Y379119D01*
X257356Y375481D01*
X258748Y372120D01*
X261320Y369548D01*
X264681Y368156D01*
X268319Y368156D01*
X271680Y369548D01*
X273465Y371334D01*
X273685Y371487D01*
X273980Y371556D01*
X274279Y371506D01*
X274534Y371342D01*
X274706Y371092D01*
X274766Y370795D01*
X274766Y358405D01*
X274719Y358142D01*
X274560Y357884D01*
X274312Y357708D01*
X274016Y357643D01*
X273718Y357699D01*
X273465Y357866D01*
X271680Y359652D01*
X268319Y361044D01*
X264681Y361044D01*
X261320Y359652D01*
X258748Y357080D01*
X257356Y353719D01*
X257356Y350081D01*
X258748Y346720D01*
X261320Y344148D01*
X264681Y342756D01*
X268319Y342756D01*
X271680Y344148D01*
X273465Y345934D01*
X273685Y346087D01*
X273980Y346156D01*
X274279Y346106D01*
X274534Y345942D01*
X274706Y345692D01*
X274766Y345395D01*
X274766Y333005D01*
X274719Y332742D01*
X274560Y332484D01*
X274312Y332308D01*
X274016Y332243D01*
X273718Y332299D01*
X273465Y332466D01*
X271680Y334252D01*
X268319Y335644D01*
X264681Y335644D01*
X261320Y334252D01*
X258748Y331680D01*
X257356Y328319D01*
X257356Y324681D01*
X258748Y321320D01*
X260557Y319511D01*
X260715Y319281D01*
X260780Y318985D01*
X260724Y318687D01*
X260557Y318434D01*
X241445Y299322D01*
X241225Y299169D01*
X240930Y299099D01*
X240631Y299150D01*
X240376Y299313D01*
X240204Y299563D01*
X240144Y299861D01*
X240144Y302919D01*
X238752Y306280D01*
X236180Y308852D01*
X232819Y310244D01*
X229181Y310244D01*
X225820Y308852D01*
X223248Y306280D01*
X221856Y302919D01*
X221856Y299281D01*
X223248Y295920D01*
X225820Y293348D01*
X229181Y291956D01*
X232239Y291956D01*
X232503Y291909D01*
X232761Y291750D01*
X232936Y291502D01*
X233001Y291206D01*
X232946Y290908D01*
X232778Y290655D01*
X228782Y286659D01*
X228782Y256406D01*
X228731Y256131D01*
X228567Y255876D01*
X228317Y255704D01*
X228020Y255644D01*
X222469Y255644D01*
X221576Y254751D01*
X221576Y247465D01*
X221529Y247201D01*
X221370Y246943D01*
X221122Y246768D01*
G37*
%LPC*%
G36*
X82949Y510656D02*
X99451Y510656D01*
X100344Y511549D01*
X100344Y528051D01*
X99451Y528944D01*
X82949Y528944D01*
X82056Y528051D01*
X82056Y511549D01*
X82949Y510656D01*
G37*
G36*
X114781Y510656D02*
X118419Y510656D01*
X121780Y512048D01*
X124352Y514620D01*
X125744Y517981D01*
X125744Y521619D01*
X124352Y524980D01*
X121780Y527552D01*
X118419Y528944D01*
X114781Y528944D01*
X111420Y527552D01*
X108848Y524980D01*
X107456Y521619D01*
X107456Y517981D01*
X108848Y514620D01*
X111420Y512048D01*
X114781Y510656D01*
G37*
G36*
X229181Y393556D02*
X232819Y393556D01*
X236180Y394948D01*
X238752Y397520D01*
X240144Y400881D01*
X240144Y404519D01*
X238752Y407880D01*
X236180Y410452D01*
X234088Y411318D01*
X233850Y411475D01*
X233678Y411725D01*
X233618Y412022D01*
X233618Y418778D01*
X233671Y419058D01*
X233837Y419312D01*
X234088Y419482D01*
X236180Y420348D01*
X238752Y422920D01*
X240144Y426281D01*
X240144Y429919D01*
X238752Y433280D01*
X236180Y435852D01*
X232819Y437244D01*
X229181Y437244D01*
X225820Y435852D01*
X223248Y433280D01*
X221856Y429919D01*
X221856Y426281D01*
X223248Y422920D01*
X225820Y420348D01*
X228576Y419207D01*
X228814Y419050D01*
X228986Y418800D01*
X229046Y418503D01*
X229046Y412297D01*
X228993Y412017D01*
X228827Y411763D01*
X228576Y411593D01*
X225820Y410452D01*
X223248Y407880D01*
X221856Y404519D01*
X221856Y400881D01*
X223248Y397520D01*
X225820Y394948D01*
X229181Y393556D01*
G37*
G36*
X229181Y368156D02*
X232819Y368156D01*
X236180Y369548D01*
X238752Y372120D01*
X240144Y375481D01*
X240144Y379119D01*
X238752Y382480D01*
X236180Y385052D01*
X232819Y386444D01*
X229181Y386444D01*
X225820Y385052D01*
X223248Y382480D01*
X221856Y379119D01*
X221856Y375481D01*
X223248Y372120D01*
X225820Y369548D01*
X229181Y368156D01*
G37*
G36*
X229181Y342756D02*
X232819Y342756D01*
X236180Y344148D01*
X238752Y346720D01*
X240144Y350081D01*
X240144Y353719D01*
X238752Y357080D01*
X236180Y359652D01*
X232819Y361044D01*
X229181Y361044D01*
X225820Y359652D01*
X223248Y357080D01*
X221856Y353719D01*
X221856Y350081D01*
X223248Y346720D01*
X225820Y344148D01*
X229181Y342756D01*
G37*
G36*
X229181Y317356D02*
X232819Y317356D01*
X236180Y318748D01*
X238752Y321320D01*
X240144Y324681D01*
X240144Y328319D01*
X238752Y331680D01*
X236180Y334252D01*
X232819Y335644D01*
X229181Y335644D01*
X225820Y334252D01*
X223248Y331680D01*
X221856Y328319D01*
X221856Y324681D01*
X223248Y321320D01*
X225820Y318748D01*
X229181Y317356D01*
G37*
%LPD*%
G36*
X361549Y522393D02*
X361253Y522328D01*
X360955Y522384D01*
X360702Y522551D01*
X348141Y535112D01*
X347978Y535353D01*
X347918Y535651D01*
X347918Y535919D01*
X347971Y536200D01*
X348137Y536454D01*
X348388Y536623D01*
X350380Y537448D01*
X352952Y540020D01*
X354024Y542609D01*
X354172Y542839D01*
X354420Y543014D01*
X354716Y543079D01*
X355014Y543024D01*
X355267Y542856D01*
X366021Y532102D01*
X368759Y532102D01*
X369045Y532046D01*
X369298Y531879D01*
X370932Y530245D01*
X371085Y530025D01*
X371154Y529730D01*
X371104Y529431D01*
X370940Y529176D01*
X370690Y529004D01*
X370393Y528944D01*
X368781Y528944D01*
X365420Y527552D01*
X362848Y524980D01*
X361945Y522798D01*
X361796Y522569D01*
X361549Y522393D01*
G37*
G36*
X221402Y452228D02*
X221106Y452163D01*
X220808Y452218D01*
X220555Y452386D01*
X162663Y510278D01*
X162513Y510492D01*
X162440Y510786D01*
X162489Y511086D01*
X162650Y511343D01*
X162899Y511516D01*
X163196Y511579D01*
X163493Y511521D01*
X165581Y510656D01*
X169219Y510656D01*
X172580Y512048D01*
X175152Y514620D01*
X176544Y517981D01*
X176544Y520095D01*
X176591Y520359D01*
X176750Y520617D01*
X176998Y520792D01*
X177294Y520857D01*
X177592Y520802D01*
X177845Y520634D01*
X180093Y518386D01*
X182979Y518386D01*
X183260Y518333D01*
X183514Y518167D01*
X183683Y517916D01*
X185048Y514620D01*
X187620Y512048D01*
X190981Y510656D01*
X194619Y510656D01*
X197980Y512048D01*
X200552Y514620D01*
X201944Y517981D01*
X201944Y521619D01*
X200811Y524353D01*
X200753Y524633D01*
X200809Y524931D01*
X200977Y525184D01*
X203100Y527307D01*
X203341Y527470D01*
X203639Y527530D01*
X211159Y527530D01*
X211422Y527483D01*
X211680Y527324D01*
X211856Y527076D01*
X211921Y526780D01*
X211865Y526482D01*
X211698Y526229D01*
X210448Y524980D01*
X209056Y521619D01*
X209056Y517981D01*
X210448Y514620D01*
X213020Y512048D01*
X216384Y510655D01*
X216622Y510498D01*
X216794Y510248D01*
X216854Y509951D01*
X216854Y489245D01*
X222528Y483571D01*
X222689Y483335D01*
X222751Y483038D01*
X222693Y482741D01*
X221856Y480719D01*
X221856Y477081D01*
X223248Y473720D01*
X225820Y471148D01*
X229181Y469756D01*
X231731Y469756D01*
X231995Y469709D01*
X232253Y469550D01*
X232428Y469302D01*
X232493Y469006D01*
X232438Y468708D01*
X232270Y468455D01*
X229046Y465231D01*
X229046Y463097D01*
X228993Y462817D01*
X228827Y462563D01*
X228576Y462393D01*
X225820Y461252D01*
X223248Y458680D01*
X221856Y455319D01*
X221856Y452925D01*
X221809Y452661D01*
X221650Y452403D01*
X221402Y452228D01*
G37*
G36*
X378195Y492538D02*
X377897Y492478D01*
X360611Y492478D01*
X360325Y492534D01*
X360072Y492701D01*
X343418Y509355D01*
X343265Y509575D01*
X343195Y509870D01*
X343246Y510169D01*
X343409Y510424D01*
X343659Y510596D01*
X343957Y510656D01*
X347019Y510656D01*
X350380Y512048D01*
X352952Y514620D01*
X354344Y517981D01*
X354344Y520603D01*
X354391Y520867D01*
X354550Y521125D01*
X354798Y521300D01*
X355094Y521365D01*
X355392Y521310D01*
X355645Y521142D01*
X356839Y519948D01*
X357002Y519707D01*
X357062Y519409D01*
X357062Y515153D01*
X378436Y493779D01*
X378589Y493559D01*
X378659Y493264D01*
X378608Y492965D01*
X378445Y492710D01*
X378195Y492538D01*
G37*
G36*
X530372Y396242D02*
X530076Y396177D01*
X529778Y396232D01*
X529525Y396400D01*
X415487Y510438D01*
X401123Y510438D01*
X400865Y510483D01*
X400606Y510640D01*
X400429Y510886D01*
X400361Y511182D01*
X400414Y511480D01*
X400580Y511734D01*
X400831Y511904D01*
X401180Y512048D01*
X403752Y514620D01*
X405117Y517916D01*
X405274Y518154D01*
X405524Y518326D01*
X405821Y518386D01*
X409063Y518386D01*
X410955Y520278D01*
X411175Y520431D01*
X411470Y520501D01*
X411769Y520450D01*
X412024Y520287D01*
X412196Y520037D01*
X412256Y519739D01*
X412256Y517981D01*
X413648Y514620D01*
X416220Y512048D01*
X419581Y510656D01*
X423219Y510656D01*
X426580Y512048D01*
X428913Y514382D01*
X429133Y514535D01*
X429428Y514604D01*
X429727Y514554D01*
X429982Y514390D01*
X430154Y514140D01*
X430214Y513843D01*
X430214Y511553D01*
X436553Y505214D01*
X540089Y505214D01*
X540375Y505158D01*
X540628Y504991D01*
X556332Y489287D01*
X556485Y489067D01*
X556554Y488772D01*
X556504Y488473D01*
X556340Y488218D01*
X556090Y488046D01*
X555793Y487986D01*
X554181Y487986D01*
X550820Y486594D01*
X548248Y484022D01*
X546856Y480661D01*
X546856Y477023D01*
X548248Y473662D01*
X550820Y471090D01*
X554181Y469698D01*
X557819Y469698D01*
X560685Y470885D01*
X560964Y470943D01*
X561262Y470887D01*
X561515Y470720D01*
X593059Y439176D01*
X593222Y438935D01*
X593282Y438637D01*
X593282Y433046D01*
X593231Y432771D01*
X593067Y432516D01*
X592817Y432344D01*
X592520Y432284D01*
X589909Y432284D01*
X589016Y431391D01*
X589016Y420129D01*
X589909Y419236D01*
X598787Y419236D01*
X599051Y419189D01*
X599309Y419030D01*
X599484Y418782D01*
X599549Y418486D01*
X599494Y418188D01*
X599326Y417935D01*
X597892Y416501D01*
X597651Y416338D01*
X597353Y416278D01*
X541665Y416278D01*
X541379Y416334D01*
X541127Y416501D01*
X539603Y418025D01*
X539445Y418256D01*
X539380Y418552D01*
X539435Y418850D01*
X539603Y419103D01*
X541127Y420627D01*
X541368Y420790D01*
X541665Y420850D01*
X549945Y420850D01*
X550231Y420794D01*
X550484Y420627D01*
X550820Y420290D01*
X554181Y418898D01*
X557819Y418898D01*
X561180Y420290D01*
X563752Y422862D01*
X565144Y426223D01*
X565144Y429861D01*
X563752Y433222D01*
X561180Y435794D01*
X557819Y437186D01*
X554181Y437186D01*
X550820Y435794D01*
X548248Y433222D01*
X546856Y429861D01*
X546856Y426184D01*
X546805Y425909D01*
X546641Y425654D01*
X546391Y425482D01*
X546094Y425422D01*
X541665Y425422D01*
X541379Y425478D01*
X541127Y425645D01*
X538330Y428442D01*
X533934Y428442D01*
X530826Y425334D01*
X530826Y420938D01*
X532661Y419103D01*
X532819Y418872D01*
X532884Y418576D01*
X532829Y418278D01*
X532661Y418025D01*
X530826Y416190D01*
X530826Y411794D01*
X533934Y408686D01*
X538330Y408686D01*
X541127Y411483D01*
X541368Y411646D01*
X541665Y411706D01*
X550293Y411706D01*
X550556Y411659D01*
X550814Y411500D01*
X550990Y411252D01*
X551055Y410956D01*
X550999Y410658D01*
X550832Y410405D01*
X548248Y407822D01*
X546856Y404461D01*
X546856Y400823D01*
X547593Y399044D01*
X547651Y398776D01*
X547600Y398477D01*
X547436Y398222D01*
X547186Y398050D01*
X546889Y397990D01*
X541665Y397990D01*
X541379Y398046D01*
X541127Y398213D01*
X538330Y401010D01*
X533934Y401010D01*
X530826Y397902D01*
X530826Y396939D01*
X530779Y396675D01*
X530620Y396417D01*
X530372Y396242D01*
G37*
%LPC*%
G36*
X554181Y444298D02*
X557819Y444298D01*
X561180Y445690D01*
X563752Y448262D01*
X565144Y451623D01*
X565144Y455261D01*
X563752Y458622D01*
X561180Y461194D01*
X557819Y462586D01*
X554181Y462586D01*
X550820Y461194D01*
X548248Y458622D01*
X546856Y455261D01*
X546856Y451623D01*
X548248Y448262D01*
X550820Y445690D01*
X554181Y444298D01*
G37*
%LPD*%
G36*
X419402Y476732D02*
X419106Y476667D01*
X418808Y476722D01*
X418555Y476890D01*
X399919Y495526D01*
X383471Y495526D01*
X383185Y495582D01*
X382932Y495749D01*
X369326Y509355D01*
X369173Y509575D01*
X369103Y509870D01*
X369154Y510169D01*
X369317Y510424D01*
X369567Y510596D01*
X369865Y510656D01*
X372419Y510656D01*
X375780Y512048D01*
X378352Y514620D01*
X379424Y517209D01*
X379572Y517439D01*
X379820Y517614D01*
X380116Y517679D01*
X380414Y517624D01*
X380667Y517456D01*
X392257Y505866D01*
X413278Y505866D01*
X413564Y505810D01*
X413816Y505643D01*
X430172Y489287D01*
X430325Y489067D01*
X430395Y488772D01*
X430344Y488473D01*
X430181Y488218D01*
X429931Y488046D01*
X429633Y487986D01*
X427181Y487986D01*
X423820Y486594D01*
X421248Y484022D01*
X419856Y480661D01*
X419856Y477429D01*
X419809Y477165D01*
X419650Y476907D01*
X419402Y476732D01*
G37*
G36*
X424215Y259666D02*
X423917Y259606D01*
X422795Y259606D01*
X422509Y259662D01*
X422256Y259829D01*
X391430Y290655D01*
X391277Y290875D01*
X391207Y291170D01*
X391258Y291469D01*
X391421Y291724D01*
X391671Y291896D01*
X391969Y291956D01*
X395319Y291956D01*
X398680Y293348D01*
X401252Y295920D01*
X402644Y299281D01*
X402644Y302919D01*
X401252Y306280D01*
X398680Y308852D01*
X395319Y310244D01*
X391681Y310244D01*
X388320Y308852D01*
X385748Y306280D01*
X384356Y302919D01*
X384356Y299569D01*
X384309Y299305D01*
X384150Y299047D01*
X383902Y298872D01*
X383606Y298807D01*
X383308Y298862D01*
X383055Y299030D01*
X334425Y347660D01*
X334262Y347901D01*
X334202Y348199D01*
X334202Y378363D01*
X269048Y443517D01*
X268892Y443742D01*
X268825Y444038D01*
X268878Y444337D01*
X269043Y444591D01*
X269295Y444760D01*
X271680Y445748D01*
X274252Y448320D01*
X275644Y451681D01*
X275644Y455319D01*
X274252Y458680D01*
X271680Y461252D01*
X268319Y462644D01*
X264681Y462644D01*
X261320Y461252D01*
X258748Y458680D01*
X257356Y455319D01*
X257356Y451681D01*
X258738Y448344D01*
X258796Y448065D01*
X258740Y447767D01*
X258573Y447514D01*
X256516Y445457D01*
X256275Y445294D01*
X255977Y445234D01*
X237505Y445234D01*
X237242Y445281D01*
X236984Y445440D01*
X236808Y445688D01*
X236743Y445984D01*
X236799Y446282D01*
X236966Y446535D01*
X238752Y448320D01*
X240144Y451681D01*
X240144Y455319D01*
X238752Y458680D01*
X236180Y461252D01*
X234088Y462118D01*
X233850Y462275D01*
X233678Y462525D01*
X233618Y462822D01*
X233618Y463021D01*
X233674Y463307D01*
X233841Y463560D01*
X245810Y475529D01*
X245810Y510309D01*
X245863Y510589D01*
X246029Y510843D01*
X246280Y511013D01*
X248780Y512048D01*
X251352Y514620D01*
X252127Y516491D01*
X252275Y516720D01*
X252522Y516896D01*
X252818Y516961D01*
X253117Y516905D01*
X253369Y516738D01*
X318777Y451330D01*
X383992Y451330D01*
X384273Y451277D01*
X384527Y451111D01*
X384696Y450860D01*
X385748Y448320D01*
X388320Y445748D01*
X391681Y444356D01*
X395319Y444356D01*
X398680Y445748D01*
X401252Y448320D01*
X402644Y451681D01*
X402644Y455319D01*
X401252Y458680D01*
X398680Y461252D01*
X395319Y462644D01*
X391681Y462644D01*
X388320Y461252D01*
X385748Y458680D01*
X384792Y456372D01*
X384636Y456134D01*
X384386Y455962D01*
X384088Y455902D01*
X320987Y455902D01*
X320701Y455958D01*
X320448Y456125D01*
X267218Y509355D01*
X267065Y509575D01*
X266995Y509870D01*
X267046Y510169D01*
X267209Y510424D01*
X267459Y510596D01*
X267757Y510656D01*
X270819Y510656D01*
X273087Y511595D01*
X273366Y511653D01*
X273664Y511598D01*
X273917Y511430D01*
X308109Y477238D01*
X383782Y477238D01*
X384062Y477185D01*
X384316Y477019D01*
X384486Y476768D01*
X385748Y473720D01*
X388320Y471148D01*
X391681Y469756D01*
X395319Y469756D01*
X398680Y471148D01*
X401252Y473720D01*
X402644Y477081D01*
X402644Y479923D01*
X402691Y480187D01*
X402850Y480445D01*
X403098Y480620D01*
X403394Y480685D01*
X403692Y480630D01*
X403945Y480462D01*
X411795Y472612D01*
X411957Y472371D01*
X412018Y472074D01*
X412018Y313330D01*
X420266Y305081D01*
X420427Y304845D01*
X420490Y304548D01*
X420432Y304251D01*
X419856Y302861D01*
X419856Y299223D01*
X421248Y295862D01*
X423004Y294107D01*
X423157Y293887D01*
X423226Y293592D01*
X423176Y293293D01*
X423012Y293038D01*
X422762Y292866D01*
X422738Y292861D01*
X419574Y289698D01*
X419574Y285302D01*
X422682Y282194D01*
X427078Y282194D01*
X429875Y284991D01*
X430116Y285154D01*
X430413Y285214D01*
X448001Y285214D01*
X448265Y285167D01*
X448523Y285008D01*
X448698Y284760D01*
X448763Y284464D01*
X448708Y284166D01*
X448540Y283913D01*
X424456Y259829D01*
X424215Y259666D01*
G37*
%LPC*%
G36*
X264681Y469756D02*
X268319Y469756D01*
X271680Y471148D01*
X274252Y473720D01*
X275644Y477081D01*
X275644Y480719D01*
X274252Y484080D01*
X271680Y486652D01*
X268319Y488044D01*
X264681Y488044D01*
X261320Y486652D01*
X258748Y484080D01*
X257356Y480719D01*
X257356Y477081D01*
X258748Y473720D01*
X261320Y471148D01*
X264681Y469756D01*
G37*
G36*
X391681Y393556D02*
X395319Y393556D01*
X398680Y394948D01*
X401252Y397520D01*
X402644Y400881D01*
X402644Y404519D01*
X401252Y407880D01*
X398680Y410452D01*
X397156Y411083D01*
X396918Y411240D01*
X396746Y411490D01*
X396686Y411787D01*
X396686Y419013D01*
X396739Y419293D01*
X396905Y419548D01*
X397156Y419717D01*
X398680Y420348D01*
X401252Y422920D01*
X402644Y426281D01*
X402644Y429919D01*
X401252Y433280D01*
X398680Y435852D01*
X395319Y437244D01*
X391681Y437244D01*
X388320Y435852D01*
X385748Y433280D01*
X384356Y429919D01*
X384356Y426281D01*
X385748Y422920D01*
X388320Y420348D01*
X391644Y418972D01*
X391882Y418815D01*
X392054Y418565D01*
X392114Y418268D01*
X392114Y412532D01*
X392061Y412252D01*
X391895Y411998D01*
X391644Y411828D01*
X388320Y410452D01*
X385748Y407880D01*
X384356Y404519D01*
X384356Y400881D01*
X385748Y397520D01*
X388320Y394948D01*
X391681Y393556D01*
G37*
G36*
X391681Y368156D02*
X395319Y368156D01*
X398680Y369548D01*
X401252Y372120D01*
X402644Y375481D01*
X402644Y379119D01*
X401252Y382480D01*
X398680Y385052D01*
X395319Y386444D01*
X391681Y386444D01*
X388320Y385052D01*
X385748Y382480D01*
X384356Y379119D01*
X384356Y375481D01*
X385748Y372120D01*
X388320Y369548D01*
X391681Y368156D01*
G37*
G36*
X391681Y342756D02*
X395319Y342756D01*
X398680Y344148D01*
X401252Y346720D01*
X402644Y350081D01*
X402644Y353719D01*
X401252Y357080D01*
X398680Y359652D01*
X395319Y361044D01*
X391681Y361044D01*
X388320Y359652D01*
X385748Y357080D01*
X384356Y353719D01*
X384356Y350081D01*
X385748Y346720D01*
X388320Y344148D01*
X391681Y342756D01*
G37*
G36*
X391681Y317356D02*
X395319Y317356D01*
X398680Y318748D01*
X401252Y321320D01*
X402644Y324681D01*
X402644Y328319D01*
X401252Y331680D01*
X398680Y334252D01*
X395319Y335644D01*
X391681Y335644D01*
X388320Y334252D01*
X385748Y331680D01*
X384356Y328319D01*
X384356Y324681D01*
X385748Y321320D01*
X388320Y318748D01*
X391681Y317356D01*
G37*
%LPD*%
G36*
X449823Y289846D02*
X449525Y289786D01*
X430413Y289786D01*
X430127Y289842D01*
X429875Y290009D01*
X429287Y290597D01*
X429134Y290817D01*
X429064Y291112D01*
X429115Y291411D01*
X429278Y291666D01*
X429528Y291838D01*
X429825Y291898D01*
X430819Y291898D01*
X434180Y293290D01*
X436752Y295862D01*
X438144Y299223D01*
X438144Y302861D01*
X436752Y306222D01*
X434180Y308794D01*
X430819Y310186D01*
X427181Y310186D01*
X423724Y308754D01*
X423445Y308696D01*
X423147Y308752D01*
X422894Y308919D01*
X416813Y315000D01*
X416650Y315242D01*
X416590Y315539D01*
X416590Y333390D01*
X416637Y333653D01*
X416796Y333911D01*
X417043Y334086D01*
X417340Y334152D01*
X417638Y334096D01*
X417891Y333928D01*
X420580Y331239D01*
X420741Y331003D01*
X420804Y330706D01*
X420746Y330408D01*
X419856Y328261D01*
X419856Y324623D01*
X421248Y321262D01*
X423820Y318690D01*
X427181Y317298D01*
X430819Y317298D01*
X434180Y318690D01*
X436752Y321262D01*
X438144Y324623D01*
X438144Y328261D01*
X436752Y331622D01*
X434180Y334194D01*
X430819Y335586D01*
X427181Y335586D01*
X424482Y334468D01*
X424203Y334410D01*
X423905Y334466D01*
X423652Y334633D01*
X419861Y338424D01*
X419698Y338666D01*
X419638Y338963D01*
X419638Y346719D01*
X419683Y346977D01*
X419840Y347236D01*
X420086Y347413D01*
X420382Y347481D01*
X420680Y347428D01*
X420934Y347262D01*
X421104Y347011D01*
X421248Y346662D01*
X423820Y344090D01*
X427181Y342698D01*
X430819Y342698D01*
X434180Y344090D01*
X436752Y346662D01*
X438144Y350023D01*
X438144Y353661D01*
X436752Y357022D01*
X434180Y359594D01*
X432244Y360396D01*
X432006Y360552D01*
X431834Y360802D01*
X431774Y361100D01*
X431774Y367984D01*
X431827Y368265D01*
X431993Y368519D01*
X432244Y368688D01*
X434180Y369490D01*
X436752Y372062D01*
X438144Y375423D01*
X438144Y379061D01*
X436752Y382422D01*
X434180Y384994D01*
X430819Y386386D01*
X427181Y386386D01*
X423820Y384994D01*
X421248Y382422D01*
X421104Y382073D01*
X420964Y381853D01*
X420719Y381673D01*
X420424Y381603D01*
X420125Y381654D01*
X419870Y381818D01*
X419698Y382068D01*
X419638Y382365D01*
X419638Y397519D01*
X419683Y397777D01*
X419840Y398036D01*
X420086Y398213D01*
X420382Y398281D01*
X420680Y398228D01*
X420934Y398062D01*
X421104Y397811D01*
X421248Y397462D01*
X423820Y394890D01*
X427181Y393498D01*
X430819Y393498D01*
X434180Y394890D01*
X436752Y397462D01*
X438144Y400823D01*
X438144Y404461D01*
X436752Y407822D01*
X434180Y410394D01*
X430819Y411786D01*
X427181Y411786D01*
X423820Y410394D01*
X421248Y407822D01*
X421104Y407473D01*
X420964Y407253D01*
X420719Y407073D01*
X420424Y407003D01*
X420125Y407054D01*
X419870Y407218D01*
X419698Y407468D01*
X419638Y407765D01*
X419638Y422919D01*
X419683Y423177D01*
X419840Y423436D01*
X420086Y423613D01*
X420382Y423681D01*
X420680Y423628D01*
X420934Y423462D01*
X421104Y423211D01*
X421248Y422862D01*
X423820Y420290D01*
X427181Y418898D01*
X430819Y418898D01*
X434180Y420290D01*
X436752Y422862D01*
X438144Y426223D01*
X438144Y429861D01*
X436752Y433222D01*
X434180Y435794D01*
X430819Y437186D01*
X427181Y437186D01*
X423820Y435794D01*
X421248Y433222D01*
X421104Y432873D01*
X420964Y432653D01*
X420719Y432473D01*
X420424Y432403D01*
X420125Y432454D01*
X419870Y432618D01*
X419698Y432868D01*
X419638Y433165D01*
X419638Y448319D01*
X419683Y448577D01*
X419840Y448836D01*
X420086Y449013D01*
X420382Y449081D01*
X420680Y449028D01*
X420934Y448862D01*
X421104Y448611D01*
X421248Y448262D01*
X423820Y445690D01*
X427181Y444298D01*
X430819Y444298D01*
X434180Y445690D01*
X436752Y448262D01*
X438144Y451623D01*
X438144Y455261D01*
X436752Y458622D01*
X434180Y461194D01*
X430819Y462586D01*
X427181Y462586D01*
X423820Y461194D01*
X421248Y458622D01*
X421104Y458273D01*
X420964Y458053D01*
X420719Y457873D01*
X420424Y457803D01*
X420125Y457854D01*
X419870Y458018D01*
X419698Y458268D01*
X419638Y458565D01*
X419638Y473719D01*
X419683Y473977D01*
X419840Y474236D01*
X420086Y474413D01*
X420382Y474481D01*
X420680Y474428D01*
X420934Y474262D01*
X421104Y474011D01*
X421248Y473662D01*
X423820Y471090D01*
X427181Y469698D01*
X430819Y469698D01*
X434180Y471090D01*
X436752Y473662D01*
X438144Y477023D01*
X438144Y479475D01*
X438191Y479739D01*
X438350Y479997D01*
X438598Y480172D01*
X438894Y480237D01*
X439192Y480182D01*
X439445Y480014D01*
X532137Y387322D01*
X552610Y387322D01*
X552868Y387277D01*
X553127Y387120D01*
X553304Y386874D01*
X553372Y386578D01*
X553319Y386280D01*
X553153Y386026D01*
X552902Y385856D01*
X550820Y384994D01*
X548248Y382422D01*
X546856Y379061D01*
X546856Y378940D01*
X546805Y378665D01*
X546641Y378410D01*
X546391Y378238D01*
X546094Y378178D01*
X538233Y378178D01*
X450064Y290009D01*
X449823Y289846D01*
G37*
G36*
X81031Y433118D02*
X80733Y433058D01*
X25908Y433058D01*
X25633Y433109D01*
X25378Y433273D01*
X25206Y433523D01*
X25146Y433820D01*
X25146Y436753D01*
X24253Y437646D01*
X11684Y437646D01*
X11409Y437697D01*
X11154Y437861D01*
X10982Y438111D01*
X10922Y438408D01*
X10922Y446536D01*
X10973Y446811D01*
X11137Y447066D01*
X11387Y447238D01*
X11684Y447298D01*
X24253Y447298D01*
X25146Y448191D01*
X25146Y453616D01*
X25197Y453891D01*
X25361Y454146D01*
X25611Y454318D01*
X25908Y454378D01*
X41395Y454378D01*
X41681Y454322D01*
X41933Y454155D01*
X44730Y451358D01*
X49126Y451358D01*
X52234Y454466D01*
X52234Y458862D01*
X49126Y461970D01*
X44730Y461970D01*
X41933Y459173D01*
X41692Y459010D01*
X41395Y458950D01*
X25908Y458950D01*
X25633Y459001D01*
X25378Y459165D01*
X25206Y459415D01*
X25146Y459712D01*
X25146Y462153D01*
X24253Y463046D01*
X11684Y463046D01*
X11409Y463097D01*
X11154Y463261D01*
X10982Y463511D01*
X10922Y463808D01*
X10922Y471936D01*
X10973Y472211D01*
X11137Y472466D01*
X11387Y472638D01*
X11684Y472698D01*
X24253Y472698D01*
X25146Y473591D01*
X25146Y476476D01*
X25197Y476751D01*
X25361Y477006D01*
X25611Y477178D01*
X25908Y477238D01*
X86813Y477238D01*
X87099Y477182D01*
X87352Y477015D01*
X101051Y463316D01*
X101206Y463091D01*
X101274Y462796D01*
X101221Y462497D01*
X101055Y462243D01*
X100804Y462073D01*
X98820Y461252D01*
X96248Y458680D01*
X94856Y455319D01*
X94856Y451681D01*
X96072Y448746D01*
X96130Y448467D01*
X96074Y448168D01*
X95907Y447916D01*
X81272Y433281D01*
X81031Y433118D01*
G37*
G36*
X86849Y255704D02*
X86552Y255644D01*
X84184Y255644D01*
X83909Y255695D01*
X83654Y255859D01*
X83482Y256109D01*
X83422Y256406D01*
X83422Y412173D01*
X81759Y416187D01*
X78687Y419259D01*
X74673Y420922D01*
X25117Y420922D01*
X24854Y420969D01*
X24596Y421128D01*
X24420Y421376D01*
X24355Y421672D01*
X24411Y421970D01*
X24578Y422223D01*
X25146Y422791D01*
X25146Y427724D01*
X25197Y427999D01*
X25361Y428254D01*
X25611Y428426D01*
X25908Y428486D01*
X82943Y428486D01*
X99439Y444983D01*
X99675Y445143D01*
X99972Y445206D01*
X100270Y445148D01*
X102181Y444356D01*
X104223Y444356D01*
X104487Y444309D01*
X104745Y444150D01*
X104920Y443902D01*
X104985Y443606D01*
X104930Y443308D01*
X104762Y443055D01*
X102592Y440885D01*
X102351Y440722D01*
X102053Y440662D01*
X97797Y440662D01*
X90066Y432931D01*
X90066Y373717D01*
X101769Y362014D01*
X101925Y361789D01*
X101992Y361493D01*
X101939Y361195D01*
X101774Y360941D01*
X101522Y360771D01*
X98820Y359652D01*
X96248Y357080D01*
X94856Y353719D01*
X94856Y350081D01*
X96248Y346720D01*
X98820Y344148D01*
X102181Y342756D01*
X105819Y342756D01*
X108242Y343760D01*
X108522Y343818D01*
X108820Y343762D01*
X109073Y343595D01*
X111397Y341270D01*
X111560Y341029D01*
X111620Y340731D01*
X111620Y333651D01*
X111573Y333388D01*
X111414Y333130D01*
X111166Y332954D01*
X110870Y332889D01*
X110572Y332945D01*
X110319Y333112D01*
X109180Y334252D01*
X105819Y335644D01*
X102181Y335644D01*
X98820Y334252D01*
X96248Y331680D01*
X94856Y328319D01*
X94856Y324681D01*
X96248Y321320D01*
X97987Y319581D01*
X98145Y319351D01*
X98210Y319055D01*
X98154Y318757D01*
X97987Y318504D01*
X85790Y306307D01*
X85790Y283505D01*
X87091Y282204D01*
X87254Y281963D01*
X87314Y281665D01*
X87314Y256406D01*
X87263Y256131D01*
X87099Y255876D01*
X86849Y255704D01*
G37*
G36*
X273340Y163354D02*
X273043Y163294D01*
X270695Y163294D01*
X270431Y163341D01*
X270173Y163500D01*
X269998Y163748D01*
X269933Y164044D01*
X269988Y164342D01*
X270156Y164595D01*
X282386Y176825D01*
X282386Y416463D01*
X275103Y423746D01*
X274943Y423982D01*
X274880Y424279D01*
X274938Y424576D01*
X275644Y426281D01*
X275644Y428615D01*
X275691Y428879D01*
X275850Y429137D01*
X276098Y429312D01*
X276394Y429377D01*
X276692Y429322D01*
X276945Y429154D01*
X329407Y376692D01*
X329570Y376451D01*
X329630Y376153D01*
X329630Y355517D01*
X329583Y355254D01*
X329424Y354996D01*
X329176Y354821D01*
X328880Y354756D01*
X328582Y354811D01*
X328329Y354979D01*
X328018Y355290D01*
X323622Y355290D01*
X320514Y352182D01*
X320514Y347786D01*
X323311Y344989D01*
X323474Y344748D01*
X323534Y344451D01*
X323534Y204641D01*
X323487Y204378D01*
X323328Y204120D01*
X323080Y203945D01*
X322784Y203880D01*
X322486Y203935D01*
X322233Y204103D01*
X321922Y204414D01*
X317526Y204414D01*
X314418Y201306D01*
X314418Y197351D01*
X314362Y197065D01*
X314195Y196812D01*
X312403Y195020D01*
X312183Y194867D01*
X311888Y194797D01*
X311589Y194848D01*
X311334Y195011D01*
X311162Y195261D01*
X311102Y195559D01*
X311102Y197419D01*
X309710Y200780D01*
X307138Y203352D01*
X303777Y204744D01*
X300139Y204744D01*
X296778Y203352D01*
X294206Y200780D01*
X292814Y197419D01*
X292814Y193781D01*
X294206Y190420D01*
X296778Y187848D01*
X299547Y186701D01*
X299776Y186553D01*
X299952Y186306D01*
X300017Y186010D01*
X299961Y185712D01*
X299794Y185459D01*
X282386Y168051D01*
X282386Y166541D01*
X282339Y166278D01*
X282180Y166020D01*
X281932Y165845D01*
X281636Y165780D01*
X281338Y165835D01*
X281085Y166003D01*
X280774Y166314D01*
X276378Y166314D01*
X273581Y163517D01*
X273340Y163354D01*
G37*
%LPC*%
G36*
X300139Y237256D02*
X303777Y237256D01*
X307138Y238648D01*
X309710Y241220D01*
X311102Y244581D01*
X311102Y248219D01*
X309710Y251580D01*
X307138Y254152D01*
X303777Y255544D01*
X300139Y255544D01*
X296778Y254152D01*
X294206Y251580D01*
X292814Y248219D01*
X292814Y244581D01*
X294206Y241220D01*
X296778Y238648D01*
X300139Y237256D01*
G37*
G36*
X300139Y211856D02*
X303777Y211856D01*
X307138Y213248D01*
X309710Y215820D01*
X311102Y219181D01*
X311102Y222819D01*
X309710Y226180D01*
X307138Y228752D01*
X303777Y230144D01*
X300139Y230144D01*
X296778Y228752D01*
X294206Y226180D01*
X292814Y222819D01*
X292814Y219181D01*
X294206Y215820D01*
X296778Y213248D01*
X300139Y211856D01*
G37*
%LPD*%
G36*
X185920Y319420D02*
X185624Y319355D01*
X185326Y319411D01*
X185073Y319578D01*
X126441Y378210D01*
X126278Y378452D01*
X126218Y378749D01*
X126218Y383655D01*
X112288Y397585D01*
X112127Y397821D01*
X112065Y398118D01*
X112123Y398415D01*
X113144Y400881D01*
X113144Y404519D01*
X111752Y407880D01*
X109180Y410452D01*
X105819Y411844D01*
X102181Y411844D01*
X98820Y410452D01*
X96248Y407880D01*
X96104Y407531D01*
X95964Y407311D01*
X95719Y407131D01*
X95424Y407061D01*
X95125Y407112D01*
X94870Y407276D01*
X94698Y407526D01*
X94638Y407823D01*
X94638Y422977D01*
X94683Y423235D01*
X94840Y423494D01*
X95086Y423671D01*
X95382Y423739D01*
X95680Y423686D01*
X95934Y423520D01*
X96104Y423269D01*
X96248Y422920D01*
X98820Y420348D01*
X102181Y418956D01*
X105819Y418956D01*
X108559Y420091D01*
X108838Y420149D01*
X109136Y420093D01*
X109389Y419926D01*
X186151Y343164D01*
X186314Y342923D01*
X186374Y342625D01*
X186374Y320117D01*
X186327Y319854D01*
X186168Y319596D01*
X185920Y319420D01*
G37*
G36*
X571127Y373039D02*
X570832Y372969D01*
X570533Y373020D01*
X570278Y373183D01*
X570106Y373433D01*
X570046Y373731D01*
X570046Y381787D01*
X559939Y391894D01*
X551111Y391894D01*
X550847Y391941D01*
X550589Y392100D01*
X550414Y392348D01*
X550349Y392644D01*
X550404Y392942D01*
X550572Y393195D01*
X551483Y394106D01*
X551719Y394267D01*
X552016Y394330D01*
X552314Y394272D01*
X554181Y393498D01*
X557819Y393498D01*
X561180Y394890D01*
X563752Y397462D01*
X565144Y400823D01*
X565144Y404461D01*
X563752Y407822D01*
X561168Y410405D01*
X561015Y410625D01*
X560946Y410920D01*
X560996Y411219D01*
X561160Y411474D01*
X561410Y411646D01*
X561707Y411706D01*
X599563Y411706D01*
X606870Y419013D01*
X607111Y419176D01*
X607409Y419236D01*
X615551Y419236D01*
X615815Y419189D01*
X616073Y419030D01*
X616248Y418782D01*
X616313Y418486D01*
X616258Y418188D01*
X616090Y417935D01*
X571347Y373192D01*
X571127Y373039D01*
G37*
G36*
X95719Y381731D02*
X95424Y381661D01*
X95125Y381712D01*
X94870Y381876D01*
X94698Y382126D01*
X94638Y382423D01*
X94638Y397577D01*
X94683Y397835D01*
X94840Y398094D01*
X95086Y398271D01*
X95382Y398339D01*
X95680Y398286D01*
X95934Y398120D01*
X96104Y397869D01*
X96248Y397520D01*
X98820Y394948D01*
X102181Y393556D01*
X105819Y393556D01*
X108200Y394542D01*
X108479Y394600D01*
X108777Y394544D01*
X109030Y394377D01*
X116336Y387071D01*
X116489Y386851D01*
X116559Y386556D01*
X116508Y386257D01*
X116345Y386002D01*
X116095Y385830D01*
X115797Y385770D01*
X114834Y385770D01*
X112187Y383123D01*
X111956Y382965D01*
X111660Y382899D01*
X111362Y382955D01*
X111109Y383123D01*
X109180Y385052D01*
X105819Y386444D01*
X102181Y386444D01*
X98820Y385052D01*
X96248Y382480D01*
X96104Y382131D01*
X95964Y381911D01*
X95719Y381731D01*
G37*
G36*
X94695Y222754D02*
X94397Y222694D01*
X84184Y222694D01*
X83909Y222745D01*
X83654Y222909D01*
X83482Y223159D01*
X83422Y223456D01*
X83422Y241834D01*
X83473Y242109D01*
X83637Y242364D01*
X83887Y242536D01*
X84184Y242596D01*
X96671Y242596D01*
X97564Y243489D01*
X97564Y254751D01*
X96671Y255644D01*
X92648Y255644D01*
X92373Y255695D01*
X92118Y255859D01*
X91946Y256109D01*
X91886Y256406D01*
X91886Y281432D01*
X91937Y281707D01*
X92101Y281962D01*
X92351Y282134D01*
X92648Y282194D01*
X96370Y282194D01*
X99478Y285302D01*
X99478Y289698D01*
X96681Y292495D01*
X96518Y292736D01*
X96458Y293033D01*
X96458Y293871D01*
X96505Y294134D01*
X96664Y294392D01*
X96912Y294568D01*
X97208Y294633D01*
X97506Y294577D01*
X97759Y294410D01*
X98820Y293348D01*
X100560Y292628D01*
X100798Y292471D01*
X100970Y292221D01*
X101030Y291924D01*
X101030Y277409D01*
X103855Y274584D01*
X104018Y274343D01*
X104078Y274045D01*
X104078Y256406D01*
X104027Y256131D01*
X103863Y255876D01*
X103613Y255704D01*
X103316Y255644D01*
X101409Y255644D01*
X100516Y254751D01*
X100516Y243489D01*
X101409Y242596D01*
X113671Y242596D01*
X114564Y243489D01*
X114564Y254751D01*
X113671Y255644D01*
X109412Y255644D01*
X109137Y255695D01*
X108882Y255859D01*
X108710Y256109D01*
X108650Y256406D01*
X108650Y275336D01*
X108701Y275611D01*
X108865Y275866D01*
X109115Y276038D01*
X109412Y276098D01*
X111610Y276098D01*
X114718Y279206D01*
X114718Y283602D01*
X111921Y286399D01*
X111758Y286640D01*
X111698Y286937D01*
X111698Y291240D01*
X111754Y291526D01*
X111921Y291779D01*
X117288Y297146D01*
X117288Y313609D01*
X117344Y313895D01*
X117511Y314148D01*
X122288Y318925D01*
X122288Y356677D01*
X114119Y364846D01*
X114003Y364994D01*
X110803Y370358D01*
X110696Y370736D01*
X110751Y371035D01*
X110919Y371287D01*
X111752Y372120D01*
X113108Y375394D01*
X113256Y375624D01*
X113504Y375799D01*
X113800Y375865D01*
X114098Y375809D01*
X114351Y375641D01*
X114834Y375158D01*
X118401Y375158D01*
X118687Y375102D01*
X118940Y374935D01*
X180055Y313820D01*
X180218Y313579D01*
X180278Y313281D01*
X180278Y238199D01*
X180222Y237913D01*
X180055Y237660D01*
X179742Y237347D01*
X179500Y237184D01*
X179203Y237124D01*
X170487Y237124D01*
X170224Y237171D01*
X169966Y237330D01*
X169791Y237578D01*
X169726Y237874D01*
X169781Y238172D01*
X169949Y238425D01*
X171106Y239582D01*
X171106Y243978D01*
X167998Y247086D01*
X163602Y247086D01*
X160494Y243978D01*
X160494Y239582D01*
X161197Y238880D01*
X161355Y238649D01*
X161420Y238353D01*
X161364Y238055D01*
X161197Y237802D01*
X160376Y236981D01*
X160376Y234160D01*
X160325Y233885D01*
X160161Y233630D01*
X159911Y233458D01*
X159614Y233398D01*
X131709Y233398D01*
X131423Y233454D01*
X131171Y233621D01*
X128374Y236418D01*
X123978Y236418D01*
X120870Y233310D01*
X120870Y228914D01*
X121181Y228603D01*
X121334Y228383D01*
X121404Y228088D01*
X121353Y227789D01*
X121190Y227534D01*
X120940Y227362D01*
X120643Y227302D01*
X99321Y227302D01*
X94936Y222917D01*
X94695Y222754D01*
G37*
G36*
X537525Y311278D02*
X537227Y311218D01*
X479579Y311218D01*
X479315Y311265D01*
X479057Y311424D01*
X478882Y311672D01*
X478817Y311968D01*
X478872Y312266D01*
X479040Y312519D01*
X539904Y373383D01*
X540145Y373546D01*
X540443Y373606D01*
X547100Y373606D01*
X547380Y373553D01*
X547634Y373387D01*
X547804Y373136D01*
X548248Y372062D01*
X550820Y369490D01*
X554181Y368098D01*
X557819Y368098D01*
X561180Y369490D01*
X563752Y372062D01*
X564008Y372681D01*
X564148Y372901D01*
X564393Y373081D01*
X564688Y373151D01*
X564987Y373100D01*
X565242Y372936D01*
X565414Y372686D01*
X565474Y372389D01*
X565474Y356695D01*
X565429Y356437D01*
X565272Y356178D01*
X565026Y356001D01*
X564730Y355933D01*
X564432Y355986D01*
X564178Y356152D01*
X564008Y356403D01*
X563752Y357022D01*
X561180Y359594D01*
X557819Y360986D01*
X554181Y360986D01*
X550820Y359594D01*
X548248Y357022D01*
X546856Y353661D01*
X546856Y350023D01*
X547466Y348550D01*
X547524Y348282D01*
X547473Y347983D01*
X547310Y347728D01*
X547060Y347556D01*
X547010Y347546D01*
X542066Y342602D01*
X542066Y341178D01*
X542010Y340892D01*
X541843Y340640D01*
X538428Y337225D01*
X538187Y337062D01*
X537889Y337002D01*
X533934Y337002D01*
X530826Y333894D01*
X530826Y329498D01*
X533934Y326390D01*
X538330Y326390D01*
X541438Y329498D01*
X541438Y333453D01*
X541494Y333739D01*
X541661Y333992D01*
X546638Y338969D01*
X546638Y340393D01*
X546694Y340679D01*
X546861Y340932D01*
X548630Y342701D01*
X548872Y342864D01*
X549169Y342924D01*
X550315Y342924D01*
X550927Y343537D01*
X551164Y343697D01*
X551460Y343760D01*
X551758Y343702D01*
X554181Y342698D01*
X557819Y342698D01*
X561180Y344090D01*
X563752Y346662D01*
X564008Y347281D01*
X564148Y347501D01*
X564393Y347681D01*
X564688Y347751D01*
X564987Y347700D01*
X565242Y347536D01*
X565414Y347286D01*
X565474Y346989D01*
X565474Y331295D01*
X565429Y331037D01*
X565272Y330778D01*
X565026Y330601D01*
X564730Y330533D01*
X564432Y330586D01*
X564178Y330752D01*
X564008Y331003D01*
X563752Y331622D01*
X561180Y334194D01*
X557819Y335586D01*
X554181Y335586D01*
X550820Y334194D01*
X548248Y331622D01*
X546856Y328261D01*
X546856Y324623D01*
X547860Y322200D01*
X547918Y321920D01*
X547862Y321622D01*
X547695Y321369D01*
X537766Y311441D01*
X537525Y311278D01*
G37*
G36*
X420719Y356273D02*
X420424Y356203D01*
X420125Y356254D01*
X419870Y356418D01*
X419698Y356668D01*
X419638Y356965D01*
X419638Y372119D01*
X419683Y372377D01*
X419840Y372636D01*
X420086Y372813D01*
X420382Y372881D01*
X420680Y372828D01*
X420934Y372662D01*
X421104Y372411D01*
X421248Y372062D01*
X423820Y369490D01*
X426731Y368284D01*
X426970Y368128D01*
X427141Y367878D01*
X427202Y367580D01*
X427202Y361504D01*
X427148Y361223D01*
X426983Y360969D01*
X426731Y360800D01*
X423820Y359594D01*
X421248Y357022D01*
X421104Y356673D01*
X420964Y356453D01*
X420719Y356273D01*
G37*
G36*
X312183Y66851D02*
X311888Y66781D01*
X311589Y66832D01*
X311334Y66995D01*
X311162Y67245D01*
X311102Y67543D01*
X311102Y70419D01*
X309710Y73780D01*
X307138Y76352D01*
X305716Y76941D01*
X305478Y77097D01*
X305306Y77347D01*
X305246Y77645D01*
X305246Y78973D01*
X305302Y79259D01*
X305469Y79512D01*
X334202Y108245D01*
X334202Y329211D01*
X334258Y329497D01*
X334425Y329749D01*
X337222Y332546D01*
X337222Y336557D01*
X337269Y336821D01*
X337428Y337079D01*
X337676Y337254D01*
X337972Y337319D01*
X338270Y337264D01*
X338523Y337096D01*
X398276Y277343D01*
X398429Y277123D01*
X398499Y276828D01*
X398448Y276529D01*
X398285Y276274D01*
X398035Y276102D01*
X397737Y276042D01*
X396774Y276042D01*
X393666Y272934D01*
X393666Y268538D01*
X396463Y265741D01*
X396626Y265500D01*
X396686Y265203D01*
X396686Y246929D01*
X419742Y223873D01*
X419902Y223637D01*
X419965Y223341D01*
X419907Y223043D01*
X419814Y222819D01*
X419814Y219181D01*
X421206Y215820D01*
X423778Y213248D01*
X427139Y211856D01*
X430777Y211856D01*
X434138Y213248D01*
X435277Y214388D01*
X435497Y214541D01*
X435792Y214610D01*
X436091Y214560D01*
X436346Y214396D01*
X436518Y214146D01*
X436578Y213849D01*
X436578Y202751D01*
X436531Y202488D01*
X436372Y202230D01*
X436124Y202054D01*
X435828Y201989D01*
X435530Y202045D01*
X435277Y202212D01*
X434138Y203352D01*
X430777Y204744D01*
X427139Y204744D01*
X423778Y203352D01*
X421206Y200780D01*
X419814Y197419D01*
X419814Y193781D01*
X420424Y192308D01*
X420482Y192040D01*
X420431Y191741D01*
X420268Y191486D01*
X420018Y191314D01*
X419968Y191304D01*
X415024Y186360D01*
X415024Y169940D01*
X414968Y169654D01*
X414801Y169402D01*
X312403Y67004D01*
X312183Y66851D01*
G37*
G36*
X653613Y319234D02*
X653316Y319174D01*
X641288Y319174D01*
X641013Y319225D01*
X640758Y319389D01*
X640586Y319639D01*
X640526Y319936D01*
X640526Y328064D01*
X640577Y328339D01*
X640741Y328594D01*
X640991Y328766D01*
X641288Y328826D01*
X653316Y328826D01*
X653591Y328775D01*
X653846Y328611D01*
X654018Y328361D01*
X654078Y328064D01*
X654078Y319936D01*
X654027Y319661D01*
X653863Y319406D01*
X653613Y319234D01*
G37*
G36*
X436484Y252495D02*
X436188Y252430D01*
X435889Y252486D01*
X435637Y252653D01*
X434138Y254152D01*
X430777Y255544D01*
X428477Y255544D01*
X428213Y255591D01*
X427955Y255750D01*
X427780Y255998D01*
X427715Y256294D01*
X427770Y256592D01*
X427938Y256845D01*
X477516Y306423D01*
X477757Y306586D01*
X478055Y306646D01*
X539437Y306646D01*
X550927Y318137D01*
X551164Y318297D01*
X551460Y318360D01*
X551758Y318302D01*
X554181Y317298D01*
X557819Y317298D01*
X561180Y318690D01*
X563752Y321262D01*
X564008Y321881D01*
X564148Y322101D01*
X564393Y322281D01*
X564688Y322351D01*
X564987Y322300D01*
X565242Y322136D01*
X565414Y321886D01*
X565474Y321589D01*
X565474Y305895D01*
X565429Y305637D01*
X565272Y305378D01*
X565026Y305201D01*
X564730Y305133D01*
X564432Y305186D01*
X564178Y305352D01*
X564008Y305603D01*
X563752Y306222D01*
X561180Y308794D01*
X557819Y310186D01*
X554181Y310186D01*
X550820Y308794D01*
X548248Y306222D01*
X547244Y303798D01*
X547088Y303560D01*
X546838Y303388D01*
X546540Y303328D01*
X546347Y303328D01*
X520130Y277111D01*
X520130Y258208D01*
X520079Y257933D01*
X519915Y257678D01*
X519665Y257506D01*
X519368Y257446D01*
X515291Y257446D01*
X514398Y256553D01*
X514398Y253647D01*
X514353Y253389D01*
X514196Y253130D01*
X513950Y252953D01*
X513654Y252885D01*
X513356Y252939D01*
X513102Y253104D01*
X512932Y253356D01*
X511759Y256187D01*
X508687Y259259D01*
X504673Y260922D01*
X445327Y260922D01*
X441313Y259259D01*
X438241Y256187D01*
X436879Y252900D01*
X436731Y252670D01*
X436484Y252495D01*
G37*
G36*
X238111Y244126D02*
X237814Y244066D01*
X236386Y244066D01*
X236111Y244117D01*
X235856Y244281D01*
X235684Y244531D01*
X235624Y244828D01*
X235624Y254751D01*
X234731Y255644D01*
X234116Y255644D01*
X233841Y255695D01*
X233586Y255859D01*
X233414Y256109D01*
X233354Y256406D01*
X233354Y284449D01*
X233410Y284735D01*
X233577Y284988D01*
X265722Y317133D01*
X265963Y317296D01*
X266261Y317356D01*
X268319Y317356D01*
X271680Y318748D01*
X273465Y320534D01*
X273685Y320687D01*
X273980Y320756D01*
X274279Y320706D01*
X274534Y320542D01*
X274706Y320292D01*
X274766Y319995D01*
X274766Y307605D01*
X274719Y307342D01*
X274560Y307084D01*
X274312Y306908D01*
X274016Y306843D01*
X273718Y306899D01*
X273465Y307066D01*
X271680Y308852D01*
X268319Y310244D01*
X264681Y310244D01*
X261320Y308852D01*
X258748Y306280D01*
X257356Y302919D01*
X257356Y299486D01*
X257300Y299200D01*
X257133Y298947D01*
X244286Y286100D01*
X244286Y256406D01*
X244235Y256131D01*
X244071Y255876D01*
X243821Y255704D01*
X243524Y255644D01*
X239469Y255644D01*
X238576Y254751D01*
X238576Y244828D01*
X238525Y244553D01*
X238361Y244298D01*
X238111Y244126D01*
G37*
G36*
X653613Y293834D02*
X653316Y293774D01*
X641288Y293774D01*
X641013Y293825D01*
X640758Y293989D01*
X640586Y294239D01*
X640526Y294536D01*
X640526Y302664D01*
X640577Y302939D01*
X640741Y303194D01*
X640991Y303366D01*
X641288Y303426D01*
X653316Y303426D01*
X653591Y303375D01*
X653846Y303211D01*
X654018Y302961D01*
X654078Y302664D01*
X654078Y294536D01*
X654027Y294261D01*
X653863Y294006D01*
X653613Y293834D01*
G37*
G36*
X524789Y231152D02*
X524494Y231082D01*
X524195Y231133D01*
X523940Y231296D01*
X523768Y231546D01*
X523708Y231843D01*
X523708Y243636D01*
X523759Y243911D01*
X523923Y244166D01*
X524173Y244338D01*
X524470Y244398D01*
X527553Y244398D01*
X528446Y245291D01*
X528446Y256553D01*
X527553Y257446D01*
X525464Y257446D01*
X525189Y257497D01*
X524934Y257661D01*
X524762Y257911D01*
X524702Y258208D01*
X524702Y274901D01*
X524758Y275187D01*
X524925Y275440D01*
X546592Y297107D01*
X546817Y297263D01*
X547113Y297330D01*
X547411Y297277D01*
X547665Y297111D01*
X547835Y296860D01*
X548248Y295862D01*
X550820Y293290D01*
X554181Y291898D01*
X557819Y291898D01*
X561180Y293290D01*
X563752Y295862D01*
X564008Y296481D01*
X564148Y296701D01*
X564393Y296881D01*
X564688Y296951D01*
X564987Y296900D01*
X565242Y296736D01*
X565414Y296486D01*
X565474Y296189D01*
X565474Y267479D01*
X565418Y267193D01*
X565251Y266940D01*
X546747Y248436D01*
X546527Y248283D01*
X546232Y248213D01*
X545933Y248264D01*
X545678Y248427D01*
X545506Y248677D01*
X545446Y248975D01*
X545446Y256553D01*
X544553Y257446D01*
X532291Y257446D01*
X531398Y256553D01*
X531398Y245291D01*
X532291Y244398D01*
X534608Y244398D01*
X534883Y244347D01*
X535138Y244183D01*
X535310Y243933D01*
X535370Y243636D01*
X535370Y241981D01*
X535314Y241695D01*
X535147Y241443D01*
X525009Y231305D01*
X524789Y231152D01*
G37*
G36*
X268227Y173771D02*
X267932Y173701D01*
X267633Y173752D01*
X267378Y173915D01*
X267206Y174165D01*
X267146Y174463D01*
X267146Y218343D01*
X244194Y241295D01*
X244041Y241515D01*
X243971Y241810D01*
X244022Y242109D01*
X244185Y242364D01*
X244435Y242536D01*
X244733Y242596D01*
X251731Y242596D01*
X252624Y243489D01*
X252624Y254751D01*
X251731Y255644D01*
X249620Y255644D01*
X249345Y255695D01*
X249090Y255859D01*
X248918Y256109D01*
X248858Y256406D01*
X248858Y283891D01*
X248914Y284177D01*
X249081Y284430D01*
X259121Y294470D01*
X259352Y294628D01*
X259648Y294693D01*
X259946Y294637D01*
X260199Y294470D01*
X261320Y293348D01*
X264681Y291956D01*
X268319Y291956D01*
X271680Y293348D01*
X273465Y295134D01*
X273685Y295287D01*
X273980Y295356D01*
X274279Y295306D01*
X274534Y295142D01*
X274706Y294892D01*
X274766Y294595D01*
X274766Y180559D01*
X274710Y180273D01*
X274543Y180020D01*
X268447Y173924D01*
X268227Y173771D01*
G37*
G36*
X653613Y268434D02*
X653316Y268374D01*
X641288Y268374D01*
X641013Y268425D01*
X640758Y268589D01*
X640586Y268839D01*
X640526Y269136D01*
X640526Y277264D01*
X640577Y277539D01*
X640741Y277794D01*
X640991Y277966D01*
X641288Y278026D01*
X653316Y278026D01*
X653591Y277975D01*
X653846Y277811D01*
X654018Y277561D01*
X654078Y277264D01*
X654078Y269136D01*
X654027Y268861D01*
X653863Y268606D01*
X653613Y268434D01*
G37*
G36*
X410649Y240121D02*
X410353Y240056D01*
X410055Y240112D01*
X409802Y240279D01*
X401481Y248600D01*
X401318Y248841D01*
X401258Y249139D01*
X401258Y265203D01*
X401314Y265489D01*
X401481Y265741D01*
X404278Y268538D01*
X404278Y269501D01*
X404325Y269765D01*
X404484Y270023D01*
X404732Y270198D01*
X405028Y270263D01*
X405326Y270208D01*
X405579Y270040D01*
X419417Y256202D01*
X419580Y255961D01*
X419640Y255663D01*
X419640Y255329D01*
X419584Y255043D01*
X419417Y254790D01*
X416498Y251871D01*
X416498Y245651D01*
X416447Y245377D01*
X416283Y245121D01*
X416033Y244950D01*
X415736Y244889D01*
X414211Y244889D01*
X411103Y241781D01*
X411103Y240818D01*
X411056Y240555D01*
X410896Y240296D01*
X410649Y240121D01*
G37*
G36*
X238288Y227362D02*
X237991Y227302D01*
X188186Y227302D01*
X187911Y227353D01*
X187656Y227517D01*
X187484Y227767D01*
X187424Y228064D01*
X187424Y231981D01*
X187344Y232061D01*
X187186Y232292D01*
X187121Y232588D01*
X187177Y232886D01*
X187344Y233139D01*
X187424Y233219D01*
X187424Y236981D01*
X186531Y237874D01*
X185612Y237874D01*
X185337Y237925D01*
X185082Y238089D01*
X184910Y238339D01*
X184850Y238636D01*
X184850Y269473D01*
X184897Y269737D01*
X185056Y269995D01*
X185304Y270170D01*
X185600Y270235D01*
X185898Y270180D01*
X186151Y270012D01*
X219717Y236446D01*
X237689Y236446D01*
X237975Y236390D01*
X238228Y236223D01*
X242828Y231623D01*
X242981Y231403D01*
X243051Y231108D01*
X243000Y230809D01*
X242837Y230554D01*
X242587Y230382D01*
X242289Y230322D01*
X241326Y230322D01*
X238529Y227525D01*
X238288Y227362D01*
G37*
G36*
X536033Y212858D02*
X535736Y212798D01*
X533958Y212798D01*
X533683Y212849D01*
X533428Y213013D01*
X533256Y213263D01*
X533196Y213560D01*
X533196Y226543D01*
X532797Y226942D01*
X532639Y227173D01*
X532574Y227469D01*
X532629Y227767D01*
X532797Y228020D01*
X563025Y258248D01*
X563245Y258401D01*
X563540Y258471D01*
X563839Y258420D01*
X564094Y258257D01*
X564266Y258007D01*
X564326Y257709D01*
X564326Y228198D01*
X564275Y227923D01*
X564111Y227668D01*
X563861Y227496D01*
X563564Y227436D01*
X562031Y227436D01*
X561138Y226543D01*
X561138Y217731D01*
X561082Y217445D01*
X560915Y217192D01*
X559137Y215414D01*
X558917Y215261D01*
X558622Y215191D01*
X558323Y215242D01*
X558068Y215405D01*
X557896Y215655D01*
X557836Y215953D01*
X557836Y226543D01*
X556943Y227436D01*
X550091Y227436D01*
X549198Y226543D01*
X549198Y213560D01*
X549147Y213285D01*
X548983Y213030D01*
X548733Y212858D01*
X548436Y212798D01*
X545898Y212798D01*
X545623Y212849D01*
X545368Y213013D01*
X545196Y213263D01*
X545136Y213560D01*
X545136Y226543D01*
X544243Y227436D01*
X537391Y227436D01*
X536498Y226543D01*
X536498Y213560D01*
X536447Y213285D01*
X536283Y213030D01*
X536033Y212858D01*
G37*
G36*
X653613Y243034D02*
X653316Y242974D01*
X641288Y242974D01*
X641013Y243025D01*
X640758Y243189D01*
X640586Y243439D01*
X640526Y243736D01*
X640526Y251864D01*
X640577Y252139D01*
X640741Y252394D01*
X640991Y252566D01*
X641288Y252626D01*
X653316Y252626D01*
X653591Y252575D01*
X653846Y252411D01*
X654018Y252161D01*
X654078Y251864D01*
X654078Y243736D01*
X654027Y243461D01*
X653863Y243206D01*
X653613Y243034D01*
G37*
G36*
X592003Y55005D02*
X591708Y54936D01*
X591409Y54986D01*
X591154Y55150D01*
X590982Y55400D01*
X590922Y55697D01*
X590922Y149673D01*
X589259Y153687D01*
X586187Y156759D01*
X582173Y158422D01*
X514184Y158422D01*
X513909Y158473D01*
X513654Y158637D01*
X513482Y158887D01*
X513422Y159184D01*
X513422Y244427D01*
X513469Y244690D01*
X513628Y244948D01*
X513876Y245124D01*
X514172Y245189D01*
X514470Y245133D01*
X514723Y244966D01*
X515291Y244398D01*
X518374Y244398D01*
X518649Y244347D01*
X518904Y244183D01*
X519076Y243933D01*
X519136Y243636D01*
X519136Y230058D01*
X519080Y229772D01*
X518913Y229519D01*
X518462Y229068D01*
X518462Y209709D01*
X522993Y205178D01*
X549608Y205178D01*
X549894Y205122D01*
X550147Y204955D01*
X573007Y182095D01*
X573160Y181875D01*
X573229Y181580D01*
X573179Y181281D01*
X573015Y181026D01*
X572765Y180854D01*
X572468Y180794D01*
X536709Y180794D01*
X533024Y177109D01*
X532783Y176946D01*
X532485Y176886D01*
X525451Y176886D01*
X524558Y175993D01*
X524558Y162791D01*
X525451Y161898D01*
X532303Y161898D01*
X533196Y162791D01*
X533196Y170499D01*
X533252Y170785D01*
X533419Y171038D01*
X535197Y172816D01*
X535417Y172969D01*
X535712Y173039D01*
X536011Y172988D01*
X536266Y172825D01*
X536438Y172575D01*
X536498Y172277D01*
X536498Y162791D01*
X537391Y161898D01*
X544243Y161898D01*
X545136Y162791D01*
X545136Y175460D01*
X545187Y175735D01*
X545351Y175990D01*
X545601Y176162D01*
X545898Y176222D01*
X548436Y176222D01*
X548711Y176171D01*
X548966Y176007D01*
X549138Y175757D01*
X549198Y175460D01*
X549198Y162791D01*
X550091Y161898D01*
X556943Y161898D01*
X557836Y162791D01*
X557836Y175460D01*
X557887Y175735D01*
X558051Y175990D01*
X558301Y176162D01*
X558598Y176222D01*
X560376Y176222D01*
X560651Y176171D01*
X560906Y176007D01*
X561078Y175757D01*
X561138Y175460D01*
X561138Y162791D01*
X562031Y161898D01*
X568883Y161898D01*
X569776Y162791D01*
X569776Y175460D01*
X569827Y175735D01*
X569991Y175990D01*
X570241Y176162D01*
X570538Y176222D01*
X574253Y176222D01*
X574539Y176166D01*
X574792Y175999D01*
X596675Y154116D01*
X596838Y153874D01*
X596898Y153577D01*
X596898Y146288D01*
X617992Y125194D01*
X639092Y125194D01*
X639367Y125143D01*
X639622Y124979D01*
X639794Y124729D01*
X639854Y124432D01*
X639854Y120319D01*
X640747Y119426D01*
X653316Y119426D01*
X653591Y119375D01*
X653846Y119211D01*
X654018Y118961D01*
X654078Y118664D01*
X654078Y55697D01*
X654061Y55535D01*
X653939Y55258D01*
X653718Y55050D01*
X653434Y54944D01*
X653131Y54958D01*
X652857Y55089D01*
X652656Y55316D01*
X648526Y62470D01*
X642470Y68526D01*
X635054Y72808D01*
X626782Y75024D01*
X618218Y75024D01*
X609946Y72808D01*
X602530Y68526D01*
X596474Y62470D01*
X592344Y55316D01*
X592248Y55185D01*
X592003Y55005D01*
G37*
G36*
X436124Y227454D02*
X435828Y227389D01*
X435530Y227445D01*
X435277Y227612D01*
X434138Y228752D01*
X430777Y230144D01*
X427139Y230144D01*
X423778Y228752D01*
X423092Y228066D01*
X422862Y227908D01*
X422566Y227843D01*
X422268Y227899D01*
X422015Y228066D01*
X417104Y232977D01*
X416951Y233196D01*
X416882Y233491D01*
X416932Y233790D01*
X417096Y234045D01*
X417346Y234217D01*
X417643Y234277D01*
X418607Y234277D01*
X421715Y237386D01*
X421715Y238872D01*
X421762Y239135D01*
X421921Y239393D01*
X422168Y239569D01*
X422465Y239634D01*
X422763Y239578D01*
X423016Y239411D01*
X423778Y238648D01*
X427139Y237256D01*
X430777Y237256D01*
X434138Y238648D01*
X435277Y239788D01*
X435497Y239941D01*
X435792Y240010D01*
X436091Y239960D01*
X436346Y239796D01*
X436518Y239546D01*
X436578Y239249D01*
X436578Y228151D01*
X436531Y227888D01*
X436372Y227630D01*
X436124Y227454D01*
G37*
G36*
X653613Y217634D02*
X653316Y217574D01*
X641288Y217574D01*
X641013Y217625D01*
X640758Y217789D01*
X640586Y218039D01*
X640526Y218336D01*
X640526Y226464D01*
X640577Y226739D01*
X640741Y226994D01*
X640991Y227166D01*
X641288Y227226D01*
X653316Y227226D01*
X653591Y227175D01*
X653846Y227011D01*
X654018Y226761D01*
X654078Y226464D01*
X654078Y218336D01*
X654027Y218061D01*
X653863Y217806D01*
X653613Y217634D01*
G37*
G36*
X259061Y186584D02*
X258764Y186524D01*
X248106Y186524D01*
X247820Y186580D01*
X247567Y186747D01*
X233460Y200854D01*
X233135Y200854D01*
X232849Y200910D01*
X232596Y201077D01*
X218340Y215333D01*
X218187Y215553D01*
X218117Y215848D01*
X218168Y216147D01*
X218331Y216402D01*
X218581Y216574D01*
X218879Y216634D01*
X230371Y216634D01*
X230657Y216578D01*
X230909Y216411D01*
X233706Y213614D01*
X238102Y213614D01*
X241210Y216722D01*
X241210Y218948D01*
X241261Y219223D01*
X241425Y219478D01*
X241675Y219650D01*
X241972Y219710D01*
X245722Y219710D01*
X248830Y222818D01*
X248830Y223781D01*
X248877Y224045D01*
X249036Y224303D01*
X249284Y224478D01*
X249580Y224543D01*
X249878Y224488D01*
X250131Y224320D01*
X259303Y215148D01*
X259466Y214907D01*
X259526Y214609D01*
X259526Y187286D01*
X259475Y187011D01*
X259311Y186756D01*
X259061Y186584D01*
G37*
G36*
X101227Y107422D02*
X100932Y107352D01*
X100633Y107403D01*
X100378Y107566D01*
X100206Y107816D01*
X100146Y108114D01*
X100146Y120581D01*
X99253Y121474D01*
X96244Y121474D01*
X95969Y121525D01*
X95714Y121689D01*
X95542Y121939D01*
X95482Y122236D01*
X95482Y163308D01*
X95538Y163594D01*
X95705Y163847D01*
X110742Y178884D01*
X110742Y216251D01*
X110369Y216624D01*
X110206Y216865D01*
X110146Y217163D01*
X110146Y221118D01*
X109835Y221429D01*
X109682Y221649D01*
X109612Y221944D01*
X109663Y222243D01*
X109826Y222498D01*
X110076Y222670D01*
X110373Y222730D01*
X159614Y222730D01*
X159889Y222679D01*
X160144Y222515D01*
X160316Y222265D01*
X160376Y221968D01*
X160376Y218219D01*
X161269Y217326D01*
X167531Y217326D01*
X168058Y217853D01*
X168300Y218016D01*
X168597Y218076D01*
X172239Y218076D01*
X172525Y218020D01*
X172778Y217853D01*
X178569Y212062D01*
X214829Y212062D01*
X215115Y212006D01*
X215368Y211839D01*
X224512Y202695D01*
X224670Y202464D01*
X224735Y202168D01*
X224680Y201870D01*
X224512Y201617D01*
X217640Y194745D01*
X217410Y194587D01*
X217114Y194522D01*
X216816Y194578D01*
X216563Y194745D01*
X214514Y196794D01*
X213846Y196794D01*
X213571Y196845D01*
X213316Y197009D01*
X213144Y197259D01*
X213084Y197556D01*
X213084Y202000D01*
X209976Y205108D01*
X205580Y205108D01*
X202472Y202000D01*
X202472Y197604D01*
X204006Y196070D01*
X204164Y195840D01*
X204229Y195543D01*
X204174Y195245D01*
X204006Y194993D01*
X203962Y194948D01*
X203962Y188028D01*
X211787Y180203D01*
X211940Y179983D01*
X212010Y179688D01*
X211959Y179389D01*
X211795Y179134D01*
X211545Y178962D01*
X211248Y178902D01*
X162088Y178902D01*
X114746Y131560D01*
X114746Y121190D01*
X114690Y120904D01*
X114523Y120651D01*
X101447Y107575D01*
X101227Y107422D01*
G37*
G36*
X84503Y167759D02*
X84208Y167689D01*
X83909Y167740D01*
X83654Y167903D01*
X83482Y168153D01*
X83422Y168451D01*
X83422Y186184D01*
X83473Y186459D01*
X83637Y186714D01*
X83887Y186886D01*
X84184Y186946D01*
X96753Y186946D01*
X97646Y187839D01*
X97646Y199033D01*
X97702Y199319D01*
X97869Y199572D01*
X99496Y201199D01*
X99737Y201362D01*
X100035Y201422D01*
X103990Y201422D01*
X104869Y202301D01*
X105089Y202454D01*
X105384Y202524D01*
X105683Y202473D01*
X105938Y202310D01*
X106110Y202060D01*
X106170Y201763D01*
X106170Y187905D01*
X106123Y187642D01*
X105964Y187384D01*
X105716Y187209D01*
X105420Y187144D01*
X105122Y187199D01*
X104869Y187367D01*
X104586Y187650D01*
X100190Y187650D01*
X97082Y184542D01*
X97082Y180587D01*
X97026Y180301D01*
X96859Y180048D01*
X84723Y167912D01*
X84503Y167759D01*
G37*
G36*
X653613Y160634D02*
X653316Y160574D01*
X641288Y160574D01*
X641013Y160625D01*
X640758Y160789D01*
X640586Y161039D01*
X640526Y161336D01*
X640526Y201064D01*
X640577Y201339D01*
X640741Y201594D01*
X640991Y201766D01*
X641288Y201826D01*
X653316Y201826D01*
X653591Y201775D01*
X653846Y201611D01*
X654018Y201361D01*
X654078Y201064D01*
X654078Y161336D01*
X654027Y161061D01*
X653863Y160806D01*
X653613Y160634D01*
G37*
G36*
X229011Y183166D02*
X228714Y183106D01*
X215665Y183106D01*
X215379Y183162D01*
X215126Y183329D01*
X213574Y184881D01*
X213421Y185101D01*
X213351Y185396D01*
X213402Y185695D01*
X213566Y185950D01*
X213816Y186122D01*
X214113Y186182D01*
X214514Y186182D01*
X217311Y188979D01*
X217552Y189142D01*
X217849Y189202D01*
X218563Y189202D01*
X227745Y198384D01*
X227976Y198542D01*
X228272Y198607D01*
X228570Y198552D01*
X228823Y198384D01*
X230925Y196282D01*
X231251Y196282D01*
X231537Y196226D01*
X231790Y196059D01*
X240024Y187825D01*
X240177Y187605D01*
X240247Y187310D01*
X240196Y187011D01*
X240032Y186756D01*
X239782Y186584D01*
X239485Y186524D01*
X230369Y186524D01*
X229476Y185631D01*
X229476Y183868D01*
X229425Y183593D01*
X229261Y183338D01*
X229011Y183166D01*
G37*
G36*
X238072Y37794D02*
X237776Y37729D01*
X237478Y37784D01*
X237225Y37952D01*
X234497Y40680D01*
X234334Y40921D01*
X234274Y41219D01*
X234274Y49253D01*
X233381Y50146D01*
X219419Y50146D01*
X218526Y49253D01*
X218526Y38679D01*
X218479Y38415D01*
X218320Y38157D01*
X218072Y37982D01*
X217776Y37917D01*
X217478Y37972D01*
X217225Y38140D01*
X214497Y40868D01*
X214334Y41109D01*
X214274Y41407D01*
X214274Y49253D01*
X213381Y50146D01*
X203267Y50146D01*
X203003Y50193D01*
X202745Y50352D01*
X202570Y50600D01*
X202505Y50896D01*
X202560Y51194D01*
X202728Y51447D01*
X239676Y88395D01*
X239917Y88558D01*
X240215Y88618D01*
X276475Y88618D01*
X288472Y100615D01*
X288713Y100778D01*
X289011Y100838D01*
X292966Y100838D01*
X296074Y103946D01*
X296074Y108342D01*
X292966Y111450D01*
X288570Y111450D01*
X288259Y111139D01*
X288039Y110986D01*
X287744Y110916D01*
X287445Y110967D01*
X287190Y111130D01*
X287018Y111380D01*
X286958Y111677D01*
X286958Y165841D01*
X287014Y166127D01*
X287181Y166380D01*
X291513Y170712D01*
X291733Y170865D01*
X292028Y170935D01*
X292327Y170884D01*
X292582Y170721D01*
X292754Y170471D01*
X292814Y170173D01*
X292814Y168381D01*
X294206Y165020D01*
X296778Y162448D01*
X300139Y161056D01*
X303777Y161056D01*
X307138Y162448D01*
X309710Y165020D01*
X311102Y168381D01*
X311102Y172019D01*
X309710Y175380D01*
X307138Y177952D01*
X303777Y179344D01*
X301985Y179344D01*
X301721Y179391D01*
X301463Y179550D01*
X301288Y179798D01*
X301223Y180094D01*
X301278Y180392D01*
X301446Y180645D01*
X303684Y182883D01*
X303925Y183046D01*
X304223Y183106D01*
X306955Y183106D01*
X317428Y193579D01*
X317669Y193742D01*
X317967Y193802D01*
X321922Y193802D01*
X322233Y194113D01*
X322453Y194266D01*
X322748Y194336D01*
X323047Y194285D01*
X323302Y194122D01*
X323474Y193872D01*
X323534Y193575D01*
X323534Y130267D01*
X323478Y129981D01*
X323311Y129728D01*
X312403Y118820D01*
X312183Y118667D01*
X311888Y118597D01*
X311589Y118648D01*
X311334Y118811D01*
X311162Y119061D01*
X311102Y119359D01*
X311102Y121219D01*
X309710Y124580D01*
X307138Y127152D01*
X305716Y127741D01*
X305478Y127897D01*
X305306Y128147D01*
X305246Y128445D01*
X305246Y135755D01*
X305299Y136036D01*
X305465Y136290D01*
X305716Y136459D01*
X307138Y137048D01*
X309710Y139620D01*
X311102Y142981D01*
X311102Y146619D01*
X309710Y149980D01*
X307138Y152552D01*
X303777Y153944D01*
X300139Y153944D01*
X296778Y152552D01*
X294206Y149980D01*
X292814Y146619D01*
X292814Y142981D01*
X294206Y139620D01*
X296778Y137048D01*
X300204Y135629D01*
X300442Y135473D01*
X300614Y135223D01*
X300674Y134925D01*
X300674Y129275D01*
X300621Y128994D01*
X300455Y128740D01*
X300204Y128571D01*
X296778Y127152D01*
X294206Y124580D01*
X292814Y121219D01*
X292814Y117581D01*
X294206Y114220D01*
X296778Y111648D01*
X300139Y110256D01*
X301999Y110256D01*
X302263Y110209D01*
X302521Y110050D01*
X302696Y109802D01*
X302761Y109506D01*
X302706Y109208D01*
X302538Y108955D01*
X300674Y107091D01*
X300674Y103875D01*
X300621Y103594D01*
X300455Y103340D01*
X300204Y103171D01*
X296778Y101752D01*
X294206Y99180D01*
X292814Y95819D01*
X292814Y92181D01*
X294206Y88820D01*
X296778Y86248D01*
X300139Y84856D01*
X302507Y84856D01*
X302771Y84809D01*
X303029Y84650D01*
X303204Y84402D01*
X303269Y84106D01*
X303214Y83808D01*
X303046Y83555D01*
X300674Y81183D01*
X300674Y78475D01*
X300621Y78194D01*
X300455Y77940D01*
X300204Y77771D01*
X296778Y76352D01*
X294206Y73780D01*
X292814Y70419D01*
X292814Y66781D01*
X294206Y63420D01*
X295975Y61651D01*
X296128Y61432D01*
X296198Y61137D01*
X296147Y60838D01*
X295984Y60582D01*
X295734Y60411D01*
X295436Y60350D01*
X264601Y60350D01*
X254428Y50177D01*
X254198Y50019D01*
X253901Y49954D01*
X253603Y50009D01*
X253397Y50146D01*
X239419Y50146D01*
X238526Y49253D01*
X238526Y38491D01*
X238479Y38227D01*
X238320Y37969D01*
X238072Y37794D01*
G37*
G36*
X420677Y174631D02*
X420382Y174561D01*
X420083Y174612D01*
X419828Y174776D01*
X419656Y175026D01*
X419596Y175323D01*
X419596Y184151D01*
X419652Y184437D01*
X419819Y184690D01*
X421588Y186459D01*
X421830Y186622D01*
X422127Y186682D01*
X423273Y186682D01*
X423885Y187295D01*
X424122Y187455D01*
X424418Y187518D01*
X424716Y187460D01*
X427139Y186456D01*
X430777Y186456D01*
X434138Y187848D01*
X435277Y188988D01*
X435497Y189141D01*
X435792Y189210D01*
X436091Y189160D01*
X436346Y188996D01*
X436518Y188746D01*
X436578Y188449D01*
X436578Y177351D01*
X436531Y177088D01*
X436372Y176830D01*
X436124Y176654D01*
X435828Y176589D01*
X435530Y176645D01*
X435277Y176812D01*
X434138Y177952D01*
X430777Y179344D01*
X427139Y179344D01*
X423778Y177952D01*
X421206Y175380D01*
X421062Y175031D01*
X420922Y174811D01*
X420677Y174631D01*
G37*
G36*
X162425Y128681D02*
X162129Y128616D01*
X161831Y128671D01*
X161578Y128839D01*
X157603Y132814D01*
X124305Y132814D01*
X124042Y132861D01*
X123784Y133020D01*
X123608Y133268D01*
X123543Y133564D01*
X123599Y133862D01*
X123766Y134115D01*
X163758Y174107D01*
X164000Y174270D01*
X164297Y174330D01*
X183193Y174330D01*
X183457Y174283D01*
X183715Y174124D01*
X183890Y173876D01*
X183955Y173580D01*
X183900Y173282D01*
X183732Y173029D01*
X168086Y157383D01*
X168086Y129736D01*
X168035Y129461D01*
X167871Y129206D01*
X167621Y129034D01*
X167324Y128974D01*
X162791Y128974D01*
X162656Y128839D01*
X162425Y128681D01*
G37*
G36*
X204459Y114586D02*
X204161Y114526D01*
X198408Y114526D01*
X198133Y114577D01*
X197878Y114741D01*
X197706Y114991D01*
X197646Y115288D01*
X197646Y128081D01*
X196753Y128974D01*
X191708Y128974D01*
X191433Y129025D01*
X191178Y129189D01*
X191006Y129439D01*
X190946Y129736D01*
X190946Y160047D01*
X191002Y160333D01*
X191169Y160585D01*
X193966Y163382D01*
X193966Y167778D01*
X191763Y169981D01*
X191610Y170201D01*
X191540Y170496D01*
X191591Y170795D01*
X191754Y171050D01*
X192004Y171222D01*
X192301Y171282D01*
X220557Y171282D01*
X220843Y171226D01*
X221096Y171059D01*
X224279Y167876D01*
X224442Y167635D01*
X224502Y167337D01*
X224502Y163382D01*
X227610Y160274D01*
X232006Y160274D01*
X235114Y163382D01*
X235114Y167778D01*
X234803Y168089D01*
X234650Y168309D01*
X234580Y168604D01*
X234631Y168903D01*
X234794Y169158D01*
X235044Y169330D01*
X235341Y169390D01*
X257501Y169390D01*
X257765Y169343D01*
X258023Y169184D01*
X258198Y168936D01*
X258263Y168640D01*
X258208Y168342D01*
X258040Y168089D01*
X204700Y114749D01*
X204459Y114586D01*
G37*
G36*
X299991Y46006D02*
X299694Y45946D01*
X275036Y45946D01*
X274761Y45997D01*
X274506Y46161D01*
X274334Y46411D01*
X274274Y46708D01*
X274274Y49253D01*
X273381Y50146D01*
X262703Y50146D01*
X262439Y50193D01*
X262181Y50352D01*
X262006Y50600D01*
X261941Y50896D01*
X261996Y51194D01*
X262164Y51447D01*
X266272Y55555D01*
X266514Y55718D01*
X266811Y55778D01*
X307643Y55778D01*
X419134Y167269D01*
X419359Y167425D01*
X419655Y167492D01*
X419954Y167439D01*
X420208Y167273D01*
X420377Y167022D01*
X420390Y166991D01*
X420448Y166712D01*
X420392Y166414D01*
X420224Y166161D01*
X300233Y46169D01*
X299991Y46006D01*
G37*
G36*
X84948Y104586D02*
X84651Y104526D01*
X79893Y104526D01*
X79630Y104573D01*
X79372Y104732D01*
X79196Y104980D01*
X79131Y105276D01*
X79187Y105574D01*
X79354Y105827D01*
X80146Y106619D01*
X80146Y120581D01*
X79253Y121474D01*
X76432Y121474D01*
X76157Y121525D01*
X75902Y121689D01*
X75730Y121939D01*
X75670Y122236D01*
X75670Y143500D01*
X75726Y143786D01*
X75893Y144038D01*
X86470Y154615D01*
X86470Y162877D01*
X86526Y163163D01*
X86693Y163416D01*
X89609Y166332D01*
X89829Y166485D01*
X90124Y166555D01*
X90423Y166504D01*
X90678Y166341D01*
X90850Y166091D01*
X90910Y165793D01*
X90910Y122236D01*
X90859Y121961D01*
X90695Y121706D01*
X90445Y121534D01*
X90148Y121474D01*
X85291Y121474D01*
X84398Y120581D01*
X84398Y106619D01*
X85190Y105827D01*
X85343Y105607D01*
X85413Y105312D01*
X85362Y105013D01*
X85198Y104758D01*
X84948Y104586D01*
G37*
G36*
X181433Y114586D02*
X181136Y114526D01*
X178408Y114526D01*
X178133Y114577D01*
X177878Y114741D01*
X177706Y114991D01*
X177646Y115288D01*
X177646Y128081D01*
X176753Y128974D01*
X173420Y128974D01*
X173145Y129025D01*
X172890Y129189D01*
X172718Y129439D01*
X172658Y129736D01*
X172658Y155173D01*
X172714Y155459D01*
X172881Y155712D01*
X182053Y164884D01*
X182273Y165037D01*
X182568Y165107D01*
X182867Y165056D01*
X183122Y164893D01*
X183294Y164643D01*
X183354Y164345D01*
X183354Y163382D01*
X186151Y160585D01*
X186314Y160344D01*
X186374Y160047D01*
X186374Y129736D01*
X186323Y129461D01*
X186159Y129206D01*
X185909Y129034D01*
X185612Y128974D01*
X182791Y128974D01*
X181898Y128081D01*
X181898Y115288D01*
X181847Y115013D01*
X181683Y114758D01*
X181433Y114586D01*
G37*
G36*
X314723Y35338D02*
X314426Y35278D01*
X275036Y35278D01*
X274761Y35329D01*
X274506Y35493D01*
X274334Y35743D01*
X274274Y36040D01*
X274274Y40612D01*
X274325Y40887D01*
X274489Y41142D01*
X274739Y41314D01*
X275036Y41374D01*
X301903Y41374D01*
X422852Y162323D01*
X423088Y162483D01*
X423385Y162546D01*
X423682Y162488D01*
X427139Y161056D01*
X430777Y161056D01*
X434138Y162448D01*
X435277Y163588D01*
X435497Y163741D01*
X435792Y163810D01*
X436091Y163760D01*
X436346Y163596D01*
X436518Y163346D01*
X436578Y163049D01*
X436578Y151951D01*
X436531Y151688D01*
X436372Y151430D01*
X436124Y151254D01*
X435828Y151189D01*
X435530Y151245D01*
X435277Y151412D01*
X434138Y152552D01*
X430777Y153944D01*
X427139Y153944D01*
X423778Y152552D01*
X421206Y149980D01*
X419814Y146619D01*
X419814Y142981D01*
X420390Y141591D01*
X420448Y141312D01*
X420392Y141014D01*
X420224Y140761D01*
X314965Y35501D01*
X314723Y35338D01*
G37*
G36*
X265185Y99894D02*
X264888Y99834D01*
X212475Y99834D01*
X212211Y99881D01*
X211953Y100040D01*
X211778Y100288D01*
X211713Y100584D01*
X211768Y100882D01*
X211936Y101135D01*
X269300Y158499D01*
X269541Y158662D01*
X269839Y158722D01*
X273043Y158722D01*
X273329Y158666D01*
X273581Y158499D01*
X276378Y155702D01*
X280774Y155702D01*
X281085Y156013D01*
X281305Y156166D01*
X281600Y156236D01*
X281899Y156185D01*
X282154Y156022D01*
X282326Y155772D01*
X282386Y155475D01*
X282386Y105883D01*
X282330Y105597D01*
X282163Y105344D01*
X277563Y100744D01*
X277343Y100591D01*
X277048Y100521D01*
X276749Y100572D01*
X276494Y100735D01*
X276322Y100985D01*
X276262Y101283D01*
X276262Y102246D01*
X273154Y105354D01*
X268758Y105354D01*
X265650Y102246D01*
X265650Y100596D01*
X265599Y100321D01*
X265435Y100066D01*
X265185Y99894D01*
G37*
G36*
X436113Y10982D02*
X435816Y10922D01*
X55697Y10922D01*
X55535Y10939D01*
X55258Y11061D01*
X55050Y11282D01*
X54944Y11567D01*
X54958Y11869D01*
X55089Y12143D01*
X55316Y12344D01*
X62470Y16474D01*
X68526Y22530D01*
X72808Y29946D01*
X75024Y38218D01*
X75024Y46782D01*
X72808Y55054D01*
X68526Y62470D01*
X62470Y68526D01*
X55054Y72808D01*
X46782Y75024D01*
X38218Y75024D01*
X29946Y72808D01*
X22530Y68526D01*
X16474Y62470D01*
X12344Y55316D01*
X12248Y55185D01*
X12003Y55005D01*
X11708Y54936D01*
X11409Y54986D01*
X11154Y55150D01*
X10982Y55400D01*
X10922Y55697D01*
X10922Y153316D01*
X10973Y153591D01*
X11137Y153846D01*
X11387Y154018D01*
X11684Y154078D01*
X74673Y154078D01*
X78687Y155741D01*
X80597Y157651D01*
X80817Y157804D01*
X81112Y157874D01*
X81411Y157823D01*
X81666Y157660D01*
X81838Y157410D01*
X81898Y157112D01*
X81898Y156825D01*
X81842Y156539D01*
X81675Y156286D01*
X71098Y145709D01*
X71098Y122236D01*
X71047Y121961D01*
X70883Y121706D01*
X70633Y121534D01*
X70336Y121474D01*
X65291Y121474D01*
X64398Y120581D01*
X64398Y109655D01*
X64351Y109391D01*
X64192Y109133D01*
X63944Y108958D01*
X63648Y108893D01*
X63350Y108948D01*
X63097Y109116D01*
X60369Y111844D01*
X60206Y112085D01*
X60146Y112383D01*
X60146Y120581D01*
X59253Y121474D01*
X45291Y121474D01*
X44398Y120581D01*
X44398Y109843D01*
X44351Y109579D01*
X44192Y109321D01*
X43944Y109146D01*
X43648Y109081D01*
X43350Y109136D01*
X43097Y109304D01*
X40369Y112032D01*
X40206Y112273D01*
X40146Y112571D01*
X40146Y120581D01*
X39253Y121474D01*
X25291Y121474D01*
X24398Y120581D01*
X24398Y106619D01*
X25291Y105726D01*
X39281Y105726D01*
X39423Y105823D01*
X39719Y105888D01*
X40017Y105833D01*
X40270Y105665D01*
X49029Y96906D01*
X101554Y96906D01*
X120597Y115949D01*
X120817Y116102D01*
X121112Y116172D01*
X121411Y116121D01*
X121666Y115957D01*
X121838Y115707D01*
X121898Y115410D01*
X121898Y114119D01*
X122791Y113226D01*
X136881Y113226D01*
X137167Y113170D01*
X137420Y113003D01*
X146565Y103858D01*
X190893Y103858D01*
X191157Y103811D01*
X191415Y103652D01*
X191590Y103404D01*
X191655Y103108D01*
X191600Y102810D01*
X191432Y102557D01*
X139244Y50369D01*
X139003Y50206D01*
X138705Y50146D01*
X129419Y50146D01*
X128526Y49253D01*
X128526Y38763D01*
X128479Y38499D01*
X128320Y38241D01*
X128072Y38066D01*
X127776Y38001D01*
X127478Y38056D01*
X127225Y38224D01*
X124497Y40952D01*
X124334Y41193D01*
X124274Y41491D01*
X124274Y49253D01*
X123381Y50146D01*
X109419Y50146D01*
X108526Y49253D01*
X108526Y35291D01*
X109419Y34398D01*
X123381Y34398D01*
X123444Y34461D01*
X123675Y34619D01*
X123971Y34684D01*
X124269Y34629D01*
X124522Y34461D01*
X128277Y30706D01*
X145411Y30706D01*
X148880Y34175D01*
X149121Y34338D01*
X149419Y34398D01*
X163381Y34398D01*
X164274Y35291D01*
X164274Y43157D01*
X164330Y43443D01*
X164497Y43696D01*
X167225Y46424D01*
X167445Y46577D01*
X167740Y46647D01*
X168039Y46596D01*
X168294Y46433D01*
X168466Y46183D01*
X168526Y45885D01*
X168526Y35291D01*
X169419Y34398D01*
X183381Y34398D01*
X184274Y35291D01*
X184274Y40612D01*
X184325Y40887D01*
X184489Y41142D01*
X184739Y41314D01*
X185036Y41374D01*
X192655Y41374D01*
X197225Y45944D01*
X197445Y46097D01*
X197740Y46167D01*
X198039Y46116D01*
X198294Y45953D01*
X198466Y45703D01*
X198526Y45405D01*
X198526Y35291D01*
X199419Y34398D01*
X213381Y34398D01*
X213402Y34419D01*
X213633Y34577D01*
X213929Y34642D01*
X214227Y34587D01*
X214480Y34419D01*
X221241Y27658D01*
X340483Y27658D01*
X423910Y111085D01*
X424146Y111245D01*
X424442Y111308D01*
X424740Y111250D01*
X427139Y110256D01*
X430777Y110256D01*
X434138Y111648D01*
X435277Y112788D01*
X435497Y112941D01*
X435792Y113010D01*
X436091Y112960D01*
X436346Y112796D01*
X436518Y112546D01*
X436578Y112249D01*
X436578Y101151D01*
X436531Y100888D01*
X436372Y100630D01*
X436124Y100454D01*
X435828Y100389D01*
X435530Y100445D01*
X435277Y100612D01*
X434138Y101752D01*
X430777Y103144D01*
X427139Y103144D01*
X423778Y101752D01*
X421206Y99180D01*
X419814Y95819D01*
X419814Y92181D01*
X421206Y88820D01*
X423778Y86248D01*
X427139Y84856D01*
X430777Y84856D01*
X434138Y86248D01*
X435277Y87388D01*
X435497Y87541D01*
X435792Y87610D01*
X436091Y87560D01*
X436346Y87396D01*
X436518Y87146D01*
X436578Y86849D01*
X436578Y75751D01*
X436531Y75488D01*
X436372Y75230D01*
X436124Y75054D01*
X435828Y74989D01*
X435530Y75045D01*
X435277Y75212D01*
X434138Y76352D01*
X430777Y77744D01*
X427139Y77744D01*
X423778Y76352D01*
X421206Y73780D01*
X419814Y70419D01*
X419814Y66781D01*
X421206Y63420D01*
X423778Y60848D01*
X427139Y59456D01*
X430777Y59456D01*
X434138Y60848D01*
X435277Y61988D01*
X435497Y62141D01*
X435792Y62210D01*
X436091Y62160D01*
X436346Y61996D01*
X436518Y61746D01*
X436578Y61449D01*
X436578Y11684D01*
X436527Y11409D01*
X436363Y11154D01*
X436113Y10982D01*
G37*
G36*
X639389Y129826D02*
X639092Y129766D01*
X620201Y129766D01*
X619915Y129822D01*
X619662Y129989D01*
X601693Y147958D01*
X601530Y148200D01*
X601470Y148497D01*
X601470Y151792D01*
X601517Y152055D01*
X601676Y152313D01*
X601924Y152489D01*
X602220Y152554D01*
X602518Y152498D01*
X602771Y152331D01*
X603999Y151102D01*
X639092Y151102D01*
X639367Y151051D01*
X639622Y150887D01*
X639794Y150637D01*
X639854Y150340D01*
X639854Y145719D01*
X640747Y144826D01*
X653316Y144826D01*
X653591Y144775D01*
X653846Y144611D01*
X654018Y144361D01*
X654078Y144064D01*
X654078Y135936D01*
X654027Y135661D01*
X653863Y135406D01*
X653613Y135234D01*
X653316Y135174D01*
X640747Y135174D01*
X639854Y134281D01*
X639854Y130528D01*
X639803Y130253D01*
X639639Y129998D01*
X639389Y129826D01*
G37*
G36*
X338571Y32290D02*
X338273Y32230D01*
X319999Y32230D01*
X319736Y32277D01*
X319477Y32436D01*
X319302Y32684D01*
X319237Y32980D01*
X319293Y33278D01*
X319460Y33531D01*
X422852Y136923D01*
X423088Y137083D01*
X423385Y137146D01*
X423682Y137088D01*
X427139Y135656D01*
X430777Y135656D01*
X434138Y137048D01*
X435277Y138188D01*
X435497Y138341D01*
X435792Y138410D01*
X436091Y138360D01*
X436346Y138196D01*
X436518Y137946D01*
X436578Y137649D01*
X436578Y126551D01*
X436531Y126288D01*
X436372Y126030D01*
X436124Y125854D01*
X435828Y125789D01*
X435530Y125845D01*
X435277Y126012D01*
X434138Y127152D01*
X430777Y128544D01*
X427139Y128544D01*
X423778Y127152D01*
X421206Y124580D01*
X419814Y121219D01*
X419814Y117581D01*
X420828Y115134D01*
X420886Y114854D01*
X420830Y114556D01*
X420663Y114303D01*
X338812Y32453D01*
X338571Y32290D01*
G37*
G36*
X312183Y92759D02*
X311888Y92689D01*
X311589Y92740D01*
X311334Y92903D01*
X311162Y93153D01*
X311102Y93451D01*
X311102Y95819D01*
X309710Y99180D01*
X307138Y101752D01*
X305716Y102341D01*
X305478Y102497D01*
X305306Y102747D01*
X305246Y103045D01*
X305246Y104881D01*
X305302Y105167D01*
X305469Y105420D01*
X328329Y128280D01*
X328549Y128433D01*
X328844Y128503D01*
X329143Y128452D01*
X329398Y128289D01*
X329570Y128039D01*
X329630Y127741D01*
X329630Y110455D01*
X329574Y110169D01*
X329407Y109916D01*
X312403Y92912D01*
X312183Y92759D01*
G37*
G36*
X190743Y46006D02*
X190445Y45946D01*
X185036Y45946D01*
X184761Y45997D01*
X184506Y46161D01*
X184334Y46411D01*
X184274Y46708D01*
X184274Y49253D01*
X183381Y50146D01*
X172787Y50146D01*
X172523Y50193D01*
X172265Y50352D01*
X172090Y50600D01*
X172025Y50896D01*
X172080Y51194D01*
X172248Y51447D01*
X212244Y91443D01*
X212485Y91606D01*
X212783Y91666D01*
X234641Y91666D01*
X234905Y91619D01*
X235163Y91460D01*
X235338Y91212D01*
X235403Y90916D01*
X235348Y90618D01*
X235180Y90365D01*
X190984Y46169D01*
X190743Y46006D01*
G37*
D10*
X538422Y250922D03*
X521422Y250922D03*
X107540Y249120D03*
X90540Y249120D03*
X596040Y425760D03*
X613040Y425760D03*
X245600Y249120D03*
X228600Y249120D03*
D11*
X231000Y301100D03*
X231000Y326500D03*
X231000Y351900D03*
X231000Y377300D03*
X231000Y402700D03*
X231000Y428100D03*
X231000Y453500D03*
X231000Y478900D03*
X104000Y478900D03*
X104000Y453500D03*
X104000Y428100D03*
X104000Y402700D03*
X104000Y377300D03*
X104000Y351900D03*
X104000Y326500D03*
X104000Y301100D03*
X393500Y301100D03*
X393500Y326500D03*
X393500Y351900D03*
X393500Y377300D03*
X393500Y402700D03*
X393500Y428100D03*
X393500Y453500D03*
X393500Y478900D03*
X266500Y478900D03*
X266500Y453500D03*
X266500Y428100D03*
X266500Y402700D03*
X266500Y377300D03*
X266500Y351900D03*
X266500Y326500D03*
X266500Y301100D03*
X429000Y478842D03*
X429000Y453442D03*
X429000Y428042D03*
X429000Y402642D03*
X429000Y377242D03*
X429000Y351842D03*
X429000Y326442D03*
X429000Y301042D03*
X556000Y301042D03*
X556000Y326442D03*
X556000Y351842D03*
X556000Y377242D03*
X556000Y402642D03*
X556000Y428042D03*
X556000Y453442D03*
X556000Y478842D03*
X301958Y246400D03*
X301958Y221000D03*
X301958Y195600D03*
X301958Y170200D03*
X301958Y144800D03*
X301958Y119400D03*
X301958Y94000D03*
X301958Y68600D03*
X428958Y68600D03*
X428958Y94000D03*
X428958Y119400D03*
X428958Y144800D03*
X428958Y170200D03*
X428958Y195600D03*
X428958Y221000D03*
X428958Y246400D03*
D12*
X164400Y235100D03*
D13*
X173900Y227600D03*
D12*
X164400Y230100D03*
X164400Y225100D03*
X164400Y220100D03*
X183400Y220100D03*
X183400Y225100D03*
X183400Y230100D03*
X183400Y235100D03*
D14*
X32272Y113600D03*
X52272Y113600D03*
X72272Y113600D03*
X92272Y113600D03*
X129772Y121100D03*
X149772Y121100D03*
X169772Y121100D03*
X189772Y121100D03*
X116400Y42272D03*
X136400Y42272D03*
X156400Y42272D03*
X176400Y42272D03*
X206400Y42272D03*
X226400Y42272D03*
X246400Y42272D03*
X266400Y42272D03*
X647728Y209700D03*
X647728Y235100D03*
X647728Y260500D03*
X647728Y285900D03*
X647728Y311300D03*
X647728Y336700D03*
X647728Y362100D03*
X647728Y387500D03*
X89772Y214820D03*
X89772Y194820D03*
D15*
X42500Y42500D03*
X622500Y42500D03*
X622500Y532500D03*
X42500Y532500D03*
D16*
X91200Y519800D03*
D11*
X116600Y519800D03*
X142000Y519800D03*
X167400Y519800D03*
X192800Y519800D03*
X218200Y519800D03*
X91200Y545200D03*
X116600Y545200D03*
X142000Y545200D03*
X167400Y545200D03*
X192800Y545200D03*
X218200Y545200D03*
X243600Y519800D03*
X243600Y545200D03*
X269000Y519800D03*
X294400Y519800D03*
X319800Y519800D03*
X345200Y519800D03*
X370600Y519800D03*
X396000Y519800D03*
X269000Y545200D03*
X294400Y545200D03*
X319800Y545200D03*
X345200Y545200D03*
X370600Y545200D03*
X396000Y545200D03*
X421400Y519800D03*
X421400Y545200D03*
X446800Y519800D03*
X472200Y519800D03*
X497600Y519800D03*
X523000Y519800D03*
X548400Y519800D03*
X573800Y519800D03*
X446800Y545200D03*
X472200Y545200D03*
X497600Y545200D03*
X523000Y545200D03*
X548400Y545200D03*
X573800Y545200D03*
X609400Y458570D03*
X634800Y458570D03*
X609400Y483970D03*
X634800Y483970D03*
D14*
X17272Y480572D03*
X17272Y455172D03*
X17272Y429772D03*
D10*
X236500Y180000D03*
X253500Y180000D03*
D14*
X647728Y127300D03*
X647728Y152700D03*
D17*
X528877Y219942D03*
X528877Y169392D03*
X565457Y219942D03*
X553517Y169392D03*
X540817Y169392D03*
X553517Y219942D03*
X540817Y219942D03*
X565457Y169392D03*
D18*
X56620Y112360D02*
X53572Y112360D01*
X56620Y112360D02*
X66740Y102240D01*
X229808Y171676D02*
X260288Y171676D01*
X261812Y173200D01*
X261812Y215872D01*
X238952Y238732D01*
X220664Y238732D01*
X185612Y273784D01*
X52272Y113600D02*
X53572Y112360D01*
X104000Y402640D02*
X104000Y402700D01*
X104000Y402640D02*
X123932Y382708D01*
X123932Y377487D01*
X185612Y315807D02*
X185612Y273784D01*
X185612Y315807D02*
X123932Y377487D01*
X224868Y176616D02*
X229808Y171676D01*
X224868Y176616D02*
X163035Y176616D01*
X117032Y130614D01*
X117032Y119927D01*
X99345Y102240D01*
X66740Y102240D01*
X36808Y112360D02*
X33760Y112360D01*
X36808Y112360D02*
X49976Y99192D01*
X120080Y127480D02*
X123128Y130528D01*
X156656Y130528D01*
X159704Y127480D01*
X159704Y113764D01*
X161228Y112240D01*
X205424Y112240D01*
X264860Y171676D01*
X264860Y217396D01*
X240476Y241780D01*
X222188Y241780D01*
X188660Y275308D01*
X188660Y343888D01*
X104840Y427708D01*
X32272Y113600D02*
X33760Y112360D01*
X104840Y427708D02*
X104000Y428100D01*
X120080Y127480D02*
X120080Y118665D01*
X100607Y99192D01*
X49976Y99192D01*
X92272Y113600D02*
X93196Y113884D01*
X112234Y363498D02*
X104000Y377300D01*
D19*
X104840Y218920D03*
X109412Y281404D03*
D18*
X109412Y292503D01*
X115002Y314872D02*
X120002Y319872D01*
X120002Y355730D02*
X112234Y363498D01*
X120002Y355730D02*
X120002Y319872D01*
X115002Y298093D02*
X109412Y292503D01*
X115002Y298093D02*
X115002Y314872D01*
X93196Y164571D02*
X93196Y113884D01*
X93196Y164571D02*
X108456Y179831D01*
X108456Y215304D01*
X104840Y218920D01*
X94172Y287500D02*
X94172Y296644D01*
X92648Y298168D01*
X92648Y304264D01*
X104840Y316456D01*
D19*
X94172Y287500D03*
D18*
X104840Y316456D02*
X107965Y316456D01*
X113906Y322397D01*
X113906Y341994D02*
X104000Y351900D01*
X113906Y341994D02*
X113906Y322397D01*
X73384Y114712D02*
X72272Y113600D01*
D19*
X102388Y182344D03*
D18*
X84184Y164140D01*
X84184Y155562D01*
X73384Y144762D01*
X73384Y114712D01*
X150560Y119860D02*
X156656Y113764D01*
X156656Y112240D01*
X159704Y109192D01*
X206948Y109192D01*
X277052Y179296D01*
X277052Y392656D01*
X267908Y401800D01*
X149772Y121100D02*
X150560Y119860D01*
X267908Y401800D02*
X266500Y402700D01*
X133796Y119860D02*
X130748Y119860D01*
X133796Y119860D02*
X147512Y106144D01*
X208472Y106144D01*
X280100Y177772D01*
X280100Y415516D01*
X267908Y427708D01*
X129772Y121100D02*
X130748Y119860D01*
X266500Y428100D02*
X267908Y427708D01*
X188660Y165580D02*
X188660Y121384D01*
X189772Y121100D01*
D19*
X188660Y165580D03*
D18*
X170372Y156436D02*
X170372Y121384D01*
X169772Y121100D01*
D19*
X229808Y165580D03*
D18*
X221820Y173568D01*
X187504Y173568D01*
X170372Y156436D01*
X268576Y161008D02*
X278576Y161008D01*
X268576Y161008D02*
X210664Y103096D01*
X424880Y287500D02*
X450788Y287500D01*
X539180Y375892D01*
X555944Y375892D01*
X556000Y377242D01*
D19*
X278576Y161008D03*
X424880Y287500D03*
D18*
X210664Y103096D02*
X195204Y103096D01*
X136400Y44292D01*
X136400Y42272D01*
X120080Y42136D02*
X117032Y42136D01*
X120080Y42136D02*
X129224Y32992D01*
X144464Y32992D01*
X147512Y36040D01*
X117032Y42136D02*
X116400Y42272D01*
D19*
X270956Y100048D03*
X536132Y331696D03*
D18*
X270956Y100048D02*
X268456Y97548D01*
X193967Y97548D01*
X147512Y51094D01*
X147512Y36040D01*
X544352Y341656D02*
X547906Y345210D01*
X544352Y341656D02*
X544352Y339916D01*
X536132Y331696D01*
X549368Y345210D02*
X556000Y351842D01*
X549368Y345210D02*
X547906Y345210D01*
X191708Y43660D02*
X176468Y43660D01*
X191708Y43660D02*
X238952Y90904D01*
X275528Y90904D01*
X290768Y106144D01*
X536132Y395704D02*
X549848Y395704D01*
X555944Y401800D01*
X176468Y43660D02*
X176400Y42272D01*
X555944Y401800D02*
X556000Y402642D01*
D19*
X290768Y106144D03*
X536132Y395704D03*
D18*
X161228Y43660D02*
X156656Y43660D01*
X161228Y43660D02*
X211520Y93952D01*
X274004Y93952D01*
X284672Y104620D01*
X284672Y167104D01*
X302960Y185392D01*
X306008Y185392D01*
X319724Y199108D01*
X536132Y423136D02*
X551372Y423136D01*
X555944Y427708D01*
X156656Y43660D02*
X156400Y42272D01*
X555944Y427708D02*
X556000Y428042D01*
D19*
X319724Y199108D03*
X536132Y423136D03*
D18*
X229808Y42136D02*
X226760Y42136D01*
X229808Y42136D02*
X238952Y32992D01*
X226760Y42136D02*
X226400Y42272D01*
X238952Y32992D02*
X315688Y32992D01*
X427496Y144800D02*
X428958Y144800D01*
X427496Y144800D02*
X315688Y32992D01*
X209996Y42136D02*
X206948Y42136D01*
X209996Y42136D02*
X222188Y29944D01*
X339536Y29944D01*
X427928Y118336D01*
X206948Y42136D02*
X206400Y42272D01*
X427928Y118336D02*
X428958Y119400D01*
X267908Y43660D02*
X266400Y42272D01*
X267908Y43660D02*
X300956Y43660D01*
X427496Y170200D02*
X428958Y170200D01*
X427496Y170200D02*
X300956Y43660D01*
X251144Y43660D02*
X246572Y43660D01*
X246400Y42272D01*
X417310Y185414D02*
X420864Y188968D01*
X422326Y188968D02*
X428958Y195600D01*
X422326Y188968D02*
X420864Y188968D01*
X417310Y185414D02*
X417310Y168678D01*
X306696Y58064D01*
X265548Y58064D01*
X251144Y43660D01*
X302960Y119860D02*
X302960Y144244D01*
X302960Y119860D02*
X301958Y119400D01*
X302960Y144244D02*
X301958Y144800D01*
X429488Y376754D02*
X429000Y377242D01*
X429488Y376754D02*
X429488Y352330D01*
X429000Y351842D01*
X394400Y403324D02*
X394400Y427708D01*
X394400Y403324D02*
X393500Y402700D01*
X394400Y427708D02*
X393500Y428100D01*
X231332Y427708D02*
X231332Y403324D01*
X231000Y402700D01*
X231332Y427708D02*
X231000Y428100D01*
X167324Y220444D02*
X165800Y220444D01*
X170372Y223492D02*
X173420Y226540D01*
X170372Y223492D02*
X167324Y220444D01*
X165800Y220444D02*
X164400Y220100D01*
X173420Y226540D02*
X173900Y227600D01*
X176468Y229588D02*
X182564Y229588D01*
X176468Y229588D02*
X174944Y228064D01*
X182564Y229588D02*
X183400Y230100D01*
X174944Y228064D02*
X173900Y227600D01*
X216092Y214348D02*
X228284Y202156D01*
X216092Y214348D02*
X179516Y214348D01*
X170372Y223492D01*
X252668Y180820D02*
X253500Y180000D01*
X173900Y227600D02*
X170372Y223492D01*
X217616Y191488D02*
X228284Y202156D01*
X522416Y251352D02*
X522416Y276164D01*
X547294Y301042D02*
X556000Y301042D01*
X547294Y301042D02*
X522416Y276164D01*
X522416Y251352D02*
X521422Y250922D01*
X640000Y153388D02*
X647384Y153388D01*
X647728Y152700D01*
X408116Y520672D02*
X397448Y520672D01*
X408116Y520672D02*
X421832Y534388D01*
X435548Y534388D01*
X446216Y545056D01*
X397448Y520672D02*
X396000Y519800D01*
X446216Y545056D02*
X446800Y545200D01*
X485840Y546580D02*
X496508Y546580D01*
X485840Y546580D02*
X476696Y555724D01*
X456884Y555724D01*
X447740Y546580D01*
X496508Y546580D02*
X497600Y545200D01*
X447740Y546580D02*
X446800Y545200D01*
X562040Y520672D02*
X572708Y520672D01*
X562040Y520672D02*
X548324Y534388D01*
X508700Y534388D01*
X498032Y545056D01*
X572708Y520672D02*
X573800Y519800D01*
X498032Y545056D02*
X497600Y545200D01*
X46928Y456664D02*
X17972Y456664D01*
X17272Y455172D01*
X181040Y520672D02*
X191708Y520672D01*
X192800Y519800D01*
X142940Y545056D02*
X142000Y545200D01*
X193232Y520672D02*
X202376Y529816D01*
X193232Y520672D02*
X192800Y519800D01*
D19*
X46928Y456664D03*
D18*
X218517Y529816D02*
X233414Y544712D01*
X243112Y544712D01*
X218517Y529816D02*
X202376Y529816D01*
X243112Y544712D02*
X243600Y545200D01*
X152838Y535158D02*
X142940Y545056D01*
X152838Y535158D02*
X166554Y535158D01*
X181040Y520672D01*
X520748Y210656D02*
X523940Y207464D01*
X638240Y155000D02*
X638240Y352612D01*
X647728Y362100D01*
X638240Y155000D02*
X636628Y153388D01*
X638240Y155000D02*
X638388Y155000D01*
X640000Y153388D01*
X636628Y153388D01*
X231872Y198568D02*
X228284Y202156D01*
X231872Y198568D02*
X232514Y198568D01*
X250262Y180820D02*
X252668Y180820D01*
X250262Y180820D02*
X232514Y198568D01*
D19*
X212316Y191488D03*
D18*
X217616Y191488D01*
X521422Y228795D02*
X521422Y250922D01*
X521422Y228795D02*
X520748Y228121D01*
X520748Y210656D01*
X604946Y153388D02*
X636628Y153388D01*
X550870Y207464D02*
X523940Y207464D01*
X550870Y207464D02*
X604946Y153388D01*
X89600Y249400D02*
X89600Y282928D01*
X88076Y284452D01*
X88076Y305360D01*
X101716Y324216D02*
X104000Y326500D01*
X101716Y324216D02*
X101716Y319000D01*
X88076Y305360D01*
X89600Y249400D02*
X90540Y249120D01*
X266384Y321028D02*
X266384Y325600D01*
X266500Y326500D01*
X266384Y321028D02*
X231068Y285712D01*
X231068Y251588D01*
X228600Y249120D01*
X609284Y424660D02*
X612332Y424660D01*
X609284Y424660D02*
X598616Y413992D01*
X536132Y413992D01*
X398972Y270736D02*
X398972Y247876D01*
X424880Y221968D01*
X427928Y221968D01*
X612332Y424660D02*
X613040Y425760D01*
X427928Y221968D02*
X428958Y221000D01*
D19*
X536132Y413992D03*
X398972Y270736D03*
D18*
X164276Y225016D02*
X100268Y225016D01*
X91124Y215872D01*
X164276Y225016D02*
X164400Y225100D01*
X91124Y215872D02*
X89772Y214820D01*
X126176Y231112D02*
X164276Y231112D01*
X101792Y206728D02*
X91124Y196060D01*
X164400Y230100D02*
X164276Y231112D01*
X91124Y196060D02*
X89772Y194820D01*
D19*
X126176Y231112D03*
X101792Y206728D03*
D18*
X557468Y210512D02*
X566612Y219656D01*
X537656Y249828D02*
X538422Y250922D01*
X565457Y219942D02*
X566612Y219656D01*
X595568Y433804D02*
X595568Y439900D01*
X595568Y433804D02*
X595568Y426184D01*
X595568Y439900D02*
X557468Y478000D01*
X595568Y426184D02*
X596040Y425760D01*
X557468Y478000D02*
X556000Y478842D01*
X566612Y260496D02*
X566612Y221180D01*
X566612Y260496D02*
X570808Y264692D01*
X570808Y369420D01*
X621476Y420088D01*
X621476Y432280D01*
X619952Y433804D01*
X595568Y433804D01*
X566612Y221180D02*
X565457Y219942D01*
X246572Y249400D02*
X245600Y249120D01*
X106364Y249400D02*
X106364Y275308D01*
X103316Y278356D01*
X103316Y299692D01*
X106364Y249400D02*
X107540Y249120D01*
X103316Y299692D02*
X104000Y301100D01*
X88076Y479524D02*
X17972Y479524D01*
X88076Y479524D02*
X103316Y464284D01*
X107888Y464284D01*
X113984Y458188D01*
X113984Y449044D01*
X103316Y438376D01*
X98744Y438376D01*
X17972Y479524D02*
X17272Y480572D01*
X92352Y374664D02*
X104840Y362176D01*
X92352Y374664D02*
X92352Y431984D01*
X98744Y438376D01*
X526309Y210512D02*
X557468Y210512D01*
X526309Y210512D02*
X523796Y213025D01*
X107733Y362176D02*
X104840Y362176D01*
X104000Y308180D02*
X104000Y301100D01*
X104000Y308180D02*
X116954Y321134D01*
X116954Y352955D01*
X107733Y362176D01*
X262519Y301100D02*
X266500Y301100D01*
X262519Y301100D02*
X246572Y285154D01*
X246572Y249400D01*
X523796Y226859D02*
X523796Y213025D01*
X537656Y240719D02*
X537656Y249828D01*
X537656Y240719D02*
X523796Y226859D01*
X616904Y386560D02*
X647384Y386560D01*
X647728Y387500D01*
X115508Y545056D02*
X92648Y545056D01*
X91200Y545200D01*
X115508Y545056D02*
X116600Y545200D01*
X182564Y235684D02*
X183400Y235100D01*
X103316Y452092D02*
X104000Y453500D01*
X156656Y520672D02*
X147512Y529816D01*
X156656Y520672D02*
X156656Y513052D01*
X226760Y442948D01*
X257240Y442948D01*
X261812Y447520D02*
X266384Y452092D01*
X261812Y447520D02*
X257240Y442948D01*
X266384Y452092D02*
X266500Y453500D01*
X331916Y346936D02*
X421926Y256926D01*
X331916Y346936D02*
X331916Y377416D01*
X261812Y447520D01*
X266500Y453500D01*
D19*
X616904Y386560D03*
X117032Y380464D03*
D18*
X81996Y430772D02*
X103316Y452092D01*
X81996Y430772D02*
X18272Y430772D01*
X17272Y429772D01*
X117032Y380464D02*
X120884Y376612D01*
X120884Y376224D01*
X182564Y314544D02*
X182564Y235684D01*
X182564Y314544D02*
X120884Y376224D01*
D19*
X416409Y239583D03*
D18*
X418784Y241959D02*
X418784Y250924D01*
X418784Y241959D02*
X416409Y239583D01*
X425180Y257320D02*
X476792Y308932D01*
X538490Y308932D02*
X556000Y326442D01*
X538490Y308932D02*
X476792Y308932D01*
X147512Y529816D02*
X131984Y529816D01*
X116600Y545200D01*
X418784Y250924D02*
X421926Y254066D01*
X421926Y256926D02*
X422320Y257320D01*
X425180Y257320D01*
X422680Y254820D02*
X421926Y254066D01*
X422680Y254820D02*
X425180Y257320D01*
X421926Y256926D02*
X421926Y254066D01*
X422680Y256172D02*
X421926Y256926D01*
X422680Y256172D02*
X422680Y254820D01*
X63692Y532864D02*
X43880Y532864D01*
X42500Y532500D01*
X621476Y532864D02*
X622500Y532500D01*
X621476Y532864D02*
X594444Y559896D01*
X90724Y559896D01*
X63692Y532864D01*
X219140Y519148D02*
X219140Y490192D01*
X229808Y479524D01*
X219140Y519148D02*
X218200Y519800D01*
X229808Y479524D02*
X231000Y478900D01*
X231332Y464284D02*
X231332Y453616D01*
X231332Y464284D02*
X243524Y476476D01*
X243524Y519148D01*
X231332Y453616D02*
X231000Y453500D01*
X243524Y519148D02*
X243600Y519800D01*
X309056Y479524D02*
X392876Y479524D01*
X309056Y479524D02*
X269432Y519148D01*
X392876Y479524D02*
X393500Y478900D01*
X269432Y519148D02*
X269000Y519800D01*
X319724Y453616D02*
X392876Y453616D01*
X393500Y453500D01*
X269000Y545200D02*
X267908Y545056D01*
X257946Y535608D02*
X254392Y532054D01*
X257946Y535608D02*
X258460Y535608D01*
X267908Y545056D01*
X254392Y532054D02*
X254392Y518948D01*
X319724Y453616D01*
X334964Y519148D02*
X324296Y529816D01*
X334964Y519148D02*
X334964Y514576D01*
X359348Y490192D01*
X397448Y490192D01*
X324296Y529816D02*
X309784Y529816D01*
X294400Y545200D01*
X397448Y490192D02*
X414304Y473336D01*
X427538Y301042D02*
X429000Y301042D01*
X427538Y301042D02*
X414304Y314276D01*
X414304Y473336D01*
X345632Y534388D02*
X345632Y545056D01*
X345632Y534388D02*
X359348Y520672D01*
X359348Y516100D01*
X382208Y493240D01*
X398972Y493240D01*
X345632Y545056D02*
X345200Y545200D01*
X427928Y327124D02*
X429000Y326442D01*
X417352Y474860D02*
X398972Y493240D01*
X417352Y337700D02*
X427928Y327124D01*
X417352Y337700D02*
X417352Y474860D01*
X302960Y80236D02*
X302960Y69568D01*
X302960Y80236D02*
X331916Y109192D01*
X331916Y334744D01*
X302960Y69568D02*
X301958Y68600D01*
D19*
X331916Y334744D03*
D18*
X302960Y106144D02*
X302960Y95476D01*
X302960Y106144D02*
X325820Y129004D01*
X325820Y349984D01*
X302960Y95476D02*
X301958Y94000D01*
D19*
X325820Y349984D03*
D18*
X235904Y218920D02*
X184088Y218920D01*
X183400Y220100D01*
D19*
X235904Y218920D03*
D18*
X243524Y225016D02*
X184088Y225016D01*
X183400Y225100D01*
D19*
X243524Y225016D03*
D18*
X165800Y235684D02*
X165800Y241780D01*
X165800Y235684D02*
X164400Y235100D01*
X235904Y180820D02*
X236500Y180000D01*
D19*
X165800Y241780D03*
X207778Y199802D03*
D18*
X206248Y194002D02*
X206248Y188975D01*
X206248Y194002D02*
X207778Y195531D01*
X207778Y199802D01*
X214403Y180820D02*
X235904Y180820D01*
X214403Y180820D02*
X206248Y188975D01*
X530036Y170888D02*
X537656Y178508D01*
X530036Y170888D02*
X528877Y169392D01*
X647384Y127480D02*
X647728Y127300D01*
X647384Y127480D02*
X618939Y127480D01*
X599184Y147235D01*
X599184Y154840D01*
X575516Y178508D01*
X537656Y178508D01*
X527536Y223783D02*
X527536Y225992D01*
X528877Y222442D02*
X528877Y219942D01*
X528877Y222442D02*
X527536Y223783D01*
X533084Y389608D02*
X558992Y389608D01*
X366968Y534388D02*
X356300Y545056D01*
X356300Y549628D01*
X349080Y556848D01*
X228387Y556848D01*
X218200Y546662D02*
X218200Y545200D01*
X218200Y546662D02*
X228387Y556848D01*
X414540Y508152D02*
X533084Y389608D01*
X393204Y508152D02*
X380684Y520672D01*
X393204Y508152D02*
X414540Y508152D01*
X370021Y534388D02*
X366968Y534388D01*
X370021Y534388D02*
X380684Y523725D01*
X380684Y520672D01*
X567760Y266216D02*
X527536Y225992D01*
X567760Y380840D02*
X558992Y389608D01*
X567760Y380840D02*
X567760Y266216D01*
D19*
X72500Y557500D03*
X17500Y502500D03*
X50000Y472500D03*
X65000Y424704D03*
X130000Y380000D03*
X172500Y305000D03*
X32500Y95296D03*
X165000Y170000D03*
X205000Y167500D03*
X98420Y390000D03*
X360000Y62500D03*
X372500Y102500D03*
X382500Y180000D03*
X350000Y142500D03*
X260000Y130000D03*
X182500Y535000D03*
X232500Y532500D03*
X177500Y505000D03*
X307500Y387500D03*
X315000Y502500D03*
X332500Y550780D03*
X307100Y550780D03*
X230900Y550780D03*
X158410Y529090D03*
X360000Y530000D03*
X365000Y500000D03*
X495000Y415000D03*
X408700Y514220D03*
X405000Y502084D03*
X580000Y400000D03*
X550420Y339142D03*
X423420Y364542D03*
X552500Y280000D03*
X575000Y255000D03*
X615000Y140000D03*
X615000Y97500D03*
X647500Y182500D03*
X647500Y222500D03*
X647500Y248844D03*
X647500Y272500D03*
X647500Y299644D03*
X647500Y322956D03*
X640000Y427500D03*
X547500Y465000D03*
X502500Y372500D03*
X360000Y365000D03*
X405000Y415000D03*
X410000Y290000D03*
X442500Y335000D03*
X421265Y315897D03*
X423378Y132100D03*
X423378Y157500D03*
X423378Y182900D03*
X423378Y208300D03*
X423378Y233700D03*
X517500Y327500D03*
X410136Y254864D03*
X103045Y534455D03*
X129300Y550780D03*
X101428Y195000D03*
X202500Y240000D03*
X247500Y207500D03*
X265000Y247500D03*
X237500Y277500D03*
X255000Y65000D03*
X317500Y105000D03*
X285000Y90000D03*
X312500Y180000D03*
X281910Y525590D03*
X260460Y529540D03*
X385245Y527745D03*
X230000Y192500D03*
X287500Y272500D03*
X260000Y267500D03*
X267500Y227500D03*
X255000Y285000D03*
X225000Y277500D03*
X207500Y270000D03*
X630000Y140000D03*
X197500Y147500D03*
X170000Y192500D03*
X410000Y115000D03*
X350000Y185000D03*
X427500Y272500D03*
X402500Y315000D03*
X497500Y302864D03*
X510000Y315000D03*
X547403Y230097D03*
X561692Y364654D03*
X90252Y182500D03*
X285000Y51996D03*
X180000Y145297D03*
X112500Y145297D03*
X82500Y145297D03*
X60020Y132500D03*
X190000Y59114D03*
X187500Y59114D03*
X647500Y350000D03*
D18*
X647214Y337214D02*
X647728Y336700D01*
D19*
X627500Y437500D03*
D18*
X602500Y437500D01*
X565906Y474094D01*
X565906Y482945D01*
X541351Y507500D01*
X437500Y507500D01*
X432500Y512500D01*
X432500Y527500D01*
D19*
X432500Y527500D03*
D18*
X647500Y350000D02*
X647500Y337500D01*
X647214Y337214D01*
M02*
