G04 EAGLE Gerber RS-274X export*
G75*
%MOMM*%
%FSLAX34Y34*%
%LPD*%
%INBottom Copper*%
%IPPOS*%
%AMOC8*
5,1,8,0,0,1.08239X$1,22.5*%
G01*
G04 Define Apertures*
%ADD10C,1.524000*%
%ADD11C,6.200000*%
%ADD12R,1.524000X1.524000*%
%ADD13C,0.152400*%
%ADD14C,0.756400*%
G36*
X230675Y221262D02*
X230380Y221192D01*
X230081Y221243D01*
X229826Y221406D01*
X229654Y221656D01*
X229594Y221953D01*
X229594Y245637D01*
X229650Y245923D01*
X229817Y246176D01*
X279338Y295697D01*
X279338Y343311D01*
X275103Y347546D01*
X274943Y347782D01*
X274880Y348079D01*
X274938Y348376D01*
X275644Y350081D01*
X275644Y353719D01*
X274252Y357080D01*
X271680Y359652D01*
X268319Y361044D01*
X264681Y361044D01*
X261320Y359652D01*
X258748Y357080D01*
X257356Y353719D01*
X257356Y350081D01*
X258748Y346720D01*
X261320Y344148D01*
X264681Y342756D01*
X268319Y342756D01*
X271461Y344057D01*
X271740Y344115D01*
X272038Y344060D01*
X272291Y343892D01*
X274543Y341640D01*
X274706Y341399D01*
X274766Y341101D01*
X274766Y333005D01*
X274719Y332742D01*
X274560Y332484D01*
X274312Y332308D01*
X274016Y332243D01*
X273718Y332299D01*
X273465Y332466D01*
X271680Y334252D01*
X268319Y335644D01*
X264681Y335644D01*
X261320Y334252D01*
X258748Y331680D01*
X257356Y328319D01*
X257356Y324681D01*
X258748Y321320D01*
X261320Y318748D01*
X264681Y317356D01*
X268319Y317356D01*
X271680Y318748D01*
X273465Y320534D01*
X273685Y320687D01*
X273980Y320756D01*
X274279Y320706D01*
X274534Y320542D01*
X274706Y320292D01*
X274766Y319995D01*
X274766Y307605D01*
X274719Y307342D01*
X274560Y307084D01*
X274312Y306908D01*
X274016Y306843D01*
X273718Y306899D01*
X273465Y307066D01*
X271680Y308852D01*
X268319Y310244D01*
X264681Y310244D01*
X261320Y308852D01*
X258748Y306280D01*
X257356Y302919D01*
X257356Y302740D01*
X257305Y302465D01*
X257141Y302210D01*
X256891Y302038D01*
X256594Y301978D01*
X244101Y301978D01*
X241445Y299322D01*
X241225Y299169D01*
X240930Y299099D01*
X240631Y299150D01*
X240376Y299313D01*
X240204Y299563D01*
X240144Y299861D01*
X240144Y302919D01*
X238752Y306280D01*
X236180Y308852D01*
X232819Y310244D01*
X229181Y310244D01*
X225820Y308852D01*
X223248Y306280D01*
X221856Y302919D01*
X221856Y299281D01*
X223248Y295920D01*
X225034Y294135D01*
X225187Y293915D01*
X225256Y293620D01*
X225206Y293321D01*
X225042Y293066D01*
X224792Y292894D01*
X224495Y292834D01*
X115247Y292834D01*
X114961Y292890D01*
X114708Y293057D01*
X112139Y295626D01*
X111979Y295862D01*
X111916Y296159D01*
X111974Y296456D01*
X113144Y299281D01*
X113144Y302919D01*
X111752Y306280D01*
X109180Y308852D01*
X105819Y310244D01*
X103701Y310244D01*
X103437Y310291D01*
X103179Y310450D01*
X103004Y310698D01*
X102939Y310994D01*
X102994Y311292D01*
X103162Y311545D01*
X105564Y313947D01*
X105805Y314110D01*
X106103Y314170D01*
X181987Y314170D01*
X220555Y352738D01*
X220775Y352891D01*
X221070Y352961D01*
X221369Y352910D01*
X221624Y352747D01*
X221796Y352497D01*
X221856Y352199D01*
X221856Y350081D01*
X223248Y346720D01*
X225820Y344148D01*
X229181Y342756D01*
X232819Y342756D01*
X236180Y344148D01*
X238752Y346720D01*
X240144Y350081D01*
X240144Y353719D01*
X238752Y357080D01*
X236180Y359652D01*
X232819Y361044D01*
X230701Y361044D01*
X230437Y361091D01*
X230179Y361250D01*
X230004Y361498D01*
X229939Y361794D01*
X229994Y362092D01*
X230162Y362345D01*
X232056Y364239D01*
X232297Y364402D01*
X232595Y364462D01*
X258187Y364462D01*
X262341Y368616D01*
X262577Y368777D01*
X262874Y368839D01*
X263171Y368781D01*
X264681Y368156D01*
X268319Y368156D01*
X271680Y369548D01*
X274252Y372120D01*
X275644Y375481D01*
X275644Y379119D01*
X274252Y382480D01*
X271680Y385052D01*
X268319Y386444D01*
X264681Y386444D01*
X261320Y385052D01*
X258748Y382480D01*
X257356Y379119D01*
X257356Y375481D01*
X258738Y372144D01*
X258796Y371865D01*
X258740Y371567D01*
X258573Y371314D01*
X256516Y369257D01*
X256275Y369094D01*
X255977Y369034D01*
X237505Y369034D01*
X237242Y369081D01*
X236984Y369240D01*
X236808Y369488D01*
X236743Y369784D01*
X236799Y370082D01*
X236966Y370335D01*
X238752Y372120D01*
X240144Y375481D01*
X240144Y379119D01*
X238752Y382480D01*
X236180Y385052D01*
X232819Y386444D01*
X229181Y386444D01*
X225820Y385052D01*
X223248Y382480D01*
X221856Y379119D01*
X221856Y375481D01*
X223248Y372120D01*
X225820Y369548D01*
X228358Y368497D01*
X228588Y368349D01*
X228763Y368101D01*
X228828Y367805D01*
X228773Y367507D01*
X228605Y367254D01*
X180316Y318965D01*
X180075Y318802D01*
X179777Y318742D01*
X111013Y318742D01*
X110750Y318789D01*
X110492Y318948D01*
X110316Y319196D01*
X110251Y319492D01*
X110307Y319790D01*
X110474Y320043D01*
X111752Y321320D01*
X113144Y324681D01*
X113144Y328319D01*
X111752Y331680D01*
X109180Y334252D01*
X105819Y335644D01*
X102181Y335644D01*
X98820Y334252D01*
X96248Y331680D01*
X94856Y328319D01*
X94856Y324681D01*
X96248Y321320D01*
X98820Y318748D01*
X101358Y317697D01*
X101588Y317549D01*
X101763Y317301D01*
X101828Y317005D01*
X101773Y316707D01*
X101605Y316454D01*
X91663Y306512D01*
X91443Y306359D01*
X91148Y306289D01*
X90849Y306340D01*
X90594Y306503D01*
X90422Y306753D01*
X90362Y307051D01*
X90362Y419511D01*
X52457Y457416D01*
X52294Y457657D01*
X52234Y457955D01*
X52234Y458421D01*
X52290Y458707D01*
X52457Y458960D01*
X107944Y514447D01*
X108174Y514605D01*
X108471Y514670D01*
X108769Y514614D01*
X109021Y514447D01*
X111420Y512048D01*
X114781Y510656D01*
X118419Y510656D01*
X121780Y512048D01*
X124352Y514620D01*
X125744Y517981D01*
X125744Y521619D01*
X124352Y524980D01*
X121780Y527552D01*
X118419Y528944D01*
X116661Y528944D01*
X116397Y528991D01*
X116139Y529150D01*
X115964Y529398D01*
X115899Y529694D01*
X115954Y529992D01*
X116122Y530245D01*
X117756Y531879D01*
X117997Y532042D01*
X118295Y532102D01*
X131695Y532102D01*
X136616Y537023D01*
X136852Y537184D01*
X137149Y537247D01*
X137447Y537189D01*
X140181Y536056D01*
X143819Y536056D01*
X147180Y537448D01*
X149752Y540020D01*
X151144Y543381D01*
X151144Y547019D01*
X149752Y550380D01*
X147180Y552952D01*
X146831Y553096D01*
X146611Y553236D01*
X146431Y553481D01*
X146361Y553776D01*
X146412Y554075D01*
X146576Y554330D01*
X146826Y554502D01*
X147123Y554562D01*
X162277Y554562D01*
X162535Y554517D01*
X162794Y554360D01*
X162971Y554114D01*
X163039Y553818D01*
X162986Y553520D01*
X162820Y553266D01*
X162569Y553096D01*
X162220Y552952D01*
X159648Y550380D01*
X158256Y547019D01*
X158256Y543381D01*
X159648Y540020D01*
X162220Y537448D01*
X165581Y536056D01*
X169219Y536056D01*
X172580Y537448D01*
X175152Y540020D01*
X176544Y543381D01*
X176544Y547019D01*
X175152Y550380D01*
X172580Y552952D01*
X172231Y553096D01*
X172011Y553236D01*
X171831Y553481D01*
X171761Y553776D01*
X171812Y554075D01*
X171976Y554330D01*
X172226Y554502D01*
X172523Y554562D01*
X187677Y554562D01*
X187935Y554517D01*
X188194Y554360D01*
X188371Y554114D01*
X188439Y553818D01*
X188386Y553520D01*
X188220Y553266D01*
X187969Y553096D01*
X187620Y552952D01*
X185048Y550380D01*
X183656Y547019D01*
X183656Y543381D01*
X185048Y540020D01*
X187620Y537448D01*
X190981Y536056D01*
X194619Y536056D01*
X197980Y537448D01*
X200552Y540020D01*
X201944Y543381D01*
X201944Y547019D01*
X200552Y550380D01*
X197980Y552952D01*
X197631Y553096D01*
X197411Y553236D01*
X197231Y553481D01*
X197161Y553776D01*
X197212Y554075D01*
X197376Y554330D01*
X197626Y554502D01*
X197923Y554562D01*
X213077Y554562D01*
X213335Y554517D01*
X213594Y554360D01*
X213771Y554114D01*
X213839Y553818D01*
X213786Y553520D01*
X213620Y553266D01*
X213369Y553096D01*
X213020Y552952D01*
X210448Y550380D01*
X209056Y547019D01*
X209056Y543381D01*
X210448Y540020D01*
X213020Y537448D01*
X216381Y536056D01*
X220019Y536056D01*
X223380Y537448D01*
X225952Y540020D01*
X227344Y543381D01*
X227344Y547019D01*
X225952Y550380D01*
X223380Y552952D01*
X223031Y553096D01*
X222811Y553236D01*
X222631Y553481D01*
X222561Y553776D01*
X222612Y554075D01*
X222776Y554330D01*
X223026Y554502D01*
X223323Y554562D01*
X238477Y554562D01*
X238735Y554517D01*
X238994Y554360D01*
X239171Y554114D01*
X239239Y553818D01*
X239186Y553520D01*
X239020Y553266D01*
X238769Y553096D01*
X238420Y552952D01*
X235848Y550380D01*
X234456Y547019D01*
X234456Y543381D01*
X235848Y540020D01*
X238420Y537448D01*
X241781Y536056D01*
X245419Y536056D01*
X248764Y537442D01*
X249044Y537500D01*
X249342Y537444D01*
X249595Y537277D01*
X251683Y535188D01*
X251846Y534947D01*
X251906Y534649D01*
X251906Y526265D01*
X251859Y526002D01*
X251700Y525744D01*
X251452Y525568D01*
X251156Y525503D01*
X250858Y525559D01*
X250605Y525726D01*
X248780Y527552D01*
X245419Y528944D01*
X241781Y528944D01*
X238420Y527552D01*
X235848Y524980D01*
X234456Y521619D01*
X234456Y517981D01*
X235848Y514620D01*
X238420Y512048D01*
X241781Y510656D01*
X245419Y510656D01*
X248780Y512048D01*
X251352Y514620D01*
X252127Y516491D01*
X252275Y516720D01*
X252522Y516896D01*
X252818Y516961D01*
X253117Y516905D01*
X253369Y516738D01*
X263875Y506232D01*
X264038Y505991D01*
X264098Y505693D01*
X264098Y488312D01*
X264045Y488031D01*
X263879Y487777D01*
X263628Y487608D01*
X261320Y486652D01*
X258748Y484080D01*
X257356Y480719D01*
X257356Y477081D01*
X258748Y473720D01*
X261320Y471148D01*
X264681Y469756D01*
X268319Y469756D01*
X271680Y471148D01*
X274252Y473720D01*
X275644Y477081D01*
X275644Y480719D01*
X274252Y484080D01*
X271680Y486652D01*
X269140Y487704D01*
X268902Y487860D01*
X268730Y488111D01*
X268670Y488408D01*
X268670Y502077D01*
X268726Y502363D01*
X268893Y502616D01*
X270724Y504447D01*
X270965Y504610D01*
X271263Y504670D01*
X297811Y504670D01*
X306770Y513629D01*
X306770Y517885D01*
X306826Y518171D01*
X306993Y518424D01*
X309355Y520786D01*
X309575Y520939D01*
X309870Y521009D01*
X310169Y520958D01*
X310424Y520795D01*
X310596Y520545D01*
X310656Y520247D01*
X310656Y517981D01*
X312048Y514620D01*
X314620Y512048D01*
X317981Y510656D01*
X321619Y510656D01*
X324980Y512048D01*
X327552Y514620D01*
X328944Y517981D01*
X328944Y521619D01*
X327552Y524980D01*
X324980Y527552D01*
X321619Y528944D01*
X319353Y528944D01*
X319089Y528991D01*
X318831Y529150D01*
X318656Y529398D01*
X318591Y529694D01*
X318646Y529992D01*
X318814Y530245D01*
X320448Y531879D01*
X320689Y532042D01*
X320987Y532102D01*
X356753Y532102D01*
X358210Y533559D01*
X358452Y533722D01*
X358749Y533782D01*
X361251Y533782D01*
X361537Y533726D01*
X361790Y533559D01*
X363247Y532102D01*
X368759Y532102D01*
X369045Y532046D01*
X369298Y531879D01*
X370932Y530245D01*
X371085Y530025D01*
X371154Y529730D01*
X371104Y529431D01*
X370940Y529176D01*
X370690Y529004D01*
X370393Y528944D01*
X368781Y528944D01*
X365420Y527552D01*
X362848Y524980D01*
X361456Y521619D01*
X361456Y517981D01*
X362848Y514620D01*
X365420Y512048D01*
X368781Y510656D01*
X372419Y510656D01*
X375780Y512048D01*
X378352Y514620D01*
X379744Y517981D01*
X379744Y519593D01*
X379791Y519856D01*
X379950Y520114D01*
X380198Y520290D01*
X380494Y520355D01*
X380792Y520299D01*
X381045Y520132D01*
X382790Y518386D01*
X386179Y518386D01*
X386460Y518333D01*
X386714Y518167D01*
X386883Y517916D01*
X388248Y514620D01*
X390820Y512048D01*
X394181Y510656D01*
X397819Y510656D01*
X401180Y512048D01*
X403752Y514620D01*
X405144Y517981D01*
X405144Y521619D01*
X403752Y524980D01*
X401180Y527552D01*
X397819Y528944D01*
X394181Y528944D01*
X390820Y527552D01*
X388248Y524980D01*
X387606Y523428D01*
X387449Y523190D01*
X387199Y523018D01*
X386902Y522958D01*
X385000Y522958D01*
X384714Y523014D01*
X384461Y523181D01*
X377416Y530227D01*
X377263Y530446D01*
X377193Y530741D01*
X377244Y531040D01*
X377407Y531296D01*
X377657Y531467D01*
X377954Y531527D01*
X424924Y531527D01*
X425210Y531472D01*
X425463Y531304D01*
X426971Y529796D01*
X427134Y529555D01*
X427194Y529257D01*
X427194Y528438D01*
X427145Y528169D01*
X426984Y527912D01*
X426735Y527739D01*
X426438Y527676D01*
X426140Y527734D01*
X423219Y528944D01*
X419581Y528944D01*
X416220Y527552D01*
X413648Y524980D01*
X412256Y521619D01*
X412256Y517981D01*
X413648Y514620D01*
X416220Y512048D01*
X419581Y510656D01*
X423219Y510656D01*
X426580Y512048D01*
X429152Y514620D01*
X430544Y517981D01*
X430544Y521432D01*
X430595Y521707D01*
X430759Y521962D01*
X431009Y522134D01*
X431306Y522194D01*
X434698Y522194D01*
X437446Y524942D01*
X437660Y525092D01*
X437947Y525163D01*
X437866Y525280D01*
X437806Y525577D01*
X437806Y529698D01*
X434698Y532806D01*
X430743Y532806D01*
X430457Y532862D01*
X430204Y533029D01*
X427134Y536099D01*
X427071Y536099D01*
X426807Y536146D01*
X426549Y536306D01*
X426374Y536553D01*
X426309Y536849D01*
X426364Y537147D01*
X426532Y537400D01*
X429152Y540020D01*
X430544Y543381D01*
X430544Y547019D01*
X429152Y550380D01*
X426580Y552952D01*
X423219Y554344D01*
X419581Y554344D01*
X416220Y552952D01*
X413648Y550380D01*
X412256Y547019D01*
X412256Y543381D01*
X413648Y540020D01*
X416268Y537400D01*
X416421Y537181D01*
X416491Y536886D01*
X416440Y536587D01*
X416277Y536331D01*
X416027Y536160D01*
X415729Y536099D01*
X401671Y536099D01*
X401407Y536146D01*
X401149Y536306D01*
X400974Y536553D01*
X400909Y536849D01*
X400964Y537147D01*
X401132Y537400D01*
X403752Y540020D01*
X405144Y543381D01*
X405144Y547019D01*
X403752Y550380D01*
X401180Y552952D01*
X397819Y554344D01*
X394181Y554344D01*
X390820Y552952D01*
X388248Y550380D01*
X386856Y547019D01*
X386856Y543381D01*
X388248Y540020D01*
X390868Y537400D01*
X391021Y537181D01*
X391091Y536886D01*
X391040Y536587D01*
X390877Y536331D01*
X390627Y536160D01*
X390329Y536099D01*
X379949Y536099D01*
X379663Y536155D01*
X379410Y536323D01*
X377571Y538162D01*
X377413Y538392D01*
X377348Y538689D01*
X377404Y538987D01*
X377571Y539239D01*
X378352Y540020D01*
X379744Y543381D01*
X379744Y547019D01*
X378352Y550380D01*
X375780Y552952D01*
X372419Y554344D01*
X368781Y554344D01*
X365420Y552952D01*
X362848Y550380D01*
X361456Y547019D01*
X361456Y543381D01*
X362848Y540020D01*
X363214Y539655D01*
X363367Y539435D01*
X363436Y539140D01*
X363386Y538841D01*
X363222Y538586D01*
X362972Y538414D01*
X362675Y538354D01*
X356540Y538354D01*
X355083Y536897D01*
X354841Y536734D01*
X354544Y536674D01*
X351445Y536674D01*
X351182Y536721D01*
X350924Y536880D01*
X350748Y537128D01*
X350683Y537424D01*
X350739Y537722D01*
X350906Y537975D01*
X352952Y540020D01*
X354344Y543381D01*
X354344Y547019D01*
X352952Y550380D01*
X350380Y552952D01*
X347019Y554344D01*
X343381Y554344D01*
X340020Y552952D01*
X337448Y550380D01*
X336056Y547019D01*
X336056Y543381D01*
X337448Y540020D01*
X339494Y537975D01*
X339647Y537755D01*
X339716Y537460D01*
X339666Y537161D01*
X339502Y536906D01*
X339252Y536734D01*
X338955Y536674D01*
X326045Y536674D01*
X325782Y536721D01*
X325524Y536880D01*
X325348Y537128D01*
X325283Y537424D01*
X325339Y537722D01*
X325506Y537975D01*
X327552Y540020D01*
X328944Y543381D01*
X328944Y547019D01*
X327552Y550380D01*
X324980Y552952D01*
X321619Y554344D01*
X317981Y554344D01*
X314620Y552952D01*
X312048Y550380D01*
X310656Y547019D01*
X310656Y543381D01*
X312048Y540020D01*
X314620Y537448D01*
X316968Y536476D01*
X317206Y536319D01*
X317378Y536069D01*
X317438Y535772D01*
X317438Y535651D01*
X317382Y535365D01*
X317215Y535112D01*
X304403Y522299D01*
X304178Y522144D01*
X303882Y522076D01*
X303583Y522130D01*
X303329Y522295D01*
X303160Y522547D01*
X302152Y524980D01*
X299580Y527552D01*
X296219Y528944D01*
X292581Y528944D01*
X291488Y528491D01*
X291209Y528433D01*
X290911Y528489D01*
X290658Y528657D01*
X285370Y533944D01*
X268852Y533944D01*
X268566Y534000D01*
X268314Y534167D01*
X267726Y534755D01*
X267573Y534975D01*
X267503Y535270D01*
X267554Y535569D01*
X267717Y535824D01*
X267967Y535996D01*
X268265Y536056D01*
X270819Y536056D01*
X274180Y537448D01*
X276752Y540020D01*
X278144Y543381D01*
X278144Y547019D01*
X276752Y550380D01*
X274180Y552952D01*
X270819Y554344D01*
X267181Y554344D01*
X263820Y552952D01*
X261248Y550380D01*
X260345Y548198D01*
X260196Y547969D01*
X259949Y547793D01*
X259653Y547728D01*
X259355Y547784D01*
X259102Y547951D01*
X247919Y559134D01*
X112637Y559134D01*
X104078Y550575D01*
X104078Y547617D01*
X104022Y547331D01*
X103855Y547078D01*
X101645Y544868D01*
X101425Y544715D01*
X101130Y544646D01*
X100831Y544697D01*
X100576Y544860D01*
X100404Y545110D01*
X100344Y545407D01*
X100344Y547019D01*
X98952Y550380D01*
X96380Y552952D01*
X93019Y554344D01*
X89381Y554344D01*
X86020Y552952D01*
X83448Y550380D01*
X82056Y547019D01*
X82056Y543381D01*
X83448Y540020D01*
X86020Y537448D01*
X89381Y536056D01*
X90993Y536056D01*
X91256Y536009D01*
X91514Y535850D01*
X91690Y535602D01*
X91755Y535306D01*
X91699Y535008D01*
X91532Y534755D01*
X90362Y533586D01*
X90362Y529706D01*
X90311Y529431D01*
X90147Y529176D01*
X89897Y529004D01*
X89600Y528944D01*
X82949Y528944D01*
X82056Y528051D01*
X82056Y511549D01*
X82949Y510656D01*
X95847Y510656D01*
X96111Y510609D01*
X96369Y510450D01*
X96544Y510202D01*
X96609Y509906D01*
X96554Y509608D01*
X96386Y509355D01*
X49224Y462193D01*
X48983Y462030D01*
X48685Y461970D01*
X44730Y461970D01*
X44419Y461659D01*
X44199Y461506D01*
X43904Y461436D01*
X43605Y461487D01*
X43350Y461650D01*
X43178Y461900D01*
X43118Y462197D01*
X43118Y499214D01*
X43169Y499489D01*
X43333Y499744D01*
X43583Y499916D01*
X43880Y499976D01*
X46782Y499976D01*
X55054Y502192D01*
X62470Y506474D01*
X68526Y512530D01*
X72808Y519946D01*
X75024Y528218D01*
X75024Y536782D01*
X72808Y545054D01*
X68526Y552470D01*
X62470Y558526D01*
X55316Y562656D01*
X55185Y562752D01*
X55005Y562997D01*
X54936Y563292D01*
X54986Y563591D01*
X55150Y563846D01*
X55400Y564018D01*
X55697Y564078D01*
X609303Y564078D01*
X609465Y564061D01*
X609742Y563939D01*
X609950Y563718D01*
X610056Y563434D01*
X610042Y563131D01*
X609911Y562857D01*
X609684Y562656D01*
X602530Y558526D01*
X596474Y552470D01*
X592192Y545054D01*
X589976Y536782D01*
X589976Y528218D01*
X592192Y519946D01*
X596474Y512530D01*
X602530Y506474D01*
X609946Y502192D01*
X618218Y499976D01*
X619452Y499976D01*
X619727Y499925D01*
X619982Y499761D01*
X620154Y499511D01*
X620214Y499214D01*
X620214Y442344D01*
X620158Y442058D01*
X619991Y441805D01*
X619146Y440960D01*
X619146Y434040D01*
X620463Y432723D01*
X620626Y432481D01*
X620686Y432184D01*
X620686Y392121D01*
X620639Y391858D01*
X620480Y391600D01*
X620232Y391425D01*
X619936Y391360D01*
X619638Y391415D01*
X619385Y391583D01*
X619102Y391866D01*
X614706Y391866D01*
X611598Y388758D01*
X611598Y384803D01*
X611542Y384517D01*
X611375Y384264D01*
X561628Y334517D01*
X561392Y334357D01*
X561096Y334294D01*
X560798Y334352D01*
X557819Y335586D01*
X554181Y335586D01*
X550820Y334194D01*
X548863Y332236D01*
X548643Y332083D01*
X548348Y332014D01*
X548049Y332064D01*
X547794Y332228D01*
X547622Y332478D01*
X547562Y332775D01*
X547562Y336651D01*
X546861Y337352D01*
X546698Y337594D01*
X546638Y337891D01*
X546638Y340393D01*
X546694Y340679D01*
X546861Y340932D01*
X547562Y341633D01*
X547562Y345509D01*
X547609Y345772D01*
X547768Y346030D01*
X548016Y346206D01*
X548312Y346271D01*
X548610Y346215D01*
X548863Y346048D01*
X550820Y344090D01*
X554181Y342698D01*
X557819Y342698D01*
X561180Y344090D01*
X563752Y346662D01*
X565144Y350023D01*
X565144Y353661D01*
X563752Y357022D01*
X561180Y359594D01*
X557819Y360986D01*
X554181Y360986D01*
X550820Y359594D01*
X548863Y357636D01*
X548643Y357483D01*
X548348Y357414D01*
X548049Y357464D01*
X547794Y357628D01*
X547622Y357878D01*
X547562Y358175D01*
X547562Y370909D01*
X547609Y371172D01*
X547768Y371430D01*
X548016Y371606D01*
X548312Y371671D01*
X548610Y371615D01*
X548863Y371448D01*
X550820Y369490D01*
X554181Y368098D01*
X557819Y368098D01*
X561180Y369490D01*
X563752Y372062D01*
X565144Y375423D01*
X565144Y379061D01*
X563752Y382422D01*
X561180Y384994D01*
X557819Y386386D01*
X554181Y386386D01*
X550820Y384994D01*
X548863Y383036D01*
X548643Y382883D01*
X548348Y382814D01*
X548049Y382864D01*
X547794Y383028D01*
X547622Y383278D01*
X547562Y383575D01*
X547562Y396309D01*
X547609Y396572D01*
X547768Y396830D01*
X548016Y397006D01*
X548312Y397071D01*
X548610Y397015D01*
X548863Y396848D01*
X550820Y394890D01*
X554181Y393498D01*
X557819Y393498D01*
X561180Y394890D01*
X563752Y397462D01*
X565144Y400823D01*
X565144Y404461D01*
X563752Y407822D01*
X561180Y410394D01*
X557819Y411786D01*
X554181Y411786D01*
X550820Y410394D01*
X548863Y408436D01*
X548643Y408283D01*
X548348Y408214D01*
X548049Y408264D01*
X547794Y408428D01*
X547622Y408678D01*
X547562Y408975D01*
X547562Y421709D01*
X547609Y421972D01*
X547768Y422230D01*
X548016Y422406D01*
X548312Y422471D01*
X548610Y422415D01*
X548863Y422248D01*
X550820Y420290D01*
X554181Y418898D01*
X557819Y418898D01*
X561180Y420290D01*
X563752Y422862D01*
X565144Y426223D01*
X565144Y429861D01*
X563752Y433222D01*
X561180Y435794D01*
X557819Y437186D01*
X554181Y437186D01*
X550820Y435794D01*
X548863Y433836D01*
X548643Y433683D01*
X548348Y433614D01*
X548049Y433664D01*
X547794Y433828D01*
X547622Y434078D01*
X547562Y434375D01*
X547562Y440161D01*
X547618Y440447D01*
X547785Y440700D01*
X551842Y444758D01*
X552079Y444918D01*
X552375Y444981D01*
X552673Y444923D01*
X554181Y444298D01*
X557819Y444298D01*
X561180Y445690D01*
X563752Y448262D01*
X565144Y451623D01*
X565144Y455261D01*
X563752Y458622D01*
X561180Y461194D01*
X560224Y461590D01*
X559986Y461746D01*
X559814Y461996D01*
X559754Y462294D01*
X559754Y464545D01*
X559810Y464831D01*
X559977Y465084D01*
X574994Y480101D01*
X574994Y509894D01*
X575045Y510169D01*
X575209Y510424D01*
X575459Y510596D01*
X575487Y510601D01*
X578980Y512048D01*
X581552Y514620D01*
X582944Y517981D01*
X582944Y521619D01*
X581552Y524980D01*
X578980Y527552D01*
X575619Y528944D01*
X571981Y528944D01*
X568620Y527552D01*
X567151Y526082D01*
X566931Y525929D01*
X566636Y525860D01*
X566337Y525910D01*
X566082Y526074D01*
X565910Y526324D01*
X565850Y526621D01*
X565850Y534649D01*
X565906Y534935D01*
X566073Y535188D01*
X568057Y537172D01*
X568293Y537333D01*
X568590Y537395D01*
X568888Y537337D01*
X571981Y536056D01*
X575619Y536056D01*
X578980Y537448D01*
X581552Y540020D01*
X582944Y543381D01*
X582944Y547019D01*
X581552Y550380D01*
X578980Y552952D01*
X575619Y554344D01*
X571981Y554344D01*
X568620Y552952D01*
X566048Y550380D01*
X564656Y547019D01*
X564656Y543381D01*
X565382Y541628D01*
X565440Y541349D01*
X565384Y541051D01*
X565217Y540798D01*
X561278Y536859D01*
X561278Y521935D01*
X561222Y521649D01*
X561055Y521396D01*
X558845Y519186D01*
X558625Y519033D01*
X558330Y518963D01*
X558031Y519014D01*
X557776Y519177D01*
X557604Y519427D01*
X557544Y519725D01*
X557544Y521619D01*
X556152Y524980D01*
X553580Y527552D01*
X550219Y528944D01*
X546581Y528944D01*
X543220Y527552D01*
X540648Y524980D01*
X539256Y521619D01*
X539256Y517981D01*
X540648Y514620D01*
X543220Y512048D01*
X546581Y510656D01*
X548475Y510656D01*
X548739Y510609D01*
X548997Y510450D01*
X549172Y510202D01*
X549237Y509906D01*
X549182Y509608D01*
X549014Y509355D01*
X439199Y399540D01*
X438986Y399390D01*
X438691Y399318D01*
X438392Y399366D01*
X438135Y399528D01*
X437961Y399776D01*
X437899Y400073D01*
X437957Y400371D01*
X438144Y400823D01*
X438144Y404461D01*
X436752Y407822D01*
X434180Y410394D01*
X430819Y411786D01*
X427181Y411786D01*
X423820Y410394D01*
X421248Y407822D01*
X419856Y404461D01*
X419856Y400823D01*
X421248Y397462D01*
X423820Y394890D01*
X426043Y393970D01*
X426272Y393821D01*
X426448Y393574D01*
X426513Y393278D01*
X426457Y392980D01*
X426290Y392727D01*
X402820Y369257D01*
X402579Y369094D01*
X402281Y369034D01*
X400005Y369034D01*
X399742Y369081D01*
X399484Y369240D01*
X399308Y369488D01*
X399243Y369784D01*
X399299Y370082D01*
X399466Y370335D01*
X401252Y372120D01*
X402644Y375481D01*
X402644Y379119D01*
X401252Y382480D01*
X398680Y385052D01*
X395319Y386444D01*
X393261Y386444D01*
X392997Y386491D01*
X392739Y386650D01*
X392564Y386898D01*
X392499Y387194D01*
X392554Y387492D01*
X392722Y387745D01*
X395124Y390147D01*
X395365Y390310D01*
X395663Y390370D01*
X399919Y390370D01*
X421070Y411521D01*
X421070Y421201D01*
X421117Y421464D01*
X421276Y421722D01*
X421524Y421898D01*
X421820Y421963D01*
X422118Y421907D01*
X422371Y421740D01*
X423820Y420290D01*
X427181Y418898D01*
X430819Y418898D01*
X434180Y420290D01*
X436752Y422862D01*
X438144Y426223D01*
X438144Y429861D01*
X436752Y433222D01*
X434180Y435794D01*
X430819Y437186D01*
X428763Y437186D01*
X428499Y437233D01*
X428241Y437392D01*
X428066Y437640D01*
X428001Y437936D01*
X428056Y438234D01*
X428224Y438487D01*
X430176Y440439D01*
X430417Y440602D01*
X430715Y440662D01*
X434971Y440662D01*
X498794Y504485D01*
X498794Y509894D01*
X498845Y510169D01*
X499009Y510424D01*
X499259Y510596D01*
X499287Y510601D01*
X502780Y512048D01*
X505352Y514620D01*
X506744Y517981D01*
X506744Y521619D01*
X505352Y524980D01*
X502780Y527552D01*
X499419Y528944D01*
X495781Y528944D01*
X492420Y527552D01*
X489848Y524980D01*
X488456Y521619D01*
X488456Y517981D01*
X489848Y514620D01*
X492420Y512048D01*
X493752Y511497D01*
X493990Y511340D01*
X494162Y511090D01*
X494222Y510793D01*
X494222Y506695D01*
X494166Y506409D01*
X493999Y506156D01*
X439445Y451602D01*
X439225Y451449D01*
X438930Y451379D01*
X438631Y451430D01*
X438376Y451593D01*
X438204Y451843D01*
X438144Y452141D01*
X438144Y455261D01*
X436752Y458622D01*
X434180Y461194D01*
X430819Y462586D01*
X428255Y462586D01*
X427991Y462633D01*
X427733Y462792D01*
X427558Y463040D01*
X427493Y463336D01*
X427548Y463634D01*
X427716Y463887D01*
X430176Y466347D01*
X430417Y466510D01*
X430715Y466570D01*
X434971Y466570D01*
X474410Y506009D01*
X474410Y510309D01*
X474463Y510589D01*
X474629Y510843D01*
X474880Y511013D01*
X477380Y512048D01*
X479952Y514620D01*
X481344Y517981D01*
X481344Y521619D01*
X479952Y524980D01*
X477380Y527552D01*
X474019Y528944D01*
X470381Y528944D01*
X467020Y527552D01*
X464448Y524980D01*
X463056Y521619D01*
X463056Y517981D01*
X464448Y514620D01*
X467020Y512048D01*
X469368Y511076D01*
X469606Y510919D01*
X469778Y510669D01*
X469838Y510372D01*
X469838Y508219D01*
X469782Y507933D01*
X469615Y507680D01*
X439445Y477510D01*
X439225Y477357D01*
X438930Y477287D01*
X438631Y477338D01*
X438376Y477501D01*
X438204Y477751D01*
X438144Y478049D01*
X438144Y480661D01*
X436752Y484022D01*
X434180Y486594D01*
X430819Y487986D01*
X427181Y487986D01*
X423820Y486594D01*
X421248Y484022D01*
X419856Y480661D01*
X419856Y477023D01*
X421248Y473662D01*
X423820Y471090D01*
X426043Y470170D01*
X426272Y470021D01*
X426448Y469774D01*
X426513Y469478D01*
X426457Y469180D01*
X426290Y468927D01*
X416498Y459135D01*
X416498Y439639D01*
X416442Y439353D01*
X416275Y439100D01*
X403945Y426770D01*
X403725Y426617D01*
X403430Y426547D01*
X403131Y426598D01*
X402876Y426761D01*
X402704Y427011D01*
X402644Y427309D01*
X402644Y429919D01*
X401252Y433280D01*
X398680Y435852D01*
X395319Y437244D01*
X391681Y437244D01*
X388320Y435852D01*
X385748Y433280D01*
X384356Y429919D01*
X384356Y426281D01*
X385748Y422920D01*
X388320Y420348D01*
X390541Y419428D01*
X390771Y419280D01*
X390946Y419033D01*
X391012Y418736D01*
X390956Y418438D01*
X390788Y418185D01*
X328116Y355513D01*
X327875Y355350D01*
X327577Y355290D01*
X323622Y355290D01*
X323311Y354979D01*
X323091Y354826D01*
X322796Y354756D01*
X322497Y354807D01*
X322242Y354970D01*
X322070Y355220D01*
X322010Y355517D01*
X322010Y392917D01*
X322066Y393203D01*
X322233Y393456D01*
X383055Y454278D01*
X383275Y454431D01*
X383570Y454501D01*
X383869Y454450D01*
X384124Y454287D01*
X384296Y454037D01*
X384356Y453739D01*
X384356Y451681D01*
X385748Y448320D01*
X388320Y445748D01*
X391681Y444356D01*
X395319Y444356D01*
X398680Y445748D01*
X401252Y448320D01*
X402644Y451681D01*
X402644Y455319D01*
X401252Y458680D01*
X398680Y461252D01*
X395319Y462644D01*
X393261Y462644D01*
X392997Y462691D01*
X392739Y462850D01*
X392564Y463098D01*
X392499Y463394D01*
X392554Y463692D01*
X392722Y463945D01*
X395124Y466347D01*
X395365Y466510D01*
X395663Y466570D01*
X399919Y466570D01*
X443931Y510582D01*
X444167Y510742D01*
X444464Y510805D01*
X444761Y510747D01*
X444981Y510656D01*
X448619Y510656D01*
X451980Y512048D01*
X454552Y514620D01*
X455944Y517981D01*
X455944Y521619D01*
X454552Y524980D01*
X451980Y527552D01*
X448619Y528944D01*
X444981Y528944D01*
X441620Y527552D01*
X439107Y525038D01*
X438887Y524885D01*
X438605Y524819D01*
X438684Y524706D01*
X438746Y524409D01*
X438688Y524111D01*
X437656Y521619D01*
X437656Y517981D01*
X439048Y514620D01*
X439737Y513931D01*
X439895Y513701D01*
X439960Y513405D01*
X439904Y513107D01*
X439737Y512854D01*
X403945Y477062D01*
X403725Y476909D01*
X403430Y476839D01*
X403131Y476890D01*
X402876Y477053D01*
X402704Y477303D01*
X402644Y477601D01*
X402644Y480719D01*
X401252Y484080D01*
X398680Y486652D01*
X395319Y488044D01*
X391681Y488044D01*
X388320Y486652D01*
X385748Y484080D01*
X384356Y480719D01*
X384356Y477081D01*
X385748Y473720D01*
X388320Y471148D01*
X390900Y470079D01*
X391130Y469931D01*
X391306Y469684D01*
X391371Y469388D01*
X391315Y469089D01*
X391148Y468837D01*
X317438Y395127D01*
X317438Y345989D01*
X326387Y337040D01*
X326550Y336799D01*
X326610Y336501D01*
X326610Y332546D01*
X329718Y329438D01*
X330681Y329438D01*
X330945Y329391D01*
X331203Y329232D01*
X331378Y328984D01*
X331443Y328688D01*
X331388Y328390D01*
X331220Y328137D01*
X233618Y230535D01*
X233618Y224453D01*
X233562Y224167D01*
X233395Y223915D01*
X230895Y221415D01*
X230675Y221262D01*
G37*
%LPC*%
G36*
X546581Y536056D02*
X550219Y536056D01*
X553580Y537448D01*
X556152Y540020D01*
X557544Y543381D01*
X557544Y547019D01*
X556152Y550380D01*
X553580Y552952D01*
X550219Y554344D01*
X546581Y554344D01*
X543220Y552952D01*
X540648Y550380D01*
X539256Y547019D01*
X539256Y543381D01*
X540648Y540020D01*
X543220Y537448D01*
X546581Y536056D01*
G37*
G36*
X521181Y536056D02*
X524819Y536056D01*
X528180Y537448D01*
X530752Y540020D01*
X532144Y543381D01*
X532144Y547019D01*
X530752Y550380D01*
X528180Y552952D01*
X524819Y554344D01*
X521181Y554344D01*
X517820Y552952D01*
X515248Y550380D01*
X513856Y547019D01*
X513856Y543381D01*
X515248Y540020D01*
X517820Y537448D01*
X521181Y536056D01*
G37*
G36*
X495781Y536056D02*
X499419Y536056D01*
X502780Y537448D01*
X505352Y540020D01*
X506744Y543381D01*
X506744Y547019D01*
X505352Y550380D01*
X502780Y552952D01*
X499419Y554344D01*
X495781Y554344D01*
X492420Y552952D01*
X489848Y550380D01*
X488456Y547019D01*
X488456Y543381D01*
X489848Y540020D01*
X492420Y537448D01*
X495781Y536056D01*
G37*
G36*
X470381Y536056D02*
X474019Y536056D01*
X477380Y537448D01*
X479952Y540020D01*
X481344Y543381D01*
X481344Y547019D01*
X479952Y550380D01*
X477380Y552952D01*
X474019Y554344D01*
X470381Y554344D01*
X467020Y552952D01*
X464448Y550380D01*
X463056Y547019D01*
X463056Y543381D01*
X464448Y540020D01*
X467020Y537448D01*
X470381Y536056D01*
G37*
G36*
X444981Y536056D02*
X448619Y536056D01*
X451980Y537448D01*
X454552Y540020D01*
X455944Y543381D01*
X455944Y547019D01*
X454552Y550380D01*
X451980Y552952D01*
X448619Y554344D01*
X444981Y554344D01*
X441620Y552952D01*
X439048Y550380D01*
X437656Y547019D01*
X437656Y543381D01*
X439048Y540020D01*
X441620Y537448D01*
X444981Y536056D01*
G37*
G36*
X292581Y536056D02*
X296219Y536056D01*
X299580Y537448D01*
X302152Y540020D01*
X303544Y543381D01*
X303544Y547019D01*
X302152Y550380D01*
X299580Y552952D01*
X296219Y554344D01*
X292581Y554344D01*
X289220Y552952D01*
X286648Y550380D01*
X285256Y547019D01*
X285256Y543381D01*
X286648Y540020D01*
X289220Y537448D01*
X292581Y536056D01*
G37*
G36*
X216381Y510656D02*
X220019Y510656D01*
X223380Y512048D01*
X225952Y514620D01*
X227344Y517981D01*
X227344Y521619D01*
X225952Y524980D01*
X223380Y527552D01*
X220019Y528944D01*
X216381Y528944D01*
X213020Y527552D01*
X210448Y524980D01*
X209056Y521619D01*
X209056Y517981D01*
X210448Y514620D01*
X213020Y512048D01*
X216381Y510656D01*
G37*
G36*
X343381Y510656D02*
X347019Y510656D01*
X350380Y512048D01*
X352952Y514620D01*
X354344Y517981D01*
X354344Y521619D01*
X352952Y524980D01*
X350380Y527552D01*
X347019Y528944D01*
X343381Y528944D01*
X340020Y527552D01*
X337448Y524980D01*
X336056Y521619D01*
X336056Y517981D01*
X337448Y514620D01*
X340020Y512048D01*
X343381Y510656D01*
G37*
G36*
X521181Y510656D02*
X524819Y510656D01*
X528180Y512048D01*
X530752Y514620D01*
X532144Y517981D01*
X532144Y521619D01*
X530752Y524980D01*
X528180Y527552D01*
X524819Y528944D01*
X521181Y528944D01*
X517820Y527552D01*
X515248Y524980D01*
X513856Y521619D01*
X513856Y517981D01*
X515248Y514620D01*
X517820Y512048D01*
X521181Y510656D01*
G37*
G36*
X140181Y510656D02*
X143819Y510656D01*
X147180Y512048D01*
X149752Y514620D01*
X151144Y517981D01*
X151144Y521619D01*
X149752Y524980D01*
X147180Y527552D01*
X143819Y528944D01*
X140181Y528944D01*
X136820Y527552D01*
X134248Y524980D01*
X132856Y521619D01*
X132856Y517981D01*
X134248Y514620D01*
X136820Y512048D01*
X140181Y510656D01*
G37*
G36*
X165581Y510656D02*
X169219Y510656D01*
X172580Y512048D01*
X175152Y514620D01*
X176544Y517981D01*
X176544Y521619D01*
X175152Y524980D01*
X172580Y527552D01*
X169219Y528944D01*
X165581Y528944D01*
X162220Y527552D01*
X159648Y524980D01*
X158256Y521619D01*
X158256Y517981D01*
X159648Y514620D01*
X162220Y512048D01*
X165581Y510656D01*
G37*
G36*
X190981Y510656D02*
X194619Y510656D01*
X197980Y512048D01*
X200552Y514620D01*
X201944Y517981D01*
X201944Y521619D01*
X200552Y524980D01*
X197980Y527552D01*
X194619Y528944D01*
X190981Y528944D01*
X187620Y527552D01*
X185048Y524980D01*
X183656Y521619D01*
X183656Y517981D01*
X185048Y514620D01*
X187620Y512048D01*
X190981Y510656D01*
G37*
G36*
X607581Y474826D02*
X611219Y474826D01*
X614580Y476218D01*
X617152Y478790D01*
X618544Y482151D01*
X618544Y485789D01*
X617152Y489150D01*
X614580Y491722D01*
X611219Y493114D01*
X607581Y493114D01*
X604220Y491722D01*
X601648Y489150D01*
X600256Y485789D01*
X600256Y482151D01*
X601648Y478790D01*
X604220Y476218D01*
X607581Y474826D01*
G37*
G36*
X229181Y469756D02*
X232819Y469756D01*
X236180Y471148D01*
X238752Y473720D01*
X240144Y477081D01*
X240144Y480719D01*
X238752Y484080D01*
X236180Y486652D01*
X232819Y488044D01*
X229181Y488044D01*
X225820Y486652D01*
X223248Y484080D01*
X221856Y480719D01*
X221856Y477081D01*
X223248Y473720D01*
X225820Y471148D01*
X229181Y469756D01*
G37*
G36*
X102181Y469756D02*
X105819Y469756D01*
X109180Y471148D01*
X111752Y473720D01*
X113144Y477081D01*
X113144Y480719D01*
X111752Y484080D01*
X109180Y486652D01*
X105819Y488044D01*
X102181Y488044D01*
X98820Y486652D01*
X96248Y484080D01*
X94856Y480719D01*
X94856Y477081D01*
X96248Y473720D01*
X98820Y471148D01*
X102181Y469756D01*
G37*
G36*
X607581Y449426D02*
X611219Y449426D01*
X614580Y450818D01*
X617152Y453390D01*
X618544Y456751D01*
X618544Y460389D01*
X617152Y463750D01*
X614580Y466322D01*
X611219Y467714D01*
X607581Y467714D01*
X604220Y466322D01*
X601648Y463750D01*
X600256Y460389D01*
X600256Y456751D01*
X601648Y453390D01*
X604220Y450818D01*
X607581Y449426D01*
G37*
G36*
X102181Y368156D02*
X105819Y368156D01*
X109180Y369548D01*
X111752Y372120D01*
X113108Y375394D01*
X113256Y375624D01*
X113504Y375799D01*
X113800Y375865D01*
X114098Y375809D01*
X114351Y375641D01*
X114834Y375158D01*
X119230Y375158D01*
X122338Y378266D01*
X122338Y382662D01*
X119541Y385459D01*
X119378Y385700D01*
X119318Y385997D01*
X119318Y436237D01*
X119374Y436523D01*
X119541Y436776D01*
X120156Y437391D01*
X120397Y437554D01*
X120695Y437614D01*
X226244Y437614D01*
X226501Y437569D01*
X226761Y437412D01*
X226938Y437166D01*
X227005Y436870D01*
X226952Y436572D01*
X226787Y436318D01*
X226535Y436148D01*
X225820Y435852D01*
X223248Y433280D01*
X221856Y429919D01*
X221856Y426281D01*
X223248Y422920D01*
X225820Y420348D01*
X229181Y418956D01*
X232819Y418956D01*
X236180Y420348D01*
X238752Y422920D01*
X240144Y426281D01*
X240144Y429919D01*
X238752Y433280D01*
X236180Y435852D01*
X234307Y436628D01*
X234077Y436776D01*
X233901Y437023D01*
X233836Y437320D01*
X233892Y437618D01*
X234059Y437871D01*
X245772Y449583D01*
X246013Y449746D01*
X246311Y449806D01*
X257624Y449806D01*
X257904Y449753D01*
X258158Y449587D01*
X258328Y449336D01*
X258748Y448320D01*
X261320Y445748D01*
X264681Y444356D01*
X268319Y444356D01*
X271680Y445748D01*
X274252Y448320D01*
X275644Y451681D01*
X275644Y455319D01*
X274252Y458680D01*
X271680Y461252D01*
X268319Y462644D01*
X264681Y462644D01*
X261320Y461252D01*
X258748Y458680D01*
X257356Y455319D01*
X257356Y455140D01*
X257305Y454865D01*
X257141Y454610D01*
X256891Y454438D01*
X256594Y454378D01*
X244101Y454378D01*
X241445Y451722D01*
X241225Y451569D01*
X240930Y451499D01*
X240631Y451550D01*
X240376Y451713D01*
X240204Y451963D01*
X240144Y452261D01*
X240144Y455319D01*
X238752Y458680D01*
X236180Y461252D01*
X232819Y462644D01*
X229181Y462644D01*
X225820Y461252D01*
X223248Y458680D01*
X221856Y455319D01*
X221856Y451681D01*
X223248Y448320D01*
X225820Y445748D01*
X229181Y444356D01*
X232239Y444356D01*
X232503Y444309D01*
X232761Y444150D01*
X232936Y443902D01*
X233001Y443606D01*
X232946Y443308D01*
X232778Y443055D01*
X232132Y442409D01*
X231891Y442246D01*
X231593Y442186D01*
X118295Y442186D01*
X118009Y442242D01*
X117756Y442409D01*
X112139Y448026D01*
X111979Y448262D01*
X111916Y448559D01*
X111974Y448856D01*
X113144Y451681D01*
X113144Y455319D01*
X111752Y458680D01*
X109180Y461252D01*
X105819Y462644D01*
X102181Y462644D01*
X98820Y461252D01*
X96248Y458680D01*
X94856Y455319D01*
X94856Y451681D01*
X96248Y448320D01*
X98820Y445748D01*
X102181Y444356D01*
X105819Y444356D01*
X107841Y445193D01*
X108120Y445251D01*
X108418Y445196D01*
X108671Y445028D01*
X114523Y439176D01*
X114686Y438935D01*
X114746Y438637D01*
X114746Y385997D01*
X114690Y385711D01*
X114523Y385459D01*
X112187Y383123D01*
X111956Y382965D01*
X111660Y382899D01*
X111362Y382955D01*
X111109Y383123D01*
X109180Y385052D01*
X105819Y386444D01*
X102181Y386444D01*
X98820Y385052D01*
X96248Y382480D01*
X94856Y379119D01*
X94856Y375481D01*
X96248Y372120D01*
X98820Y369548D01*
X102181Y368156D01*
G37*
G36*
X264681Y418956D02*
X268319Y418956D01*
X271680Y420348D01*
X274252Y422920D01*
X275644Y426281D01*
X275644Y429919D01*
X274252Y433280D01*
X271680Y435852D01*
X268319Y437244D01*
X264681Y437244D01*
X261320Y435852D01*
X258748Y433280D01*
X257356Y429919D01*
X257356Y426281D01*
X258748Y422920D01*
X261320Y420348D01*
X264681Y418956D01*
G37*
G36*
X102181Y418956D02*
X105819Y418956D01*
X109180Y420348D01*
X111752Y422920D01*
X113144Y426281D01*
X113144Y429919D01*
X111752Y433280D01*
X109180Y435852D01*
X105819Y437244D01*
X102181Y437244D01*
X98820Y435852D01*
X96248Y433280D01*
X94856Y429919D01*
X94856Y426281D01*
X96248Y422920D01*
X98820Y420348D01*
X102181Y418956D01*
G37*
G36*
X264681Y393556D02*
X268319Y393556D01*
X271680Y394948D01*
X274252Y397520D01*
X275644Y400881D01*
X275644Y404519D01*
X274252Y407880D01*
X271680Y410452D01*
X268319Y411844D01*
X264681Y411844D01*
X261320Y410452D01*
X258748Y407880D01*
X257356Y404519D01*
X257356Y400881D01*
X258748Y397520D01*
X261320Y394948D01*
X264681Y393556D01*
G37*
G36*
X229181Y393556D02*
X232819Y393556D01*
X236180Y394948D01*
X238752Y397520D01*
X240144Y400881D01*
X240144Y404519D01*
X238752Y407880D01*
X236180Y410452D01*
X232819Y411844D01*
X229181Y411844D01*
X225820Y410452D01*
X223248Y407880D01*
X221856Y404519D01*
X221856Y400881D01*
X223248Y397520D01*
X225820Y394948D01*
X229181Y393556D01*
G37*
G36*
X102181Y393556D02*
X105819Y393556D01*
X109180Y394948D01*
X111752Y397520D01*
X113144Y400881D01*
X113144Y404519D01*
X111752Y407880D01*
X109180Y410452D01*
X105819Y411844D01*
X102181Y411844D01*
X98820Y410452D01*
X96248Y407880D01*
X94856Y404519D01*
X94856Y400881D01*
X96248Y397520D01*
X98820Y394948D01*
X102181Y393556D01*
G37*
G36*
X102181Y342756D02*
X105819Y342756D01*
X109180Y344148D01*
X111752Y346720D01*
X113144Y350081D01*
X113144Y353719D01*
X111752Y357080D01*
X109180Y359652D01*
X105819Y361044D01*
X102181Y361044D01*
X98820Y359652D01*
X96248Y357080D01*
X94856Y353719D01*
X94856Y350081D01*
X96248Y346720D01*
X98820Y344148D01*
X102181Y342756D01*
G37*
G36*
X229181Y317356D02*
X232819Y317356D01*
X236180Y318748D01*
X238752Y321320D01*
X240144Y324681D01*
X240144Y328319D01*
X238752Y331680D01*
X236180Y334252D01*
X232819Y335644D01*
X229181Y335644D01*
X225820Y334252D01*
X223248Y331680D01*
X221856Y328319D01*
X221856Y324681D01*
X223248Y321320D01*
X225820Y318748D01*
X229181Y317356D01*
G37*
%LPD*%
G36*
X129783Y536734D02*
X129485Y536674D01*
X122845Y536674D01*
X122582Y536721D01*
X122324Y536880D01*
X122148Y537128D01*
X122083Y537424D01*
X122139Y537722D01*
X122306Y537975D01*
X124352Y540020D01*
X125744Y543381D01*
X125744Y547019D01*
X124352Y550380D01*
X121780Y552952D01*
X121431Y553096D01*
X121211Y553236D01*
X121031Y553481D01*
X120961Y553776D01*
X121012Y554075D01*
X121176Y554330D01*
X121426Y554502D01*
X121723Y554562D01*
X136877Y554562D01*
X137135Y554517D01*
X137394Y554360D01*
X137571Y554114D01*
X137639Y553818D01*
X137586Y553520D01*
X137420Y553266D01*
X137169Y553096D01*
X136820Y552952D01*
X134248Y550380D01*
X132856Y547019D01*
X132856Y543381D01*
X133731Y541269D01*
X133789Y540990D01*
X133733Y540691D01*
X133566Y540439D01*
X130024Y536897D01*
X129783Y536734D01*
G37*
G36*
X259402Y517860D02*
X259106Y517795D01*
X258808Y517850D01*
X258555Y518018D01*
X256701Y519872D01*
X256538Y520113D01*
X256478Y520411D01*
X256478Y536859D01*
X252287Y541050D01*
X252127Y541286D01*
X252064Y541582D01*
X252122Y541880D01*
X252744Y543381D01*
X252744Y546003D01*
X252791Y546267D01*
X252950Y546525D01*
X253198Y546700D01*
X253494Y546765D01*
X253792Y546710D01*
X254045Y546542D01*
X256255Y544332D01*
X256418Y544091D01*
X256478Y543793D01*
X256478Y539537D01*
X266297Y529718D01*
X266452Y529493D01*
X266520Y529198D01*
X266467Y528899D01*
X266301Y528645D01*
X266050Y528475D01*
X263820Y527552D01*
X261248Y524980D01*
X259856Y521619D01*
X259856Y518557D01*
X259809Y518293D01*
X259650Y518035D01*
X259402Y517860D01*
G37*
G36*
X101425Y514461D02*
X101130Y514391D01*
X100831Y514442D01*
X100576Y514605D01*
X100404Y514855D01*
X100344Y515153D01*
X100344Y528051D01*
X99451Y528944D01*
X95696Y528944D01*
X95421Y528995D01*
X95166Y529159D01*
X94994Y529409D01*
X94934Y529706D01*
X94934Y531376D01*
X94990Y531662D01*
X95157Y531915D01*
X106406Y543164D01*
X106631Y543319D01*
X106926Y543387D01*
X107225Y543333D01*
X107479Y543168D01*
X107649Y542916D01*
X108848Y540020D01*
X111420Y537448D01*
X114213Y536292D01*
X114442Y536143D01*
X114618Y535896D01*
X114683Y535600D01*
X114627Y535302D01*
X114460Y535049D01*
X104078Y524667D01*
X104078Y517363D01*
X104022Y517077D01*
X103855Y516824D01*
X101645Y514614D01*
X101425Y514461D01*
G37*
G36*
X292461Y509302D02*
X292164Y509242D01*
X271236Y509242D01*
X270978Y509287D01*
X270719Y509444D01*
X270542Y509690D01*
X270474Y509986D01*
X270527Y510284D01*
X270693Y510539D01*
X270944Y510708D01*
X274180Y512048D01*
X276752Y514620D01*
X278144Y517981D01*
X278144Y521619D01*
X276752Y524980D01*
X274180Y527552D01*
X273325Y527906D01*
X273104Y528046D01*
X272924Y528291D01*
X272855Y528586D01*
X272905Y528885D01*
X273069Y529140D01*
X273319Y529312D01*
X273616Y529372D01*
X283161Y529372D01*
X283447Y529316D01*
X283700Y529149D01*
X286720Y526129D01*
X286878Y525898D01*
X286943Y525602D01*
X286887Y525304D01*
X286720Y525051D01*
X286648Y524980D01*
X285256Y521619D01*
X285256Y517981D01*
X286648Y514620D01*
X289220Y512048D01*
X292456Y510708D01*
X292676Y510568D01*
X292856Y510323D01*
X292926Y510028D01*
X292875Y509729D01*
X292711Y509474D01*
X292461Y509302D01*
G37*
G36*
X653624Y352069D02*
X653328Y352004D01*
X653030Y352059D01*
X652777Y352227D01*
X649698Y355306D01*
X645302Y355306D01*
X642505Y352509D01*
X642264Y352346D01*
X641967Y352286D01*
X641263Y352286D01*
X640977Y352342D01*
X640724Y352509D01*
X630009Y363224D01*
X629846Y363465D01*
X629786Y363763D01*
X629786Y431967D01*
X629842Y432253D01*
X630009Y432505D01*
X632806Y435302D01*
X632806Y439698D01*
X629698Y442806D01*
X625548Y442806D01*
X625273Y442857D01*
X625018Y443021D01*
X624846Y443271D01*
X624786Y443568D01*
X624786Y455021D01*
X624831Y455278D01*
X624988Y455538D01*
X625234Y455715D01*
X625530Y455782D01*
X625828Y455729D01*
X626083Y455564D01*
X626252Y455312D01*
X627048Y453390D01*
X629620Y450818D01*
X632981Y449426D01*
X636619Y449426D01*
X639980Y450818D01*
X642552Y453390D01*
X643944Y456751D01*
X643944Y460389D01*
X642552Y463750D01*
X639980Y466322D01*
X636619Y467714D01*
X632981Y467714D01*
X629620Y466322D01*
X627048Y463750D01*
X626252Y461828D01*
X626112Y461607D01*
X625867Y461428D01*
X625572Y461358D01*
X625273Y461409D01*
X625018Y461572D01*
X624846Y461822D01*
X624786Y462119D01*
X624786Y480421D01*
X624831Y480678D01*
X624988Y480938D01*
X625234Y481115D01*
X625530Y481182D01*
X625828Y481129D01*
X626083Y480964D01*
X626252Y480712D01*
X627048Y478790D01*
X629620Y476218D01*
X632981Y474826D01*
X636619Y474826D01*
X639980Y476218D01*
X642552Y478790D01*
X643944Y482151D01*
X643944Y485789D01*
X642552Y489150D01*
X639980Y491722D01*
X636619Y493114D01*
X632981Y493114D01*
X629620Y491722D01*
X627048Y489150D01*
X626252Y487228D01*
X626112Y487007D01*
X625867Y486828D01*
X625572Y486758D01*
X625273Y486809D01*
X625018Y486972D01*
X624846Y487222D01*
X624786Y487519D01*
X624786Y499214D01*
X624837Y499489D01*
X625001Y499744D01*
X625251Y499916D01*
X625548Y499976D01*
X626782Y499976D01*
X635054Y502192D01*
X642470Y506474D01*
X648526Y512530D01*
X652656Y519684D01*
X652752Y519815D01*
X652997Y519995D01*
X653292Y520065D01*
X653591Y520014D01*
X653846Y519850D01*
X654018Y519600D01*
X654078Y519303D01*
X654078Y352765D01*
X654031Y352502D01*
X653872Y352244D01*
X653624Y352069D01*
G37*
G36*
X74847Y420982D02*
X74549Y420922D01*
X11684Y420922D01*
X11409Y420973D01*
X11154Y421137D01*
X10982Y421387D01*
X10922Y421684D01*
X10922Y519303D01*
X10939Y519465D01*
X11061Y519742D01*
X11282Y519950D01*
X11567Y520056D01*
X11869Y520042D01*
X12143Y519911D01*
X12344Y519684D01*
X16474Y512530D01*
X22530Y506474D01*
X29946Y502192D01*
X37981Y500039D01*
X38314Y499851D01*
X38486Y499601D01*
X38546Y499303D01*
X38546Y452669D01*
X42933Y448282D01*
X48713Y448282D01*
X48999Y448226D01*
X49252Y448059D01*
X75088Y422223D01*
X75241Y422003D01*
X75311Y421708D01*
X75260Y421409D01*
X75097Y421154D01*
X74847Y420982D01*
G37*
G36*
X265196Y101148D02*
X264900Y101083D01*
X264602Y101139D01*
X264349Y101306D01*
X246618Y119038D01*
X246455Y119279D01*
X246394Y119577D01*
X246394Y141897D01*
X229318Y158973D01*
X229165Y159193D01*
X229095Y159488D01*
X229146Y159787D01*
X229310Y160042D01*
X229560Y160214D01*
X229857Y160274D01*
X232006Y160274D01*
X235114Y163382D01*
X235114Y167778D01*
X232006Y170886D01*
X230356Y170886D01*
X230081Y170937D01*
X229826Y171101D01*
X229654Y171351D01*
X229594Y171648D01*
X229594Y187557D01*
X226441Y190710D01*
X226278Y190952D01*
X226218Y191249D01*
X226218Y193751D01*
X226274Y194037D01*
X226441Y194290D01*
X229594Y197443D01*
X229594Y215887D01*
X229641Y216150D01*
X229800Y216408D01*
X230048Y216583D01*
X230344Y216648D01*
X230642Y216593D01*
X230895Y216425D01*
X233706Y213614D01*
X238102Y213614D01*
X241210Y216722D01*
X241210Y218948D01*
X241261Y219223D01*
X241425Y219478D01*
X241675Y219650D01*
X241972Y219710D01*
X245722Y219710D01*
X248519Y222507D01*
X248760Y222670D01*
X249057Y222730D01*
X252091Y222730D01*
X383055Y353694D01*
X383275Y353847D01*
X383570Y353917D01*
X383869Y353866D01*
X384124Y353703D01*
X384296Y353453D01*
X384356Y353155D01*
X384356Y350081D01*
X385748Y346720D01*
X388320Y344148D01*
X391681Y342756D01*
X395319Y342756D01*
X398680Y344148D01*
X401252Y346720D01*
X402644Y350081D01*
X402644Y353719D01*
X401252Y357080D01*
X398680Y359652D01*
X395319Y361044D01*
X392245Y361044D01*
X391981Y361091D01*
X391723Y361250D01*
X391548Y361498D01*
X391483Y361794D01*
X391538Y362092D01*
X391706Y362345D01*
X393600Y364239D01*
X393841Y364402D01*
X394139Y364462D01*
X404491Y364462D01*
X418555Y378526D01*
X418775Y378679D01*
X419070Y378749D01*
X419369Y378698D01*
X419624Y378535D01*
X419796Y378285D01*
X419856Y377987D01*
X419856Y375423D01*
X421248Y372062D01*
X423820Y369490D01*
X427181Y368098D01*
X430819Y368098D01*
X434180Y369490D01*
X436752Y372062D01*
X438144Y375423D01*
X438144Y379061D01*
X436752Y382422D01*
X434180Y384994D01*
X430819Y386386D01*
X428255Y386386D01*
X427991Y386433D01*
X427733Y386592D01*
X427558Y386840D01*
X427493Y387136D01*
X427548Y387434D01*
X427716Y387687D01*
X430176Y390147D01*
X430417Y390310D01*
X430715Y390370D01*
X436495Y390370D01*
X563689Y517564D01*
X563913Y517719D01*
X564209Y517787D01*
X564508Y517733D01*
X564762Y517568D01*
X564931Y517316D01*
X566048Y514620D01*
X568620Y512048D01*
X569952Y511497D01*
X570190Y511340D01*
X570362Y511090D01*
X570422Y510793D01*
X570422Y482311D01*
X570366Y482025D01*
X570199Y481772D01*
X566445Y478018D01*
X566225Y477865D01*
X565930Y477795D01*
X565631Y477846D01*
X565376Y478009D01*
X565204Y478259D01*
X565144Y478557D01*
X565144Y480661D01*
X563752Y484022D01*
X561180Y486594D01*
X557819Y487986D01*
X554181Y487986D01*
X550820Y486594D01*
X548248Y484022D01*
X546856Y480661D01*
X546856Y477023D01*
X547860Y474600D01*
X547918Y474320D01*
X547862Y474022D01*
X547695Y473769D01*
X547502Y473577D01*
X547261Y473414D01*
X546963Y473354D01*
X544040Y473354D01*
X539146Y468460D01*
X539146Y461540D01*
X539691Y460995D01*
X539854Y460753D01*
X539914Y460456D01*
X539914Y428697D01*
X539867Y428434D01*
X539708Y428176D01*
X539460Y428001D01*
X539164Y427936D01*
X538866Y427991D01*
X538613Y428159D01*
X538330Y428442D01*
X533934Y428442D01*
X530826Y425334D01*
X530826Y421379D01*
X530770Y421093D01*
X530603Y420840D01*
X453340Y343577D01*
X453099Y343414D01*
X452801Y343354D01*
X435283Y343354D01*
X435020Y343401D01*
X434762Y343560D01*
X434586Y343808D01*
X434521Y344104D01*
X434577Y344402D01*
X434744Y344655D01*
X436752Y346662D01*
X438144Y350023D01*
X438144Y353661D01*
X436752Y357022D01*
X434180Y359594D01*
X430819Y360986D01*
X427181Y360986D01*
X423820Y359594D01*
X421248Y357022D01*
X419856Y353661D01*
X419856Y350023D01*
X421248Y346662D01*
X423820Y344090D01*
X425683Y343318D01*
X425913Y343170D01*
X426089Y342923D01*
X426154Y342627D01*
X426098Y342328D01*
X425931Y342076D01*
X412911Y329055D01*
X412911Y309559D01*
X412855Y309273D01*
X412687Y309020D01*
X403945Y300278D01*
X403725Y300125D01*
X403430Y300055D01*
X403131Y300106D01*
X402876Y300269D01*
X402704Y300519D01*
X402644Y300817D01*
X402644Y302919D01*
X401252Y306280D01*
X398680Y308852D01*
X395319Y310244D01*
X391681Y310244D01*
X388320Y308852D01*
X385748Y306280D01*
X384356Y302919D01*
X384356Y299281D01*
X385748Y295920D01*
X388320Y293348D01*
X391681Y291956D01*
X393783Y291956D01*
X394047Y291909D01*
X394305Y291750D01*
X394480Y291502D01*
X394545Y291206D01*
X394490Y290908D01*
X394322Y290655D01*
X317438Y213771D01*
X317438Y204641D01*
X317382Y204355D01*
X317215Y204103D01*
X314418Y201306D01*
X314418Y196910D01*
X317526Y193802D01*
X321922Y193802D01*
X325030Y196910D01*
X325030Y201306D01*
X322233Y204103D01*
X322070Y204344D01*
X322010Y204641D01*
X322010Y211561D01*
X322066Y211847D01*
X322233Y212100D01*
X395385Y285252D01*
X395605Y285405D01*
X395900Y285475D01*
X396199Y285424D01*
X396454Y285261D01*
X396626Y285011D01*
X396686Y284713D01*
X396686Y276269D01*
X396630Y275983D01*
X396463Y275731D01*
X393666Y272934D01*
X393666Y268538D01*
X396774Y265430D01*
X397737Y265430D01*
X398001Y265383D01*
X398259Y265224D01*
X398434Y264976D01*
X398499Y264680D01*
X398444Y264382D01*
X398276Y264129D01*
X322724Y188577D01*
X322483Y188414D01*
X322185Y188354D01*
X309483Y188354D01*
X309220Y188401D01*
X308962Y188560D01*
X308786Y188808D01*
X308721Y189104D01*
X308777Y189402D01*
X308944Y189655D01*
X309710Y190420D01*
X311102Y193781D01*
X311102Y197419D01*
X309710Y200780D01*
X307138Y203352D01*
X303777Y204744D01*
X300139Y204744D01*
X296778Y203352D01*
X294206Y200780D01*
X292814Y197419D01*
X292814Y193781D01*
X294206Y190420D01*
X296778Y187848D01*
X299547Y186701D01*
X299776Y186553D01*
X299952Y186306D01*
X300017Y186010D01*
X299961Y185712D01*
X299794Y185459D01*
X280872Y166537D01*
X280631Y166374D01*
X280333Y166314D01*
X276378Y166314D01*
X273270Y163206D01*
X273270Y158810D01*
X276378Y155702D01*
X280774Y155702D01*
X283882Y158810D01*
X283882Y162765D01*
X283938Y163051D01*
X284105Y163304D01*
X291513Y170712D01*
X291733Y170865D01*
X292028Y170935D01*
X292327Y170884D01*
X292582Y170721D01*
X292754Y170471D01*
X292814Y170173D01*
X292814Y168381D01*
X294206Y165020D01*
X296778Y162448D01*
X298828Y161599D01*
X299058Y161451D01*
X299233Y161203D01*
X299298Y160907D01*
X299243Y160609D01*
X299075Y160356D01*
X288482Y149763D01*
X288482Y111677D01*
X288426Y111391D01*
X288259Y111139D01*
X285462Y108342D01*
X285462Y103946D01*
X285773Y103635D01*
X285926Y103415D01*
X285996Y103120D01*
X285945Y102821D01*
X285782Y102566D01*
X285532Y102394D01*
X285235Y102334D01*
X276489Y102334D01*
X276203Y102390D01*
X275951Y102557D01*
X273154Y105354D01*
X268758Y105354D01*
X265650Y102246D01*
X265650Y101845D01*
X265603Y101582D01*
X265444Y101324D01*
X265196Y101148D01*
G37*
%LPC*%
G36*
X391681Y317356D02*
X395319Y317356D01*
X398680Y318748D01*
X401252Y321320D01*
X402644Y324681D01*
X402644Y328319D01*
X401252Y331680D01*
X398680Y334252D01*
X395319Y335644D01*
X391681Y335644D01*
X388320Y334252D01*
X385748Y331680D01*
X384356Y328319D01*
X384356Y324681D01*
X385748Y321320D01*
X388320Y318748D01*
X391681Y317356D01*
G37*
G36*
X300139Y237256D02*
X303777Y237256D01*
X307138Y238648D01*
X309710Y241220D01*
X311102Y244581D01*
X311102Y248219D01*
X309710Y251580D01*
X307138Y254152D01*
X303777Y255544D01*
X300139Y255544D01*
X296778Y254152D01*
X294206Y251580D01*
X292814Y248219D01*
X292814Y244581D01*
X294206Y241220D01*
X296778Y238648D01*
X300139Y237256D01*
G37*
G36*
X300139Y211856D02*
X303777Y211856D01*
X307138Y213248D01*
X309710Y215820D01*
X311102Y219181D01*
X311102Y222819D01*
X309710Y226180D01*
X307138Y228752D01*
X303777Y230144D01*
X300139Y230144D01*
X296778Y228752D01*
X294206Y226180D01*
X292814Y222819D01*
X292814Y219181D01*
X294206Y215820D01*
X296778Y213248D01*
X300139Y211856D01*
G37*
%LPD*%
G36*
X545567Y445015D02*
X545272Y444945D01*
X544973Y444996D01*
X544718Y445159D01*
X544546Y445409D01*
X544486Y445707D01*
X544486Y462665D01*
X543941Y463210D01*
X543778Y463452D01*
X543718Y463749D01*
X543718Y466251D01*
X543774Y466537D01*
X543941Y466790D01*
X545710Y468559D01*
X545952Y468722D01*
X546249Y468782D01*
X549173Y468782D01*
X550927Y470537D01*
X551164Y470697D01*
X551460Y470760D01*
X551758Y470702D01*
X554181Y469698D01*
X556285Y469698D01*
X556549Y469651D01*
X556807Y469492D01*
X556982Y469244D01*
X557047Y468948D01*
X556992Y468650D01*
X556824Y468397D01*
X555182Y466755D01*
X555182Y463348D01*
X555131Y463073D01*
X554967Y462818D01*
X554717Y462646D01*
X554420Y462586D01*
X554181Y462586D01*
X550820Y461194D01*
X548248Y458622D01*
X546856Y455261D01*
X546856Y451623D01*
X548239Y448285D01*
X548297Y448005D01*
X548241Y447707D01*
X548074Y447454D01*
X545787Y445168D01*
X545567Y445015D01*
G37*
G36*
X403725Y400709D02*
X403430Y400639D01*
X403131Y400690D01*
X402876Y400853D01*
X402704Y401103D01*
X402644Y401401D01*
X402644Y404519D01*
X401252Y407880D01*
X398680Y410452D01*
X395319Y411844D01*
X392753Y411844D01*
X392489Y411891D01*
X392231Y412050D01*
X392056Y412298D01*
X391991Y412594D01*
X392046Y412892D01*
X392214Y413145D01*
X393600Y414531D01*
X393841Y414694D01*
X394139Y414754D01*
X398395Y414754D01*
X415197Y431556D01*
X415417Y431709D01*
X415712Y431779D01*
X416011Y431728D01*
X416266Y431565D01*
X416438Y431315D01*
X416498Y431017D01*
X416498Y413731D01*
X416442Y413445D01*
X416275Y413192D01*
X403945Y400862D01*
X403725Y400709D01*
G37*
G36*
X437946Y295281D02*
X437652Y295209D01*
X437353Y295258D01*
X437096Y295419D01*
X436922Y295668D01*
X436860Y295965D01*
X436918Y296262D01*
X438144Y299223D01*
X438144Y302861D01*
X436752Y306222D01*
X434180Y308794D01*
X431991Y309700D01*
X431762Y309849D01*
X431586Y310096D01*
X431521Y310392D01*
X431577Y310690D01*
X431744Y310943D01*
X531172Y410371D01*
X531402Y410529D01*
X531698Y410594D01*
X531997Y410538D01*
X532249Y410371D01*
X533934Y408686D01*
X538330Y408686D01*
X538613Y408969D01*
X538833Y409122D01*
X539128Y409192D01*
X539427Y409141D01*
X539682Y408978D01*
X539854Y408728D01*
X539914Y408431D01*
X539914Y401265D01*
X539867Y401002D01*
X539708Y400744D01*
X539460Y400569D01*
X539164Y400504D01*
X538866Y400559D01*
X538613Y400727D01*
X538330Y401010D01*
X533934Y401010D01*
X530826Y397902D01*
X530826Y393506D01*
X532992Y391341D01*
X533150Y391110D01*
X533215Y390814D01*
X533159Y390516D01*
X532992Y390263D01*
X438160Y295432D01*
X437946Y295281D01*
G37*
G36*
X338303Y335287D02*
X338008Y335217D01*
X337709Y335268D01*
X337454Y335431D01*
X337282Y335681D01*
X337222Y335979D01*
X337222Y336942D01*
X334114Y340050D01*
X330159Y340050D01*
X329873Y340106D01*
X329620Y340273D01*
X326516Y343377D01*
X326363Y343597D01*
X326293Y343892D01*
X326344Y344191D01*
X326507Y344446D01*
X326757Y344618D01*
X327055Y344678D01*
X328018Y344678D01*
X331126Y347786D01*
X331126Y351741D01*
X331182Y352027D01*
X331349Y352280D01*
X383055Y403986D01*
X383275Y404139D01*
X383570Y404209D01*
X383869Y404158D01*
X384124Y403995D01*
X384296Y403745D01*
X384356Y403447D01*
X384356Y400881D01*
X385748Y397520D01*
X388320Y394948D01*
X390900Y393879D01*
X391130Y393731D01*
X391306Y393484D01*
X391371Y393188D01*
X391315Y392889D01*
X391148Y392637D01*
X379922Y381411D01*
X379922Y377155D01*
X379866Y376869D01*
X379699Y376616D01*
X338523Y335440D01*
X338303Y335287D01*
G37*
G36*
X312183Y118667D02*
X311888Y118597D01*
X311589Y118648D01*
X311334Y118811D01*
X311162Y119061D01*
X311102Y119359D01*
X311102Y121219D01*
X309710Y124580D01*
X307138Y127152D01*
X303777Y128544D01*
X300139Y128544D01*
X296778Y127152D01*
X294355Y124728D01*
X294135Y124575D01*
X293840Y124506D01*
X293541Y124556D01*
X293286Y124720D01*
X293114Y124970D01*
X293054Y125267D01*
X293054Y138933D01*
X293101Y139196D01*
X293260Y139454D01*
X293508Y139630D01*
X293804Y139695D01*
X294102Y139639D01*
X294355Y139472D01*
X296778Y137048D01*
X300139Y135656D01*
X303777Y135656D01*
X307138Y137048D01*
X309710Y139620D01*
X311102Y142981D01*
X311102Y146619D01*
X309710Y149980D01*
X307138Y152552D01*
X303777Y153944D01*
X300969Y153944D01*
X300705Y153991D01*
X300447Y154150D01*
X300272Y154398D01*
X300207Y154694D01*
X300262Y154992D01*
X300430Y155245D01*
X302160Y156975D01*
X302401Y157138D01*
X302699Y157198D01*
X306392Y157198D01*
X538613Y389419D01*
X538833Y389572D01*
X539128Y389642D01*
X539427Y389591D01*
X539682Y389427D01*
X539854Y389177D01*
X539914Y388880D01*
X539914Y345077D01*
X539858Y344791D01*
X539691Y344538D01*
X539018Y343865D01*
X539018Y337764D01*
X538967Y337489D01*
X538803Y337234D01*
X538553Y337062D01*
X538256Y337002D01*
X533934Y337002D01*
X533009Y336077D01*
X532768Y335914D01*
X532471Y335854D01*
X496554Y335854D01*
X358586Y197886D01*
X358586Y165319D01*
X358530Y165033D01*
X358363Y164780D01*
X312403Y118820D01*
X312183Y118667D01*
G37*
G36*
X592003Y55005D02*
X591708Y54936D01*
X591409Y54986D01*
X591154Y55150D01*
X590982Y55400D01*
X590922Y55697D01*
X590922Y149673D01*
X589259Y153687D01*
X586187Y156759D01*
X582173Y158422D01*
X514184Y158422D01*
X513909Y158473D01*
X513654Y158637D01*
X513482Y158887D01*
X513422Y159184D01*
X513422Y252173D01*
X511759Y256187D01*
X508687Y259259D01*
X504673Y260922D01*
X445327Y260922D01*
X441313Y259259D01*
X440659Y258605D01*
X440439Y258452D01*
X440144Y258382D01*
X439845Y258433D01*
X439590Y258596D01*
X439418Y258846D01*
X439358Y259144D01*
X439358Y261891D01*
X439414Y262177D01*
X439581Y262430D01*
X495710Y318559D01*
X495952Y318722D01*
X496249Y318782D01*
X535595Y318782D01*
X541689Y324876D01*
X541909Y325029D01*
X542204Y325099D01*
X542503Y325048D01*
X542758Y324885D01*
X542930Y324635D01*
X542990Y324337D01*
X542990Y321605D01*
X553435Y311160D01*
X553598Y310919D01*
X553658Y310621D01*
X553658Y310478D01*
X553605Y310198D01*
X553439Y309944D01*
X553188Y309774D01*
X550820Y308794D01*
X548248Y306222D01*
X546856Y302861D01*
X546856Y299223D01*
X548248Y295862D01*
X550820Y293290D01*
X554181Y291898D01*
X557819Y291898D01*
X561180Y293290D01*
X563752Y295862D01*
X565144Y299223D01*
X565144Y302861D01*
X563752Y306222D01*
X561180Y308794D01*
X558700Y309821D01*
X558462Y309978D01*
X558290Y310228D01*
X558230Y310525D01*
X558230Y312831D01*
X555064Y315997D01*
X554911Y316217D01*
X554841Y316512D01*
X554892Y316811D01*
X555055Y317066D01*
X555305Y317238D01*
X555603Y317298D01*
X557819Y317298D01*
X561180Y318690D01*
X563752Y321262D01*
X565144Y324623D01*
X565144Y328261D01*
X564370Y330128D01*
X564313Y330408D01*
X564368Y330706D01*
X564536Y330959D01*
X614608Y381031D01*
X614849Y381194D01*
X615147Y381254D01*
X619102Y381254D01*
X619385Y381537D01*
X619605Y381690D01*
X619900Y381760D01*
X620199Y381709D01*
X620454Y381546D01*
X620626Y381296D01*
X620686Y380999D01*
X620686Y75786D01*
X620635Y75511D01*
X620471Y75256D01*
X620221Y75084D01*
X619924Y75024D01*
X618218Y75024D01*
X609946Y72808D01*
X602530Y68526D01*
X596474Y62470D01*
X592344Y55316D01*
X592248Y55185D01*
X592003Y55005D01*
G37*
G36*
X250179Y227362D02*
X249881Y227302D01*
X249057Y227302D01*
X248771Y227358D01*
X248519Y227525D01*
X245722Y230322D01*
X241711Y230322D01*
X241447Y230369D01*
X241189Y230528D01*
X241014Y230776D01*
X240949Y231072D01*
X241004Y231370D01*
X241172Y231623D01*
X383747Y374198D01*
X383972Y374354D01*
X384268Y374421D01*
X384566Y374368D01*
X384820Y374202D01*
X384990Y373951D01*
X385748Y372120D01*
X388320Y369548D01*
X390182Y368777D01*
X390412Y368629D01*
X390587Y368381D01*
X390652Y368085D01*
X390597Y367787D01*
X390429Y367534D01*
X250420Y227525D01*
X250179Y227362D01*
G37*
G36*
X653718Y55050D02*
X653434Y54944D01*
X653131Y54958D01*
X652857Y55089D01*
X652656Y55316D01*
X648526Y62470D01*
X642470Y68526D01*
X635054Y72808D01*
X626782Y75024D01*
X626020Y75024D01*
X625745Y75075D01*
X625490Y75239D01*
X625318Y75489D01*
X625258Y75786D01*
X625258Y359669D01*
X625305Y359933D01*
X625464Y360191D01*
X625712Y360366D01*
X626008Y360431D01*
X626306Y360376D01*
X626559Y360208D01*
X639053Y347714D01*
X641967Y347714D01*
X642253Y347658D01*
X642505Y347491D01*
X645302Y344694D01*
X649698Y344694D01*
X652777Y347773D01*
X652997Y347926D01*
X653292Y347996D01*
X653591Y347945D01*
X653846Y347782D01*
X654018Y347532D01*
X654078Y347235D01*
X654078Y55697D01*
X654061Y55535D01*
X653939Y55258D01*
X653718Y55050D01*
G37*
G36*
X439225Y324957D02*
X438930Y324887D01*
X438631Y324938D01*
X438376Y325101D01*
X438204Y325351D01*
X438144Y325649D01*
X438144Y328261D01*
X436752Y331622D01*
X434180Y334194D01*
X430819Y335586D01*
X427747Y335586D01*
X427483Y335633D01*
X427225Y335792D01*
X427050Y336040D01*
X426985Y336336D01*
X427040Y336634D01*
X427208Y336887D01*
X428880Y338559D01*
X429121Y338722D01*
X429419Y338782D01*
X451277Y338782D01*
X451541Y338735D01*
X451799Y338576D01*
X451974Y338328D01*
X452039Y338032D01*
X451984Y337734D01*
X451816Y337481D01*
X439445Y325110D01*
X439225Y324957D01*
G37*
G36*
X419776Y248698D02*
X419478Y248638D01*
X417644Y248638D01*
X417381Y248685D01*
X417122Y248844D01*
X416947Y249092D01*
X416882Y249388D01*
X416938Y249686D01*
X417105Y249939D01*
X498225Y331059D01*
X498467Y331222D01*
X498764Y331282D01*
X530064Y331282D01*
X530339Y331231D01*
X530594Y331067D01*
X530766Y330817D01*
X530826Y330520D01*
X530826Y329498D01*
X533934Y326390D01*
X534897Y326390D01*
X535161Y326343D01*
X535419Y326184D01*
X535594Y325936D01*
X535659Y325640D01*
X535604Y325342D01*
X535436Y325089D01*
X533924Y323577D01*
X533683Y323414D01*
X533385Y323354D01*
X494040Y323354D01*
X434786Y264100D01*
X434786Y256759D01*
X434730Y256473D01*
X434563Y256220D01*
X433336Y254993D01*
X433100Y254833D01*
X432803Y254770D01*
X432506Y254828D01*
X430777Y255544D01*
X427139Y255544D01*
X423778Y254152D01*
X421206Y251580D01*
X420182Y249108D01*
X420026Y248870D01*
X419776Y248698D01*
G37*
G36*
X418564Y310445D02*
X418269Y310375D01*
X417970Y310426D01*
X417714Y310589D01*
X417543Y310839D01*
X417483Y311137D01*
X417483Y326846D01*
X417538Y327132D01*
X417706Y327385D01*
X418555Y328234D01*
X418775Y328387D01*
X419070Y328457D01*
X419369Y328406D01*
X419624Y328243D01*
X419796Y327993D01*
X419856Y327695D01*
X419856Y324623D01*
X421248Y321262D01*
X423820Y318690D01*
X427181Y317298D01*
X429793Y317298D01*
X430057Y317251D01*
X430315Y317092D01*
X430490Y316844D01*
X430555Y316548D01*
X430500Y316250D01*
X430332Y315997D01*
X427792Y313457D01*
X427551Y313294D01*
X427253Y313234D01*
X423950Y313234D01*
X421988Y311272D01*
X421746Y311109D01*
X421449Y311049D01*
X419234Y311049D01*
X418783Y310598D01*
X418564Y310445D01*
G37*
G36*
X405359Y271279D02*
X405064Y271209D01*
X404765Y271260D01*
X404510Y271423D01*
X404338Y271673D01*
X404278Y271971D01*
X404278Y272934D01*
X401481Y275731D01*
X401318Y275972D01*
X401258Y276269D01*
X401258Y286291D01*
X401314Y286577D01*
X401481Y286830D01*
X418804Y304153D01*
X419018Y304304D01*
X419313Y304376D01*
X419612Y304327D01*
X419869Y304166D01*
X420043Y303917D01*
X420105Y303620D01*
X420047Y303323D01*
X419856Y302861D01*
X419856Y299223D01*
X421248Y295862D01*
X423004Y294107D01*
X423157Y293887D01*
X423226Y293592D01*
X423176Y293293D01*
X423012Y293038D01*
X422762Y292866D01*
X422738Y292861D01*
X419574Y289698D01*
X419574Y285743D01*
X419518Y285457D01*
X419351Y285204D01*
X405579Y271432D01*
X405359Y271279D01*
G37*
G36*
X221751Y196132D02*
X221456Y196062D01*
X221157Y196113D01*
X220902Y196277D01*
X220730Y196527D01*
X220670Y196824D01*
X220670Y287500D01*
X220721Y287775D01*
X220885Y288030D01*
X221135Y288202D01*
X221432Y288262D01*
X236851Y288262D01*
X245772Y297183D01*
X246013Y297346D01*
X246311Y297406D01*
X257624Y297406D01*
X257904Y297353D01*
X258158Y297187D01*
X258328Y296936D01*
X258748Y295920D01*
X261320Y293348D01*
X264681Y291956D01*
X267291Y291956D01*
X267555Y291909D01*
X267813Y291750D01*
X267988Y291502D01*
X268053Y291206D01*
X267998Y290908D01*
X267830Y290655D01*
X225022Y247847D01*
X225022Y199652D01*
X224966Y199366D01*
X224799Y199113D01*
X221971Y196285D01*
X221751Y196132D01*
G37*
G36*
X215644Y196353D02*
X215348Y196288D01*
X215050Y196343D01*
X214797Y196511D01*
X214514Y196794D01*
X213846Y196794D01*
X213571Y196845D01*
X213316Y197009D01*
X213144Y197259D01*
X213084Y197556D01*
X213084Y202000D01*
X209976Y205108D01*
X206020Y205108D01*
X205734Y205164D01*
X205481Y205331D01*
X171329Y239484D01*
X171166Y239725D01*
X171106Y240023D01*
X171106Y243978D01*
X167998Y247086D01*
X163602Y247086D01*
X160494Y243978D01*
X160494Y243015D01*
X160447Y242751D01*
X160288Y242493D01*
X160040Y242318D01*
X159744Y242253D01*
X159446Y242308D01*
X159193Y242476D01*
X118017Y283652D01*
X117854Y283893D01*
X117794Y284191D01*
X117794Y285399D01*
X116232Y286961D01*
X116079Y287181D01*
X116009Y287476D01*
X116060Y287775D01*
X116223Y288030D01*
X116473Y288202D01*
X116771Y288262D01*
X215336Y288262D01*
X215611Y288211D01*
X215866Y288047D01*
X216038Y287797D01*
X216098Y287500D01*
X216098Y197049D01*
X216051Y196786D01*
X215892Y196528D01*
X215644Y196353D01*
G37*
G36*
X183424Y161830D02*
X183127Y161770D01*
X109151Y161770D01*
X108865Y161826D01*
X108612Y161993D01*
X98829Y171776D01*
X98666Y172017D01*
X98606Y172315D01*
X98606Y176783D01*
X98653Y177046D01*
X98812Y177304D01*
X99060Y177479D01*
X99356Y177544D01*
X99654Y177489D01*
X99907Y177321D01*
X100190Y177038D01*
X104586Y177038D01*
X107694Y180146D01*
X107694Y184542D01*
X104586Y187650D01*
X101543Y187650D01*
X101257Y187706D01*
X101004Y187873D01*
X96681Y192196D01*
X96518Y192437D01*
X96458Y192735D01*
X96458Y202719D01*
X96505Y202982D01*
X96664Y203240D01*
X96912Y203415D01*
X97208Y203480D01*
X97506Y203425D01*
X97759Y203257D01*
X99594Y201422D01*
X103990Y201422D01*
X107098Y204530D01*
X107098Y208485D01*
X107154Y208771D01*
X107321Y209024D01*
X123880Y225583D01*
X124121Y225746D01*
X124419Y225806D01*
X128374Y225806D01*
X131482Y228914D01*
X131482Y233310D01*
X128374Y236418D01*
X123978Y236418D01*
X120870Y233310D01*
X120870Y229355D01*
X120814Y229069D01*
X120647Y228816D01*
X111447Y219616D01*
X111227Y219463D01*
X110932Y219393D01*
X110633Y219444D01*
X110378Y219607D01*
X110206Y219857D01*
X110146Y220155D01*
X110146Y221118D01*
X107349Y223915D01*
X107186Y224156D01*
X107126Y224453D01*
X107126Y275336D01*
X107177Y275611D01*
X107341Y275866D01*
X107591Y276038D01*
X107888Y276098D01*
X111610Y276098D01*
X114819Y279307D01*
X115049Y279465D01*
X115345Y279530D01*
X115643Y279474D01*
X115896Y279307D01*
X186151Y209052D01*
X186314Y208811D01*
X186374Y208513D01*
X186374Y171113D01*
X186318Y170827D01*
X186151Y170575D01*
X183354Y167778D01*
X183354Y163382D01*
X183665Y163071D01*
X183818Y162851D01*
X183888Y162556D01*
X183837Y162257D01*
X183674Y162002D01*
X183424Y161830D01*
G37*
G36*
X419360Y118634D02*
X419064Y118569D01*
X418766Y118624D01*
X418513Y118792D01*
X417319Y119986D01*
X417156Y120228D01*
X417096Y120525D01*
X417096Y233515D01*
X417147Y233790D01*
X417310Y234045D01*
X417561Y234217D01*
X417858Y234277D01*
X418607Y234277D01*
X421715Y237386D01*
X421715Y238872D01*
X421762Y239135D01*
X421921Y239393D01*
X422168Y239569D01*
X422465Y239634D01*
X422763Y239578D01*
X423016Y239411D01*
X423778Y238648D01*
X427139Y237256D01*
X430777Y237256D01*
X434138Y238648D01*
X435277Y239788D01*
X435497Y239941D01*
X435792Y240010D01*
X436091Y239960D01*
X436346Y239796D01*
X436518Y239546D01*
X436578Y239249D01*
X436578Y228151D01*
X436531Y227888D01*
X436372Y227630D01*
X436124Y227454D01*
X435828Y227389D01*
X435530Y227445D01*
X435277Y227612D01*
X434138Y228752D01*
X430777Y230144D01*
X427139Y230144D01*
X423778Y228752D01*
X421206Y226180D01*
X419814Y222819D01*
X419814Y219181D01*
X421206Y215820D01*
X423778Y213248D01*
X427139Y211856D01*
X430777Y211856D01*
X434138Y213248D01*
X435277Y214388D01*
X435497Y214541D01*
X435792Y214610D01*
X436091Y214560D01*
X436346Y214396D01*
X436518Y214146D01*
X436578Y213849D01*
X436578Y202751D01*
X436531Y202488D01*
X436372Y202230D01*
X436124Y202054D01*
X435828Y201989D01*
X435530Y202045D01*
X435277Y202212D01*
X434138Y203352D01*
X430777Y204744D01*
X427139Y204744D01*
X423778Y203352D01*
X421206Y200780D01*
X419814Y197419D01*
X419814Y193781D01*
X421206Y190420D01*
X423778Y187848D01*
X427139Y186456D01*
X430777Y186456D01*
X434138Y187848D01*
X435277Y188988D01*
X435497Y189141D01*
X435792Y189210D01*
X436091Y189160D01*
X436346Y188996D01*
X436518Y188746D01*
X436578Y188449D01*
X436578Y177351D01*
X436531Y177088D01*
X436372Y176830D01*
X436124Y176654D01*
X435828Y176589D01*
X435530Y176645D01*
X435277Y176812D01*
X434138Y177952D01*
X430777Y179344D01*
X427139Y179344D01*
X423778Y177952D01*
X421206Y175380D01*
X419814Y172019D01*
X419814Y168381D01*
X421206Y165020D01*
X423778Y162448D01*
X427139Y161056D01*
X430777Y161056D01*
X434138Y162448D01*
X435277Y163588D01*
X435497Y163741D01*
X435792Y163810D01*
X436091Y163760D01*
X436346Y163596D01*
X436518Y163346D01*
X436578Y163049D01*
X436578Y151951D01*
X436531Y151688D01*
X436372Y151430D01*
X436124Y151254D01*
X435828Y151189D01*
X435530Y151245D01*
X435277Y151412D01*
X434138Y152552D01*
X430777Y153944D01*
X427139Y153944D01*
X423778Y152552D01*
X421206Y149980D01*
X419814Y146619D01*
X419814Y142981D01*
X421206Y139620D01*
X423778Y137048D01*
X427139Y135656D01*
X430777Y135656D01*
X434138Y137048D01*
X435277Y138188D01*
X435497Y138341D01*
X435792Y138410D01*
X436091Y138360D01*
X436346Y138196D01*
X436518Y137946D01*
X436578Y137649D01*
X436578Y126551D01*
X436531Y126288D01*
X436372Y126030D01*
X436124Y125854D01*
X435828Y125789D01*
X435530Y125845D01*
X435277Y126012D01*
X434138Y127152D01*
X430777Y128544D01*
X427139Y128544D01*
X423778Y127152D01*
X421206Y124580D01*
X419814Y121219D01*
X419814Y119331D01*
X419767Y119067D01*
X419608Y118809D01*
X419360Y118634D01*
G37*
G36*
X420197Y71914D02*
X419899Y71854D01*
X316415Y71854D01*
X316129Y71910D01*
X315876Y72077D01*
X307494Y80459D01*
X307336Y80690D01*
X307271Y80986D01*
X307326Y81284D01*
X307494Y81537D01*
X366206Y140249D01*
X366206Y194414D01*
X366262Y194700D01*
X366429Y194952D01*
X409802Y238325D01*
X410021Y238478D01*
X410316Y238548D01*
X410615Y238497D01*
X410871Y238334D01*
X411042Y238084D01*
X411103Y237786D01*
X411103Y237386D01*
X412301Y236188D01*
X412463Y235946D01*
X412524Y235649D01*
X412524Y118315D01*
X425419Y105420D01*
X425582Y105179D01*
X425642Y104881D01*
X425642Y103033D01*
X425589Y102753D01*
X425423Y102499D01*
X425172Y102329D01*
X423778Y101752D01*
X421206Y99180D01*
X419814Y95819D01*
X419814Y92181D01*
X421206Y88820D01*
X423778Y86248D01*
X427139Y84856D01*
X430777Y84856D01*
X434138Y86248D01*
X435277Y87388D01*
X435497Y87541D01*
X435792Y87610D01*
X436091Y87560D01*
X436346Y87396D01*
X436518Y87146D01*
X436578Y86849D01*
X436578Y75751D01*
X436531Y75488D01*
X436372Y75230D01*
X436124Y75054D01*
X435828Y74989D01*
X435530Y75045D01*
X435277Y75212D01*
X434138Y76352D01*
X430777Y77744D01*
X427139Y77744D01*
X423778Y76352D01*
X421206Y73780D01*
X420603Y72324D01*
X420447Y72086D01*
X420197Y71914D01*
G37*
G36*
X216135Y161830D02*
X215837Y161770D01*
X194193Y161770D01*
X193930Y161817D01*
X193672Y161976D01*
X193497Y162224D01*
X193432Y162520D01*
X193487Y162818D01*
X193655Y163071D01*
X193966Y163382D01*
X193966Y167778D01*
X191169Y170575D01*
X191006Y170816D01*
X190946Y171113D01*
X190946Y210723D01*
X166496Y235173D01*
X166343Y235393D01*
X166273Y235688D01*
X166324Y235987D01*
X166487Y236242D01*
X166737Y236414D01*
X167035Y236474D01*
X167557Y236474D01*
X167843Y236418D01*
X168096Y236251D01*
X202249Y202099D01*
X202411Y201857D01*
X202472Y201560D01*
X202472Y197604D01*
X205580Y194496D01*
X206248Y194496D01*
X206523Y194445D01*
X206778Y194282D01*
X206950Y194031D01*
X207010Y193734D01*
X207010Y189290D01*
X210118Y186182D01*
X214514Y186182D01*
X214659Y186328D01*
X214890Y186486D01*
X215186Y186551D01*
X215484Y186495D01*
X215737Y186328D01*
X217607Y184458D01*
X217770Y184216D01*
X217830Y183919D01*
X217830Y163763D01*
X217774Y163477D01*
X217607Y163224D01*
X216376Y161993D01*
X216135Y161830D01*
G37*
G36*
X231944Y140325D02*
X231647Y140265D01*
X73959Y140265D01*
X73696Y140312D01*
X73438Y140471D01*
X73262Y140718D01*
X73197Y141014D01*
X73253Y141313D01*
X73420Y141565D01*
X86470Y154615D01*
X86470Y189791D01*
X86517Y190054D01*
X86676Y190312D01*
X86924Y190488D01*
X87220Y190553D01*
X87518Y190497D01*
X87771Y190330D01*
X93811Y184290D01*
X93974Y184048D01*
X94034Y183751D01*
X94034Y170105D01*
X106941Y157198D01*
X216237Y157198D01*
X216523Y157142D01*
X216776Y156975D01*
X232186Y141565D01*
X232339Y141346D01*
X232409Y141051D01*
X232358Y140752D01*
X232194Y140496D01*
X231944Y140325D01*
G37*
G36*
X312183Y169521D02*
X311888Y169451D01*
X311589Y169502D01*
X311334Y169666D01*
X311162Y169916D01*
X311102Y170213D01*
X311102Y172019D01*
X309710Y175380D01*
X307138Y177952D01*
X303777Y179344D01*
X301985Y179344D01*
X301721Y179391D01*
X301463Y179550D01*
X301288Y179798D01*
X301223Y180094D01*
X301278Y180392D01*
X301446Y180645D01*
X303684Y182883D01*
X303925Y183046D01*
X304223Y183106D01*
X310257Y183106D01*
X310710Y183559D01*
X310952Y183722D01*
X311249Y183782D01*
X324671Y183782D01*
X324934Y183735D01*
X325192Y183576D01*
X325368Y183328D01*
X325433Y183032D01*
X325377Y182734D01*
X325210Y182481D01*
X312403Y169674D01*
X312183Y169521D01*
G37*
G36*
X312183Y92759D02*
X311888Y92689D01*
X311589Y92740D01*
X311334Y92903D01*
X311162Y93153D01*
X311102Y93451D01*
X311102Y95819D01*
X309710Y99180D01*
X307138Y101752D01*
X303777Y103144D01*
X301985Y103144D01*
X301721Y103191D01*
X301463Y103350D01*
X301288Y103598D01*
X301223Y103894D01*
X301278Y104192D01*
X301446Y104445D01*
X303684Y106683D01*
X303925Y106846D01*
X304223Y106906D01*
X306955Y106906D01*
X360333Y160284D01*
X360553Y160437D01*
X360848Y160507D01*
X361147Y160456D01*
X361402Y160293D01*
X361574Y160043D01*
X361634Y159745D01*
X361634Y142459D01*
X361578Y142173D01*
X361411Y141920D01*
X312403Y92912D01*
X312183Y92759D01*
G37*
G36*
X12003Y55005D02*
X11708Y54936D01*
X11409Y54986D01*
X11154Y55150D01*
X10982Y55400D01*
X10922Y55697D01*
X10922Y153316D01*
X10973Y153591D01*
X11137Y153846D01*
X11387Y154018D01*
X11684Y154078D01*
X74673Y154078D01*
X78687Y155741D01*
X80597Y157651D01*
X80817Y157804D01*
X81112Y157874D01*
X81411Y157823D01*
X81666Y157660D01*
X81838Y157410D01*
X81898Y157112D01*
X81898Y156825D01*
X81842Y156539D01*
X81675Y156286D01*
X70175Y144786D01*
X69933Y144623D01*
X69636Y144563D01*
X56634Y144563D01*
X39094Y127023D01*
X39094Y75786D01*
X39043Y75511D01*
X38879Y75256D01*
X38629Y75084D01*
X38332Y75024D01*
X38218Y75024D01*
X29946Y72808D01*
X22530Y68526D01*
X16474Y62470D01*
X12344Y55316D01*
X12248Y55185D01*
X12003Y55005D01*
G37*
G36*
X64598Y67087D02*
X64302Y67022D01*
X64004Y67078D01*
X63751Y67245D01*
X62470Y68526D01*
X55054Y72808D01*
X46782Y75024D01*
X44428Y75024D01*
X44153Y75075D01*
X43898Y75239D01*
X43726Y75489D01*
X43666Y75786D01*
X43666Y124813D01*
X43722Y125099D01*
X43889Y125352D01*
X58304Y139767D01*
X58546Y139930D01*
X58843Y139991D01*
X64338Y139991D01*
X64721Y139888D01*
X64948Y139686D01*
X65078Y139412D01*
X65091Y139109D01*
X65052Y138861D01*
X65052Y67784D01*
X65005Y67521D01*
X64845Y67263D01*
X64598Y67087D01*
G37*
G36*
X436113Y10982D02*
X435816Y10922D01*
X55697Y10922D01*
X55535Y10939D01*
X55258Y11061D01*
X55050Y11282D01*
X54944Y11567D01*
X54958Y11869D01*
X55089Y12143D01*
X55316Y12344D01*
X62470Y16474D01*
X68526Y22530D01*
X72808Y29946D01*
X75024Y38218D01*
X75024Y46782D01*
X72808Y55054D01*
X68940Y61753D01*
X68838Y62110D01*
X68889Y62409D01*
X69052Y62664D01*
X69302Y62836D01*
X69600Y62896D01*
X238894Y62896D01*
X239131Y62934D01*
X239359Y63008D01*
X239573Y63117D01*
X239767Y63258D01*
X239937Y63427D01*
X240078Y63622D01*
X240187Y63835D01*
X240261Y64063D01*
X240298Y64300D01*
X240298Y112741D01*
X240345Y113004D01*
X240505Y113262D01*
X240752Y113438D01*
X241048Y113503D01*
X241346Y113447D01*
X241599Y113280D01*
X278781Y76098D01*
X289772Y76098D01*
X289863Y76160D01*
X290161Y76220D01*
X294807Y76220D01*
X295070Y76173D01*
X295328Y76014D01*
X295504Y75766D01*
X295569Y75470D01*
X295513Y75172D01*
X295346Y74919D01*
X294206Y73780D01*
X292814Y70419D01*
X292814Y66781D01*
X294206Y63420D01*
X296778Y60848D01*
X300139Y59456D01*
X303777Y59456D01*
X307138Y60848D01*
X309710Y63420D01*
X311102Y66781D01*
X311102Y68545D01*
X311149Y68809D01*
X311308Y69067D01*
X311556Y69242D01*
X311852Y69307D01*
X312150Y69252D01*
X312403Y69084D01*
X314205Y67282D01*
X419097Y67282D01*
X419378Y67229D01*
X419632Y67063D01*
X419801Y66812D01*
X421206Y63420D01*
X423778Y60848D01*
X427139Y59456D01*
X430777Y59456D01*
X434138Y60848D01*
X435277Y61988D01*
X435497Y62141D01*
X435792Y62210D01*
X436091Y62160D01*
X436346Y61996D01*
X436518Y61746D01*
X436578Y61449D01*
X436578Y11684D01*
X436527Y11409D01*
X436363Y11154D01*
X436113Y10982D01*
G37*
%LPC*%
G36*
X83137Y15438D02*
X426863Y15438D01*
X427100Y15476D01*
X427328Y15550D01*
X427542Y15659D01*
X427736Y15800D01*
X427906Y15969D01*
X428047Y16164D01*
X428156Y16377D01*
X428230Y16605D01*
X428267Y16842D01*
X428267Y46810D01*
X428230Y47047D01*
X428156Y47275D01*
X428047Y47489D01*
X427906Y47683D01*
X427736Y47853D01*
X427542Y47994D01*
X427328Y48103D01*
X427100Y48177D01*
X426863Y48214D01*
X83137Y48214D01*
X82900Y48177D01*
X82672Y48103D01*
X82458Y47994D01*
X82264Y47853D01*
X82094Y47683D01*
X81953Y47489D01*
X81845Y47275D01*
X81770Y47047D01*
X81733Y46810D01*
X81733Y16842D01*
X81770Y16605D01*
X81845Y16377D01*
X81953Y16164D01*
X82094Y15969D01*
X82264Y15800D01*
X82458Y15659D01*
X82672Y15550D01*
X82900Y15476D01*
X83137Y15438D01*
G37*
%LPD*%
G36*
X286548Y83778D02*
X286251Y83718D01*
X282253Y83718D01*
X281967Y83774D01*
X281714Y83941D01*
X272214Y93441D01*
X272061Y93661D01*
X271991Y93956D01*
X272042Y94255D01*
X272206Y94510D01*
X272456Y94682D01*
X272753Y94742D01*
X273154Y94742D01*
X275951Y97539D01*
X276192Y97702D01*
X276489Y97762D01*
X292478Y97762D01*
X292748Y97713D01*
X293004Y97552D01*
X293178Y97303D01*
X293240Y97006D01*
X293182Y96708D01*
X292814Y95819D01*
X292814Y92181D01*
X294206Y88820D01*
X296156Y86871D01*
X296309Y86651D01*
X296378Y86356D01*
X296328Y86057D01*
X296164Y85802D01*
X295914Y85630D01*
X295617Y85570D01*
X288419Y85570D01*
X286790Y83941D01*
X286548Y83778D01*
G37*
G36*
X310645Y22319D02*
X310300Y22327D01*
X309968Y22351D01*
X309651Y22392D01*
X309349Y22449D01*
X309060Y22522D01*
X308786Y22612D01*
X308526Y22717D01*
X308280Y22839D01*
X308047Y22980D01*
X307827Y23142D01*
X307617Y23326D01*
X307420Y23530D01*
X307234Y23757D01*
X307060Y24004D01*
X306898Y24273D01*
X306748Y24563D01*
X306701Y24563D01*
X306691Y24031D01*
X306661Y23406D01*
X306622Y22857D01*
X306586Y22550D01*
X304596Y22550D01*
X304627Y22946D01*
X304648Y23507D01*
X304666Y25130D01*
X304666Y39714D01*
X306748Y39714D01*
X306748Y34521D01*
X306724Y33122D01*
X306748Y33122D01*
X306898Y33396D01*
X307060Y33650D01*
X307233Y33886D01*
X307418Y34102D01*
X307615Y34299D01*
X307823Y34477D01*
X308043Y34636D01*
X308274Y34776D01*
X308519Y34898D01*
X308778Y35003D01*
X309052Y35093D01*
X309341Y35166D01*
X309645Y35223D01*
X309964Y35264D01*
X310297Y35288D01*
X310645Y35296D01*
X310929Y35290D01*
X311203Y35271D01*
X311468Y35239D01*
X311724Y35194D01*
X311972Y35136D01*
X312210Y35066D01*
X312659Y34887D01*
X313073Y34657D01*
X313451Y34376D01*
X313792Y34043D01*
X314098Y33660D01*
X314368Y33225D01*
X314601Y32739D01*
X314799Y32202D01*
X314961Y31614D01*
X315087Y30974D01*
X315177Y30284D01*
X315231Y29542D01*
X315249Y28750D01*
X315231Y27966D01*
X315179Y27233D01*
X315092Y26552D01*
X314970Y25922D01*
X314813Y25343D01*
X314621Y24816D01*
X314394Y24340D01*
X314133Y23915D01*
X313834Y23541D01*
X313496Y23217D01*
X313119Y22942D01*
X312703Y22718D01*
X312480Y22624D01*
X312247Y22543D01*
X312005Y22475D01*
X311753Y22419D01*
X311490Y22375D01*
X311219Y22344D01*
X310937Y22325D01*
X310645Y22319D01*
G37*
%LPC*%
G36*
X310113Y23927D02*
X310490Y23944D01*
X310840Y23997D01*
X311162Y24086D01*
X311458Y24210D01*
X311726Y24369D01*
X311968Y24564D01*
X312182Y24794D01*
X312369Y25060D01*
X312531Y25367D01*
X312672Y25720D01*
X312792Y26120D01*
X312889Y26567D01*
X312965Y27060D01*
X313019Y27600D01*
X313052Y28186D01*
X313063Y28819D01*
X313052Y29450D01*
X313019Y30035D01*
X312964Y30575D01*
X312888Y31070D01*
X312789Y31520D01*
X312669Y31924D01*
X312527Y32282D01*
X312363Y32595D01*
X312174Y32868D01*
X311959Y33104D01*
X311715Y33304D01*
X311445Y33467D01*
X311147Y33594D01*
X310822Y33685D01*
X310470Y33740D01*
X310090Y33758D01*
X309668Y33740D01*
X309276Y33686D01*
X308914Y33595D01*
X308581Y33469D01*
X308278Y33306D01*
X308004Y33107D01*
X307760Y32872D01*
X307546Y32601D01*
X307359Y32291D01*
X307197Y31940D01*
X307059Y31547D01*
X306947Y31112D01*
X306860Y30636D01*
X306797Y30118D01*
X306760Y29559D01*
X306748Y28958D01*
X306760Y28334D01*
X306797Y27753D01*
X306860Y27214D01*
X306947Y26717D01*
X307059Y26262D01*
X307197Y25850D01*
X307359Y25480D01*
X307546Y25153D01*
X307572Y25118D01*
X307760Y24865D01*
X308005Y24616D01*
X308281Y24406D01*
X308587Y24233D01*
X308923Y24099D01*
X309289Y24003D01*
X309686Y23946D01*
X310113Y23927D01*
G37*
%LPD*%
G36*
X210080Y22319D02*
X209708Y22328D01*
X209351Y22356D01*
X209008Y22403D01*
X208679Y22468D01*
X208365Y22552D01*
X208064Y22654D01*
X207778Y22775D01*
X207507Y22915D01*
X207246Y23077D01*
X206994Y23265D01*
X206749Y23479D01*
X206513Y23720D01*
X206285Y23987D01*
X206066Y24280D01*
X205854Y24599D01*
X205650Y24944D01*
X205581Y24944D01*
X205556Y24631D01*
X205518Y24340D01*
X205465Y24070D01*
X205397Y23821D01*
X205316Y23594D01*
X205220Y23388D01*
X205110Y23204D01*
X204985Y23042D01*
X204844Y22899D01*
X204683Y22776D01*
X204502Y22672D01*
X204301Y22586D01*
X204081Y22520D01*
X203841Y22473D01*
X203582Y22444D01*
X203302Y22435D01*
X202894Y22446D01*
X202490Y22481D01*
X202090Y22539D01*
X201695Y22620D01*
X201695Y23915D01*
X202056Y23854D01*
X202377Y23834D01*
X202541Y23841D01*
X202691Y23863D01*
X202827Y23900D01*
X202950Y23951D01*
X203058Y24017D01*
X203153Y24098D01*
X203235Y24193D01*
X203302Y24303D01*
X203409Y24565D01*
X203484Y24885D01*
X203530Y25262D01*
X203545Y25696D01*
X203545Y31086D01*
X203564Y31583D01*
X203620Y32049D01*
X203713Y32486D01*
X203843Y32892D01*
X204011Y33268D01*
X204215Y33614D01*
X204457Y33929D01*
X204736Y34215D01*
X205053Y34468D01*
X205405Y34688D01*
X205794Y34874D01*
X206220Y35026D01*
X206682Y35144D01*
X207181Y35229D01*
X207716Y35279D01*
X208287Y35296D01*
X208833Y35283D01*
X209347Y35243D01*
X209831Y35177D01*
X210284Y35085D01*
X210706Y34966D01*
X211097Y34821D01*
X211457Y34650D01*
X211786Y34452D01*
X212084Y34228D01*
X212352Y33977D01*
X212588Y33700D01*
X212794Y33396D01*
X212968Y33067D01*
X213112Y32710D01*
X213225Y32328D01*
X213307Y31919D01*
X211133Y31722D01*
X211093Y31974D01*
X211037Y32207D01*
X210966Y32423D01*
X210878Y32621D01*
X210775Y32802D01*
X210655Y32965D01*
X210520Y33110D01*
X210369Y33237D01*
X210198Y33349D01*
X210003Y33445D01*
X209785Y33526D01*
X209542Y33593D01*
X209276Y33645D01*
X208986Y33682D01*
X208672Y33704D01*
X208334Y33712D01*
X207998Y33701D01*
X207686Y33670D01*
X207397Y33619D01*
X207131Y33547D01*
X206888Y33454D01*
X206668Y33341D01*
X206471Y33207D01*
X206298Y33052D01*
X206146Y32874D01*
X206015Y32668D01*
X205903Y32436D01*
X205812Y32176D01*
X205741Y31889D01*
X205691Y31575D01*
X205660Y31234D01*
X205650Y30866D01*
X205650Y30184D01*
X208461Y30138D01*
X209148Y30105D01*
X209785Y30042D01*
X210374Y29949D01*
X210914Y29825D01*
X211405Y29671D01*
X211847Y29487D01*
X212240Y29272D01*
X212584Y29027D01*
X212884Y28753D01*
X213143Y28450D01*
X213363Y28120D01*
X213543Y27761D01*
X213682Y27374D01*
X213782Y26958D01*
X213842Y26515D01*
X213862Y26043D01*
X213847Y25621D01*
X213803Y25222D01*
X213729Y24846D01*
X213625Y24493D01*
X213492Y24164D01*
X213329Y23857D01*
X213136Y23574D01*
X212914Y23314D01*
X212662Y23080D01*
X212381Y22878D01*
X212071Y22707D01*
X211731Y22568D01*
X211362Y22459D01*
X210964Y22381D01*
X210537Y22335D01*
X210080Y22319D01*
G37*
%LPC*%
G36*
X209606Y23880D02*
X209853Y23889D01*
X210085Y23915D01*
X210303Y23958D01*
X210507Y24019D01*
X210695Y24097D01*
X210869Y24193D01*
X211028Y24305D01*
X211173Y24436D01*
X211302Y24582D01*
X211413Y24742D01*
X211508Y24917D01*
X211585Y25106D01*
X211645Y25310D01*
X211688Y25529D01*
X211714Y25761D01*
X211722Y26009D01*
X211716Y26237D01*
X211697Y26455D01*
X211666Y26661D01*
X211621Y26856D01*
X211564Y27040D01*
X211495Y27212D01*
X211413Y27374D01*
X211318Y27524D01*
X211093Y27794D01*
X210825Y28027D01*
X210512Y28222D01*
X210155Y28380D01*
X209732Y28502D01*
X209220Y28594D01*
X208619Y28653D01*
X207929Y28680D01*
X205650Y28727D01*
X205650Y27697D01*
X205658Y27458D01*
X205682Y27220D01*
X205723Y26985D01*
X205779Y26750D01*
X205851Y26518D01*
X205940Y26286D01*
X206165Y25829D01*
X206299Y25608D01*
X206446Y25400D01*
X206604Y25203D01*
X206774Y25018D01*
X206955Y24846D01*
X207148Y24685D01*
X207353Y24537D01*
X207570Y24401D01*
X207797Y24279D01*
X208031Y24173D01*
X208274Y24084D01*
X208524Y24010D01*
X208783Y23954D01*
X209049Y23913D01*
X209324Y23888D01*
X209606Y23880D01*
G37*
%LPD*%
G36*
X364143Y22319D02*
X363771Y22328D01*
X363414Y22356D01*
X363070Y22403D01*
X362742Y22468D01*
X362427Y22552D01*
X362127Y22654D01*
X361841Y22775D01*
X361569Y22915D01*
X361309Y23077D01*
X361056Y23265D01*
X360812Y23479D01*
X360576Y23720D01*
X360348Y23987D01*
X360128Y24280D01*
X359916Y24599D01*
X359713Y24944D01*
X359643Y24944D01*
X359619Y24631D01*
X359580Y24340D01*
X359527Y24070D01*
X359460Y23821D01*
X359378Y23594D01*
X359282Y23388D01*
X359172Y23204D01*
X359048Y23042D01*
X358906Y22899D01*
X358745Y22776D01*
X358564Y22672D01*
X358364Y22586D01*
X358144Y22520D01*
X357904Y22473D01*
X357644Y22444D01*
X357365Y22435D01*
X356956Y22446D01*
X356552Y22481D01*
X356152Y22539D01*
X355757Y22620D01*
X355757Y23915D01*
X356119Y23854D01*
X356439Y23834D01*
X356603Y23841D01*
X356753Y23863D01*
X356889Y23900D01*
X357012Y23951D01*
X357121Y24017D01*
X357216Y24098D01*
X357297Y24193D01*
X357365Y24303D01*
X357471Y24565D01*
X357547Y24885D01*
X357592Y25262D01*
X357608Y25696D01*
X357608Y31086D01*
X357626Y31583D01*
X357682Y32049D01*
X357775Y32486D01*
X357905Y32892D01*
X358073Y33268D01*
X358278Y33614D01*
X358520Y33929D01*
X358799Y34215D01*
X359115Y34468D01*
X359468Y34688D01*
X359857Y34874D01*
X360282Y35026D01*
X360744Y35144D01*
X361243Y35229D01*
X361778Y35279D01*
X362350Y35296D01*
X362895Y35283D01*
X363410Y35243D01*
X363894Y35177D01*
X364346Y35085D01*
X364768Y34966D01*
X365159Y34821D01*
X365519Y34650D01*
X365849Y34452D01*
X366147Y34228D01*
X366414Y33977D01*
X366651Y33700D01*
X366856Y33396D01*
X367031Y33067D01*
X367175Y32710D01*
X367288Y32328D01*
X367370Y31919D01*
X365195Y31722D01*
X365155Y31974D01*
X365100Y32207D01*
X365028Y32423D01*
X364941Y32621D01*
X364837Y32802D01*
X364718Y32965D01*
X364583Y33110D01*
X364432Y33237D01*
X364261Y33349D01*
X364066Y33445D01*
X363847Y33526D01*
X363605Y33593D01*
X363338Y33645D01*
X363048Y33682D01*
X362734Y33704D01*
X362396Y33712D01*
X362061Y33701D01*
X361748Y33670D01*
X361459Y33619D01*
X361193Y33547D01*
X360950Y33454D01*
X360731Y33341D01*
X360534Y33207D01*
X360360Y33052D01*
X360209Y32874D01*
X360077Y32668D01*
X359966Y32436D01*
X359875Y32176D01*
X359804Y31889D01*
X359753Y31575D01*
X359723Y31234D01*
X359713Y30866D01*
X359713Y30184D01*
X362523Y30138D01*
X363210Y30105D01*
X363848Y30042D01*
X364437Y29949D01*
X364977Y29825D01*
X365468Y29671D01*
X365910Y29487D01*
X366303Y29272D01*
X366647Y29027D01*
X366946Y28753D01*
X367206Y28450D01*
X367425Y28120D01*
X367605Y27761D01*
X367745Y27374D01*
X367845Y26958D01*
X367905Y26515D01*
X367925Y26043D01*
X367910Y25621D01*
X367865Y25222D01*
X367791Y24846D01*
X367688Y24493D01*
X367554Y24164D01*
X367391Y23857D01*
X367199Y23574D01*
X366976Y23314D01*
X366725Y23080D01*
X366443Y22878D01*
X366133Y22707D01*
X365794Y22568D01*
X365425Y22459D01*
X365027Y22381D01*
X364599Y22335D01*
X364143Y22319D01*
G37*
%LPC*%
G36*
X363668Y23880D02*
X363915Y23889D01*
X364148Y23915D01*
X364366Y23958D01*
X364569Y24019D01*
X364758Y24097D01*
X364932Y24193D01*
X365091Y24305D01*
X365236Y24436D01*
X365364Y24582D01*
X365476Y24742D01*
X365570Y24917D01*
X365648Y25106D01*
X365708Y25310D01*
X365751Y25529D01*
X365776Y25761D01*
X365785Y26009D01*
X365779Y26237D01*
X365760Y26455D01*
X365728Y26661D01*
X365684Y26856D01*
X365627Y27040D01*
X365557Y27212D01*
X365475Y27374D01*
X365380Y27524D01*
X365156Y27794D01*
X364887Y28027D01*
X364574Y28222D01*
X364218Y28380D01*
X363794Y28502D01*
X363282Y28594D01*
X362681Y28653D01*
X361991Y28680D01*
X359713Y28727D01*
X359713Y27697D01*
X359721Y27458D01*
X359745Y27220D01*
X359785Y26985D01*
X359841Y26750D01*
X359914Y26518D01*
X360002Y26286D01*
X360227Y25829D01*
X360362Y25608D01*
X360508Y25400D01*
X360666Y25203D01*
X360836Y25018D01*
X361018Y24846D01*
X361211Y24685D01*
X361416Y24537D01*
X361633Y24401D01*
X361859Y24279D01*
X362094Y24173D01*
X362336Y24084D01*
X362587Y24010D01*
X362845Y23954D01*
X363112Y23913D01*
X363386Y23888D01*
X363668Y23880D01*
G37*
%LPD*%
G36*
X372569Y22550D02*
X370510Y22550D01*
X370510Y30889D01*
X370524Y31456D01*
X370564Y31981D01*
X370632Y32465D01*
X370726Y32908D01*
X370847Y33309D01*
X370995Y33670D01*
X371170Y33989D01*
X371372Y34267D01*
X371604Y34508D01*
X371868Y34717D01*
X372164Y34894D01*
X372493Y35039D01*
X372854Y35151D01*
X373247Y35232D01*
X373673Y35280D01*
X374131Y35296D01*
X374451Y35287D01*
X374760Y35261D01*
X375056Y35218D01*
X375341Y35157D01*
X375613Y35079D01*
X375873Y34984D01*
X376121Y34871D01*
X376357Y34741D01*
X376583Y34591D01*
X376800Y34419D01*
X377009Y34225D01*
X377209Y34009D01*
X377400Y33771D01*
X377584Y33511D01*
X377758Y33229D01*
X377924Y32925D01*
X377959Y32925D01*
X378048Y33224D01*
X378152Y33502D01*
X378273Y33759D01*
X378409Y33995D01*
X378560Y34210D01*
X378728Y34404D01*
X378911Y34577D01*
X379110Y34729D01*
X379326Y34862D01*
X379561Y34977D01*
X379814Y35075D01*
X380086Y35154D01*
X380376Y35216D01*
X380685Y35261D01*
X381013Y35287D01*
X381360Y35296D01*
X381666Y35288D01*
X381960Y35264D01*
X382243Y35223D01*
X382513Y35166D01*
X382772Y35093D01*
X383019Y35003D01*
X383253Y34898D01*
X383476Y34776D01*
X383690Y34633D01*
X383898Y34465D01*
X384099Y34271D01*
X384294Y34053D01*
X384484Y33809D01*
X384667Y33540D01*
X384844Y33245D01*
X385014Y32925D01*
X385049Y32925D01*
X385090Y34168D01*
X385119Y34753D01*
X385142Y35065D01*
X387108Y35065D01*
X387078Y34716D01*
X387056Y34154D01*
X387039Y32393D01*
X387039Y22550D01*
X384968Y22550D01*
X384968Y29802D01*
X384956Y30252D01*
X384920Y30675D01*
X384859Y31073D01*
X384774Y31445D01*
X384665Y31790D01*
X384532Y32110D01*
X384375Y32403D01*
X384193Y32671D01*
X383991Y32909D01*
X383771Y33116D01*
X383534Y33291D01*
X383280Y33434D01*
X383008Y33545D01*
X382719Y33625D01*
X382412Y33673D01*
X382088Y33688D01*
X381777Y33678D01*
X381490Y33645D01*
X381229Y33591D01*
X380992Y33515D01*
X380781Y33417D01*
X380594Y33298D01*
X380432Y33157D01*
X380295Y32994D01*
X380179Y32803D01*
X380078Y32577D01*
X379992Y32316D01*
X379922Y32020D01*
X379868Y31689D01*
X379829Y31322D01*
X379806Y30921D01*
X379798Y30485D01*
X379798Y22550D01*
X377739Y22550D01*
X377739Y29802D01*
X377728Y30254D01*
X377692Y30680D01*
X377633Y31079D01*
X377550Y31452D01*
X377443Y31798D01*
X377313Y32117D01*
X377159Y32410D01*
X376982Y32676D01*
X376783Y32914D01*
X376565Y33119D01*
X376328Y33293D01*
X376072Y33435D01*
X375798Y33546D01*
X375504Y33625D01*
X375191Y33673D01*
X374859Y33688D01*
X374548Y33678D01*
X374262Y33645D01*
X374000Y33591D01*
X373763Y33515D01*
X373552Y33417D01*
X373365Y33298D01*
X373203Y33157D01*
X373067Y32994D01*
X372950Y32803D01*
X372849Y32577D01*
X372764Y32316D01*
X372694Y32020D01*
X372639Y31689D01*
X372600Y31322D01*
X372577Y30921D01*
X372569Y30485D01*
X372569Y22550D01*
G37*
G36*
X97558Y22319D02*
X97072Y22331D01*
X96608Y22365D01*
X96167Y22423D01*
X95747Y22504D01*
X95350Y22608D01*
X94976Y22735D01*
X94624Y22886D01*
X94294Y23059D01*
X93986Y23256D01*
X93701Y23476D01*
X93438Y23718D01*
X93197Y23984D01*
X92979Y24274D01*
X92783Y24586D01*
X92609Y24921D01*
X92458Y25280D01*
X94285Y25800D01*
X94365Y25597D01*
X94462Y25402D01*
X94576Y25216D01*
X94706Y25040D01*
X94852Y24872D01*
X95015Y24714D01*
X95194Y24564D01*
X95390Y24424D01*
X95602Y24297D01*
X95831Y24186D01*
X96077Y24093D01*
X96339Y24016D01*
X96619Y23957D01*
X96915Y23914D01*
X97228Y23889D01*
X97558Y23880D01*
X97973Y23899D01*
X98363Y23953D01*
X98727Y24045D01*
X99065Y24172D01*
X99377Y24337D01*
X99664Y24537D01*
X99925Y24775D01*
X100161Y25049D01*
X100369Y25356D01*
X100550Y25694D01*
X100703Y26063D01*
X100829Y26463D01*
X100926Y26893D01*
X100996Y27354D01*
X101037Y27846D01*
X101051Y28368D01*
X92122Y28368D01*
X92122Y28646D01*
X92144Y29451D01*
X92208Y30204D01*
X92316Y30906D01*
X92467Y31555D01*
X92661Y32153D01*
X92898Y32698D01*
X93178Y33192D01*
X93501Y33634D01*
X93679Y33835D01*
X93868Y34023D01*
X94067Y34199D01*
X94277Y34361D01*
X94498Y34510D01*
X94730Y34647D01*
X94972Y34770D01*
X95225Y34881D01*
X95489Y34978D01*
X95764Y35062D01*
X96050Y35134D01*
X96346Y35192D01*
X96653Y35238D01*
X96971Y35270D01*
X97300Y35290D01*
X97639Y35296D01*
X97971Y35290D01*
X98293Y35270D01*
X98606Y35238D01*
X98909Y35193D01*
X99202Y35135D01*
X99485Y35064D01*
X99759Y34980D01*
X100023Y34883D01*
X100278Y34773D01*
X100522Y34650D01*
X100982Y34366D01*
X101403Y34030D01*
X101786Y33642D01*
X102126Y33206D01*
X102421Y32725D01*
X102670Y32198D01*
X102874Y31627D01*
X103033Y31010D01*
X103146Y30348D01*
X103215Y29641D01*
X103237Y28889D01*
X103215Y28098D01*
X103146Y27358D01*
X103033Y26668D01*
X102874Y26029D01*
X102670Y25439D01*
X102551Y25164D01*
X102421Y24900D01*
X102279Y24650D01*
X102126Y24411D01*
X101961Y24186D01*
X101786Y23973D01*
X101402Y23585D01*
X101195Y23411D01*
X100977Y23249D01*
X100749Y23101D01*
X100511Y22965D01*
X100262Y22842D01*
X100003Y22732D01*
X99734Y22636D01*
X99454Y22552D01*
X99164Y22480D01*
X98863Y22422D01*
X98553Y22377D01*
X98231Y22345D01*
X97900Y22325D01*
X97558Y22319D01*
G37*
%LPC*%
G36*
X101028Y29964D02*
X100998Y30395D01*
X100942Y30802D01*
X100861Y31185D01*
X100755Y31544D01*
X100623Y31880D01*
X100465Y32192D01*
X100282Y32481D01*
X100074Y32746D01*
X99843Y32983D01*
X99592Y33189D01*
X99322Y33363D01*
X99031Y33505D01*
X98722Y33616D01*
X98392Y33695D01*
X98043Y33742D01*
X97674Y33758D01*
X97295Y33744D01*
X96939Y33701D01*
X96605Y33630D01*
X96295Y33531D01*
X96007Y33403D01*
X95742Y33247D01*
X95499Y33063D01*
X95280Y32850D01*
X95082Y32606D01*
X94904Y32329D01*
X94748Y32019D01*
X94612Y31675D01*
X94496Y31297D01*
X94401Y30886D01*
X94327Y30442D01*
X94273Y29964D01*
X101028Y29964D01*
G37*
%LPD*%
G36*
X146277Y22319D02*
X145791Y22331D01*
X145327Y22365D01*
X144885Y22423D01*
X144466Y22504D01*
X144069Y22608D01*
X143695Y22735D01*
X143342Y22886D01*
X143012Y23059D01*
X142705Y23256D01*
X142419Y23476D01*
X142156Y23718D01*
X141916Y23984D01*
X141697Y24274D01*
X141501Y24586D01*
X141328Y24921D01*
X141176Y25280D01*
X143004Y25800D01*
X143084Y25597D01*
X143181Y25402D01*
X143295Y25216D01*
X143424Y25040D01*
X143571Y24872D01*
X143733Y24714D01*
X143913Y24564D01*
X144108Y24424D01*
X144321Y24297D01*
X144550Y24186D01*
X144795Y24093D01*
X145058Y24016D01*
X145338Y23957D01*
X145634Y23914D01*
X145947Y23889D01*
X146277Y23880D01*
X146692Y23899D01*
X147082Y23953D01*
X147445Y24045D01*
X147783Y24172D01*
X148096Y24337D01*
X148383Y24537D01*
X148644Y24775D01*
X148879Y25049D01*
X149088Y25356D01*
X149269Y25694D01*
X149422Y26063D01*
X149547Y26463D01*
X149645Y26893D01*
X149714Y27354D01*
X149756Y27846D01*
X149770Y28368D01*
X140841Y28368D01*
X140841Y28646D01*
X140862Y29451D01*
X140927Y30204D01*
X141035Y30906D01*
X141186Y31555D01*
X141380Y32153D01*
X141617Y32698D01*
X141897Y33192D01*
X142220Y33634D01*
X142398Y33835D01*
X142586Y34023D01*
X142786Y34199D01*
X142996Y34361D01*
X143217Y34510D01*
X143449Y34647D01*
X143691Y34770D01*
X143944Y34881D01*
X144208Y34978D01*
X144483Y35062D01*
X144769Y35134D01*
X145065Y35192D01*
X145372Y35238D01*
X145690Y35270D01*
X146018Y35290D01*
X146358Y35296D01*
X146690Y35290D01*
X147012Y35270D01*
X147325Y35238D01*
X147628Y35193D01*
X147921Y35135D01*
X148204Y35064D01*
X148478Y34980D01*
X148742Y34883D01*
X148996Y34773D01*
X149241Y34650D01*
X149701Y34366D01*
X150122Y34030D01*
X150504Y33642D01*
X150845Y33206D01*
X151139Y32725D01*
X151389Y32198D01*
X151593Y31627D01*
X151752Y31010D01*
X151865Y30348D01*
X151933Y29641D01*
X151956Y28889D01*
X151933Y28098D01*
X151865Y27358D01*
X151752Y26668D01*
X151593Y26029D01*
X151389Y25439D01*
X151270Y25164D01*
X151139Y24900D01*
X150998Y24650D01*
X150845Y24411D01*
X150680Y24186D01*
X150504Y23973D01*
X150121Y23585D01*
X149913Y23411D01*
X149696Y23249D01*
X149468Y23101D01*
X149229Y22965D01*
X148981Y22842D01*
X148722Y22732D01*
X148452Y22636D01*
X148173Y22552D01*
X147883Y22480D01*
X147582Y22422D01*
X147271Y22377D01*
X146950Y22345D01*
X146619Y22325D01*
X146277Y22319D01*
G37*
%LPC*%
G36*
X149747Y29964D02*
X149717Y30395D01*
X149661Y30802D01*
X149580Y31185D01*
X149474Y31544D01*
X149342Y31880D01*
X149184Y32192D01*
X149001Y32481D01*
X148793Y32746D01*
X148562Y32983D01*
X148311Y33189D01*
X148040Y33363D01*
X147750Y33505D01*
X147440Y33616D01*
X147111Y33695D01*
X146762Y33742D01*
X146393Y33758D01*
X146014Y33744D01*
X145657Y33701D01*
X145324Y33630D01*
X145013Y33531D01*
X144725Y33403D01*
X144460Y33247D01*
X144218Y33063D01*
X143998Y32850D01*
X143801Y32606D01*
X143623Y32329D01*
X143467Y32019D01*
X143330Y31675D01*
X143215Y31297D01*
X143120Y30886D01*
X143046Y30442D01*
X142992Y29964D01*
X149747Y29964D01*
G37*
%LPD*%
G36*
X188433Y22319D02*
X187947Y22331D01*
X187483Y22365D01*
X187042Y22423D01*
X186622Y22504D01*
X186225Y22608D01*
X185851Y22735D01*
X185499Y22886D01*
X185169Y23059D01*
X184861Y23256D01*
X184576Y23476D01*
X184313Y23718D01*
X184072Y23984D01*
X183854Y24274D01*
X183658Y24586D01*
X183484Y24921D01*
X183333Y25280D01*
X185160Y25800D01*
X185240Y25597D01*
X185337Y25402D01*
X185451Y25216D01*
X185581Y25040D01*
X185727Y24872D01*
X185890Y24714D01*
X186069Y24564D01*
X186265Y24424D01*
X186477Y24297D01*
X186706Y24186D01*
X186952Y24093D01*
X187214Y24016D01*
X187494Y23957D01*
X187790Y23914D01*
X188103Y23889D01*
X188433Y23880D01*
X188848Y23899D01*
X189238Y23953D01*
X189602Y24045D01*
X189940Y24172D01*
X190252Y24337D01*
X190539Y24537D01*
X190800Y24775D01*
X191036Y25049D01*
X191244Y25356D01*
X191425Y25694D01*
X191578Y26063D01*
X191704Y26463D01*
X191801Y26893D01*
X191871Y27354D01*
X191912Y27846D01*
X191926Y28368D01*
X182997Y28368D01*
X182997Y28646D01*
X183019Y29451D01*
X183083Y30204D01*
X183191Y30906D01*
X183342Y31555D01*
X183536Y32153D01*
X183773Y32698D01*
X184053Y33192D01*
X184376Y33634D01*
X184554Y33835D01*
X184743Y34023D01*
X184942Y34199D01*
X185152Y34361D01*
X185373Y34510D01*
X185605Y34647D01*
X185847Y34770D01*
X186100Y34881D01*
X186364Y34978D01*
X186639Y35062D01*
X186925Y35134D01*
X187221Y35192D01*
X187528Y35238D01*
X187846Y35270D01*
X188175Y35290D01*
X188514Y35296D01*
X188846Y35290D01*
X189168Y35270D01*
X189481Y35238D01*
X189784Y35193D01*
X190077Y35135D01*
X190360Y35064D01*
X190634Y34980D01*
X190898Y34883D01*
X191153Y34773D01*
X191397Y34650D01*
X191857Y34366D01*
X192278Y34030D01*
X192661Y33642D01*
X193001Y33206D01*
X193296Y32725D01*
X193545Y32198D01*
X193749Y31627D01*
X193908Y31010D01*
X194021Y30348D01*
X194090Y29641D01*
X194112Y28889D01*
X194090Y28098D01*
X194021Y27358D01*
X193908Y26668D01*
X193749Y26029D01*
X193545Y25439D01*
X193426Y25164D01*
X193296Y24900D01*
X193154Y24650D01*
X193001Y24411D01*
X192836Y24186D01*
X192661Y23973D01*
X192277Y23585D01*
X192070Y23411D01*
X191852Y23249D01*
X191624Y23101D01*
X191386Y22965D01*
X191137Y22842D01*
X190878Y22732D01*
X190609Y22636D01*
X190329Y22552D01*
X190039Y22480D01*
X189738Y22422D01*
X189428Y22377D01*
X189106Y22345D01*
X188775Y22325D01*
X188433Y22319D01*
G37*
%LPC*%
G36*
X191903Y29964D02*
X191873Y30395D01*
X191817Y30802D01*
X191736Y31185D01*
X191630Y31544D01*
X191498Y31880D01*
X191340Y32192D01*
X191157Y32481D01*
X190949Y32746D01*
X190718Y32983D01*
X190467Y33189D01*
X190197Y33363D01*
X189906Y33505D01*
X189597Y33616D01*
X189267Y33695D01*
X188918Y33742D01*
X188549Y33758D01*
X188170Y33744D01*
X187814Y33701D01*
X187480Y33630D01*
X187170Y33531D01*
X186882Y33403D01*
X186617Y33247D01*
X186374Y33063D01*
X186155Y32850D01*
X185957Y32606D01*
X185779Y32329D01*
X185623Y32019D01*
X185487Y31675D01*
X185371Y31297D01*
X185276Y30886D01*
X185202Y30442D01*
X185148Y29964D01*
X191903Y29964D01*
G37*
%LPD*%
G36*
X246339Y22319D02*
X245853Y22331D01*
X245389Y22365D01*
X244948Y22423D01*
X244529Y22504D01*
X244132Y22608D01*
X243757Y22735D01*
X243405Y22886D01*
X243075Y23059D01*
X242767Y23256D01*
X242482Y23476D01*
X242219Y23718D01*
X241978Y23984D01*
X241760Y24274D01*
X241564Y24586D01*
X241390Y24921D01*
X241239Y25280D01*
X243066Y25800D01*
X243147Y25597D01*
X243244Y25402D01*
X243357Y25216D01*
X243487Y25040D01*
X243633Y24872D01*
X243796Y24714D01*
X243975Y24564D01*
X244171Y24424D01*
X244383Y24297D01*
X244612Y24186D01*
X244858Y24093D01*
X245121Y24016D01*
X245400Y23957D01*
X245696Y23914D01*
X246010Y23889D01*
X246339Y23880D01*
X246755Y23899D01*
X247144Y23953D01*
X247508Y24045D01*
X247846Y24172D01*
X248158Y24337D01*
X248445Y24537D01*
X248706Y24775D01*
X248942Y25049D01*
X249151Y25356D01*
X249331Y25694D01*
X249485Y26063D01*
X249610Y26463D01*
X249707Y26893D01*
X249777Y27354D01*
X249819Y27846D01*
X249832Y28368D01*
X240903Y28368D01*
X240903Y28646D01*
X240925Y29451D01*
X240990Y30204D01*
X241097Y30906D01*
X241248Y31555D01*
X241442Y32153D01*
X241679Y32698D01*
X241959Y33192D01*
X242283Y33634D01*
X242460Y33835D01*
X242649Y34023D01*
X242848Y34199D01*
X243058Y34361D01*
X243279Y34510D01*
X243511Y34647D01*
X243753Y34770D01*
X244007Y34881D01*
X244271Y34978D01*
X244545Y35062D01*
X244831Y35134D01*
X245127Y35192D01*
X245434Y35238D01*
X245752Y35270D01*
X246081Y35290D01*
X246420Y35296D01*
X246752Y35290D01*
X247075Y35270D01*
X247387Y35238D01*
X247690Y35193D01*
X247983Y35135D01*
X248267Y35064D01*
X248540Y34980D01*
X248804Y34883D01*
X249059Y34773D01*
X249303Y34650D01*
X249763Y34366D01*
X250185Y34030D01*
X250567Y33642D01*
X250907Y33206D01*
X251202Y32725D01*
X251451Y32198D01*
X251656Y31627D01*
X251814Y31010D01*
X251928Y30348D01*
X251996Y29641D01*
X252018Y28889D01*
X251996Y28098D01*
X251928Y27358D01*
X251814Y26668D01*
X251656Y26029D01*
X251451Y25439D01*
X251332Y25164D01*
X251202Y24900D01*
X251060Y24650D01*
X250907Y24411D01*
X250743Y24186D01*
X250567Y23973D01*
X250183Y23585D01*
X249976Y23411D01*
X249758Y23249D01*
X249530Y23101D01*
X249292Y22965D01*
X249043Y22842D01*
X248784Y22732D01*
X248515Y22636D01*
X248235Y22552D01*
X247945Y22480D01*
X247645Y22422D01*
X247334Y22377D01*
X247013Y22345D01*
X246681Y22325D01*
X246339Y22319D01*
G37*
%LPC*%
G36*
X249809Y29964D02*
X249779Y30395D01*
X249724Y30802D01*
X249643Y31185D01*
X249536Y31544D01*
X249404Y31880D01*
X249247Y32192D01*
X249064Y32481D01*
X248855Y32746D01*
X248624Y32983D01*
X248373Y33189D01*
X248103Y33363D01*
X247813Y33505D01*
X247503Y33616D01*
X247173Y33695D01*
X246824Y33742D01*
X246455Y33758D01*
X246076Y33744D01*
X245720Y33701D01*
X245387Y33630D01*
X245076Y33531D01*
X244788Y33403D01*
X244523Y33247D01*
X244280Y33063D01*
X244061Y32850D01*
X243863Y32606D01*
X243686Y32329D01*
X243529Y32019D01*
X243393Y31675D01*
X243277Y31297D01*
X243183Y30886D01*
X243108Y30442D01*
X243055Y29964D01*
X249809Y29964D01*
G37*
%LPD*%
G36*
X322714Y22319D02*
X322228Y22331D01*
X321764Y22365D01*
X321323Y22423D01*
X320904Y22504D01*
X320507Y22608D01*
X320132Y22735D01*
X319780Y22886D01*
X319450Y23059D01*
X319142Y23256D01*
X318857Y23476D01*
X318594Y23718D01*
X318353Y23984D01*
X318135Y24274D01*
X317939Y24586D01*
X317765Y24921D01*
X317614Y25280D01*
X319441Y25800D01*
X319522Y25597D01*
X319619Y25402D01*
X319732Y25216D01*
X319862Y25040D01*
X320008Y24872D01*
X320171Y24714D01*
X320350Y24564D01*
X320546Y24424D01*
X320758Y24297D01*
X320987Y24186D01*
X321233Y24093D01*
X321496Y24016D01*
X321775Y23957D01*
X322071Y23914D01*
X322385Y23889D01*
X322714Y23880D01*
X323130Y23899D01*
X323519Y23953D01*
X323883Y24045D01*
X324221Y24172D01*
X324533Y24337D01*
X324820Y24537D01*
X325081Y24775D01*
X325317Y25049D01*
X325526Y25356D01*
X325706Y25694D01*
X325860Y26063D01*
X325985Y26463D01*
X326082Y26893D01*
X326152Y27354D01*
X326194Y27846D01*
X326207Y28368D01*
X317278Y28368D01*
X317278Y28646D01*
X317300Y29451D01*
X317365Y30204D01*
X317472Y30906D01*
X317623Y31555D01*
X317817Y32153D01*
X318054Y32698D01*
X318334Y33192D01*
X318658Y33634D01*
X318835Y33835D01*
X319024Y34023D01*
X319223Y34199D01*
X319433Y34361D01*
X319654Y34510D01*
X319886Y34647D01*
X320128Y34770D01*
X320382Y34881D01*
X320646Y34978D01*
X320920Y35062D01*
X321206Y35134D01*
X321502Y35192D01*
X321809Y35238D01*
X322127Y35270D01*
X322456Y35290D01*
X322795Y35296D01*
X323127Y35290D01*
X323450Y35270D01*
X323762Y35238D01*
X324065Y35193D01*
X324358Y35135D01*
X324642Y35064D01*
X324915Y34980D01*
X325179Y34883D01*
X325434Y34773D01*
X325678Y34650D01*
X326138Y34366D01*
X326560Y34030D01*
X326942Y33642D01*
X327282Y33206D01*
X327577Y32725D01*
X327826Y32198D01*
X328031Y31627D01*
X328189Y31010D01*
X328303Y30348D01*
X328371Y29641D01*
X328393Y28889D01*
X328371Y28098D01*
X328303Y27358D01*
X328189Y26668D01*
X328031Y26029D01*
X327826Y25439D01*
X327707Y25164D01*
X327577Y24900D01*
X327435Y24650D01*
X327282Y24411D01*
X327118Y24186D01*
X326942Y23973D01*
X326558Y23585D01*
X326351Y23411D01*
X326133Y23249D01*
X325905Y23101D01*
X325667Y22965D01*
X325418Y22842D01*
X325159Y22732D01*
X324890Y22636D01*
X324610Y22552D01*
X324320Y22480D01*
X324020Y22422D01*
X323709Y22377D01*
X323388Y22345D01*
X323056Y22325D01*
X322714Y22319D01*
G37*
%LPC*%
G36*
X326184Y29964D02*
X326154Y30395D01*
X326099Y30802D01*
X326018Y31185D01*
X325911Y31544D01*
X325779Y31880D01*
X325622Y32192D01*
X325439Y32481D01*
X325230Y32746D01*
X324999Y32983D01*
X324748Y33189D01*
X324478Y33363D01*
X324188Y33505D01*
X323878Y33616D01*
X323548Y33695D01*
X323199Y33742D01*
X322830Y33758D01*
X322451Y33744D01*
X322095Y33701D01*
X321762Y33630D01*
X321451Y33531D01*
X321163Y33403D01*
X320898Y33247D01*
X320655Y33063D01*
X320436Y32850D01*
X320238Y32606D01*
X320061Y32329D01*
X319904Y32019D01*
X319768Y31675D01*
X319652Y31297D01*
X319558Y30886D01*
X319483Y30442D01*
X319430Y29964D01*
X326184Y29964D01*
G37*
%LPD*%
G36*
X220801Y22550D02*
X218384Y22550D01*
X214798Y35065D01*
X216834Y35065D01*
X219205Y25881D01*
X219563Y24274D01*
X220095Y26471D01*
X222281Y35065D01*
X224514Y35065D01*
X227128Y25130D01*
X227324Y24274D01*
X227657Y25852D01*
X227822Y26564D01*
X229938Y35065D01*
X231997Y35065D01*
X228492Y22550D01*
X226087Y22550D01*
X224427Y29040D01*
X223727Y31855D01*
X223403Y33353D01*
X222987Y31398D01*
X220801Y22550D01*
G37*
G36*
X288039Y22319D02*
X287527Y22331D01*
X287032Y22366D01*
X286554Y22425D01*
X286094Y22508D01*
X285651Y22615D01*
X285225Y22745D01*
X284816Y22899D01*
X284424Y23077D01*
X284052Y23276D01*
X283701Y23498D01*
X283372Y23740D01*
X283065Y24003D01*
X282780Y24288D01*
X282516Y24593D01*
X282274Y24920D01*
X282053Y25268D01*
X281857Y25635D01*
X281686Y26019D01*
X281542Y26420D01*
X281424Y26838D01*
X281332Y27273D01*
X281267Y27725D01*
X281228Y28194D01*
X281215Y28680D01*
X281215Y38847D01*
X283412Y38847D01*
X283412Y28808D01*
X283431Y28249D01*
X283488Y27726D01*
X283584Y27237D01*
X283717Y26782D01*
X283889Y26362D01*
X284098Y25976D01*
X284346Y25625D01*
X284632Y25309D01*
X284953Y25028D01*
X285304Y24785D01*
X285685Y24579D01*
X286097Y24411D01*
X286539Y24280D01*
X287012Y24187D01*
X287516Y24130D01*
X288050Y24112D01*
X288569Y24130D01*
X289057Y24184D01*
X289513Y24274D01*
X289938Y24401D01*
X290332Y24563D01*
X290694Y24762D01*
X291024Y24997D01*
X291323Y25268D01*
X291589Y25574D01*
X291819Y25914D01*
X292014Y26287D01*
X292173Y26694D01*
X292297Y27134D01*
X292386Y27608D01*
X292439Y28116D01*
X292457Y28657D01*
X292457Y38847D01*
X294666Y38847D01*
X294666Y28472D01*
X294653Y28000D01*
X294615Y27545D01*
X294551Y27107D01*
X294461Y26685D01*
X294345Y26280D01*
X294204Y25891D01*
X294037Y25520D01*
X293845Y25164D01*
X293629Y24828D01*
X293392Y24511D01*
X293135Y24216D01*
X292856Y23941D01*
X292556Y23687D01*
X292236Y23453D01*
X291894Y23240D01*
X291532Y23048D01*
X291151Y22877D01*
X290754Y22729D01*
X290341Y22604D01*
X289912Y22501D01*
X289468Y22421D01*
X289007Y22364D01*
X288531Y22330D01*
X288039Y22319D01*
G37*
G36*
X410476Y22319D02*
X409964Y22331D01*
X409469Y22366D01*
X408992Y22425D01*
X408532Y22508D01*
X408088Y22615D01*
X407662Y22745D01*
X407253Y22899D01*
X406862Y23077D01*
X406489Y23276D01*
X406139Y23498D01*
X405810Y23740D01*
X405503Y24003D01*
X405217Y24288D01*
X404953Y24593D01*
X404711Y24920D01*
X404491Y25268D01*
X404294Y25635D01*
X404124Y26019D01*
X403980Y26420D01*
X403862Y26838D01*
X403770Y27273D01*
X403704Y27725D01*
X403665Y28194D01*
X403652Y28680D01*
X403652Y38847D01*
X405850Y38847D01*
X405850Y28808D01*
X405869Y28249D01*
X405926Y27726D01*
X406021Y27237D01*
X406155Y26782D01*
X406326Y26362D01*
X406536Y25976D01*
X406784Y25625D01*
X407070Y25309D01*
X407390Y25028D01*
X407741Y24785D01*
X408122Y24579D01*
X408534Y24411D01*
X408977Y24280D01*
X409450Y24187D01*
X409954Y24130D01*
X410488Y24112D01*
X411007Y24130D01*
X411495Y24184D01*
X411951Y24274D01*
X412376Y24401D01*
X412769Y24563D01*
X413131Y24762D01*
X413462Y24997D01*
X413761Y25268D01*
X414027Y25574D01*
X414257Y25914D01*
X414452Y26287D01*
X414611Y26694D01*
X414735Y27134D01*
X414824Y27608D01*
X414877Y28116D01*
X414894Y28657D01*
X414894Y38847D01*
X417103Y38847D01*
X417103Y28472D01*
X417091Y28000D01*
X417052Y27545D01*
X416988Y27107D01*
X416898Y26685D01*
X416783Y26280D01*
X416642Y25891D01*
X416475Y25520D01*
X416282Y25164D01*
X416067Y24828D01*
X415830Y24511D01*
X415572Y24216D01*
X415293Y23941D01*
X414994Y23687D01*
X414673Y23453D01*
X414332Y23240D01*
X413969Y23048D01*
X413588Y22877D01*
X413191Y22729D01*
X412778Y22604D01*
X412350Y22501D01*
X411905Y22421D01*
X411445Y22364D01*
X410968Y22330D01*
X410476Y22319D01*
G37*
G36*
X130264Y22550D02*
X128170Y22550D01*
X128170Y30889D01*
X128185Y31464D01*
X128231Y31995D01*
X128306Y32484D01*
X128412Y32929D01*
X128548Y33332D01*
X128714Y33692D01*
X128910Y34010D01*
X129136Y34284D01*
X129394Y34521D01*
X129686Y34727D01*
X130011Y34901D01*
X130369Y35043D01*
X130761Y35154D01*
X131187Y35233D01*
X131645Y35280D01*
X132138Y35296D01*
X132491Y35287D01*
X132829Y35260D01*
X133151Y35216D01*
X133458Y35153D01*
X133748Y35073D01*
X134023Y34974D01*
X134282Y34858D01*
X134526Y34724D01*
X134757Y34570D01*
X134980Y34397D01*
X135195Y34202D01*
X135401Y33988D01*
X135598Y33753D01*
X135787Y33497D01*
X135968Y33221D01*
X136139Y32925D01*
X136174Y32925D01*
X136122Y33793D01*
X136092Y34533D01*
X136082Y35250D01*
X136082Y39714D01*
X138164Y39714D01*
X138164Y22550D01*
X136082Y22550D01*
X136082Y29929D01*
X136068Y30349D01*
X136026Y30747D01*
X135957Y31123D01*
X135860Y31476D01*
X135736Y31808D01*
X135584Y32118D01*
X135404Y32405D01*
X135197Y32671D01*
X134966Y32909D01*
X134718Y33116D01*
X134451Y33291D01*
X134166Y33434D01*
X133863Y33545D01*
X133541Y33625D01*
X133201Y33673D01*
X132843Y33688D01*
X132378Y33670D01*
X131967Y33613D01*
X131609Y33519D01*
X131305Y33388D01*
X131047Y33216D01*
X130828Y33002D01*
X130648Y32745D01*
X130507Y32445D01*
X130400Y32082D01*
X130325Y31634D01*
X130279Y31102D01*
X130264Y30485D01*
X130264Y22550D01*
G37*
G36*
X160708Y22550D02*
X158417Y22550D01*
X151767Y38847D01*
X154092Y38847D01*
X158579Y27373D01*
X159551Y24493D01*
X160522Y27373D01*
X165033Y38847D01*
X167358Y38847D01*
X160708Y22550D01*
G37*
G36*
X269826Y22550D02*
X267733Y22550D01*
X267733Y30889D01*
X267748Y31458D01*
X267793Y31986D01*
X267867Y32471D01*
X267971Y32915D01*
X268106Y33317D01*
X268270Y33677D01*
X268463Y33996D01*
X268687Y34273D01*
X268943Y34512D01*
X269233Y34720D01*
X269558Y34896D01*
X269917Y35040D01*
X270311Y35152D01*
X270740Y35232D01*
X271203Y35280D01*
X271700Y35296D01*
X272043Y35288D01*
X272371Y35263D01*
X272685Y35221D01*
X272985Y35162D01*
X273271Y35086D01*
X273542Y34994D01*
X273799Y34884D01*
X274042Y34758D01*
X274274Y34612D01*
X274499Y34442D01*
X274717Y34248D01*
X274928Y34031D01*
X275132Y33790D01*
X275329Y33525D01*
X275519Y33237D01*
X275702Y32925D01*
X275737Y32925D01*
X275777Y34168D01*
X275806Y34753D01*
X275829Y35065D01*
X277795Y35065D01*
X277765Y34716D01*
X277743Y34154D01*
X277726Y32393D01*
X277726Y22550D01*
X275644Y22550D01*
X275644Y29802D01*
X275631Y30247D01*
X275590Y30666D01*
X275522Y31061D01*
X275427Y31430D01*
X275305Y31775D01*
X275156Y32095D01*
X274980Y32389D01*
X274777Y32659D01*
X274550Y32900D01*
X274303Y33109D01*
X274037Y33286D01*
X273750Y33431D01*
X273444Y33544D01*
X273118Y33624D01*
X272772Y33672D01*
X272406Y33688D01*
X271922Y33670D01*
X271501Y33613D01*
X271141Y33519D01*
X270844Y33388D01*
X270596Y33214D01*
X270384Y32992D01*
X270209Y32722D01*
X270069Y32405D01*
X269963Y32029D01*
X269887Y31583D01*
X269842Y31069D01*
X269826Y30485D01*
X269826Y22550D01*
G37*
G36*
X333045Y22550D02*
X330952Y22550D01*
X330952Y30889D01*
X330967Y31458D01*
X331011Y31986D01*
X331086Y32471D01*
X331190Y32915D01*
X331324Y33317D01*
X331488Y33677D01*
X331682Y33996D01*
X331906Y34273D01*
X332162Y34512D01*
X332452Y34720D01*
X332777Y34896D01*
X333136Y35040D01*
X333530Y35152D01*
X333958Y35232D01*
X334421Y35280D01*
X334919Y35296D01*
X335262Y35288D01*
X335590Y35263D01*
X335904Y35221D01*
X336204Y35162D01*
X336490Y35086D01*
X336761Y34994D01*
X337018Y34884D01*
X337261Y34758D01*
X337493Y34612D01*
X337718Y34442D01*
X337936Y34248D01*
X338147Y34031D01*
X338351Y33790D01*
X338548Y33525D01*
X338738Y33237D01*
X338921Y32925D01*
X338955Y32925D01*
X338996Y34168D01*
X339025Y34753D01*
X339048Y35065D01*
X341014Y35065D01*
X340984Y34716D01*
X340962Y34154D01*
X340945Y32393D01*
X340945Y22550D01*
X338863Y22550D01*
X338863Y29802D01*
X338849Y30247D01*
X338809Y30666D01*
X338741Y31061D01*
X338646Y31430D01*
X338524Y31775D01*
X338375Y32095D01*
X338199Y32389D01*
X337995Y32659D01*
X337769Y32900D01*
X337522Y33109D01*
X337255Y33286D01*
X336969Y33431D01*
X336663Y33544D01*
X336336Y33624D01*
X335990Y33672D01*
X335624Y33688D01*
X335141Y33670D01*
X334719Y33613D01*
X334360Y33519D01*
X334063Y33388D01*
X333815Y33214D01*
X333603Y32992D01*
X333428Y32722D01*
X333288Y32405D01*
X333182Y32029D01*
X333106Y31583D01*
X333060Y31069D01*
X333045Y30485D01*
X333045Y22550D01*
G37*
G36*
X346233Y22550D02*
X344139Y22550D01*
X344139Y30889D01*
X344154Y31458D01*
X344199Y31986D01*
X344273Y32471D01*
X344378Y32915D01*
X344512Y33317D01*
X344676Y33677D01*
X344870Y33996D01*
X345093Y34273D01*
X345349Y34512D01*
X345639Y34720D01*
X345964Y34896D01*
X346324Y35040D01*
X346718Y35152D01*
X347146Y35232D01*
X347609Y35280D01*
X348106Y35296D01*
X348449Y35288D01*
X348778Y35263D01*
X349092Y35221D01*
X349392Y35162D01*
X349677Y35086D01*
X349949Y34994D01*
X350206Y34884D01*
X350448Y34758D01*
X350681Y34612D01*
X350906Y34442D01*
X351124Y34248D01*
X351335Y34031D01*
X351539Y33790D01*
X351736Y33525D01*
X351925Y33237D01*
X352108Y32925D01*
X352143Y32925D01*
X352183Y34168D01*
X352212Y34753D01*
X352235Y35065D01*
X354202Y35065D01*
X354171Y34716D01*
X354150Y34154D01*
X354132Y32393D01*
X354132Y22550D01*
X352050Y22550D01*
X352050Y29802D01*
X352037Y30247D01*
X351996Y30666D01*
X351928Y31061D01*
X351834Y31430D01*
X351712Y31775D01*
X351562Y32095D01*
X351386Y32389D01*
X351183Y32659D01*
X350956Y32900D01*
X350709Y33109D01*
X350443Y33286D01*
X350156Y33431D01*
X349850Y33544D01*
X349524Y33624D01*
X349178Y33672D01*
X348812Y33688D01*
X348328Y33670D01*
X347907Y33613D01*
X347548Y33519D01*
X347250Y33388D01*
X347002Y33214D01*
X346791Y32992D01*
X346615Y32722D01*
X346475Y32405D01*
X346369Y32029D01*
X346293Y31583D01*
X346248Y31069D01*
X346233Y30485D01*
X346233Y22550D01*
G37*
G36*
X392295Y22550D02*
X390202Y22550D01*
X390202Y30889D01*
X390217Y31458D01*
X390261Y31986D01*
X390336Y32471D01*
X390440Y32915D01*
X390574Y33317D01*
X390738Y33677D01*
X390932Y33996D01*
X391156Y34273D01*
X391412Y34512D01*
X391702Y34720D01*
X392027Y34896D01*
X392386Y35040D01*
X392780Y35152D01*
X393208Y35232D01*
X393671Y35280D01*
X394169Y35296D01*
X394512Y35288D01*
X394840Y35263D01*
X395154Y35221D01*
X395454Y35162D01*
X395740Y35086D01*
X396011Y34994D01*
X396268Y34884D01*
X396511Y34758D01*
X396743Y34612D01*
X396968Y34442D01*
X397186Y34248D01*
X397397Y34031D01*
X397601Y33790D01*
X397798Y33525D01*
X397988Y33237D01*
X398171Y32925D01*
X398205Y32925D01*
X398246Y34168D01*
X398275Y34753D01*
X398298Y35065D01*
X400264Y35065D01*
X400234Y34716D01*
X400212Y34154D01*
X400195Y32393D01*
X400195Y22550D01*
X398113Y22550D01*
X398113Y29802D01*
X398099Y30247D01*
X398059Y30666D01*
X397991Y31061D01*
X397896Y31430D01*
X397774Y31775D01*
X397625Y32095D01*
X397449Y32389D01*
X397245Y32659D01*
X397019Y32900D01*
X396772Y33109D01*
X396505Y33286D01*
X396219Y33431D01*
X395913Y33544D01*
X395586Y33624D01*
X395240Y33672D01*
X394874Y33688D01*
X394391Y33670D01*
X393969Y33613D01*
X393610Y33519D01*
X393313Y33388D01*
X393065Y33214D01*
X392853Y32992D01*
X392678Y32722D01*
X392538Y32405D01*
X392432Y32029D01*
X392356Y31583D01*
X392310Y31069D01*
X392295Y30485D01*
X392295Y22550D01*
G37*
G36*
X114972Y22319D02*
X114486Y22336D01*
X114021Y22386D01*
X113578Y22470D01*
X113156Y22588D01*
X112757Y22739D01*
X112379Y22924D01*
X112022Y23142D01*
X111688Y23395D01*
X111380Y23675D01*
X111106Y23978D01*
X110864Y24304D01*
X110655Y24652D01*
X110479Y25024D01*
X110336Y25418D01*
X110226Y25835D01*
X110149Y26275D01*
X112254Y26413D01*
X112307Y26111D01*
X112377Y25829D01*
X112465Y25568D01*
X112571Y25326D01*
X112695Y25105D01*
X112837Y24904D01*
X112996Y24723D01*
X113174Y24563D01*
X113366Y24422D01*
X113570Y24300D01*
X113785Y24196D01*
X114011Y24112D01*
X114249Y24046D01*
X114498Y23999D01*
X114758Y23971D01*
X115030Y23961D01*
X115414Y23980D01*
X115773Y24037D01*
X116106Y24130D01*
X116415Y24262D01*
X116699Y24431D01*
X116958Y24638D01*
X117192Y24882D01*
X117401Y25164D01*
X117586Y25485D01*
X117745Y25847D01*
X117881Y26249D01*
X117991Y26691D01*
X118077Y27174D01*
X118139Y27697D01*
X118175Y28261D01*
X118188Y28865D01*
X118176Y29492D01*
X118141Y30073D01*
X118084Y30606D01*
X118003Y31092D01*
X117899Y31531D01*
X117771Y31923D01*
X117621Y32268D01*
X117448Y32567D01*
X117248Y32824D01*
X117020Y33047D01*
X116764Y33236D01*
X116479Y33391D01*
X116165Y33511D01*
X115823Y33597D01*
X115453Y33648D01*
X115053Y33665D01*
X114758Y33656D01*
X114481Y33627D01*
X114221Y33579D01*
X113978Y33512D01*
X113752Y33426D01*
X113544Y33321D01*
X113353Y33196D01*
X113180Y33052D01*
X113023Y32892D01*
X112881Y32719D01*
X112755Y32532D01*
X112645Y32332D01*
X112550Y32119D01*
X112470Y31892D01*
X112407Y31652D01*
X112358Y31398D01*
X110219Y31560D01*
X110314Y31985D01*
X110439Y32387D01*
X110594Y32764D01*
X110778Y33119D01*
X110992Y33450D01*
X111235Y33757D01*
X111507Y34041D01*
X111809Y34301D01*
X112136Y34535D01*
X112483Y34737D01*
X112851Y34908D01*
X113239Y35047D01*
X113647Y35156D01*
X114076Y35234D01*
X114526Y35281D01*
X114995Y35296D01*
X115315Y35290D01*
X115624Y35270D01*
X115925Y35238D01*
X116216Y35192D01*
X116497Y35134D01*
X116769Y35063D01*
X117032Y34978D01*
X117286Y34881D01*
X117530Y34771D01*
X117764Y34648D01*
X118205Y34363D01*
X118608Y34025D01*
X118974Y33636D01*
X119300Y33198D01*
X119581Y32713D01*
X119820Y32181D01*
X120015Y31602D01*
X120167Y30977D01*
X120275Y30304D01*
X120340Y29585D01*
X120362Y28819D01*
X120341Y28048D01*
X120276Y27324D01*
X120168Y26647D01*
X120017Y26019D01*
X119822Y25437D01*
X119585Y24904D01*
X119304Y24417D01*
X118980Y23979D01*
X118615Y23590D01*
X118211Y23253D01*
X117769Y22967D01*
X117533Y22844D01*
X117287Y22734D01*
X117032Y22637D01*
X116767Y22552D01*
X116492Y22481D01*
X116207Y22423D01*
X115913Y22377D01*
X115609Y22345D01*
X115296Y22325D01*
X114972Y22319D01*
G37*
G36*
X197378Y22365D02*
X196843Y22383D01*
X196314Y22435D01*
X195791Y22521D01*
X195273Y22643D01*
X195273Y24181D01*
X195967Y24060D01*
X196245Y24029D01*
X196476Y24019D01*
X196813Y24042D01*
X196962Y24070D01*
X197096Y24110D01*
X197218Y24161D01*
X197325Y24224D01*
X197419Y24298D01*
X197500Y24383D01*
X197569Y24483D01*
X197629Y24599D01*
X197721Y24882D01*
X197776Y25233D01*
X197795Y25650D01*
X197795Y33550D01*
X195481Y33550D01*
X195481Y35065D01*
X197795Y35065D01*
X197795Y37864D01*
X199183Y37864D01*
X199796Y35065D01*
X201322Y35065D01*
X201322Y33550D01*
X199877Y33550D01*
X199877Y25199D01*
X199867Y24856D01*
X199838Y24535D01*
X199789Y24236D01*
X199720Y23959D01*
X199633Y23705D01*
X199525Y23472D01*
X199398Y23262D01*
X199252Y23074D01*
X199086Y22908D01*
X198901Y22764D01*
X198696Y22642D01*
X198471Y22542D01*
X198227Y22465D01*
X197964Y22409D01*
X197681Y22376D01*
X197378Y22365D01*
G37*
G36*
X107929Y22550D02*
X105847Y22550D01*
X105847Y39714D01*
X107929Y39714D01*
X107929Y22550D01*
G37*
G36*
X180289Y22550D02*
X178207Y22550D01*
X178207Y29074D01*
X178196Y29579D01*
X178164Y30054D01*
X178111Y30499D01*
X178036Y30914D01*
X177940Y31299D01*
X177823Y31653D01*
X177684Y31977D01*
X177524Y32272D01*
X177344Y32533D01*
X177145Y32760D01*
X176926Y32952D01*
X176689Y33109D01*
X176432Y33231D01*
X176156Y33318D01*
X175861Y33370D01*
X175546Y33388D01*
X175217Y33381D01*
X174922Y33359D01*
X174662Y33323D01*
X174436Y33272D01*
X174436Y35180D01*
X174649Y35231D01*
X174861Y35267D01*
X175071Y35289D01*
X175280Y35296D01*
X175567Y35287D01*
X175837Y35259D01*
X176090Y35213D01*
X176327Y35149D01*
X176547Y35066D01*
X176751Y34964D01*
X176938Y34845D01*
X177108Y34706D01*
X177267Y34543D01*
X177422Y34348D01*
X177572Y34121D01*
X177718Y33862D01*
X177859Y33571D01*
X177995Y33249D01*
X178253Y32509D01*
X178299Y32509D01*
X178322Y33362D01*
X178392Y35065D01*
X180358Y35065D01*
X180306Y33538D01*
X180289Y32150D01*
X180289Y22550D01*
G37*
G36*
X238226Y22550D02*
X236144Y22550D01*
X236144Y29074D01*
X236133Y29579D01*
X236101Y30054D01*
X236048Y30499D01*
X235974Y30914D01*
X235878Y31299D01*
X235760Y31653D01*
X235622Y31977D01*
X235462Y32272D01*
X235282Y32533D01*
X235082Y32760D01*
X234864Y32952D01*
X234626Y33109D01*
X234369Y33231D01*
X234093Y33318D01*
X233798Y33370D01*
X233484Y33388D01*
X233154Y33381D01*
X232859Y33359D01*
X232599Y33323D01*
X232374Y33272D01*
X232374Y35180D01*
X232587Y35231D01*
X232799Y35267D01*
X233009Y35289D01*
X233218Y35296D01*
X233505Y35287D01*
X233775Y35259D01*
X234028Y35213D01*
X234265Y35149D01*
X234485Y35066D01*
X234688Y34964D01*
X234875Y34845D01*
X235045Y34706D01*
X235205Y34543D01*
X235360Y34348D01*
X235510Y34121D01*
X235655Y33862D01*
X235796Y33571D01*
X235932Y33249D01*
X236190Y32509D01*
X236237Y32509D01*
X236260Y33362D01*
X236329Y35065D01*
X238295Y35065D01*
X238243Y33538D01*
X238226Y32150D01*
X238226Y22550D01*
G37*
G36*
X125034Y22550D02*
X122952Y22550D01*
X122952Y35065D01*
X125034Y35065D01*
X125034Y22550D01*
G37*
G36*
X125034Y37725D02*
X122952Y37725D01*
X122952Y39714D01*
X125034Y39714D01*
X125034Y37725D01*
G37*
G36*
X260614Y22319D02*
X260269Y22327D01*
X259937Y22351D01*
X259620Y22392D01*
X259317Y22449D01*
X259029Y22522D01*
X258755Y22612D01*
X258495Y22717D01*
X258249Y22839D01*
X258016Y22980D01*
X257795Y23142D01*
X257586Y23326D01*
X257389Y23530D01*
X257203Y23757D01*
X257029Y24004D01*
X256867Y24273D01*
X256716Y24563D01*
X256670Y24563D01*
X256660Y24031D01*
X256630Y23406D01*
X256591Y22857D01*
X256554Y22550D01*
X254565Y22550D01*
X254595Y22946D01*
X254617Y23507D01*
X254634Y25130D01*
X254634Y39714D01*
X256716Y39714D01*
X256716Y34521D01*
X256693Y33122D01*
X256716Y33122D01*
X256867Y33396D01*
X257029Y33650D01*
X257202Y33886D01*
X257387Y34102D01*
X257584Y34299D01*
X257792Y34477D01*
X258012Y34636D01*
X258243Y34776D01*
X258488Y34898D01*
X258747Y35003D01*
X259021Y35093D01*
X259310Y35166D01*
X259614Y35223D01*
X259932Y35264D01*
X260266Y35288D01*
X260614Y35296D01*
X260897Y35290D01*
X261172Y35271D01*
X261437Y35239D01*
X261693Y35194D01*
X261940Y35136D01*
X262179Y35066D01*
X262628Y34887D01*
X263042Y34657D01*
X263419Y34376D01*
X263761Y34043D01*
X264067Y33660D01*
X264336Y33225D01*
X264570Y32739D01*
X264768Y32202D01*
X264930Y31614D01*
X265056Y30974D01*
X265146Y30284D01*
X265200Y29542D01*
X265217Y28750D01*
X265200Y27966D01*
X265148Y27233D01*
X265061Y26552D01*
X264938Y25922D01*
X264782Y25343D01*
X264590Y24816D01*
X264363Y24340D01*
X264101Y23915D01*
X263803Y23541D01*
X263465Y23217D01*
X263088Y22942D01*
X262671Y22718D01*
X262449Y22624D01*
X262216Y22543D01*
X261974Y22475D01*
X261721Y22419D01*
X261459Y22375D01*
X261187Y22344D01*
X260906Y22325D01*
X260614Y22319D01*
G37*
%LPC*%
G36*
X260082Y23927D02*
X260459Y23944D01*
X260809Y23997D01*
X261131Y24086D01*
X261427Y24210D01*
X261695Y24369D01*
X261936Y24564D01*
X262150Y24794D01*
X262338Y25060D01*
X262500Y25367D01*
X262641Y25720D01*
X262760Y26120D01*
X262858Y26567D01*
X262934Y27060D01*
X262988Y27600D01*
X263021Y28186D01*
X263031Y28819D01*
X263021Y29450D01*
X262988Y30035D01*
X262933Y30575D01*
X262857Y31070D01*
X262758Y31520D01*
X262638Y31924D01*
X262496Y32282D01*
X262332Y32595D01*
X262143Y32868D01*
X261927Y33104D01*
X261684Y33304D01*
X261414Y33467D01*
X261116Y33594D01*
X260791Y33685D01*
X260439Y33740D01*
X260059Y33758D01*
X259637Y33740D01*
X259245Y33686D01*
X258882Y33595D01*
X258550Y33469D01*
X258246Y33306D01*
X257973Y33107D01*
X257729Y32872D01*
X257514Y32601D01*
X257327Y32291D01*
X257165Y31940D01*
X257028Y31547D01*
X256916Y31112D01*
X256829Y30636D01*
X256766Y30118D01*
X256729Y29559D01*
X256716Y28958D01*
X256729Y28334D01*
X256766Y27753D01*
X256829Y27214D01*
X256916Y26717D01*
X257028Y26262D01*
X257165Y25850D01*
X257327Y25480D01*
X257514Y25153D01*
X257540Y25118D01*
X257729Y24865D01*
X257974Y24616D01*
X258250Y24406D01*
X258555Y24233D01*
X258892Y24099D01*
X259258Y24003D01*
X259655Y23946D01*
X260082Y23927D01*
G37*
%LPD*%
G36*
X168741Y92073D02*
X168130Y92089D01*
X167539Y92137D01*
X166969Y92218D01*
X166419Y92330D01*
X165890Y92475D01*
X165382Y92652D01*
X164894Y92861D01*
X164427Y93102D01*
X163984Y93374D01*
X163567Y93673D01*
X163176Y94000D01*
X162812Y94354D01*
X162475Y94737D01*
X162164Y95147D01*
X161880Y95586D01*
X161622Y96052D01*
X161393Y96542D01*
X161195Y97052D01*
X161027Y97581D01*
X160889Y98131D01*
X160782Y98700D01*
X160706Y99290D01*
X160660Y99899D01*
X160645Y100528D01*
X160660Y101159D01*
X160705Y101769D01*
X160781Y102358D01*
X160886Y102925D01*
X161022Y103471D01*
X161188Y103996D01*
X161384Y104499D01*
X161611Y104981D01*
X161866Y105438D01*
X162148Y105868D01*
X162456Y106269D01*
X162792Y106642D01*
X163155Y106987D01*
X163544Y107305D01*
X163961Y107594D01*
X164404Y107855D01*
X164871Y108087D01*
X165359Y108288D01*
X165867Y108458D01*
X166396Y108597D01*
X166946Y108705D01*
X167516Y108782D01*
X168107Y108829D01*
X168718Y108844D01*
X169189Y108835D01*
X169646Y108810D01*
X170091Y108767D01*
X170522Y108706D01*
X170940Y108629D01*
X171345Y108534D01*
X171737Y108422D01*
X172116Y108293D01*
X172481Y108147D01*
X172834Y107983D01*
X173174Y107803D01*
X173500Y107605D01*
X173813Y107389D01*
X174114Y107157D01*
X174401Y106907D01*
X174675Y106641D01*
X174934Y106359D01*
X175176Y106063D01*
X175402Y105754D01*
X175611Y105432D01*
X175803Y105097D01*
X175979Y104748D01*
X176137Y104386D01*
X176280Y104011D01*
X176405Y103622D01*
X176514Y103220D01*
X176606Y102805D01*
X176681Y102376D01*
X176739Y101934D01*
X176781Y101479D01*
X176806Y101010D01*
X176814Y100528D01*
X176799Y99896D01*
X176754Y99284D01*
X176679Y98692D01*
X176574Y98121D01*
X176439Y97569D01*
X176274Y97037D01*
X176079Y96526D01*
X175854Y96034D01*
X175601Y95567D01*
X175321Y95128D01*
X175013Y94718D01*
X174679Y94336D01*
X174318Y93982D01*
X173930Y93657D01*
X173515Y93360D01*
X173073Y93091D01*
X172607Y92852D01*
X172119Y92646D01*
X171610Y92471D01*
X171079Y92328D01*
X170527Y92216D01*
X169953Y92137D01*
X169358Y92089D01*
X168741Y92073D01*
G37*
%LPC*%
G36*
X168741Y93866D02*
X169079Y93873D01*
X169408Y93894D01*
X169727Y93929D01*
X170037Y93978D01*
X170338Y94041D01*
X170629Y94119D01*
X170911Y94210D01*
X171183Y94315D01*
X171446Y94435D01*
X171700Y94568D01*
X171945Y94716D01*
X172180Y94877D01*
X172405Y95053D01*
X172622Y95243D01*
X173027Y95664D01*
X173388Y96134D01*
X173702Y96643D01*
X173967Y97191D01*
X174185Y97780D01*
X174354Y98407D01*
X174420Y98736D01*
X174474Y99075D01*
X174516Y99423D01*
X174547Y99781D01*
X174565Y100150D01*
X174571Y100528D01*
X174565Y100909D01*
X174547Y101278D01*
X174517Y101638D01*
X174475Y101986D01*
X174422Y102324D01*
X174356Y102650D01*
X174189Y103272D01*
X173974Y103850D01*
X173712Y104386D01*
X173402Y104878D01*
X173044Y105328D01*
X172642Y105729D01*
X172427Y105910D01*
X172201Y106077D01*
X171965Y106231D01*
X171720Y106371D01*
X171465Y106498D01*
X171199Y106612D01*
X170924Y106712D01*
X170639Y106799D01*
X170343Y106872D01*
X170038Y106933D01*
X169723Y106979D01*
X169398Y107013D01*
X169063Y107033D01*
X168718Y107040D01*
X168376Y107033D01*
X168044Y107013D01*
X167721Y106979D01*
X167409Y106931D01*
X167106Y106870D01*
X166813Y106796D01*
X166529Y106708D01*
X166256Y106606D01*
X165992Y106491D01*
X165739Y106362D01*
X165494Y106220D01*
X165260Y106064D01*
X165036Y105894D01*
X164821Y105711D01*
X164421Y105305D01*
X164065Y104851D01*
X163756Y104356D01*
X163495Y103820D01*
X163281Y103243D01*
X163114Y102626D01*
X162995Y101967D01*
X162954Y101623D01*
X162924Y101268D01*
X162906Y100903D01*
X162900Y100528D01*
X162906Y100136D01*
X162924Y99755D01*
X162953Y99386D01*
X162995Y99028D01*
X163113Y98345D01*
X163278Y97707D01*
X163490Y97115D01*
X163749Y96567D01*
X164056Y96064D01*
X164410Y95607D01*
X164604Y95396D01*
X164808Y95199D01*
X165022Y95015D01*
X165247Y94845D01*
X165481Y94689D01*
X165726Y94546D01*
X165982Y94417D01*
X166247Y94301D01*
X166523Y94199D01*
X166809Y94111D01*
X167106Y94036D01*
X167412Y93975D01*
X167729Y93927D01*
X168056Y93893D01*
X168394Y93873D01*
X168741Y93866D01*
G37*
%LPD*%
G36*
X175304Y69777D02*
X174692Y69793D01*
X174102Y69841D01*
X173531Y69922D01*
X172982Y70034D01*
X172453Y70179D01*
X171945Y70356D01*
X171457Y70565D01*
X170990Y70806D01*
X170546Y71078D01*
X170129Y71377D01*
X169739Y71704D01*
X169375Y72058D01*
X169037Y72441D01*
X168727Y72851D01*
X168442Y73290D01*
X168185Y73756D01*
X167956Y74246D01*
X167757Y74755D01*
X167589Y75285D01*
X167452Y75835D01*
X167345Y76404D01*
X167269Y76994D01*
X167223Y77603D01*
X167207Y78232D01*
X167223Y78863D01*
X167268Y79473D01*
X167343Y80062D01*
X167449Y80629D01*
X167585Y81175D01*
X167751Y81700D01*
X167947Y82203D01*
X168173Y82685D01*
X168428Y83142D01*
X168710Y83571D01*
X169019Y83973D01*
X169354Y84346D01*
X169717Y84691D01*
X170107Y85009D01*
X170523Y85298D01*
X170966Y85559D01*
X171434Y85791D01*
X171921Y85992D01*
X172430Y86162D01*
X172959Y86301D01*
X173508Y86409D01*
X174079Y86486D01*
X174669Y86532D01*
X175281Y86548D01*
X175751Y86539D01*
X176209Y86513D01*
X176653Y86470D01*
X177084Y86410D01*
X177502Y86333D01*
X177907Y86238D01*
X178299Y86126D01*
X178678Y85997D01*
X179044Y85851D01*
X179397Y85687D01*
X179736Y85506D01*
X180063Y85309D01*
X180376Y85093D01*
X180676Y84861D01*
X180963Y84611D01*
X181237Y84345D01*
X181496Y84062D01*
X181739Y83767D01*
X181964Y83458D01*
X182173Y83136D01*
X182366Y82801D01*
X182541Y82452D01*
X182700Y82090D01*
X182842Y81715D01*
X182967Y81326D01*
X183076Y80924D01*
X183168Y80509D01*
X183243Y80080D01*
X183302Y79638D01*
X183344Y79183D01*
X183369Y78714D01*
X183377Y78232D01*
X183362Y77600D01*
X183317Y76988D01*
X183242Y76396D01*
X183137Y75825D01*
X183002Y75273D01*
X182837Y74741D01*
X182642Y74230D01*
X182417Y73738D01*
X182164Y73271D01*
X181883Y72832D01*
X181576Y72422D01*
X181242Y72040D01*
X180880Y71686D01*
X180492Y71360D01*
X180077Y71063D01*
X179635Y70795D01*
X179169Y70556D01*
X178681Y70349D01*
X178172Y70175D01*
X177642Y70031D01*
X177089Y69920D01*
X176516Y69841D01*
X175921Y69793D01*
X175304Y69777D01*
G37*
%LPC*%
G36*
X175304Y71570D02*
X175642Y71577D01*
X175970Y71598D01*
X176290Y71633D01*
X176600Y71682D01*
X176900Y71745D01*
X177191Y71823D01*
X177473Y71914D01*
X177746Y72019D01*
X178009Y72139D01*
X178263Y72272D01*
X178507Y72420D01*
X178742Y72581D01*
X178968Y72757D01*
X179184Y72947D01*
X179589Y73368D01*
X179951Y73838D01*
X180265Y74347D01*
X180530Y74895D01*
X180747Y75483D01*
X180916Y76111D01*
X180982Y76440D01*
X181037Y76778D01*
X181079Y77127D01*
X181109Y77485D01*
X181127Y77854D01*
X181133Y78232D01*
X181127Y78612D01*
X181109Y78982D01*
X181079Y79341D01*
X181038Y79690D01*
X180984Y80028D01*
X180918Y80354D01*
X180751Y80976D01*
X180537Y81554D01*
X180274Y82090D01*
X179964Y82582D01*
X179606Y83032D01*
X179205Y83433D01*
X178989Y83614D01*
X178764Y83781D01*
X178528Y83934D01*
X178282Y84075D01*
X178027Y84202D01*
X177762Y84316D01*
X177486Y84416D01*
X177201Y84503D01*
X176906Y84576D01*
X176601Y84637D01*
X176286Y84683D01*
X175961Y84717D01*
X175626Y84737D01*
X175281Y84744D01*
X174939Y84737D01*
X174606Y84716D01*
X174284Y84683D01*
X173971Y84635D01*
X173668Y84574D01*
X173375Y84500D01*
X173092Y84411D01*
X172819Y84310D01*
X172555Y84195D01*
X172301Y84066D01*
X172057Y83924D01*
X171823Y83768D01*
X171598Y83598D01*
X171384Y83415D01*
X170984Y83009D01*
X170627Y82554D01*
X170318Y82059D01*
X170057Y81524D01*
X169843Y80947D01*
X169677Y80329D01*
X169558Y79671D01*
X169516Y79327D01*
X169487Y78972D01*
X169469Y78607D01*
X169463Y78232D01*
X169469Y77840D01*
X169486Y77459D01*
X169516Y77090D01*
X169557Y76731D01*
X169675Y76049D01*
X169840Y75411D01*
X170052Y74818D01*
X170312Y74271D01*
X170619Y73768D01*
X170972Y73310D01*
X171166Y73100D01*
X171370Y72902D01*
X171584Y72719D01*
X171809Y72549D01*
X172044Y72392D01*
X172289Y72250D01*
X172544Y72120D01*
X172810Y72005D01*
X173086Y71903D01*
X173372Y71815D01*
X173668Y71740D01*
X173975Y71679D01*
X174292Y71631D01*
X174619Y71597D01*
X174956Y71577D01*
X175304Y71570D01*
G37*
%LPD*%
G36*
X177929Y114369D02*
X177317Y114385D01*
X176727Y114434D01*
X176156Y114514D01*
X175607Y114626D01*
X175078Y114771D01*
X174570Y114948D01*
X174082Y115157D01*
X173615Y115399D01*
X173171Y115670D01*
X172754Y115969D01*
X172364Y116296D01*
X172000Y116651D01*
X171662Y117033D01*
X171352Y117444D01*
X171067Y117882D01*
X170810Y118348D01*
X170581Y118838D01*
X170382Y119348D01*
X170214Y119877D01*
X170077Y120427D01*
X169970Y120996D01*
X169894Y121586D01*
X169848Y122195D01*
X169832Y122824D01*
X169848Y123455D01*
X169893Y124065D01*
X169968Y124654D01*
X170074Y125221D01*
X170210Y125767D01*
X170376Y126292D01*
X170572Y126795D01*
X170798Y127277D01*
X171053Y127734D01*
X171335Y128164D01*
X171644Y128565D01*
X171979Y128938D01*
X172342Y129283D01*
X172732Y129601D01*
X173148Y129890D01*
X173591Y130151D01*
X174059Y130383D01*
X174546Y130584D01*
X175055Y130754D01*
X175584Y130893D01*
X176133Y131001D01*
X176704Y131078D01*
X177294Y131125D01*
X177906Y131140D01*
X178376Y131131D01*
X178834Y131106D01*
X179278Y131063D01*
X179709Y131002D01*
X180127Y130925D01*
X180532Y130830D01*
X180924Y130718D01*
X181303Y130589D01*
X181669Y130443D01*
X182022Y130279D01*
X182361Y130099D01*
X182688Y129901D01*
X183001Y129686D01*
X183301Y129453D01*
X183588Y129204D01*
X183862Y128937D01*
X184121Y128655D01*
X184364Y128359D01*
X184589Y128050D01*
X184798Y127728D01*
X184991Y127393D01*
X185166Y127044D01*
X185325Y126682D01*
X185467Y126307D01*
X185592Y125918D01*
X185701Y125516D01*
X185793Y125101D01*
X185868Y124672D01*
X185927Y124230D01*
X185969Y123775D01*
X185994Y123306D01*
X186002Y122824D01*
X185987Y122192D01*
X185942Y121580D01*
X185867Y120989D01*
X185762Y120417D01*
X185627Y119865D01*
X185462Y119334D01*
X185267Y118822D01*
X185042Y118331D01*
X184789Y117863D01*
X184508Y117424D01*
X184201Y117014D01*
X183867Y116632D01*
X183505Y116278D01*
X183117Y115953D01*
X182702Y115656D01*
X182260Y115387D01*
X181794Y115148D01*
X181306Y114942D01*
X180797Y114767D01*
X180267Y114624D01*
X179714Y114512D01*
X179141Y114433D01*
X178546Y114385D01*
X177929Y114369D01*
G37*
%LPC*%
G36*
X177929Y116162D02*
X178267Y116169D01*
X178595Y116190D01*
X178915Y116225D01*
X179225Y116274D01*
X179525Y116338D01*
X179816Y116415D01*
X180098Y116506D01*
X180371Y116612D01*
X180634Y116731D01*
X180888Y116864D01*
X181132Y117012D01*
X181367Y117174D01*
X181593Y117349D01*
X181809Y117539D01*
X182214Y117960D01*
X182576Y118430D01*
X182890Y118939D01*
X183155Y119487D01*
X183372Y120076D01*
X183541Y120703D01*
X183607Y121032D01*
X183662Y121371D01*
X183704Y121719D01*
X183734Y122078D01*
X183752Y122446D01*
X183758Y122824D01*
X183752Y123205D01*
X183734Y123575D01*
X183704Y123934D01*
X183663Y124282D01*
X183609Y124620D01*
X183543Y124947D01*
X183376Y125568D01*
X183162Y126147D01*
X182899Y126682D01*
X182589Y127175D01*
X182231Y127624D01*
X181830Y128025D01*
X181614Y128206D01*
X181389Y128373D01*
X181153Y128527D01*
X180907Y128667D01*
X180652Y128794D01*
X180387Y128908D01*
X180111Y129008D01*
X179826Y129095D01*
X179531Y129169D01*
X179226Y129229D01*
X178911Y129276D01*
X178586Y129309D01*
X178251Y129329D01*
X177906Y129336D01*
X177564Y129329D01*
X177231Y129309D01*
X176909Y129275D01*
X176596Y129227D01*
X176293Y129166D01*
X176000Y129092D01*
X175717Y129004D01*
X175444Y128902D01*
X175180Y128787D01*
X174926Y128658D01*
X174682Y128516D01*
X174448Y128360D01*
X174223Y128190D01*
X174009Y128007D01*
X173609Y127601D01*
X173252Y127147D01*
X172943Y126652D01*
X172682Y126116D01*
X172468Y125539D01*
X172302Y124922D01*
X172183Y124263D01*
X172141Y123919D01*
X172112Y123564D01*
X172094Y123199D01*
X172088Y122824D01*
X172094Y122432D01*
X172111Y122051D01*
X172141Y121682D01*
X172182Y121324D01*
X172300Y120641D01*
X172465Y120003D01*
X172677Y119411D01*
X172937Y118863D01*
X173244Y118360D01*
X173597Y117903D01*
X173791Y117692D01*
X173995Y117495D01*
X174209Y117311D01*
X174434Y117141D01*
X174669Y116985D01*
X174914Y116842D01*
X175169Y116713D01*
X175435Y116597D01*
X175711Y116495D01*
X175997Y116407D01*
X176293Y116332D01*
X176600Y116271D01*
X176917Y116223D01*
X177244Y116189D01*
X177581Y116169D01*
X177929Y116162D01*
G37*
%LPD*%
G36*
X164150Y70008D02*
X161940Y70008D01*
X161940Y76358D01*
X157152Y76358D01*
X156521Y76379D01*
X155924Y76443D01*
X155361Y76550D01*
X154832Y76699D01*
X154336Y76891D01*
X153874Y77126D01*
X153446Y77403D01*
X153052Y77723D01*
X152698Y78079D01*
X152391Y78465D01*
X152132Y78880D01*
X151920Y79325D01*
X151755Y79799D01*
X151637Y80304D01*
X151566Y80837D01*
X151542Y81401D01*
X151566Y81969D01*
X151636Y82503D01*
X151754Y83005D01*
X151918Y83474D01*
X152130Y83910D01*
X152388Y84313D01*
X152694Y84684D01*
X153046Y85021D01*
X153441Y85322D01*
X153875Y85583D01*
X154348Y85804D01*
X154859Y85984D01*
X155409Y86124D01*
X155998Y86225D01*
X156625Y86285D01*
X157291Y86305D01*
X164150Y86305D01*
X164150Y70008D01*
G37*
%LPC*%
G36*
X161940Y78105D02*
X161940Y84535D01*
X157557Y84535D01*
X157097Y84523D01*
X156668Y84486D01*
X156268Y84424D01*
X155897Y84338D01*
X155556Y84227D01*
X155245Y84091D01*
X154963Y83931D01*
X154712Y83746D01*
X154489Y83536D01*
X154297Y83302D01*
X154134Y83043D01*
X154000Y82759D01*
X153896Y82451D01*
X153822Y82118D01*
X153778Y81760D01*
X153763Y81378D01*
X153778Y80981D01*
X153821Y80611D01*
X153893Y80265D01*
X153994Y79946D01*
X154125Y79652D01*
X154284Y79383D01*
X154472Y79140D01*
X154688Y78923D01*
X154934Y78731D01*
X155209Y78565D01*
X155513Y78424D01*
X155845Y78309D01*
X156206Y78220D01*
X156597Y78156D01*
X157016Y78117D01*
X157464Y78105D01*
X161940Y78105D01*
G37*
%LPD*%
G36*
X198368Y70008D02*
X196159Y70008D01*
X196159Y76358D01*
X191371Y76358D01*
X190740Y76379D01*
X190143Y76443D01*
X189580Y76550D01*
X189050Y76699D01*
X188555Y76891D01*
X188093Y77126D01*
X187665Y77403D01*
X187271Y77723D01*
X186917Y78079D01*
X186610Y78465D01*
X186351Y78880D01*
X186139Y79325D01*
X185973Y79799D01*
X185856Y80304D01*
X185785Y80837D01*
X185761Y81401D01*
X185785Y81969D01*
X185855Y82503D01*
X185973Y83005D01*
X186137Y83474D01*
X186349Y83910D01*
X186607Y84313D01*
X186912Y84684D01*
X187265Y85021D01*
X187660Y85322D01*
X188094Y85583D01*
X188567Y85804D01*
X189078Y85984D01*
X189628Y86124D01*
X190216Y86225D01*
X190844Y86285D01*
X191510Y86305D01*
X198368Y86305D01*
X198368Y70008D01*
G37*
%LPC*%
G36*
X196159Y78105D02*
X196159Y84535D01*
X191776Y84535D01*
X191316Y84523D01*
X190886Y84486D01*
X190486Y84424D01*
X190116Y84338D01*
X189775Y84227D01*
X189464Y84091D01*
X189182Y83931D01*
X188930Y83746D01*
X188708Y83536D01*
X188515Y83302D01*
X188352Y83043D01*
X188219Y82759D01*
X188115Y82451D01*
X188041Y82118D01*
X187997Y81760D01*
X187982Y81378D01*
X187996Y80981D01*
X188040Y80611D01*
X188112Y80265D01*
X188213Y79946D01*
X188343Y79652D01*
X188502Y79383D01*
X188690Y79140D01*
X188907Y78923D01*
X189153Y78731D01*
X189428Y78565D01*
X189731Y78424D01*
X190064Y78309D01*
X190425Y78220D01*
X190816Y78156D01*
X191235Y78117D01*
X191683Y78105D01*
X196159Y78105D01*
G37*
%LPD*%
G36*
X198368Y92304D02*
X196159Y92304D01*
X196159Y98654D01*
X191371Y98654D01*
X190740Y98676D01*
X190143Y98739D01*
X189580Y98846D01*
X189050Y98995D01*
X188555Y99187D01*
X188093Y99422D01*
X187665Y99699D01*
X187271Y100019D01*
X186917Y100375D01*
X186610Y100761D01*
X186351Y101176D01*
X186139Y101621D01*
X185973Y102095D01*
X185856Y102600D01*
X185785Y103134D01*
X185761Y103697D01*
X185785Y104265D01*
X185855Y104799D01*
X185973Y105301D01*
X186137Y105770D01*
X186349Y106206D01*
X186607Y106610D01*
X186912Y106980D01*
X187265Y107317D01*
X187660Y107618D01*
X188094Y107879D01*
X188567Y108100D01*
X189078Y108280D01*
X189628Y108421D01*
X190216Y108521D01*
X190844Y108581D01*
X191510Y108601D01*
X198368Y108601D01*
X198368Y92304D01*
G37*
%LPC*%
G36*
X196159Y100401D02*
X196159Y106831D01*
X191776Y106831D01*
X191316Y106819D01*
X190886Y106782D01*
X190486Y106720D01*
X190116Y106634D01*
X189775Y106523D01*
X189464Y106387D01*
X189182Y106227D01*
X188930Y106042D01*
X188708Y105832D01*
X188515Y105598D01*
X188352Y105339D01*
X188219Y105055D01*
X188115Y104747D01*
X188041Y104414D01*
X187997Y104056D01*
X187982Y103674D01*
X187996Y103278D01*
X188040Y102907D01*
X188112Y102562D01*
X188213Y102242D01*
X188343Y101948D01*
X188502Y101679D01*
X188690Y101436D01*
X188907Y101219D01*
X189153Y101027D01*
X189428Y100861D01*
X189731Y100720D01*
X190064Y100605D01*
X190425Y100516D01*
X190816Y100452D01*
X191235Y100413D01*
X191683Y100401D01*
X196159Y100401D01*
G37*
%LPD*%
G36*
X217387Y70008D02*
X215398Y70008D01*
X215398Y86305D01*
X218231Y86305D01*
X222488Y75005D01*
X222640Y74587D01*
X222887Y73819D01*
X223131Y72997D01*
X223274Y72414D01*
X223380Y72869D01*
X223558Y73542D01*
X223776Y74298D01*
X224003Y75005D01*
X228340Y86305D01*
X231243Y86305D01*
X231243Y70008D01*
X229277Y70008D01*
X229277Y80880D01*
X229323Y83066D01*
X229358Y84350D01*
X228976Y83078D01*
X228329Y81112D01*
X224061Y70008D01*
X222511Y70008D01*
X218301Y81112D01*
X218068Y81752D01*
X217821Y82506D01*
X217559Y83372D01*
X217283Y84350D01*
X217328Y83509D01*
X217361Y82650D01*
X217381Y81774D01*
X217387Y80880D01*
X217387Y70008D01*
G37*
G36*
X217387Y92304D02*
X215398Y92304D01*
X215398Y108601D01*
X218231Y108601D01*
X222488Y97301D01*
X222640Y96883D01*
X222887Y96115D01*
X223131Y95293D01*
X223274Y94710D01*
X223380Y95166D01*
X223558Y95838D01*
X223776Y96594D01*
X224003Y97301D01*
X228340Y108601D01*
X231243Y108601D01*
X231243Y92304D01*
X229277Y92304D01*
X229277Y103177D01*
X229323Y105363D01*
X229358Y106646D01*
X228976Y105374D01*
X228329Y103408D01*
X224061Y92304D01*
X222511Y92304D01*
X218301Y103408D01*
X218068Y104048D01*
X217821Y104802D01*
X217559Y105668D01*
X217283Y106646D01*
X217328Y105805D01*
X217361Y104946D01*
X217381Y104070D01*
X217387Y103177D01*
X217387Y92304D01*
G37*
G36*
X217387Y114600D02*
X215398Y114600D01*
X215398Y130897D01*
X218231Y130897D01*
X222488Y119597D01*
X222640Y119179D01*
X222887Y118412D01*
X223131Y117589D01*
X223274Y117006D01*
X223380Y117462D01*
X223558Y118134D01*
X223776Y118890D01*
X224003Y119597D01*
X228340Y130897D01*
X231243Y130897D01*
X231243Y114600D01*
X229277Y114600D01*
X229277Y125473D01*
X229323Y127659D01*
X229358Y128943D01*
X228976Y127670D01*
X228329Y125704D01*
X224061Y114600D01*
X222511Y114600D01*
X218301Y125704D01*
X218068Y126344D01*
X217821Y127098D01*
X217559Y127964D01*
X217283Y128943D01*
X217328Y128101D01*
X217361Y127242D01*
X217381Y126366D01*
X217387Y125473D01*
X217387Y114600D01*
G37*
G36*
X90720Y114600D02*
X88465Y114600D01*
X95011Y130897D01*
X97521Y130897D01*
X104171Y114600D01*
X101881Y114600D01*
X100008Y119366D01*
X92582Y119366D01*
X90720Y114600D01*
G37*
%LPC*%
G36*
X99337Y121089D02*
X97255Y126444D01*
X96757Y127812D01*
X96399Y128908D01*
X96295Y129232D01*
X95983Y128272D01*
X95659Y127317D01*
X95335Y126467D01*
X93241Y121089D01*
X99337Y121089D01*
G37*
%LPD*%
G36*
X156203Y114600D02*
X153543Y114600D01*
X153543Y130897D01*
X155532Y130897D01*
X155532Y120210D01*
X155524Y119623D01*
X155498Y118880D01*
X155393Y116925D01*
X164207Y130897D01*
X166775Y130897D01*
X166775Y114600D01*
X164808Y114600D01*
X164808Y125426D01*
X164866Y127358D01*
X164924Y128480D01*
X156203Y114600D01*
G37*
G36*
X142189Y114369D02*
X141645Y114380D01*
X141110Y114414D01*
X140586Y114471D01*
X140071Y114550D01*
X139567Y114652D01*
X139072Y114776D01*
X138587Y114923D01*
X138112Y115092D01*
X137652Y115282D01*
X137209Y115491D01*
X136785Y115718D01*
X136379Y115964D01*
X135991Y116228D01*
X135622Y116511D01*
X135270Y116813D01*
X134937Y117133D01*
X134937Y122755D01*
X141842Y122755D01*
X141842Y120904D01*
X136973Y120904D01*
X136973Y117966D01*
X137195Y117763D01*
X137434Y117572D01*
X137689Y117390D01*
X137960Y117220D01*
X138248Y117061D01*
X138553Y116912D01*
X138874Y116775D01*
X139211Y116648D01*
X139560Y116534D01*
X139916Y116435D01*
X140278Y116352D01*
X140647Y116283D01*
X141022Y116230D01*
X141405Y116192D01*
X141794Y116169D01*
X142189Y116162D01*
X142534Y116169D01*
X142870Y116190D01*
X143196Y116225D01*
X143513Y116274D01*
X143820Y116336D01*
X144118Y116413D01*
X144406Y116504D01*
X144685Y116609D01*
X144954Y116727D01*
X145214Y116860D01*
X145464Y117007D01*
X145705Y117167D01*
X145936Y117342D01*
X146158Y117530D01*
X146573Y117949D01*
X146944Y118416D01*
X147266Y118924D01*
X147539Y119472D01*
X147656Y119762D01*
X147761Y120061D01*
X147854Y120371D01*
X147935Y120691D01*
X148003Y121021D01*
X148058Y121361D01*
X148102Y121712D01*
X148133Y122072D01*
X148151Y122443D01*
X148158Y122824D01*
X148134Y123577D01*
X148064Y124287D01*
X147948Y124953D01*
X147784Y125575D01*
X147575Y126154D01*
X147318Y126690D01*
X147015Y127181D01*
X146665Y127630D01*
X146474Y127836D01*
X146272Y128030D01*
X146059Y128210D01*
X145836Y128376D01*
X145603Y128529D01*
X145359Y128669D01*
X145105Y128796D01*
X144841Y128909D01*
X144566Y129009D01*
X144281Y129096D01*
X143985Y129169D01*
X143679Y129229D01*
X143363Y129276D01*
X143036Y129309D01*
X142699Y129329D01*
X142351Y129336D01*
X141907Y129326D01*
X141481Y129296D01*
X141073Y129246D01*
X140684Y129177D01*
X140314Y129087D01*
X139963Y128978D01*
X139630Y128849D01*
X139315Y128700D01*
X139018Y128529D01*
X138738Y128335D01*
X138474Y128117D01*
X138227Y127876D01*
X137995Y127611D01*
X137781Y127323D01*
X137583Y127011D01*
X137401Y126676D01*
X135296Y127300D01*
X135536Y127786D01*
X135801Y128238D01*
X136090Y128655D01*
X136403Y129038D01*
X136741Y129387D01*
X137102Y129701D01*
X137488Y129981D01*
X137898Y130226D01*
X138336Y130441D01*
X138806Y130626D01*
X139308Y130783D01*
X139841Y130912D01*
X140407Y131012D01*
X141004Y131083D01*
X141633Y131126D01*
X142293Y131140D01*
X142768Y131132D01*
X143229Y131106D01*
X143677Y131064D01*
X144112Y131004D01*
X144532Y130928D01*
X144940Y130834D01*
X145334Y130724D01*
X145714Y130596D01*
X146081Y130452D01*
X146435Y130291D01*
X146775Y130112D01*
X147101Y129917D01*
X147415Y129705D01*
X147714Y129475D01*
X148000Y129229D01*
X148273Y128966D01*
X148531Y128687D01*
X148772Y128394D01*
X148996Y128087D01*
X149204Y127766D01*
X149395Y127432D01*
X149570Y127083D01*
X149728Y126720D01*
X149869Y126343D01*
X149994Y125952D01*
X150102Y125547D01*
X150194Y125128D01*
X150268Y124696D01*
X150327Y124249D01*
X150368Y123788D01*
X150393Y123313D01*
X150401Y122824D01*
X150386Y122187D01*
X150340Y121571D01*
X150264Y120976D01*
X150157Y120402D01*
X150020Y119850D01*
X149852Y119318D01*
X149653Y118808D01*
X149424Y118319D01*
X149166Y117854D01*
X148881Y117418D01*
X148568Y117009D01*
X148228Y116629D01*
X147861Y116276D01*
X147467Y115952D01*
X147045Y115655D01*
X146596Y115387D01*
X146122Y115148D01*
X145627Y114942D01*
X145109Y114767D01*
X144569Y114624D01*
X144007Y114512D01*
X143423Y114433D01*
X142817Y114385D01*
X142189Y114369D01*
G37*
G36*
X131243Y114600D02*
X118405Y114600D01*
X118405Y116405D01*
X129034Y116405D01*
X129034Y122084D01*
X119573Y122084D01*
X119573Y123865D01*
X129034Y123865D01*
X129034Y129093D01*
X118879Y129093D01*
X118879Y130897D01*
X131243Y130897D01*
X131243Y114600D01*
G37*
G36*
X148337Y70008D02*
X135499Y70008D01*
X135499Y71813D01*
X146128Y71813D01*
X146128Y77492D01*
X136667Y77492D01*
X136667Y79273D01*
X146128Y79273D01*
X146128Y84501D01*
X135973Y84501D01*
X135973Y86305D01*
X148337Y86305D01*
X148337Y70008D01*
G37*
G36*
X126518Y69777D02*
X125740Y69796D01*
X125006Y69854D01*
X124318Y69951D01*
X123674Y70086D01*
X123076Y70260D01*
X122523Y70473D01*
X122014Y70724D01*
X121551Y71015D01*
X121137Y71340D01*
X120779Y71697D01*
X120476Y72086D01*
X120228Y72507D01*
X120124Y72729D01*
X120035Y72959D01*
X119959Y73197D01*
X119897Y73443D01*
X119849Y73698D01*
X119814Y73960D01*
X119794Y74230D01*
X119787Y74508D01*
X119802Y74938D01*
X119849Y75340D01*
X119927Y75713D01*
X120035Y76057D01*
X120172Y76376D01*
X120332Y76673D01*
X120516Y76949D01*
X120724Y77202D01*
X120953Y77436D01*
X121202Y77651D01*
X121471Y77847D01*
X121759Y78024D01*
X122376Y78337D01*
X123037Y78608D01*
X123735Y78839D01*
X124465Y79036D01*
X125963Y79388D01*
X126992Y79627D01*
X127834Y79847D01*
X128490Y80047D01*
X128959Y80227D01*
X129313Y80407D01*
X129622Y80606D01*
X129888Y80823D01*
X130110Y81060D01*
X130284Y81322D01*
X130409Y81616D01*
X130484Y81943D01*
X130502Y82119D01*
X130509Y82303D01*
X130492Y82614D01*
X130444Y82905D01*
X130364Y83177D01*
X130251Y83428D01*
X130106Y83659D01*
X129930Y83871D01*
X129720Y84063D01*
X129479Y84235D01*
X129207Y84386D01*
X128907Y84518D01*
X128577Y84629D01*
X128218Y84720D01*
X127831Y84791D01*
X127415Y84842D01*
X126969Y84872D01*
X126495Y84882D01*
X126062Y84873D01*
X125653Y84846D01*
X125268Y84800D01*
X124908Y84736D01*
X124571Y84654D01*
X124259Y84554D01*
X123971Y84435D01*
X123708Y84298D01*
X123466Y84141D01*
X123245Y83962D01*
X123044Y83760D01*
X122863Y83536D01*
X122703Y83290D01*
X122563Y83022D01*
X122443Y82732D01*
X122343Y82419D01*
X120168Y82800D01*
X120330Y83294D01*
X120518Y83749D01*
X120734Y84168D01*
X120978Y84548D01*
X121249Y84892D01*
X121548Y85198D01*
X121874Y85467D01*
X122227Y85698D01*
X122615Y85897D01*
X123043Y86070D01*
X123513Y86216D01*
X124023Y86335D01*
X124574Y86428D01*
X125166Y86495D01*
X125798Y86535D01*
X126472Y86548D01*
X127196Y86530D01*
X127878Y86477D01*
X128516Y86388D01*
X129111Y86265D01*
X129662Y86105D01*
X130171Y85910D01*
X130636Y85680D01*
X131058Y85414D01*
X131433Y85116D01*
X131759Y84788D01*
X132034Y84429D01*
X132259Y84041D01*
X132435Y83623D01*
X132560Y83174D01*
X132604Y82939D01*
X132635Y82696D01*
X132654Y82445D01*
X132660Y82187D01*
X132641Y81744D01*
X132583Y81326D01*
X132487Y80934D01*
X132353Y80568D01*
X132183Y80227D01*
X131979Y79907D01*
X131741Y79611D01*
X131469Y79336D01*
X131153Y79079D01*
X130785Y78835D01*
X130364Y78602D01*
X129890Y78382D01*
X129331Y78168D01*
X128657Y77954D01*
X127865Y77740D01*
X126958Y77526D01*
X124934Y77052D01*
X124493Y76936D01*
X124084Y76806D01*
X123706Y76664D01*
X123361Y76508D01*
X123049Y76336D01*
X122775Y76141D01*
X122538Y75925D01*
X122337Y75687D01*
X122178Y75420D01*
X122064Y75115D01*
X121996Y74772D01*
X121973Y74392D01*
X121991Y74047D01*
X122045Y73724D01*
X122136Y73422D01*
X122263Y73141D01*
X122427Y72882D01*
X122627Y72645D01*
X122863Y72429D01*
X123135Y72235D01*
X123441Y72063D01*
X123777Y71913D01*
X124144Y71787D01*
X124542Y71684D01*
X124970Y71604D01*
X125429Y71546D01*
X125918Y71512D01*
X126437Y71500D01*
X126941Y71511D01*
X127418Y71543D01*
X127868Y71597D01*
X128291Y71672D01*
X128686Y71769D01*
X129055Y71887D01*
X129396Y72027D01*
X129711Y72189D01*
X129998Y72373D01*
X130260Y72581D01*
X130496Y72814D01*
X130705Y73072D01*
X130889Y73354D01*
X131046Y73660D01*
X131178Y73991D01*
X131284Y74346D01*
X133423Y73918D01*
X133285Y73416D01*
X133108Y72947D01*
X132892Y72510D01*
X132636Y72106D01*
X132341Y71734D01*
X132008Y71394D01*
X131635Y71087D01*
X131223Y70812D01*
X130772Y70570D01*
X130281Y70359D01*
X129752Y70181D01*
X129184Y70036D01*
X128576Y69923D01*
X127929Y69842D01*
X127243Y69793D01*
X126518Y69777D01*
G37*
G36*
X109538Y69777D02*
X108945Y69794D01*
X108371Y69846D01*
X107815Y69932D01*
X107278Y70052D01*
X106759Y70206D01*
X106257Y70395D01*
X105775Y70618D01*
X105310Y70876D01*
X104867Y71166D01*
X104450Y71488D01*
X104059Y71841D01*
X103692Y72226D01*
X103352Y72642D01*
X103036Y73090D01*
X102747Y73569D01*
X102482Y74080D01*
X104287Y74982D01*
X104509Y74571D01*
X104744Y74187D01*
X104993Y73830D01*
X105254Y73499D01*
X105530Y73195D01*
X105818Y72917D01*
X106120Y72665D01*
X106435Y72440D01*
X106763Y72241D01*
X107105Y72069D01*
X107460Y71924D01*
X107828Y71805D01*
X108209Y71712D01*
X108604Y71646D01*
X109012Y71606D01*
X109433Y71593D01*
X109763Y71600D01*
X110084Y71621D01*
X110397Y71657D01*
X110700Y71707D01*
X110995Y71771D01*
X111282Y71849D01*
X111560Y71942D01*
X111829Y72048D01*
X112090Y72169D01*
X112342Y72304D01*
X112585Y72454D01*
X112820Y72618D01*
X113263Y72988D01*
X113672Y73415D01*
X114040Y73888D01*
X114358Y74399D01*
X114627Y74946D01*
X114848Y75530D01*
X115019Y76150D01*
X115087Y76474D01*
X115142Y76807D01*
X115185Y77150D01*
X115215Y77501D01*
X115234Y77862D01*
X115240Y78232D01*
X115216Y78969D01*
X115146Y79666D01*
X115028Y80323D01*
X114864Y80940D01*
X114652Y81516D01*
X114394Y82052D01*
X114088Y82548D01*
X113736Y83003D01*
X113341Y83411D01*
X112909Y83764D01*
X112679Y83921D01*
X112439Y84064D01*
X112190Y84193D01*
X111932Y84308D01*
X111664Y84410D01*
X111387Y84499D01*
X111100Y84574D01*
X110804Y84635D01*
X110499Y84682D01*
X110184Y84716D01*
X109860Y84737D01*
X109526Y84744D01*
X109102Y84732D01*
X108694Y84697D01*
X108299Y84638D01*
X107920Y84556D01*
X107555Y84450D01*
X107204Y84321D01*
X106869Y84168D01*
X106548Y83992D01*
X106245Y83793D01*
X105963Y83574D01*
X105703Y83334D01*
X105465Y83072D01*
X105248Y82790D01*
X105052Y82487D01*
X104878Y82163D01*
X104726Y81817D01*
X102633Y82511D01*
X102852Y82996D01*
X103101Y83450D01*
X103379Y83874D01*
X103685Y84266D01*
X104021Y84628D01*
X104385Y84960D01*
X104778Y85260D01*
X105200Y85530D01*
X105650Y85769D01*
X106127Y85975D01*
X106630Y86150D01*
X107161Y86293D01*
X107718Y86405D01*
X108301Y86484D01*
X108912Y86532D01*
X109549Y86548D01*
X110008Y86539D01*
X110455Y86513D01*
X110889Y86470D01*
X111310Y86410D01*
X111719Y86332D01*
X112115Y86237D01*
X112498Y86125D01*
X112869Y85996D01*
X113227Y85849D01*
X113572Y85685D01*
X113905Y85504D01*
X114225Y85305D01*
X114532Y85090D01*
X114827Y84857D01*
X115109Y84606D01*
X115378Y84339D01*
X115633Y84056D01*
X115872Y83760D01*
X116094Y83451D01*
X116299Y83129D01*
X116489Y82793D01*
X116661Y82444D01*
X116817Y82083D01*
X116957Y81707D01*
X117081Y81319D01*
X117188Y80918D01*
X117278Y80503D01*
X117352Y80075D01*
X117410Y79634D01*
X117451Y79180D01*
X117475Y78712D01*
X117484Y78232D01*
X117469Y77592D01*
X117425Y76974D01*
X117351Y76378D01*
X117248Y75804D01*
X117115Y75252D01*
X116953Y74722D01*
X116762Y74213D01*
X116541Y73727D01*
X116292Y73265D01*
X116016Y72830D01*
X115714Y72423D01*
X115384Y72044D01*
X115028Y71692D01*
X114645Y71367D01*
X114236Y71070D01*
X113800Y70801D01*
X113340Y70561D01*
X112859Y70353D01*
X112357Y70177D01*
X111835Y70033D01*
X111292Y69921D01*
X110728Y69841D01*
X110143Y69793D01*
X109538Y69777D01*
G37*
G36*
X115431Y114600D02*
X113222Y114600D01*
X113222Y121205D01*
X104131Y121205D01*
X104131Y123032D01*
X113222Y123032D01*
X113222Y129093D01*
X103853Y129093D01*
X103853Y130897D01*
X115431Y130897D01*
X115431Y114600D01*
G37*
G36*
X83397Y114600D02*
X81199Y114600D01*
X81199Y121355D01*
X74908Y130897D01*
X77336Y130897D01*
X82275Y123136D01*
X87237Y130897D01*
X89666Y130897D01*
X83397Y121355D01*
X83397Y114600D01*
G37*
G36*
X153369Y92304D02*
X151171Y92304D01*
X151171Y106797D01*
X145573Y106797D01*
X145573Y108601D01*
X158967Y108601D01*
X158967Y106797D01*
X153369Y106797D01*
X153369Y92304D01*
G37*
G36*
X198368Y114600D02*
X187924Y114600D01*
X187924Y116405D01*
X196159Y116405D01*
X196159Y130897D01*
X198368Y130897D01*
X198368Y114600D01*
G37*
G36*
X182313Y92304D02*
X180104Y92304D01*
X180104Y108601D01*
X182313Y108601D01*
X182313Y92304D01*
G37*
G36*
X211305Y70008D02*
X209049Y70008D01*
X209049Y72541D01*
X211305Y72541D01*
X211305Y70008D01*
G37*
G36*
X211305Y92304D02*
X209049Y92304D01*
X209049Y94837D01*
X211305Y94837D01*
X211305Y92304D01*
G37*
G36*
X211305Y114600D02*
X209049Y114600D01*
X209049Y117133D01*
X211305Y117133D01*
X211305Y114600D01*
G37*
G36*
X92398Y69777D02*
X91786Y69793D01*
X91195Y69841D01*
X90625Y69922D01*
X90076Y70034D01*
X89547Y70179D01*
X89038Y70356D01*
X88551Y70565D01*
X88083Y70806D01*
X87640Y71078D01*
X87223Y71377D01*
X86832Y71704D01*
X86468Y72058D01*
X86131Y72441D01*
X85820Y72851D01*
X85536Y73290D01*
X85279Y73756D01*
X85050Y74246D01*
X84851Y74755D01*
X84683Y75285D01*
X84546Y75835D01*
X84439Y76404D01*
X84362Y76994D01*
X84317Y77603D01*
X84301Y78232D01*
X84316Y78863D01*
X84362Y79473D01*
X84437Y80062D01*
X84543Y80629D01*
X84678Y81175D01*
X84844Y81700D01*
X85041Y82203D01*
X85267Y82685D01*
X85522Y83142D01*
X85804Y83571D01*
X86113Y83973D01*
X86448Y84346D01*
X86811Y84691D01*
X87200Y85009D01*
X87617Y85298D01*
X88060Y85559D01*
X88527Y85791D01*
X89015Y85992D01*
X89524Y86162D01*
X90053Y86301D01*
X90602Y86409D01*
X91172Y86486D01*
X91763Y86532D01*
X92374Y86548D01*
X92845Y86539D01*
X93302Y86513D01*
X93747Y86470D01*
X94178Y86410D01*
X94596Y86333D01*
X95001Y86238D01*
X95393Y86126D01*
X95772Y85997D01*
X96138Y85851D01*
X96490Y85687D01*
X96830Y85506D01*
X97156Y85309D01*
X97470Y85093D01*
X97770Y84861D01*
X98057Y84611D01*
X98331Y84345D01*
X98590Y84062D01*
X98833Y83767D01*
X99058Y83458D01*
X99267Y83136D01*
X99459Y82801D01*
X99635Y82452D01*
X99794Y82090D01*
X99936Y81715D01*
X100061Y81326D01*
X100170Y80924D01*
X100262Y80509D01*
X100337Y80080D01*
X100396Y79638D01*
X100437Y79183D01*
X100462Y78714D01*
X100471Y78232D01*
X100456Y77600D01*
X100411Y76988D01*
X100336Y76396D01*
X100231Y75825D01*
X100096Y75273D01*
X99931Y74741D01*
X99736Y74230D01*
X99511Y73738D01*
X99257Y73271D01*
X98977Y72832D01*
X98670Y72422D01*
X98335Y72040D01*
X97974Y71686D01*
X97586Y71360D01*
X97171Y71063D01*
X96729Y70795D01*
X96263Y70556D01*
X95775Y70349D01*
X95266Y70175D01*
X94735Y70031D01*
X94183Y69920D01*
X93609Y69841D01*
X93014Y69793D01*
X92398Y69777D01*
G37*
%LPC*%
G36*
X92398Y71570D02*
X92736Y71577D01*
X93064Y71598D01*
X93383Y71633D01*
X93693Y71682D01*
X93994Y71745D01*
X94285Y71823D01*
X94567Y71914D01*
X94839Y72019D01*
X95103Y72139D01*
X95356Y72272D01*
X95601Y72420D01*
X95836Y72581D01*
X96062Y72757D01*
X96278Y72947D01*
X96683Y73368D01*
X97045Y73838D01*
X97358Y74347D01*
X97624Y74895D01*
X97841Y75483D01*
X98010Y76111D01*
X98076Y76440D01*
X98130Y76778D01*
X98173Y77127D01*
X98203Y77485D01*
X98221Y77854D01*
X98227Y78232D01*
X98221Y78612D01*
X98203Y78982D01*
X98173Y79341D01*
X98131Y79690D01*
X98078Y80028D01*
X98012Y80354D01*
X97845Y80976D01*
X97631Y81554D01*
X97368Y82090D01*
X97058Y82582D01*
X96700Y83032D01*
X96299Y83433D01*
X96083Y83614D01*
X95857Y83781D01*
X95622Y83934D01*
X95376Y84075D01*
X95121Y84202D01*
X94855Y84316D01*
X94580Y84416D01*
X94295Y84503D01*
X94000Y84576D01*
X93694Y84637D01*
X93379Y84683D01*
X93054Y84717D01*
X92719Y84737D01*
X92374Y84744D01*
X92032Y84737D01*
X91700Y84716D01*
X91378Y84683D01*
X91065Y84635D01*
X90762Y84574D01*
X90469Y84500D01*
X90186Y84411D01*
X89912Y84310D01*
X89649Y84195D01*
X89395Y84066D01*
X89151Y83924D01*
X88917Y83768D01*
X88692Y83598D01*
X88477Y83415D01*
X88078Y83009D01*
X87721Y82554D01*
X87412Y82059D01*
X87151Y81524D01*
X86937Y80947D01*
X86771Y80329D01*
X86652Y79671D01*
X86610Y79327D01*
X86580Y78972D01*
X86563Y78607D01*
X86557Y78232D01*
X86563Y77840D01*
X86580Y77459D01*
X86610Y77090D01*
X86651Y76731D01*
X86769Y76049D01*
X86934Y75411D01*
X87146Y74818D01*
X87406Y74271D01*
X87712Y73768D01*
X88066Y73310D01*
X88260Y73100D01*
X88464Y72902D01*
X88678Y72719D01*
X88903Y72549D01*
X89138Y72392D01*
X89383Y72250D01*
X89638Y72120D01*
X89904Y72005D01*
X90179Y71903D01*
X90466Y71815D01*
X90762Y71740D01*
X91069Y71679D01*
X91385Y71631D01*
X91713Y71597D01*
X92050Y71577D01*
X92398Y71570D01*
G37*
%LPD*%
D10*
X231000Y301100D03*
X231000Y326500D03*
X231000Y351900D03*
X231000Y377300D03*
X231000Y402700D03*
X231000Y428100D03*
X231000Y453500D03*
X231000Y478900D03*
X104000Y478900D03*
X104000Y453500D03*
X104000Y428100D03*
X104000Y402700D03*
X104000Y377300D03*
X104000Y351900D03*
X104000Y326500D03*
X104000Y301100D03*
X393500Y301100D03*
X393500Y326500D03*
X393500Y351900D03*
X393500Y377300D03*
X393500Y402700D03*
X393500Y428100D03*
X393500Y453500D03*
X393500Y478900D03*
X266500Y478900D03*
X266500Y453500D03*
X266500Y428100D03*
X266500Y402700D03*
X266500Y377300D03*
X266500Y351900D03*
X266500Y326500D03*
X266500Y301100D03*
X429000Y478842D03*
X429000Y453442D03*
X429000Y428042D03*
X429000Y402642D03*
X429000Y377242D03*
X429000Y351842D03*
X429000Y326442D03*
X429000Y301042D03*
X556000Y301042D03*
X556000Y326442D03*
X556000Y351842D03*
X556000Y377242D03*
X556000Y402642D03*
X556000Y428042D03*
X556000Y453442D03*
X556000Y478842D03*
X301958Y246400D03*
X301958Y221000D03*
X301958Y195600D03*
X301958Y170200D03*
X301958Y144800D03*
X301958Y119400D03*
X301958Y94000D03*
X301958Y68600D03*
X428958Y68600D03*
X428958Y94000D03*
X428958Y119400D03*
X428958Y144800D03*
X428958Y170200D03*
X428958Y195600D03*
X428958Y221000D03*
X428958Y246400D03*
D11*
X42500Y42500D03*
X622500Y42500D03*
X622500Y532500D03*
X42500Y532500D03*
D12*
X91200Y519800D03*
D10*
X116600Y519800D03*
X142000Y519800D03*
X167400Y519800D03*
X192800Y519800D03*
X218200Y519800D03*
X91200Y545200D03*
X116600Y545200D03*
X142000Y545200D03*
X167400Y545200D03*
X192800Y545200D03*
X218200Y545200D03*
X243600Y519800D03*
X243600Y545200D03*
X269000Y519800D03*
X294400Y519800D03*
X319800Y519800D03*
X345200Y519800D03*
X370600Y519800D03*
X396000Y519800D03*
X269000Y545200D03*
X294400Y545200D03*
X319800Y545200D03*
X345200Y545200D03*
X370600Y545200D03*
X396000Y545200D03*
X421400Y519800D03*
X421400Y545200D03*
X446800Y519800D03*
X472200Y519800D03*
X497600Y519800D03*
X523000Y519800D03*
X548400Y519800D03*
X573800Y519800D03*
X446800Y545200D03*
X472200Y545200D03*
X497600Y545200D03*
X523000Y545200D03*
X548400Y545200D03*
X573800Y545200D03*
X609400Y458570D03*
X634800Y458570D03*
X609400Y483970D03*
X634800Y483970D03*
D13*
X258764Y540484D02*
X258764Y545056D01*
X92648Y520672D02*
X91200Y519800D01*
X246972Y556848D02*
X258764Y545056D01*
X246972Y556848D02*
X113584Y556848D01*
X106364Y549628D01*
X106364Y546355D01*
X92648Y532639D01*
X92648Y520672D01*
X258764Y540484D02*
X267590Y531658D01*
X284423Y531658D01*
X294400Y521682D02*
X294400Y519800D01*
X294400Y521682D02*
X284423Y531658D01*
X104840Y276832D02*
X104840Y218920D01*
X104840Y276832D02*
X109412Y281404D01*
D14*
X104840Y218920D03*
X109412Y281404D03*
X94172Y287500D03*
X102388Y182344D03*
D13*
X94172Y191472D02*
X94172Y287500D01*
X94172Y191472D02*
X99368Y186276D01*
X99368Y185364D01*
X102388Y182344D01*
X188660Y165580D02*
X188660Y209776D01*
X115508Y282928D01*
X115508Y284452D01*
X109412Y290548D01*
X100268Y290548D01*
X92648Y298168D01*
X92648Y304264D01*
X104840Y316456D01*
X181040Y316456D01*
X231332Y366748D01*
X257240Y366748D01*
X266384Y375892D01*
X266500Y377300D01*
D14*
X188660Y165580D03*
D13*
X227308Y168080D02*
X229808Y165580D01*
X227308Y246900D02*
X277052Y296644D01*
X277052Y342364D01*
X267908Y351508D01*
X266500Y351900D01*
D14*
X229808Y165580D03*
D13*
X227308Y198390D02*
X227308Y246900D01*
X227308Y198390D02*
X223932Y195014D01*
X223932Y189987D01*
X227308Y186611D01*
X227308Y168080D01*
X278576Y161008D02*
X302960Y185392D01*
D14*
X278576Y161008D03*
X424880Y287500D03*
D13*
X309311Y185392D02*
X302960Y185392D01*
X309311Y185392D02*
X309987Y186068D01*
X323448Y186068D01*
X424880Y287500D01*
X293816Y100048D02*
X270956Y100048D01*
X293816Y100048D02*
X302960Y109192D01*
X306008Y109192D01*
X360872Y164056D01*
D14*
X270956Y100048D03*
X536132Y331696D03*
D13*
X360872Y196939D02*
X360872Y164056D01*
X534386Y331696D02*
X536132Y331696D01*
X534386Y331696D02*
X532514Y333568D01*
X497501Y333568D01*
X360872Y196939D01*
X290768Y148816D02*
X290768Y106144D01*
X290768Y148816D02*
X301436Y159484D01*
D14*
X290768Y106144D03*
X536132Y395704D03*
D13*
X536132Y390171D01*
X305446Y159484D01*
X301436Y159484D01*
X319724Y199108D02*
X319724Y212824D01*
D14*
X319724Y199108D03*
X536132Y423136D03*
D13*
X454064Y341068D01*
X428156Y341068D01*
X415197Y308297D02*
X319724Y212824D01*
X415197Y328109D02*
X428156Y341068D01*
X415197Y328109D02*
X415197Y308297D01*
X427928Y69568D02*
X315152Y69568D01*
X220116Y159884D02*
X220116Y162500D01*
X220116Y159484D02*
X220116Y157500D01*
X220116Y156868D01*
X427928Y69568D02*
X428958Y68600D01*
X557468Y453616D02*
X557468Y465808D01*
X572708Y481048D01*
X572708Y519148D01*
X557468Y453616D02*
X556000Y453442D01*
X572708Y519148D02*
X573800Y519800D01*
X106364Y516100D02*
X48452Y458188D01*
X106364Y516100D02*
X106364Y523720D01*
X117032Y534388D01*
X130748Y534388D01*
X141416Y545056D01*
X142000Y545200D01*
X266384Y506956D02*
X266384Y505000D01*
X266384Y503340D01*
X266384Y479524D01*
X266384Y506956D02*
X254192Y519148D01*
X254192Y535912D01*
X245048Y545056D01*
X266384Y479524D02*
X266500Y478900D01*
X245048Y545056D02*
X243600Y545200D01*
X319724Y537164D02*
X319724Y534388D01*
X319724Y537164D02*
X319724Y545056D01*
X319724Y534388D02*
X304484Y519148D01*
X304484Y514576D01*
X296864Y506956D01*
X267500Y506956D02*
X266384Y506956D01*
X267500Y506956D02*
X270000Y506956D01*
X296864Y506956D01*
X319724Y545056D02*
X319800Y545200D01*
X395924Y520672D02*
X396000Y519800D01*
X555944Y311884D02*
X555944Y301216D01*
X555944Y311884D02*
X545276Y322552D01*
X545276Y441424D02*
X555944Y452092D01*
X555944Y301216D02*
X556000Y301042D01*
X555944Y452092D02*
X556000Y453442D01*
X217500Y159484D02*
X107888Y159484D01*
X218132Y159484D02*
X220116Y159484D01*
X88076Y418564D02*
X48452Y458188D01*
X46928Y456664D01*
D14*
X46928Y456664D03*
D13*
X288898Y78506D02*
X288776Y78384D01*
X288898Y78506D02*
X306214Y78506D01*
X315152Y69568D01*
X319724Y534388D02*
X322500Y534388D01*
X355807Y534388D01*
X357487Y536068D01*
X362514Y536068D01*
X364194Y534388D01*
X545276Y441424D02*
X545276Y342580D01*
X544352Y341656D01*
X544352Y336629D01*
X545276Y335704D01*
X545276Y322552D01*
X220116Y157500D02*
X218132Y159484D01*
X217500Y159484D01*
X217500Y159884D01*
X218808Y161192D01*
X220116Y162500D01*
X220116Y159884D02*
X220116Y159484D01*
X220116Y159884D02*
X218808Y161192D01*
X217500Y159484D02*
X220116Y156868D01*
X266384Y505000D02*
X267500Y506116D01*
X267500Y506956D01*
X270000Y506956D02*
X266384Y503340D01*
X319724Y537164D02*
X322500Y534388D01*
X364194Y534388D02*
X370021Y534388D01*
X383737Y520672D01*
X395924Y520672D01*
X220116Y185181D02*
X220116Y162500D01*
D14*
X212316Y191488D03*
D13*
X213809Y191488D01*
X220116Y185181D01*
X88076Y193258D02*
X88076Y418564D01*
X96320Y171052D02*
X107888Y159484D01*
X96320Y185014D02*
X88076Y193258D01*
X96320Y185014D02*
X96320Y171052D01*
X279728Y78384D02*
X288776Y78384D01*
X279728Y78384D02*
X241060Y117052D01*
X241060Y139688D02*
X239721Y141027D01*
X241060Y139688D02*
X241060Y117052D01*
X239721Y141027D02*
X235957Y141027D01*
X220116Y156868D01*
X531560Y413992D02*
X536132Y413992D01*
D14*
X536132Y413992D03*
X398972Y270736D03*
D13*
X398972Y287554D01*
X420181Y308763D01*
X422712Y308763D02*
X424897Y310948D01*
X422712Y308763D02*
X420181Y308763D01*
X428516Y310948D02*
X531560Y413992D01*
X428516Y310948D02*
X424897Y310948D01*
X126176Y231112D02*
X101792Y206728D01*
D14*
X126176Y231112D03*
X101792Y206728D03*
D13*
X429452Y247876D02*
X437072Y255496D01*
X429452Y247876D02*
X428958Y246400D01*
X266384Y299692D02*
X245048Y299692D01*
X235904Y290548D01*
X218384Y290548D02*
X113984Y290548D01*
X218384Y290548D02*
X235904Y290548D01*
X113984Y290548D02*
X104840Y299692D01*
X266384Y299692D02*
X266500Y301100D01*
X104840Y299692D02*
X104000Y301100D01*
X306008Y83284D02*
X363920Y141196D01*
X427928Y246352D02*
X428958Y246400D01*
X289366Y83284D02*
X287514Y81432D01*
X289366Y83284D02*
X306008Y83284D01*
X541304Y335366D02*
X541304Y342918D01*
X541304Y335366D02*
X542200Y334470D01*
X542200Y328620D01*
X534648Y321068D02*
X494987Y321068D01*
X437072Y263154D01*
X437072Y255496D01*
X534648Y321068D02*
X542200Y328620D01*
X541432Y467514D02*
X544987Y471068D01*
X541432Y467514D02*
X541432Y462487D01*
X548226Y471068D02*
X556000Y478842D01*
X548226Y471068D02*
X544987Y471068D01*
X541432Y462487D02*
X542200Y461719D01*
X542200Y343814D01*
X541304Y342918D01*
X363920Y195676D02*
X363920Y141196D01*
X363920Y195676D02*
X414596Y246352D01*
X427928Y246352D01*
X218384Y290548D02*
X218384Y191224D01*
X223712Y185896D01*
X280991Y81432D02*
X287514Y81432D01*
X280991Y81432D02*
X244108Y118314D01*
X244108Y140950D01*
X223712Y161346D02*
X223712Y185896D01*
X223712Y161346D02*
X244108Y140950D01*
X557468Y327124D02*
X616904Y386560D01*
X557468Y327124D02*
X556000Y326442D01*
X427928Y106144D02*
X427928Y95476D01*
X428958Y94000D01*
X117032Y437500D02*
X117032Y439900D01*
X117032Y437500D02*
X117032Y380464D01*
X117032Y439900D02*
X104840Y452092D01*
X104000Y453500D01*
X245048Y452092D02*
X266384Y452092D01*
X245048Y452092D02*
X232856Y439900D01*
X119432Y439900D02*
X117032Y439900D01*
X119432Y439900D02*
X232856Y439900D01*
X266384Y452092D02*
X266500Y453500D01*
D14*
X616904Y386560D03*
X117032Y380464D03*
D13*
X414810Y119262D02*
X427928Y106144D01*
D14*
X416409Y239583D03*
D13*
X415711Y239583D01*
X414810Y238682D01*
X414810Y119262D01*
X117032Y437500D02*
X119432Y439900D01*
X41380Y126076D02*
X41380Y46120D01*
X42500Y45000D02*
X42500Y42500D01*
X42500Y45000D02*
X41380Y46120D01*
X43880Y450568D02*
X49976Y450568D01*
X43880Y450568D02*
X40832Y453616D01*
X40832Y529816D01*
X42356Y531340D01*
X42500Y532500D01*
X621432Y440014D02*
X621432Y434987D01*
X622500Y441082D02*
X622500Y532500D01*
X622500Y441082D02*
X621432Y440014D01*
X621432Y434987D02*
X622972Y433447D01*
X622972Y42972D01*
X622500Y42500D01*
X84184Y416360D02*
X49976Y450568D01*
X84184Y416360D02*
X84184Y155562D01*
X70899Y142277D01*
X57581Y142277D01*
X41380Y126076D01*
X319724Y346936D02*
X331916Y334744D01*
X319724Y346936D02*
X319724Y394180D01*
X394400Y468856D01*
X398972Y468856D01*
X446216Y516100D01*
X446216Y519148D01*
X446800Y519800D01*
D14*
X331916Y334744D03*
D13*
X325820Y349984D02*
X392876Y417040D01*
X397448Y417040D01*
X418784Y438376D01*
X418784Y458188D01*
X429452Y468856D01*
X434024Y468856D01*
X472124Y506956D01*
X472124Y519148D01*
X472200Y519800D01*
D14*
X325820Y349984D03*
D13*
X235904Y229588D02*
X235904Y218920D01*
X235904Y229588D02*
X382208Y375892D01*
X382208Y380464D01*
X394400Y392656D01*
X398972Y392656D01*
X418784Y412468D01*
X418784Y432280D01*
X429452Y442948D01*
X434024Y442948D01*
X496508Y505432D01*
X496508Y519148D01*
X497600Y519800D01*
D14*
X235904Y218920D03*
D13*
X243524Y225016D02*
X251144Y225016D01*
X392876Y366748D01*
X403544Y366748D01*
X429452Y392656D01*
X435548Y392656D01*
X563564Y520672D01*
X563564Y535912D01*
X572708Y545056D01*
X573800Y545200D01*
D14*
X243524Y225016D03*
X165800Y241780D03*
X207778Y199802D03*
D13*
X165800Y241780D01*
D14*
X72500Y557500D03*
X17500Y502500D03*
X50000Y472500D03*
X65000Y424704D03*
X130000Y380000D03*
X172500Y305000D03*
X32500Y95296D03*
X165000Y170000D03*
X205000Y167500D03*
X98420Y390000D03*
X360000Y62500D03*
X372500Y102500D03*
X382500Y180000D03*
X350000Y142500D03*
X260000Y130000D03*
X182500Y535000D03*
X232500Y532500D03*
X177500Y505000D03*
X307500Y387500D03*
X315000Y502500D03*
X332500Y550780D03*
X307100Y550780D03*
X230900Y550780D03*
X158410Y529090D03*
X360000Y530000D03*
X365000Y500000D03*
X495000Y415000D03*
X408700Y514220D03*
X405000Y502084D03*
X580000Y400000D03*
X550420Y339142D03*
X423420Y364542D03*
X552500Y280000D03*
X575000Y255000D03*
X615000Y140000D03*
X615000Y97500D03*
X647500Y182500D03*
X647500Y222500D03*
X647500Y248844D03*
X647500Y272500D03*
X647500Y299644D03*
X647500Y322956D03*
X640000Y427500D03*
X547500Y465000D03*
X502500Y372500D03*
X360000Y365000D03*
X405000Y415000D03*
X410000Y290000D03*
X442500Y335000D03*
X421265Y315897D03*
X423378Y132100D03*
X423378Y157500D03*
X423378Y182900D03*
X423378Y208300D03*
X423378Y233700D03*
X517500Y327500D03*
X410136Y254864D03*
X103045Y534455D03*
X129300Y550780D03*
X101428Y195000D03*
X202500Y240000D03*
X247500Y207500D03*
X265000Y247500D03*
X237500Y277500D03*
X255000Y65000D03*
X317500Y105000D03*
X285000Y90000D03*
X312500Y180000D03*
X281910Y525590D03*
X260460Y529540D03*
X385245Y527745D03*
X230000Y192500D03*
X287500Y272500D03*
X260000Y267500D03*
X267500Y227500D03*
X255000Y285000D03*
X225000Y277500D03*
X207500Y270000D03*
X630000Y140000D03*
X197500Y147500D03*
X170000Y192500D03*
X410000Y115000D03*
X350000Y185000D03*
X427500Y272500D03*
X402500Y315000D03*
X497500Y302864D03*
X510000Y315000D03*
X547403Y230097D03*
X561692Y364654D03*
X90252Y182500D03*
X285000Y51996D03*
X180000Y145297D03*
X112500Y145297D03*
X82500Y145297D03*
X60020Y132500D03*
X190000Y59114D03*
X187500Y59114D03*
X647500Y350000D03*
D13*
X640000Y350000D01*
X627500Y362500D01*
X627500Y437500D01*
D14*
X627500Y437500D03*
X432500Y527500D03*
D13*
X370600Y541900D02*
X370600Y545200D01*
X370600Y541900D02*
X378687Y533813D01*
X426187Y533813D02*
X432500Y527500D01*
X426187Y533813D02*
X378687Y533813D01*
M02*
