G04 EAGLE Gerber RS-274X export*
G75*
%MOMM*%
%FSLAX34Y34*%
%LPD*%
%INSoldermask Bottom*%
%IPPOS*%
%AMOC8*
5,1,8,0,0,1.08239X$1,22.5*%
G01*
G04 Define Apertures*
%ADD10C,1.727200*%
%ADD11C,6.403200*%
%ADD12R,1.727200X1.727200*%
%ADD13C,0.959600*%
D10*
X231000Y301100D03*
X231000Y326500D03*
X231000Y351900D03*
X231000Y377300D03*
X231000Y402700D03*
X231000Y428100D03*
X231000Y453500D03*
X231000Y478900D03*
X104000Y478900D03*
X104000Y453500D03*
X104000Y428100D03*
X104000Y402700D03*
X104000Y377300D03*
X104000Y351900D03*
X104000Y326500D03*
X104000Y301100D03*
X393500Y301100D03*
X393500Y326500D03*
X393500Y351900D03*
X393500Y377300D03*
X393500Y402700D03*
X393500Y428100D03*
X393500Y453500D03*
X393500Y478900D03*
X266500Y478900D03*
X266500Y453500D03*
X266500Y428100D03*
X266500Y402700D03*
X266500Y377300D03*
X266500Y351900D03*
X266500Y326500D03*
X266500Y301100D03*
X429000Y478842D03*
X429000Y453442D03*
X429000Y428042D03*
X429000Y402642D03*
X429000Y377242D03*
X429000Y351842D03*
X429000Y326442D03*
X429000Y301042D03*
X556000Y301042D03*
X556000Y326442D03*
X556000Y351842D03*
X556000Y377242D03*
X556000Y402642D03*
X556000Y428042D03*
X556000Y453442D03*
X556000Y478842D03*
X301958Y246400D03*
X301958Y221000D03*
X301958Y195600D03*
X301958Y170200D03*
X301958Y144800D03*
X301958Y119400D03*
X301958Y94000D03*
X301958Y68600D03*
X428958Y68600D03*
X428958Y94000D03*
X428958Y119400D03*
X428958Y144800D03*
X428958Y170200D03*
X428958Y195600D03*
X428958Y221000D03*
X428958Y246400D03*
D11*
X42500Y42500D03*
X622500Y42500D03*
X622500Y532500D03*
X42500Y532500D03*
D12*
X91200Y519800D03*
D10*
X116600Y519800D03*
X142000Y519800D03*
X167400Y519800D03*
X192800Y519800D03*
X218200Y519800D03*
X91200Y545200D03*
X116600Y545200D03*
X142000Y545200D03*
X167400Y545200D03*
X192800Y545200D03*
X218200Y545200D03*
X243600Y519800D03*
X243600Y545200D03*
X269000Y519800D03*
X294400Y519800D03*
X319800Y519800D03*
X345200Y519800D03*
X370600Y519800D03*
X396000Y519800D03*
X269000Y545200D03*
X294400Y545200D03*
X319800Y545200D03*
X345200Y545200D03*
X370600Y545200D03*
X396000Y545200D03*
X421400Y519800D03*
X421400Y545200D03*
X446800Y519800D03*
X472200Y519800D03*
X497600Y519800D03*
X523000Y519800D03*
X548400Y519800D03*
X573800Y519800D03*
X446800Y545200D03*
X472200Y545200D03*
X497600Y545200D03*
X523000Y545200D03*
X548400Y545200D03*
X573800Y545200D03*
X609400Y458570D03*
X634800Y458570D03*
X609400Y483970D03*
X634800Y483970D03*
D13*
X104840Y218920D03*
X109412Y281404D03*
X94172Y287500D03*
X102388Y182344D03*
X188660Y165580D03*
X229808Y165580D03*
X278576Y161008D03*
X424880Y287500D03*
X270956Y100048D03*
X536132Y331696D03*
X290768Y106144D03*
X536132Y395704D03*
X319724Y199108D03*
X536132Y423136D03*
X46928Y456664D03*
X212316Y191488D03*
X536132Y413992D03*
X398972Y270736D03*
X126176Y231112D03*
X101792Y206728D03*
X616904Y386560D03*
X117032Y380464D03*
X416409Y239583D03*
X331916Y334744D03*
X325820Y349984D03*
X235904Y218920D03*
X243524Y225016D03*
X165800Y241780D03*
X207778Y199802D03*
X72500Y557500D03*
X17500Y502500D03*
X50000Y472500D03*
X65000Y424704D03*
X130000Y380000D03*
X172500Y305000D03*
X32500Y95296D03*
X165000Y170000D03*
X205000Y167500D03*
X98420Y390000D03*
X360000Y62500D03*
X372500Y102500D03*
X382500Y180000D03*
X350000Y142500D03*
X260000Y130000D03*
X182500Y535000D03*
X232500Y532500D03*
X177500Y505000D03*
X307500Y387500D03*
X315000Y502500D03*
X332500Y550780D03*
X307100Y550780D03*
X230900Y550780D03*
X158410Y529090D03*
X360000Y530000D03*
X365000Y500000D03*
X495000Y415000D03*
X408700Y514220D03*
X405000Y502084D03*
X580000Y400000D03*
X550420Y339142D03*
X423420Y364542D03*
X552500Y280000D03*
X575000Y255000D03*
X615000Y140000D03*
X615000Y97500D03*
X647500Y182500D03*
X647500Y222500D03*
X647500Y248844D03*
X647500Y272500D03*
X647500Y299644D03*
X647500Y322956D03*
X640000Y427500D03*
X547500Y465000D03*
X502500Y372500D03*
X360000Y365000D03*
X405000Y415000D03*
X410000Y290000D03*
X442500Y335000D03*
X421265Y315897D03*
X423378Y132100D03*
X423378Y157500D03*
X423378Y182900D03*
X423378Y208300D03*
X423378Y233700D03*
X517500Y327500D03*
X410136Y254864D03*
X103045Y534455D03*
X129300Y550780D03*
X101428Y195000D03*
X202500Y240000D03*
X247500Y207500D03*
X265000Y247500D03*
X237500Y277500D03*
X255000Y65000D03*
X317500Y105000D03*
X285000Y90000D03*
X312500Y180000D03*
X281910Y525590D03*
X260460Y529540D03*
X385245Y527745D03*
X230000Y192500D03*
X287500Y272500D03*
X260000Y267500D03*
X267500Y227500D03*
X255000Y285000D03*
X225000Y277500D03*
X207500Y270000D03*
X630000Y140000D03*
X197500Y147500D03*
X170000Y192500D03*
X410000Y115000D03*
X350000Y185000D03*
X427500Y272500D03*
X402500Y315000D03*
X497500Y302864D03*
X510000Y315000D03*
X547403Y230097D03*
X561692Y364654D03*
X90252Y182500D03*
X285000Y51996D03*
X180000Y145297D03*
X112500Y145297D03*
X82500Y145297D03*
X60020Y132500D03*
X190000Y59114D03*
X187500Y59114D03*
X647500Y350000D03*
X627500Y437500D03*
X432500Y527500D03*
M02*
