G04 EAGLE Gerber RS-274X export*
G75*
%MOMM*%
%FSLAX34Y34*%
%LPD*%
%INSolderpaste Top*%
%IPPOS*%
%AMOC8*
5,1,8,0,0,1.08239X$1,22.5*%
G01*
G04 Define Apertures*
%ADD10R,1.100000X1.000000*%
%ADD11R,0.500000X0.250000*%
%ADD12R,0.900000X1.600000*%
%ADD13R,1.270000X1.270000*%
%ADD14R,0.559000X1.194000*%
D10*
X538422Y250922D03*
X521422Y250922D03*
X107540Y249120D03*
X90540Y249120D03*
X596040Y425760D03*
X613040Y425760D03*
X245600Y249120D03*
X228600Y249120D03*
D11*
X164400Y235100D03*
D12*
X173900Y227600D03*
D11*
X164400Y230100D03*
X164400Y225100D03*
X164400Y220100D03*
X183400Y220100D03*
X183400Y225100D03*
X183400Y230100D03*
X183400Y235100D03*
D13*
X32272Y113600D03*
X52272Y113600D03*
X72272Y113600D03*
X92272Y113600D03*
X129772Y121100D03*
X149772Y121100D03*
X169772Y121100D03*
X189772Y121100D03*
X116400Y42272D03*
X136400Y42272D03*
X156400Y42272D03*
X176400Y42272D03*
X206400Y42272D03*
X226400Y42272D03*
X246400Y42272D03*
X266400Y42272D03*
X647728Y209700D03*
X647728Y235100D03*
X647728Y260500D03*
X647728Y285900D03*
X647728Y311300D03*
X647728Y336700D03*
X647728Y362100D03*
X647728Y387500D03*
X89772Y214820D03*
X89772Y194820D03*
X17272Y480572D03*
X17272Y455172D03*
X17272Y429772D03*
D10*
X236500Y180000D03*
X253500Y180000D03*
D13*
X647728Y127300D03*
X647728Y152700D03*
D14*
X528877Y219942D03*
X528877Y169392D03*
X565457Y219942D03*
X553517Y169392D03*
X540817Y169392D03*
X553517Y219942D03*
X540817Y219942D03*
X565457Y169392D03*
M02*
