M48
;GenerationSoftware,Autodesk,EAGLE,9.7.0*%
;CreationDate,2023-03-18T09:59:53Z*%
FMAT,2
ICI,OFF
METRIC,TZ,000.000
T3C0.350
T2C1.016
T1C2.750
%
G90
M71
T1
X4250Y53250
X62250Y53250
X62250Y4250
X4250Y4250
T2
X63480Y48397
X29440Y51980
X60940Y48397
X63480Y45857
X60940Y45857
X57380Y54520
X54840Y54520
X52300Y54520
X49760Y54520
X47220Y54520
X44680Y54520
X57380Y51980
X54840Y51980
X24360Y54520
X9120Y51980
X11660Y51980
X14200Y51980
X16740Y51980
X19280Y51980
X21820Y51980
X9120Y54520
X11660Y54520
X14200Y54520
X16740Y54520
X19280Y54520
X21820Y54520
X24360Y51980
X52300Y51980
X26900Y51980
X49760Y51980
X31980Y51980
X34520Y51980
X37060Y51980
X39600Y51980
X26900Y54520
X29440Y54520
X31980Y54520
X34520Y54520
X37060Y54520
X39600Y54520
X42140Y51980
X42140Y54520
X44680Y51980
X47220Y51980
T3
X10250Y55250
X9750Y53273
X17250Y48250
X14750Y50500
X12750Y50250
X16312Y45500
X4250Y11970
X18010Y52538
X17794Y51206
X5250Y43500
X63750Y43000
X23750Y47500
X18000Y55250
X11000Y46750
M30